<svg viewBox="0 0 800 601" xmlns="http://www.w3.org/2000/svg" xmlns:serif="http://www.serif.com/" fill-rule="evenodd" clip-rule="evenodd" stroke-linejoin="round" stroke-miterlimit="1.4"><path serif:id="Manage your business" fill="#fff" d="M0 .6h800v600H0z"/><path serif:id="background shadow" d="M215.5 458.2c-39.8 1-76.6-66.6-20.3-134.1 68-81.4 8.3-116.7 43.5-147.2 46.5-40.1 93.2 19.2 130.2 47 74.5 56 92-212.5 213.7-123.5 77 56.5-35.7 156.3 30 206.5 64.4 49.3 60.5 153.5-83.4 152.4l-313.7-1z" fill="#e5e1f9" fill-opacity=".3"/><path d="M524 89l-270.3 23.2v342l267.3 3.3 3-368.4z" fill="#fff"/><clipPath id="a"><path d="M524 89l-270.3 23.2v342l267.3 3.3 3-368.4z"/></clipPath><g clip-path="url(#a)"><path d="M544.4 76.7C506.7 114.2 465.8 162.2 438 208c-13.9 22.7-19.6 49.3-35.8 70.8-15.4 20.5-39.5 30.6-58.4 47.2-20.1 17.7-33.7 40.1-49.5 61.4-18.7 25.2-46 36.6-68 58-5.5 5.5-19.3 18.4-14.9 27.7 12.7 26.9 48.7 35.4 75 40.4 71.2 13.6 146.6 9.1 218.7 9.2 20.1 0 80.6 9.8 96.8-8.3 32.8-36.3 28.5-103.7 29.3-148 1-55.2 11.3-150.5-11.5-201.4-10.5-23.6-39.6-44-54.5-68" fill="#f2f0fc"/><path d="M480.8 251.1l-198.2 10.5v159h197.1l1-169.5z" fill="#fff"/><path d="M480.7 249.2h.6l.3.2.3.1.2.2.2.3.2.2.1.3v.3l.1.3.3 40.5.2 30.1v18.7l-.3 18.2-.8 29.3-.7 29.4v3.4l-.1.2v.3l-.2.3-.2.2-.2.2-.2.1-.2.1H470.5l-18.8.2-30 .6-30 .5-11.6.2h-7.3l-19-.3-30-.8-29.9-.8-11.3-.2h-.2l-.2-.1v-.1l-.2-.1V420.9l-.1-.1v-1.5l-.3-17.7-.8-28.6-.8-28.3-.4-17.3.3-15.8.6-25.8.6-24.2v-.5l.2-.2.1-.3.2-.1.2-.2h.3l.2-.2h.3l12.1-.4 21.4-1.4 33.9-2.4 33.8-2.4 21-1.4 15.1-.6 24.2-1 35.7-1.3h.9zm-35.3 6.3l-23.5 1.6-14.6.9-20.6.8-33.3 1.2-33.7 1.2-21.1.8.2.2-14.6.8v1l.6 25 .6 24.5.2 14.7-.3 16.1-.8 26.8-.8 27.5-.3 17.2v4h.1l14-.2 29.1-.8 28.8-.8 17.9-.3h6.9l10.9.2 28.5.6 28.9.5 18.2.3-.2-.2h11.7v-6.3l-.4-29-.4-28.8-.1-17.7.2-18 .6-29 .7-37.2-33.4 2.4z" fill="#d2ccf5"/><path d="M371.7 471.7c0 10.4-8.4 19-18.9 19.2L229 493.4 185.2 543l-1.4-148.7a19.3 19.3 0 0 1 18.9-19.4l149.4-3a19.2 19.2 0 0 1 19.6 19.3v80.5z" fill="#34219e" fill-opacity=".1"/></g><path d="M524.9 85.5l.6.2.5.3.5.4.4.5.3.5.2.5.2.6v.6l-.3 71-.3 51.9-.3 30.1-.4 30.4-.6 39.1-1.5 94-.8 52v.3l-.2.4-.1.3-.2.3-.3.3-.3.3-.3.1-.3.2h-.8l-38.6-.7-44.8-.8-20-.3-18-.2-16-.2-17.7-.2-40-.2-72.1-.3h-.5l-.4-.2-.5-.2-.4-.2-.3-.4-.3-.4-.2-.4-.1-.4v-.5l-.1-8.6-.8-84.8-.3-35.3v-46l.2-24 .5-57.7.6-57 .2-23.4V111.8l.2-.4.2-.3.2-.4.2-.2.3-.3.4-.1.3-.2h.4l4.5-.4 23.9-2 32.9-3 80.3-7.3 125.8-11.5 2.8-.3h.6l.6.1zm-126.4 17.2l-78.8 6.3-32.3 2.6-23.4 2-8 .7v8.7l.3 22.7.6 55.3.6 55.4.1 23 .1 17.5-.1 26.5-.3 34-.7 82h-.1v12.1l72.1 1.5 38.1.7 17 .3 15.4.2 17.2.2 19 .2 42.8.3-.2-.3 40.7.5V268.6l.2-29.8.2-29.5.6-50.8.7-65.5-121.8 9.7z" fill="#231768"/><path d="M343.8 344.9l-34 3-.9 49.5h34l.9-52.5z" fill="#e5e1f9"/><path d="M344.1 343.7h.2l.2.1.2.2.1.1.1.2.1.2v.4l.3 9.7.1 7.2v4.5l-.2 4.4-.5 7-.5 7-.2 4.4v4.5l.2 3.8v.5l-.1.2-.1.2-.2.2-.2.2h-.2l-.2.1-.3.1-7 .4h-3l-1.9.1-4.8-.2-7.7-.6-7.6-.5h-2l-.1-.1h-.1v-.2h-.1v-.1h-.1v-.2l-.1-.1-.1-3-.4-7-.4-6.9-.2-4.2.3-3.9.5-6.3.5-6.3.2-4v-5.4l-.1-2.5V347.3l.2-.1.1-.2.1-.1.2-.2h.2l.2-.1 2.2-.3 8.2-1.1 5.1-.7 3.7-.2 5.9-.3 8.7-.4H344zm-8.2 3.6l-5.3.7-3.2.4-4.8.2-7.8.3-.1-.2-3.7.3-.2 3.7-.3 4.7.1 3.7.3 5.7.3 5.5.1 3.3-.3 3.7-.6 6.3-.6 6.6-.3.2v4-.1.6-.1l3.7-.1 6.7-.5 6.3-.5 3.8-.3h1.5l2.4.2.2.3h6.2l.1.1h1.1l.1.1.3-5.3.3-4-.1-4.3-.3-7-.2-6.7-.1-4 .1-4.2.4-6.7.4-7.5-6.5.9zM394.8 303l-34 3-1.5 89.7h34l1.5-92.8z" fill="#e5e1f9"/><path d="M395.1 301.7h.2l.2.1.2.2.1.1.2.2v.4l.1.2.1 14 .1 10.6v6.5l-.3 6.3-.5 10.1-.5 10.2-.3 6.4v6.5l.3 10.3.2 10.3V396l-.1.3-.2.3-.1.3-.3.3h-.1l-.1.2-.4.1-.3.1h-1.5l-7.1-.2-11.3-.5-11.3-.5-3-.1h-.2l-.2-.1v-.2h-.1V395.7l-.2-5.9-.4-9.9-.3-9.9-.1-6 .2-5.5.6-9 .5-9 .3-5.7V327l-.2-12-.2-9.2v-.3l.1-.3.1-.2.2-.3.2-.2.2-.2.2-.1.3-.1.3-.1 6.8-.8 5.4-.4 8.7-.5 12.8-.7h.7zm-12 4l-7.7.8-4.8.6-.2-.2-6.8.6h-1l-.5 10-.6 11-.3 7v5.5l.3 8.5.3 8.3v5l-.3 5.6-.7 9.4-.6 9.7-.3.2v7.4l4.6-.2 9.7-.5 9.1-.5 5.5-.2h2.6l.1-3.3.6-9.6.5-9.6.3-6.1v-6.4l-.3-10-.2-10v-6.1l.1-6.2.5-10 .5-12-10.4 1.2zM456.4 270.1l-34 2-2 121.8h33.9l2-123.8z" fill="#e5e1f9"/><path d="M456.7 268.9h.2l.2.2h.1l.2.2v.2l.2.2v.4l.1 17.5v21.1l-.3 7.9-.6 12.7-.6 12.6-.3 8v8l.2 12.9.2 12.8v10.3l-.1.3-.1.3-.2.3-.2.3-.2.2-.3.2-.3.1H452l-14.1-.5-14.1-.5-3.5-.1h-.2v-.1h-.1l-.1-.1v-.1l-.1-.2v-8.7l-.4-12.3-.3-12.2-.1-7.5.3-6.7.6-11.2.6-11.2.3-7v-9.5l-.2-15-.1-14.9v-6.4l.2-.3.2-.2.2-.3.2-.2.3-.1.3-.1h.3l6.7-.4 11-.4 16-.5h.8zm-15.1 3.8l-9.7.8-6 .4h-1.6l-.3 7-.6 13.9-.6 14-.4 9 .1 6.7.2 10.7.3 10.5v6.3l-.3 7-.8 12-.7 12-.3 7.6v2.7l5-.2 12-.5 11.3-.5-.1-.1h3.3v-7.2l.3-4.7.5-12.1.6-12.2.3-7.7v-8l-.2-12.5-.1-12.5v-7.6l.2-7.8.4-12.6.6-15.6-13.4 1.2z" fill="#e5e1f9"/><path d="M510.8 86.6v126.2l-126 5.3v-19l126-112.5z" fill="#34219e" fill-opacity=".1"/><path d="M498.3 148L286 166" fill="#fff"/><path d="M499.6 146.7l.6 1.2-.4 1.4-1.3.7h-.2l-10.3 1.5-7 1-4.3.4-6.2.2-9.8.3-9.9.2-6.2.3-4.6.6-7.3 1.3-7.3 1.2-4.4.6h-13l-8.2-.1h-5l-5.3.9-8.5 1.4-8.4 1.5-5.4.9h-2l-3.4.2-8.6.2-8.6.1-5.3.2-5.3.7-8.5 1.3-8.4 1.2-5.2.7-5.4.3-8.7.4-11.7.4-1.8-.4-.8-1.3.6-1.3 1.7-.8 11.6-1.5 8.7-1.1 5.3-.7 5.3-.1 8.5-.2 8.5-.2 5.3-.2 5.4-.7 8.5-1.3 8.5-1.2 3.2-.5 2.1-.2 5.4-.1h8.6l8.6.1 5.3-.1 5-.8 8-1.4 8-1.5 4.9-.8h11.8l7.4-.1 4.7-.1 6.1-.8 9.8-1.4 9.8-1.5 6-.8 4.4-.2 7-.2 10.4-.3h.3l1.4.5z" fill="#d2ccf5"/><path d="M495.7 207L286 218.9" fill="#fff"/><path d="M495.4 205.2h.2l1.4.5.6 1.2-.5 1.4-1.3.7h-.2l-10.2 1.1-6.9.8-4.3.4h-31.5l-4.6.5-7.3 1-7.2 1-4.4.5h-4.8l-8-.4-8-.3-5-.1-5.2.6-8.3 1.3-8.4 1.2-5.3.7h-13.8l-8.5-.1h-5.3l-5.2.6-8.3 1-8.3 1-5.2.6h-5.3l-8.6.2H286l-1.8-.4-.7-1.3.6-1.3 1.7-.7 11.5-1.2 8.6-.9 5.3-.4h13.5l8.4.1h5.3l5.3-.6 8.4-1 8.4-1 3.2-.4 2-.2h5.4l8.4.4 8.5.3h5.3l4.9-.6 8-1.2 7.8-1.2 4.8-.7h4.4l7.3.3 7.3.1h4.6l6-.5 9.7-1.2 9.7-1.1 6-.6 4.3-.1h17.2z" fill="#d2ccf5"/><path d="M509.3 68.8L453.8 72l-76.5 4.4c2.1 48.9 1.5 94.7-14.7 123.9l132-7.6c17.3-33.5 17.8-77.5 14.7-123.9z" fill="#ff0076"/><path d="M442.4 100.1c-17 .8-31 15.8-31 33.4a29.8 29.8 0 0 0 31 30.5c17.1-.7 31-15.7 31-33.3l-15.5.7c0 8.8-7 16.3-15.5 16.7a15 15 0 0 1-15.5-15.3c0-8.8 7-16.3 15.5-16.7v-16z" fill="#fff"/><path d="M471 121.8c-3-10-10.7-17.6-20.5-20.2l-9.1 31 29.6-10.8z" fill="#fff"/><path d="M406.3 37.2h1.4l.2.1H408.5l.2.1H409l.2.1h.2l.2.1h.2l.2.1.2.1h.2l.1.2h.2l.2.1h.2l.2.2h.1l.2.1.2.1.2.1.1.1.2.1h.2l.1.2h.2l.2.2.1.1.2.1.2.1.1.1.2.2h.1l.2.2.1.1.2.1.1.2h.2l.1.2.2.1.1.2.2.1.1.2h.1l.2.2.1.2.2.1v.2l.2.1.1.2.2.1v.2l.2.1.1.2.1.1.2.2v.1l.2.2v.1l.2.2v.2l.2.1v.2l.2.2v.1l.2.2v.2l.1.1.1.2.1.2v.1l.2.2v.2l.1.2v.1l.2.2v.4l.1.1.1.2v.2l.1.2v.2l.1.1v.2l.1.2v.2l.1.2V48.9l.1.2V49.7l.1.2v.7l.1.2V52.6l.6 8.8.3 6.5.2 4-.3 4-.5 6.4-.6 6.3-.2 4V95.5l-.1.2v.5l-.1.2V96.7l-.1.2V97.2l-.1.2v.1l-.1.2v.2l-.1.1v.2l-.1.1v.2l-.1.2v.1l-.1.2v.1l-.1.2-.1.1v.2l-.1.2-.1.1v.2l-.2.1v.2l-.1.1v.2l-.2.1v.2l-.1.1-.1.2-.1.1-.1.1v.2l-.2.1v.2l-.2.1v.1l-.2.2v.1l-.2.2-.2.2v.2h-.2l-.1.2-.1.2h-.1l-.1.2-.2.1v.2h-.2l-.1.2-.1.1-.2.1-.1.2h-.1l-.2.2v.1l-.2.1-.2.1v.1l-.2.1-.2.1-.1.1-.2.2-.2.2h-.2l-.1.1-.2.1-.1.1-.2.1-.1.1-.2.1h-.1l-.2.2h-.2l-.1.1-.2.1-.1.1h-.2l-.2.2h-.1l-.2.1h-.2l-.1.1-.2.1h-.2l-.1.1h-.2l-.2.1-.2.1h-.2l-.1.1h-.4l-.2.1h-.2l-.1.1h-.4l-.2.1h-.4l-.2.1H403.4l-.2-.1h-.2l-.2-.1h-.2l-.2-.1h-.2l-.1-.1h-.2l-.2-.1-.2-.1h-.2l-.2-.1-.1-.1h-.2l-.2-.2h-.2l-.2-.1h-.1l-.2-.2h-.2l-.2-.1-.1-.1-.2-.1-.2-.1-.1-.1-.2-.1-.1-.1-.2-.1-.2-.1-.1-.1-.2-.2h-.1l-.2-.2-.1-.1-.2-.1-.1-.1-.2-.2h-.1l-.2-.2-.1-.1-.2-.2-.2-.2-.2-.2v-.1l-.2-.1-.2-.2v-.1l-.2-.2-.1-.1-.1-.1-.2-.2v-.1l-.2-.2-.1-.1-.1-.2-.1-.1-.1-.2-.1-.1-.1-.2-.1-.2-.1-.1-.1-.2-.1-.1-.1-.2-.1-.1-.1-.2v-.2l-.2-.1v-.2l-.1-.2-.1-.1v-.2l-.1-.2-.1-.1v-.2l-.1-.2-.1-.1v-.2l-.1-.2v-.1l-.1-.2v-.2l-.1-.1v-.2l-.1-.2v-.2l-.1-.1v-.4l-.1-.1V96.2l-.1-.1V95.4l-.1-.2V92.8l.2-2-.4-3.7-.8-6.1-.7-6-.4-3.7.2-3.4.6-5.4.6-5.6.3-3.5V49.7l.1-.1v-.4l.1-.1v-.4l.1-.1v-.4l.1-.1v-.2l.1-.1v-.2l.1-.2v-.1l.1-.2V47l.1-.2v-.2l.1-.1v-.2l.2-.1V45.9l.1-.2.1-.1v-.2l.2-.1V45l.1-.1v-.2l.2-.1v-.2l.1-.1.1-.2.1-.1.1-.1v-.2l.2-.1v-.2l.2-.1v-.1l.2-.2V43l.2-.1v-.2l.2-.1v-.1l.2-.2h.1l.1-.2.1-.1.1-.2h.2v-.2l.2-.1.1-.2h.1l.1-.1.2-.2.1-.1.2-.1v-.1l.2-.2h.1l.2-.2h.1l.2-.2.2-.2h.2l.1-.2h.2l.1-.2h.2l.1-.2h.1l.2-.1.2-.1.1-.1h.2l.1-.2h.2l.1-.1.2-.1h.2l.1-.2h.2l.1-.1h.2l.2-.1.1-.1h.2l.2-.1h.2l.1-.1h.2l.2-.1h.2l.1-.1h.2l.2-.1h.2l.1-.1h.4l.2-.1h.4l.2-.1H405l.2-.1h1zm9.7 15.3V52l-.1-.2v-.4l-.1-.1V51h-.1v-.4h-.1v-.2l-.1-.1V50l-.1-.2v-.1l-.1-.2-.1-.2v-.1l-.1-.1V49h-.1l-.1-.2v-.1l-.1-.1v-.1l-.2-.2V48h-.2v-.2l-.1-.1v-.1l-.1-.1-.1-.1v-.1l-.2-.1v-.1l-.1-.1-.1-.1v-.1l-.2-.1v-.1l-.1-.1-.1-.1-.1-.1-.1-.1-.1-.1V46h-.2v-.2h-.2v-.1l-.2-.1v-.1l-.2-.1-.2-.2-.2-.1-.2-.2-.2-.1-.2-.1v-.1h-.2l-.1-.1-.1-.1h-.1l-.1-.1h-.1l-.2-.1-.1-.1-.2-.1h-.1l-.1-.1h-.1l-.1-.1h-.2v-.1h-.2l-.2-.1h-.1l-.1-.1h-.2l-.2-.1h-.2l-.1-.1h-.2l-.2-.1h-.2l-.1-.1h-.2l-.2-.1h-.2l-.2-.1H406.2l-.1-.1h-.5l-.2-.1H402.4l-.1.1H402l-.2.1h-.2l-.1.1h-.2l-.2.1h-.2l-.1.1h-.1l-.1.1h-.2v.1h-.2l-.2.1h-.1l-.1.1-.1.1h-.1l-.1.1h-.1l-.1.1h-.2v.1l-.2.1-.2.1v.1h-.1l-.2.1v.1h-.2v.2h-.2v.1h-.2v.2h-.1l-.1.1-.1.1h-.1l-.1.2h-.1v.1l-.2.1v.1h-.1l-.1.2h-.1l-.1.2-.2.2-.1.1-.1.1v.1l-.2.1v.1l-.1.1v.1l-.1.2h-.1v.2h-.2v.2l-.1.2-.1.1v.1l-.1.1-.1.1v.2h-.1v.2l-.1.1v.1l-.1.1v.2h-.1v.2l-.1.1v.2h-.1V50l-.1.2v.2l-.1.1V50.8l-.1.1v.4l-.1.2V52.3l-.1.1v1l.2 3.5.6 5.6.6 5.5.3 3.3-.4 3.7-.8 6-.7 6-.4 3.8.2 2V93.5l.1.2v.4l.1.1V94.5l.1.1v.2l.1.1v.2l.1.1v.2h.1v.2l.1.2.1.2.1.2.1.2v.1l.2.2v.2l.2.1v.2h.1v.2l.2.1v.1l.1.2.2.2v.1l.1.1.1.1.1.1.1.1.1.1v.2h.2v.2h.2v.2h.2v.2h.2v.2h.2v.1l.2.1v.1l.2.1.2.2h.1l.1.1.1.1.1.1h.1l.2.1v.1h.2l.1.2h.1l.1.1h.2v.1h.2l.1.1.1.1h.1l.2.1.2.1h.1l.1.1h.2v.1h.2l.1.1h.2l.2.1h.2l.2.1h.2l.1.1h.4l.1.1h.4l.1.1h1.1l.2.1H408.2l.1-.1h.4l.1-.1H409l.2-.1h.2v-.1h.2l.1-.1h.2l.1-.1h.2v-.1h.2v-.1h.2v-.1h.2l.1-.1h.1l.1-.1h.1l.1-.1h.1l.1-.2h.2l.1-.1.1-.1h.1l.1-.1.1-.1h.1l.1-.2h.1l.1-.1h.1l.1-.1v-.1l.2-.1.2-.2.1-.1.1-.1.1-.1h.1v-.2h.2V99h.1l.1-.1v-.1l.2-.1v-.1l.1-.1.1-.1v-.1l.2-.1v-.1l.1-.1V98l.1-.1.1-.1v-.1l.1-.1.1-.1v-.2h.1V97h.2V96.7l.1-.1v-.1l.1-.2.1-.2V96l.1-.1v-.2h.1v-.2l.1-.1v-.2l.1-.2V94.8h.1V94.4l.1-.2v-.5l.1-.1V93l.1-.4-.2-4-.6-6.3-.5-6.4-.3-4 .2-4 .3-6.5.6-8.7v-.2zM179 486.7a10 10 0 0 0 10 10h116l38.6 37.8 1.3-132.2a10 10 0 0 0-10.6-10l-145.9 8.2a10 10 0 0 0-9.4 10v76.2z" fill="#d2ccf5"/><path d="M175 431v-21.3l.1-.2v-.7l.1-.2v-.5l.1-.1V407.7l.1-.2V407.2l.1-.2v-.1l.1-.2v-.2l.1-.1v-.2l.1-.1v-.2l.1-.1v-.2l.2-.1V405.2l.1-.2.1-.1v-.2l.1-.1.1-.2v-.1l.2-.2v-.1l.1-.2.1-.1v-.1l.2-.2v-.1l.1-.1.1-.2.1-.1.1-.1.1-.2v-.1l.2-.1v-.2h.2v-.2l.2-.1v-.2h.1l.2-.2.1-.1.1-.1.1-.2h.1l.1-.2.2-.1v-.1l.2-.1.1-.1.1-.1.1-.1.2-.2.2-.2h.1l.2-.2.2-.2h.1l.2-.1v-.1l.2-.1.2-.1v-.1h.2l.2-.2h.1l.1-.1.2-.1h.1l.2-.2h.1l.2-.1h.1l.1-.2h.2l.1-.1h.2l.1-.1h.2l.1-.1.2-.1h.1l.2-.1h.1l.2-.1h.2l.1-.1h.2l.1-.1h.4l.1-.1H186l.2-.1H186.5l.2-.1h.5l.2-.1h.8l9.5-.4 42.5-1.7 44.3-1.8 19.9-.9 8.9-.4 8-.5 7-.4 6-.4h2.2v.1h.6l.2.1H337.6l.1.1H338l.1.1h.2l.1.1H338.7l.2.1h.1l.1.1h.2l.1.1.2.1h.1l.1.1h.2l.1.1.2.1.2.1.2.1h.1l.1.2h.2v.1l.2.1h.1l.2.2h.1l.1.1.2.1v.1l.2.1.1.1h.1l.2.2.2.2h.1l.1.2.1.1.2.1v.1l.2.1v.1l.2.1v.2h.2l.1.2.1.1.1.1.1.1v.2h.2v.2l.2.1v.1l.1.2.1.1.1.1.1.2.2.2v.1l.1.2v.1l.2.1V397l.2.1V397.4l.2.2v.2l.1.2v.1l.1.2v.1l.1.2v.1l.1.2v.1l.1.1V399.4l.1.2V399.9l.1.1V400.3l.1.2v.6l.1.2v4.5l.4 41 .4 39.6.1 16.4v13l-.1 8.4-.3 10.3v.6l-.1.2-.2.4-.2.6-.4.5-.4.4-.5.4-.6.2-.6.2H342.6l-.5-.3-.5-.3-.5-.4-12.5-12.8-19.3-19.7-5.3-5.4h-3.5l-7.6-.2h-10.7l-14.9.2-36.1.4-42.2.6H187.4l-.1-.1h-.5l-.2-.1h-.5l-.2-.1h-.1l-.2-.1H185.3l-.2-.1h-.1l-.2-.1h-.2l-.1-.1h-.2l-.1-.1-.2-.1h-.1l-.2-.1h-.1l-.2-.1-.1-.1h-.2l-.1-.2h-.2l-.1-.1h-.2l-.1-.2h-.2v-.1l-.2-.1h-.2l-.1-.2h-.1l-.2-.1-.1-.1-.2-.1v-.1l-.2-.1-.1-.1-.2-.1-.1-.1-.1-.1-.2-.1v-.1l-.2-.1-.1-.1-.1-.1-.2-.1v-.2h-.2l-.1-.2-.1-.1-.1-.1-.2-.1v-.2h-.2v-.2l-.2-.1v-.1l-.2-.2v-.1l-.2-.1v-.2h-.2v-.2l-.2-.2-.2-.2v-.2l-.1-.1-.1-.1-.1-.2v-.1l-.2-.2v-.1l-.1-.2-.1-.1v-.2l-.1-.1-.1-.2v-.1l-.1-.2-.1-.1v-.2l-.1-.1-.1-.2v-.1l-.1-.2v-.1l-.1-.2v-.2l-.1-.1v-.2l-.1-.1v-.4l-.1-.1v-.2l-.1-.2v-.5l-.1-.1V488l-.1-.1v-1.2l-.3-32.2-.1-23.5zm159.8-37H334.5l-6 .4-7.1.3-8 .5-8.8.6-19.9 1.3-44.2 3.3-42.4 3.1-9.5.7h-.5l-.1.1H187.6l-.2.1h-.2l-.1.1h-.2v.1H186.6v.1h-.2v.1h-.2v.1h-.1l-.2.1-.1.1h-.1l-.1.1-.1.1h-.1v.1h-.1l-.1.1-.1.1h-.1v.1h-.1v.1h-.1v.1h-.1v.1h-.1v.1h-.1v.1h-.1v.1h-.1v.1h-.1v.1l-.1.1v.1h-.1v.1h-.1v.2h-.1v.1h-.1v.2h-.1v.1l-.1.2-.1.1v.1l-.1.1v.2l-.1.1v.2h-.1v.2l-.1.2V409.1h-.1v.7l-.1.1v44.6l-.3 32.2v1l.1.2v.4h.1V488.6l.1.1v.2l.1.1v.2h.1v.2l.1.1v.1l.1.1v.2h.1l.1.2.1.2h.1v.1l.1.1.1.1v.1l.1.1.1.1v.1h.1v.1h.1l.1.1.1.1.1.1v.1h.1v.1h.2v.1l.1.1.2.1.1.1h.1v.1h.1l.1.1.1.1h.1l.1.1h.1l.1.1h.1l.2.1h.1v.1h.2l.1.1h.2l.1.1h.2l.1.1H187.8l.1.1h.7v.1h.5l43.2.6 37 .4 15 .1h21.5l.4.2.3.2.3.2 4.4 4.1 21 19.8.3-.2 7.4 7.2v-10.2l.2-12.8.5-16.5 1.1-39.5 1.2-41V400.6l-.1-.1V400.2l-.1-.1V399.8l-.1-.1v-.2l-.1-.1v-.1l-.1-.2v-.2h-.1v-.2h-.1v-.1l-.1-.1v-.1l-.1-.1v-.1l-.1-.1-.1-.2-.1-.1v-.1l-.1-.1v-.1h-.1l-.1-.2-.1-.1-.1-.1-.1-.2h-.1v-.1l-.1-.1h-.1v-.2h-.2v-.1h-.1v-.2h-.2l-.1-.2-.2-.1-.1-.1h-.1v-.2h-.2l-.1-.1h-.1l-.1-.1-.1-.1-.2-.1-.2-.1-.1-.1h-.1l-.1-.1h-.2l-.1-.1h-.1l-.1-.1-.2-.1h-.2v-.1h-.2l-.2-.1h-.2l-.2-.1h-.2l-.2-.1H335.6l-.1-.1H334.8z" fill="#c1bae7"/><path d="M297.7 449.6h.6l.2.1H298.8l.2.1h.2l.1.1H299.6v.1H300l.1.1h.1l.1.1h.2v.1h.2l.2.2h.2l.2.2h.2l.2.2.1.1.2.1.2.1.2.2h.1l.2.2.1.1.2.2h.1l.2.2.1.2h.2l.1.2.2.2.2.2.2.2v.1l.2.1.1.2.1.1.2.2v.1l.2.1.1.2.1.1.1.2.1.1.2.1v.2l.2.1v.2l.2.1.2.3.2.3.2.3.2.3.2.2.1.3.4.6.4.5.3.5.2.3.2.3.1.2.2.2.1.3.2.2v.1l.2.1v.1l.1.1.1.1v.1l.1.1.1.1.1.1v.1l.1.1.1.1.1.2h.1v.1h.1l.1.2.1.1.1.1h.1v.1h.1v.1h.1v.1h.1l.1.1h.1v.1h.1l2.4 2 .4 3-2 2.3-3 .4H308.9l-.2-.1h-.2v-.1h-.2l-.1-.1h-.2l-.2-.2h-.2l-.2-.2h-.2l-.1-.2h-.2l-.2-.2-.2-.1-.1-.1-.2-.1-.1-.1-.2-.2h-.2l-.1-.2-.2-.1-.1-.1-.1-.2-.2-.1-.1-.1-.2-.2-.2-.2-.2-.1v-.2l-.2-.1-.1-.1-.2-.2v-.1l-.2-.1-.1-.2-.1-.1-.2-.1v-.2l-.2-.1v-.2h-.2l-.1-.2-.1-.2-.2-.2-.3-.3-.2-.3-.2-.3-.2-.2-.2-.3-.4-.5-.4-.5-.3-.6-.2-.2-.2-.2-.2-.3-.1-.1v-.1l-.2-.2-.2-.2-.1-.1v-.1l-.2-.1v-.1l-.1-.1-.1-.1-.1-.1v-.1l-.2-.1-.1-.2-.2-.1-.1-.2h-.1l-.1-.1v-.1H297.3v.1h-.1v.2h-.2v.2h-.2v.2l-.1.1-.1.2h-.1l-.1.2-.1.2-.1.1-.2.2v.1l-.2.2v.1l-.2.2-.1.2-.1.1-.1.2-.1.2-.2.2v.2l-.2.1-.2.4-.3.4-.2.4-.5.8-.2.4-.3.5-.2.4-.3.4-.3.4-.1.2-.1.3-.2.2-.1.2-.1.2-.2.2-.1.2-.2.2-.1.2-.1.2-.2.2-.1.3-.2.2-.1.2-.2.2-.2.2-.1.2-.2.2-.2.2-.1.2-.2.2-.2.2-.1.1-.1.2h-.1l-.1.1-.1.1-.1.1-.1.1-.1.1-.1.1-.1.1-.1.1h-.2v.2h-.2v.2h-.2l-.1.1-.1.1-.2.1-.1.1h-.1l-.2.2-.2.1-.2.1h-.1l-.1.2h-.2l-.1.1h-.2l-.2.1-.1.1h-.2l-.1.1h-.2l-.2.1-.2.1H284l-.2.1h-.4l-.2.1h-2.4l-.2-.1h-.2l-.2-.1h-.2l-.2-.1h-.2l-.2-.2h-.1l-.2-.1-.2-.1h-.2l-.2-.2h-.1l-.2-.2h-.2l-.1-.2h-.1l-.2-.1v-.1l-.2-.1-.1-.1-.1-.1h-.2v-.2h-.2v-.2h-.2v-.2h-.2v-.2h-.2v-.2h-.2v-.2h-.2v-.2h-.1l-.1-.2h-.1v-.2h-.2v-.2l-.1-.1v-.1l-.2-.1v-.1l-.1-.1v-.1l-.2-.3-.1-.2-.2-.2v-.2l-.2-.2-.1-.2-.1-.3-.1-.2-.1-.2-.1-.2-.1-.3-.1-.2-.1-.2-.1-.2-.1-.3v-.2l-.2-.2v-.2l-.1-.3v-.2l-.2-.2v-.3l-.1-.2v-.2l-.1-.3v-.2l-.2-.3v-.4l-.1-.3v-.2l-.1-.3-.1-.2v-.2l-.1-.3v-.2l-.1-.3v-.5l-.1-.2v-.3l-.1-.1v-.4l-.1-.2v-.5l-.1-.3v-.2l-.1-.5-.1-.5v-.5l-.1-.5-.1-.5v-.5l-.1-.6v-.5l-.1-.5v-.5l-.1-.5v-.5l-.2-1v-1l-.2-1v-.9l-.1-.4v-.5l-.1-.4v-.5l-.1-.4v-.5l-.1-.4v-.4l-.1-.4v-.4l-.1-.4V443.5l-.1-.2v-.2l-.1-.3v-.4l-.1-.2v-.3l-.1-.2v-.2l-.1-.2v-.4l-.1-.3v-.2l-.1-.2v-.2l-.1-.2v-.2l-.1-.2-.1-.2v-.2l-.1-.2v-.2l-.1-.2v-.2l-.1-.2-.1-.1v-.2l-.1-.2v-.2l-.1-.2-.1-.2v-.1l-.1-.2-.1-.2v-.2l-.1-.1-.1-.2v-.2l-.1-.1-.1-.2v-.2l-.1-.1-.1-.2v-.1l-.2-.2V434.3l-.2-.1v-.2l-.1-.1v-.2l-.2-.1v-.1l-.1-.2v-.1l-.1-.1-.1-.2-.2-.2v-.1l-.1-.2-.2-.2v-.1l-.1-.1v-.1l-.1-.1-.1-.1v-.2h-.2v-.2h-.1v-.1l-.1-.1-.1-.1v-.1l-.2-.1-.1-.2-.1-.1-.1-.1-.1-.1-.1-.1-.1-.1v-.1h-.1l-.1-.1-.1-.1-.1-.1-.1-.1h-.1v-.1h-.1v-.1h-.2v-.1h-.1l-.1-.1h-.1l-.1-.1H261v.1h-.2v.1h-.2l-.1.1h-.1l-.2.1-.1.1h-.1l-.1.1h-.1l-.1.2h-.2v.2h-.2v.1h-.2v.2h-.2l-.1.1-.1.1-.1.1-.1.1-.1.1-.1.1-.1.1-.2.1v.2h-.2l-.1.2-.1.1-.1.1-.2.2-.2.2-.1.1-.1.2-.2.1v.2l-.2.1-.1.2-.2.1v.2l-.2.1-.1.2-.1.1-.2.2-.1.2-.1.1-.1.2-.2.2-.1.2-.1.1-.2.2v.2l-.2.2-.1.2-.2.2v.2l-.2.1-.1.2-.2.2v.2l-.2.2v.1l-.2.1v.2l-.2.2-.1.3-.2.2-.1.2-.1.2-.2.2-.1.2-.1.2-.2.2-.2.5-.3.4-.3.5-.2.4-.3.5-.3.5-.2.5-.3.4-.3.5-.2.5-.3.5-.3.5-.3.5-.2.5-.3.5-.3.5-.5 1-.6 1-.5 1-.6 1-.4.8-.1.3-.6 1-.3.5-.3.6-.2.5-.3.5-.3.5-.3.5-.3.5-.3.5-.3.5-.2.5-.3.5-.3.5-.3.5-.3.5-.3.5-.3.5-.3.5-.1.2-.2.2-.1.3-.2.2-.1.3-.2.2-.1.2-.2.3-.1.2-.2.2-.1.2-.2.3-.1.2-.2.2-.1.2-.1.1-.1.2-.1.2-.2.2-.1.2-.2.2-.2.3-.1.2-.2.2-.1.2-.2.2-.1.2-.2.2-.1.2-.2.2-.1.2-.2.2-.2.2-.1.2-.2.2-.1.2-.2.2-.2.2-.1.2-.2.2-.1.1-.2.2-.2.2-.1.2-.2.1-.2.2-.1.2-.2.2-.1.2-.2.1-.2.2-.1.2-.2.1-.2.2-.1.1-.2.2-.2.1-.2.2-.1.1-.2.1-.1.1-.1.2h-.2l-.1.2h-.1l-.2.2h-.1l-.1.1-.2.1-.1.1h-.1l-.2.2h-.1l-.1.1-.2.1h-.1l-.2.1v.1h-.2l-.2.1h-.1l-.1.1h-.2v.1H226.8v.1h-.2l-.2.1h-.1l-.1.1H226l-.2.1h-.4l-.1.1H222.8l-.1-.1h-.4l-.1-.1H221.9l-.1-.1h-.2v-.1h-.2l-.1-.1h-.2v-.1h-.2l-.1-.1h-.2v-.1h-.2l-.1-.1h-.1l-.2-.1v-.1h-.2l-.1-.1-.1-.1h-.2v-.1l-.2-.1h-.1l-.1-.2h-.1l-.2-.1-.2-.2-.2-.1-.1-.1h-.1l-.1-.2h-.2v-.1l-.2-.1-.1-.1h-.1l-.1-.2h-.1l-.1-.2h-.2v-.1l-.3-.2-.2-.2-.2-.2-.2-.2-.3-.2-.2-.2-.2-.2-.2-.2-.2-.2-.2-.2-.2-.2-.3-.2-.2-.2-.2-.2-.2-.2-.2-.3-.2-.2-.2-.2-.2-.2-.2-.3-.2-.2-.3-.2-.2-.2-.4-.5-.4-.4-.2-.3-.6-.6-.4-.5-.5-.4-.4-.4-.4-.5-.2-.2-.2-.2-.2-.2-.2-.2-.2-.2-.2-.2-.2-.2-.2-.2-.2-.2-.2-.2-.2-.2-.2-.1-.2-.2-.2-.2-.2-.2-.2-.1-.2-.2-.2-.2-.2-.1-.2-.2-.2-.1-.2-.2-.1-.1h-.1l-.1-.2h-.2l-.1-.1v-.1h-.2v-.1h-.2v-.1h-.1l-.1-.1-.1-.1-.2-.1h-.1l-.1-.1h-.1v-.1h-.2v-.1h-.2v-.1h-.2l-1.9-2.4.6-3.1 2.5-2 3 .6.2.2.1.1.2.1.1.1.1.1.1.1.2.1.1.1.1.1.1.1.2.1v.1l.2.1.1.1.1.1.1.1.2.2.2.2.2.2.1.1.1.1.1.1.1.1.1.2h.2l.2.3.2.2.2.3.2.2.2.3.2.2.2.3.2.2.2.2.2.3.1.2.2.3.2.3.2.2.2.3.2.2.1.3.2.2.2.3.2.2.2.3.1.3.4.5.3.5.4.5.3.5.5.8.2.2.3.5.3.5.2.3.2.2.1.2.2.3.2.2.1.2.2.3.2.2.1.2.2.2.2.2.1.3.2.2.1.2.2.2.2.2.1.2.2.2.1.2.2.2.2.1.1.2.2.2.1.2h.1l.1.1v.1h.2v.2h.1v.1h.2v.2h.1l.1.1.2.1v.1h.1l.1.1.2.2h.1v.1h.2v.1h.1v.1h.2v.1h.1v.1h.2v.1h.1l.1.1h.1l.2.1h.1v.1h.2v.1h.4v.1h.6v.1h1l.1-.1h.2l.1-.1h.1l.2-.1h.1v-.1h.2v-.1h.1l.1-.1.2-.1.1-.1h.1v-.1l.2-.1.1-.1.1-.1h.1v-.2h.2v-.1l.2-.1.2-.2.1-.2h.1l.2-.2v-.2l.2-.1.1-.1.2-.2.1-.1.1-.2.2-.1v-.2l.2-.2.1-.1.1-.2.2-.1v-.2l.2-.2.1-.2.1-.1.2-.2v-.2l.2-.2.1-.2.1-.2.1-.2.2-.1v-.2l.2-.2.1-.2.1-.2.1-.2.2-.2v-.2l.2-.3v-.2l.2-.2.1-.2.1-.2.1-.2.1-.2.2-.3v-.2l.2-.2v-.2l.2-.3v-.2l.2-.2v-.2l.2-.3.1-.2.1-.3.1-.2.1-.2.1-.3.1-.2.1-.3.1-.2.2-.5.2-.5.2-.5.2-.5.2-.5.2-.5.2-.5.2-.6.2-.5.2-.5.2-.5.2-.6.2-.5.2-.6.2-.5.2-.5.2-.6.3-1 .2-.4.2-.8.4-1 .4-1.2.4-1 .4-1.2.2-.5.2-.6.2-.5.2-.6.2-.5.2-.6.2-.5.2-.6.2-.5.2-.5.3-.6.2-.5.2-.5.2-.6.2-.5.3-.5v-.3l.2-.2.1-.3.1-.2.1-.3.2-.2v-.3l.2-.3.1-.2.1-.3v-.1l.2-.1v-.3l.2-.2.1-.2.2-.3v-.2l.2-.3.1-.2.2-.3.1-.2.1-.2.2-.3.1-.2.1-.2.2-.3.1-.2.2-.2v-.3l.2-.2.2-.2.1-.3.2-.2.1-.2.2-.2.1-.2.1-.3.2-.2.2-.2.1-.2.2-.2.1-.2.2-.2.1-.3.2-.2.2-.2.1-.2.2-.2.2-.2.1-.2.2-.2.2-.2.2-.2.1-.2.2-.1.2-.2.2-.2.2-.2.2-.2.2-.1.2-.2.2-.2.2-.2.2-.1.2-.2.2-.2.2-.1.2-.2.3-.1.2-.2.2-.1.2-.2.3-.1.2-.2.2-.1h.1l.2-.1v-.1h.2l.1-.1h.2v-.1l.2-.1h.1l.2-.1.2-.1h.1l.2-.1h.1l.1-.1h.2l.1-.1h.1l.2-.1h.1l.1-.1h.2l.1-.1h.2l.2-.1H259.1l.2-.1h.2l.2-.1h.4l.1-.1h.8l.1-.1H264.4l.1.1h.5l.3.1h.2l.2.1.2.1h.3l.2.1.2.1h.2l.2.2h.2l.2.1.2.1.2.1.2.1.2.1.2.1.2.1.2.1.2.1.2.1.2.1.2.2h.1l.2.2.2.1.2.2h.2l.1.2.2.1.2.2.1.1.2.2.2.1.1.1.2.2.1.1.2.2.2.1.1.2.2.2.1.1.2.2.1.1.2.2.1.2.1.1.2.2.1.2.2.2.1.1.1.2.2.2.1.2.1.2.2.1.1.2.1.2.2.2v.2l.2.2.1.2.2.2v.2l.2.2.1.2.1.2.2.2v.2l.2.2.1.2v.1l.1.1.1.2.1.2.1.3.2.2v.2l.2.2v.2l.2.3v.2l.2.2v.3l.2.2v.2l.1.3.1.2.1.2.1.3.1.2.1.3v.2l.2.2v.3l.1.2.1.3.1.2v.3l.2.3v.2l.1.3v.2l.2.3v.3l.1.2v.3l.1.3.1.2v.3l.1.3v.2l.2.3v.6l.1.2v.3l.1.3v.3l.1.3v.3l.1.2v.3l.1.3v.3l.1.3v.6l.1.3v.4l.1.5v.5l.1.4v.5l.1.5v.9l.1.5v.9l.1.5v1l.1 1v1l.1 1v.4l.1.5v.9l.1.5v.9l.1.5v.5l.1.4v.5l.1.4V458l.1.3V458.9l.1.2v.4l.1.2V460.3l.1.2V460.8l.1.2V461.3l.1.2V461.8l.1.2v.2l.1.1V462.6l.1.2v.2h.1l.1-.1.1-.2.1-.1.2-.2v-.1l.2-.2.1-.1.1-.2.2-.2v-.2l.2-.1.3-.4.2-.4.3-.4.2-.3.3-.4.6-.8.2-.4.3-.5.3-.4.1-.2.2-.2.1-.2.2-.2.1-.2.2-.2.1-.2.2-.2.1-.2.2-.2.1-.2.2-.2.2-.2.1-.2.2-.2.1-.2.2-.2.2-.2.2-.2.1-.2.2-.2.2-.2.2-.1v-.1l.2-.1v-.1l.2-.1v-.1h.2v-.2h.2v-.2h.2v-.1l.2-.1v-.1h.2l.1-.2h.1l.1-.1.1-.1.2-.1.2-.2h.1l.2-.1.2-.2h.2v-.1h.2l.2-.1.1-.1h.2l.1-.1h.2l.1-.1h.2l.1-.1h.2l.2-.1h.1l.2-.1H296l.2-.1H297.7zm-16.3 15h.1-.1zm.1 0zm15.6-6zm0 0zm0 0zm0 0zm0 0zm0 0h-.1.1-.1zM262.8 429h-.1zm0 0h-.1zm0 0h-.1z" fill="#fff"/></svg>