<svg viewBox="0 0 800 601" xmlns="http://www.w3.org/2000/svg" xmlns:serif="http://www.serif.com/" fill-rule="evenodd" clip-rule="evenodd" stroke-linejoin="round" stroke-miterlimit="1.4"><path serif:id="Attracts visitors" fill="#fff" d="M0 .6h800v600H0z"/><path d="M604 303.2c49.6-71.2 23.2-166.3-2.4-192-55.3-55.6-119.9-24.4-151.4 34.2-88.7 165-113.7 51.4-163.9 16C192.2 95.2 119.8 258 170.8 352c65.8 121.2 170.5-13.3 216 31.6 38.5 38 155.4 156.8 217.7 52.7 41.5-69.3-57.8-50.8-.5-133z" fill="#e5e1f9" fill-opacity=".3"/><path d="M269.4 338.8l-50.1 17.3-37.3-67.8 55.3-32 27.9 9.5-2 .2c-20.2 2-35.6 19-35.6 39.2a33.2 33.2 0 0 0 32 33.2l9.8.4z" fill="#c1bae7"/><path d="M293.9 338.6v28s-24.3.2-50.3.2a62.6 62.6 0 0 1-62.8-62.6 69 69 0 0 1 63.2-68.8l49.9-4.2v31.4l-48.2 4.9c-19.1 1.9-33.7 18-33.7 37.3a33.8 33.8 0 0 0 33.8 33.8h48" fill="#e5e1f9"/><clipPath id="a"><path d="M293.9 338.6v28s-24.3.2-50.3.2a62.6 62.6 0 0 1-62.8-62.6 69 69 0 0 1 63.2-68.8l49.9-4.2v31.4l-48.2 4.9c-19.1 1.9-33.7 18-33.7 37.3a33.8 33.8 0 0 0 33.8 33.8h48"/></clipPath><g clip-path="url(#a)"><path d="M269.4 229.4v73.2l64.2-.7v-77l-64.2 4.5z" fill="#ff0076"/><path d="M269.4 313.8v68.8l64.2-.7v-72.4l-64.2 4.3z" fill="#c1bae7"/></g><path d="M293.9 231.2v31.4l14.2.3v-28.1l-14.2-3.6z" fill="#ff0076"/><path d="M293.9 338.6v28l15.2.4v-27.8l-15.2-.6z" fill="#c1bae7"/><path d="M295.3 231.5v.1l.2 2.7.2 3.7v2l.1 2V253.7l-.2 2.7-.2 4.5v1.9l-1 1-1-1v-.2l-.1-1.7-.2-4.5-.1-2.7V251l-.2-2.6v-6.2l.2-2.1v-2l.2-3.7.2-2.7 1-1 1 1zM295.3 338.8v.1l.1 2.4.2 3.3v1.9l.2 1.8v8l-.1 2.5-.1 2.5-.2 4-.1 1.6-1 1-.9-1v-1.6l-.2-4-.1-2.5-.1-2.5V354l-.1-2v-3.7l.1-1.8.1-1.9.2-3.3.1-2.4 1-1 .9 1z" fill="#fff"/><circle cx="437.3" cy="305.5" r="72.8" fill="#fff"/><clipPath id="b"><circle cx="437.3" cy="305.5" r="72.8"/></clipPath><g clip-path="url(#b)"><path d="M442.3 344l-4.2 4.9c-.7.7-1.6 1.6-2 2.5-1.4 3.7 2.4 6.6 4.9 8.7 1.1 1 2.2 2 3.8 2.1 3.8.3 6.4-2.4 8.2-5.3a6.3 6.3 0 0 0 .6-5.9c-.6-2-1.7-3.5-3-5.1" fill="#c1bae7"/><path d="M426.2 275.7A34 34 0 0 0 425 290c.1 2.4-.3 4.7-1.3 6.9l-5.3 12.2a3.3 3.3 0 0 0 3.1 4.6c1.5 0 2.8-.2 4-.6 0 0 .5 12.6 2.6 15.2a9.3 9.3 0 0 0 7.3 3.3c2.2.1 7-1.6 6.5.8a36 36 0 0 0 3.9 20.2c3.4 6.1 32.3-6.3 25.4-10.4-6-3.6-9.3-15.3-8.8-21.8.2-3.4-6.6-5.6-5.4-9 2.5-6.6 8.5-11.7 5.6-19.1-.6-1.5-1.3-2.8-2.2-4a39.1 39.1 0 0 0-5.8-6.3c-5.1-4.6-11-9.6-18.5-10.2-6.6-.5-9.2-3.6-9.9 4z" fill="#e5e1f9"/><path d="M425.4 313c3.2.5 6.8 2.3 8.2 4.4 2 2.8-.9 7.3 3 8.6.6.2 1.2.3 1.9.2 3-.3 8.9-13 8.9-13l1 .2 1.5.7s2.1 9.5 0 12a19.9 19.9 0 0 0-4.6 8.1c-.8 2.8-.7 5.1-3.2 7.1a12 12 0 0 1-6 2.1c-4.4.6-9 0-12.9-2.2-2.4-1.3-4.5-3-4.5-6.1 0-3.5 2.8-6.8 4.3-10 1.7-3.7 2.2-8 2.4-12" fill="#d2ccf5"/><path d="M425.2 318.2h.2v.1h.2v.1h.2l.1.1h.2v.1h.2l.1.1h.5v.1H430.3l.2-.1h1.1l-.1.5-.1.1-.1.1-.1.1-.1.1-.1.1-.1.1-.1.1-.1.1h-.2v.2h-.2v.1h-.2l-.1.1-.2.1-.2.1h-.1l-.1.1h-.2l-.2.1h-1.5l-.1-.1h-.2l-.1-.1h-.2v-.1h-.2v-.1h-.2v-.1h-.2v-.1l-.2-.1-.1-.2h-.1l-.1-.1h-.1v-.2h-.2v-.1l-.1-.1-.2-.2-.1-.2-.1-.2-.1-.1v-.5h.4z" fill="#fff"/><path d="M445.6 296.3c3.7 0 5.7-2.4 9-.8 5 2.4 4.3 7.9 2 12.6-3.5 7-5.6 5.1-9.2 5l-.1 2.7c.1 1.7.9 3.3 1.3 5 2.3 8.8 19 12.3 19.1 5.8 0-2.2.9-4.4 1.6-6.6 1-3 2.7-5.7 4.5-8.3 3.2-4.5 4.1-4 3.7-9.6-.4-5.8-4.3-10.6-3-16.8 1.4-7.4 1.7-4.8 4.6-11.4 1.7-3.7 2.1-10-1.4-12.6-1.7-1.1-4.6-.3-6.5-.6-5.2-1-16.2-3.4-21.4-3.3-10.3.2-12.3-11.5-23.1-9.8-2.5.4-4.8 1.7-7 3-13.5 9.2-8.7 21 1.2 30.6 5.2 5 14.8 1.3 21 4.5l3.7 10.6z" fill="#d2ccf5"/><clipPath id="c"><path d="M445.6 296.3c3.7 0 5.7-2.4 9-.8 5 2.4 4.3 7.9 2 12.6-3.5 7-5.6 5.1-9.2 5l-.1 2.7c.1 1.7.9 3.3 1.3 5 2.3 8.8 19 12.3 19.1 5.8 0-2.2.9-4.4 1.6-6.6 1-3 2.7-5.7 4.5-8.3 3.2-4.5 4.1-4 3.7-9.6-.4-5.8-4.3-10.6-3-16.8 1.4-7.4 1.7-4.8 4.6-11.4 1.7-3.7 2.1-10-1.4-12.6-1.7-1.1-4.6-.3-6.5-.6-5.2-1-16.2-3.4-21.4-3.3-10.3.2-12.3-11.5-23.1-9.8-2.5.4-4.8 1.7-7 3-13.5 9.2-8.7 21 1.2 30.6 5.2 5 14.8 1.3 21 4.5l3.7 10.6z"/></clipPath><g clip-path="url(#c)"><path d="M485.6 268.1a59.5 59.5 0 0 1-9 8.6c-4 2.9-8.5 5.3-10.8 9.8-3.4 6.8 2.3 15.5-4.4 21.3-7.3 6.5-17.4-2.4-24 5-1.4 1.4-2.5 3-3.3 4.7-4.2 9.3-.2 20.3 4.2 28 8 13.8 21.2 24.8 34 33.6 6.6 4.5 14.5 9.4 23 9.3 13.3-.2 24.1-12.9 30.6-23.6a62.4 62.4 0 0 0 7.5-43.3 68.3 68.3 0 0 0-9.3-28.2 63.2 63.2 0 0 0-13.4-13.7" fill="#c1bae7"/></g><path d="M441.4 359c-4.6-.9-27.9 40.5-40.7 74.5 27.8 5.9 48 8.1 66.4 15.3 2-.6.2-1.8 1-3.8 8.3-22.2 27.3-40.7 22.2-74.6-1.8-12.5.4-19.8-10.4-27.6-2.3-1.6-4.9-2.1-7.3-3.4-2.2-1.1-1.2-5.5-3.4-6.6-6.7-3.2-17.4 6.9-20.7 11.1-2.6 3.2-6.3 4-7.6 6.8-.6 1.4.6 6.4.5 8.4z" fill="#d2ccf5"/></g><path d="M436.8 235h-.4l-.5.1h-1.3l-.5.1h-.9l-.4.1h-.5l-.4.1h-.5l-.4.1h-.5l-.4.1h-.4l-.5.1-.4.1h-.5l-.4.1-.4.1h-.5l-.4.2h-.4l-.5.1-.4.1-.4.1h-.4l-.5.2h-.4l-.4.2h-.4l-.5.2h-.4l-.4.2-.4.1-.5.1-.4.1-.4.2h-.4l-.4.2-.4.1-.4.2h-.4l-.5.2-.4.2-.4.1-.4.1-.4.2-.4.1-.4.2-.4.1-.4.2-.4.1-.4.2-.4.1-.4.2-.4.2-.4.1-.4.2-.3.2-.4.1-.4.2-.4.2-.4.2-.4.2-.3.1-.4.2-.4.2-.4.2-.4.2-.3.2-.4.2-.4.2-.4.2-.3.2-.4.2-.4.2-.3.2-.4.2-.3.2-.4.2-.4.3-.3.2-.4.2-.3.2-.4.3-.3.2-.4.2-.3.2-.4.3-.3.2-.4.3-.3.2-.3.2-.4.3-.2.1-.1.1-.4.3-.3.2-.3.3-.4.2-.3.3-.3.2-.4.3-.3.2-.3.3-.3.3-.4.2-.3.3-.3.3-.3.2-.3.3-.3.3-.3.2-.4.3-.3.3-.3.3-.3.3-.3.2-.3.3-.3.3-.3.3-.3.3-.3.3-.3.2-.3.3-.3.3-.3.3-.3.3-.3.3-.3.3-.3.3-.3.3-.3.3-.3.2-.3.3-.2.4-.3.3-.3.3-.3.3-.3.3-.2.3-.3.3-.3.3-.3.3-.2.3-.3.4-.3.3-.2.3-.3.3-.3.4-.2.3-.3.3-.3.3-.2.4-.3.3-.2.3-.3.4-.2.3-.3.3-.2.4-.3.3-.2.4-.2.3-.3.4-.2.3-.2.4-.3.3-.2.4-.2.3-.3.4-.2.3-.2.4-.2.4-.2.3-.2.4-.3.3-.2.4-.2.4-.2.4-.2.3-.2.4-.2.4-.2.3-.2.4-.2.4-.2.4-.2.4-.2.3-.1.4v.1l-.2.3-.2.4-.2.4-.2.4-.1.4-.2.4-.2.4-.1.4-.2.4-.2.4-.1.4-.2.4-.1.4-.2.4-.1.4-.2.4-.1.4-.2.4-.1.4-.2.4v.4l-.2.4-.2.5v.4l-.2.4-.1.4-.2.4v.4l-.2.5-.1.4-.1.4-.1.4-.1.5-.1.4-.1.4-.1.5-.1.4-.1.4-.1.5v.4l-.2.3v.6l-.1.4-.1.4v.5l-.1.4-.1.5v.4l-.1.5v.4l-.1.4v.5l-.1.4v.5l-.1.4v.5l-.1.4v1.4l-.1.5v1.8l-.1.2v1.6l.1.5v1.4l.1.4v.5l.1.4v.5l.1.4v.5l.1.4v.4l.1.5v.4l.2.5v.9l.2.4v.4l.1.5.1.4v.4l.2.5v.4l.2.4v.5l.2.4v.4l.2.5v.4l.2.4.1.4.1.5.1.4.2.4v.4l.2.4.1.4.2.5.1.4.1.4.2.4.1.4.2.4.1.4.2.4.1.4.2.4.1.4.2.4.1.4.2.4.2.4.1.4.2.4.2.4.2.4.1.4.2.4.2.4.2.4.2.3v.2l.1.2.2.4.2.4.2.4.2.3.2.4.2.4.2.4.2.3.2.4.2.4.2.3.3.4.2.4.2.3.2.4.2.4.3.3.2.4.2.3.2.4.3.3.2.4.2.3.3.4.2.3.3.4.2.3.2.4.3.3.2.3.3.4.2.3.3.3.3.4.2.3.3.3.2.3.3.4.3.3.2.3.3.3v.1l.3.2.2.4.3.3.3.3.3.3.2.3.3.3.3.3.3.3.3.3.3.3.3.3.2.3.3.3.3.3.3.3.2.2.1.1.3.3.3.3.3.3.3.3.3.3.3.2.3.3.3.3.3.3.3.2.3.4.3.2.3.3.3.3.3.3.3.3.3.3.3.3.3.2.4.3.3.3.3.3.3.2.3.3.3.3.4.2.3.3.3.3.3.2.4.3.3.2.3.3.4.3.3.2.3.3.4.2.3.3.3.2.4.2.3.3.4.2.3.3.4.2.3.3.4.2.3.2.4.3.3.2.4.2.3.2.4.3.3.2.4.2.4.2.3.2.4.2.4.3.3.2.4.2.4.2.4.2.3.2.4.2.4.2.4.2.4.2.3.1.4.2.4.2.4.2.4.2.4.2.4.1.4.2.4.2.4.1.4.2.3.2.5.1.4.2.4.2.4.1.4.2.4.1.4.2.4.1.4.1.4.2.5.1.4.2h.4l.4.2.4.2h.5l.4.2.4.1.4.1.5.2h.4l.4.2h.4l.5.2.4.1.4.1h.5l.4.2h.4l.5.2h.4l.5.1.4.1.5.1h.4l.4.2h.9l.5.2H431.8l.4.1h.5l.5.1h.4l.5.1h.9l.4.1h1.4l.5.1H443.3l.4-.1h.5l.4-.1.5-.1h.4l.5-.1.4-.1.5-.1h.4l.5-.2h.4l.4-.1.5-.1.4-.1.5-.1.4-.1.4-.1.5-.1.4-.1.4-.1.5-.1.4-.2h.4l.4-.2.5-.1.4-.2h.4l.4-.2.5-.2.4-.1.4-.1.4-.2.4-.1.4-.2.4-.1.4-.2.5-.2.4-.1.4-.2.4-.1.4-.2.4-.2.4-.1.4-.2.4-.2.4-.2.4-.2.4-.1.3-.2.4-.2.4-.2.4-.2.4-.2.4-.2.4-.2.3-.2.4-.2.4-.2.4-.2.3-.2.4-.2.2-.1.2-.1.4-.2.3-.3.4-.2.4-.2.3-.2.4-.2.3-.3.4-.2.4-.2.3-.3.4-.2.3-.2.4-.3.3-.2.4-.3.3-.2.3-.3.4-.2.3-.3.4-.2.3-.3.3-.2.4-.3.3-.2.3-.3.4-.3.3-.2.3-.3.3-.3.4-.3.3-.2.3-.3.3-.3.3-.3.3-.2.3-.3.3-.3.4-.3.2-.2.4-.4.3-.2.3-.3.3-.3.3-.3.3-.3.3-.3.3-.3.2-.3.3-.3.3-.3.3-.3.3-.3.3-.3.2-.3.3-.3.3-.3.3-.4.2-.3.3-.3.3-.3.3-.3.2-.3.3-.4.3-.3.2-.3.3-.3.3-.3.3-.3.3-.3.2-.3.3-.3.3-.3.3-.4.2-.3.3-.3.3-.3.2-.4.3-.3.2-.3.3-.3.2-.4.3-.3.2-.3.3-.4.2-.3.3-.3.2-.4.3-.3.2-.4.3-.3.2-.3.3-.4.2-.3.2-.4.3-.3.2-.4.2-.3.2-.4.3-.4.2-.3.2-.4.2-.3.3-.4.2-.4.2-.3.2-.4.2-.4.2-.3.2-.4.2-.4.2-.4.2-.3.2-.4.2-.4.2-.4.2-.4.2-.3.1-.4.2-.4.2-.4.1-.2v-.2l.3-.4.1-.4.2-.4.2-.4.1-.4.2-.4.2-.4.1-.4.2-.4.1-.4.2-.4.1-.4.2-.4.1-.4.2-.4.1-.4.2-.4v-.4l.2-.5.2-.4v-.4l.2-.4.1-.4.1-.4.2-.5v-.4l.2-.4.1-.4.1-.5.1-.4.1-.4.1-.5.1-.4.1-.4.1-.4v-.5l.2-.4v-.5l.1-.4.1-.5v-.4l.1-.4.1-.5v-.4l.1-.5v-.4l.1-.5v-.4l.1-.5v-.4l.1-.5v-.4l.1-.5v-.9l.1-.5V303.7l-.1-.5v-1.4l-.1-.4v-.5l-.1-.4v-.5l-.1-.4v-.5l-.1-.4v-.5l-.1-.4v-.5l-.1-.4-.1-.4v-.5l-.1-.4-.1-.5-.1-.4v-.4l-.1-.1v-.4l-.2-.4v-.4l-.1-.5-.1-.4-.1-.4-.1-.5-.1-.4-.2-.4v-.4l-.2-.5v-.4l-.2-.4-.1-.4-.1-.5-.2-.4-.1-.4-.1-.4-.2-.4-.1-.4-.1-.5-.2-.4-.1-.4-.2-.4-.1-.4-.2-.4-.1-.4-.2-.4-.1-.4-.2-.4-.1-.4-.2-.4-.2-.4-.1-.4-.2-.4-.2-.4-.2-.4-.1-.4-.2-.4-.2-.3-.2-.4-.2-.4-.2-.4-.2-.4-.1-.4-.2-.3-.2-.4-.1-.2-.1-.2-.2-.4-.2-.3-.2-.4-.3-.4-.2-.4-.2-.3-.2-.4-.2-.4-.2-.3-.3-.4-.2-.3-.2-.4-.2-.4-.3-.3-.2-.4-.2-.3-.3-.4-.2-.3-.2-.4-.3-.3-.2-.3-.3-.4-.2-.3-.3-.4-.2-.3-.3-.3-.2-.4-.3-.3-.2-.3-.3-.4-.3-.3-.2-.3-.3-.3-.3-.4-.2-.3-.3-.3-.3-.3-.2-.3-.3-.4-.3-.3-.3-.3-.3-.3-.2-.3-.3-.3-.3-.3-.3-.3-.3-.3-.2-.2v-.1l-.4-.3-.3-.3-.3-.3-.3-.3-.3-.3-.3-.3-.3-.2-.3-.3-.3-.3-.3-.3-.3-.3-.3-.2-.3-.3-.3-.3-.3-.3-.4-.2-.3-.3-.3-.3-.3-.2-.3-.3-.4-.3-.3-.2-.3-.3-.4-.2-.3-.3-.3-.2-.3-.3-.4-.2-.3-.3-.3-.1v-.1l-.4-.3-.3-.2-.3-.3-.4-.2-.3-.3-.3-.2-.4-.3-.3-.2-.4-.3-.3-.2-.3-.2-.4-.3-.3-.2-.4-.2-.3-.3-.4-.2-.3-.2-.4-.2-.3-.3-.4-.2-.3-.2h-.1l-.3-.2-.4-.2-.3-.2-.4-.3-.3-.2-.4-.2-.4-.2-.3-.2-.4-.2-.4-.2-.4-.2-.3-.2-.4-.2-.4-.2-.4-.2-.3-.1-.4-.2-.4-.2-.4-.2-.4-.2-.3-.1-.4-.2-.4-.2-.4-.2-.4-.1-.4-.2-.4-.1-.4-.2-.4-.2-.4-.1-.4-.2-.4-.1-.4-.2-.4-.1-.4-.2-.4-.1-.4-.1-.4-.2-.4-.1-.4-.1-.4-.2-.4-.1-.4-.1-.5-.2h-.4l-.4-.2-.4-.1-.4-.1-.5-.1-.4-.1-.4-.1-.4-.1-.4-.2h-.5l-.4-.1-.4-.1-.4-.1-.5-.1-.4-.1h-.4l-.5-.2h-.4l-.4-.1h-.5l-.4-.2h-.9l-.4-.1-.5-.1h-.4l-.5-.1h-.4l-.5-.1h-.4l-.4-.1h-.9l-.5-.1h-1.4l-.4-.1h-1.4zm1-4.7h5.8l.4.1h1l.5.1h.9l.5.1h.5l.4.1h.5l.5.1.4.1h.5l.5.1h.5l.4.2h.5l.5.1h.4l.5.2h.5l.4.1.5.1.4.1.5.1.5.1.4.1.5.1.4.1.5.1.4.2h.5l.4.2.5.1.4.1.5.2h.4l.5.2.4.2h.5l.4.2.5.2.4.1.4.2.5.1.4.2.5.1.4.2.4.2.5.1.4.2.4.2.5.1.4.2.4.2.4.2.5.2.4.1.4.2.4.2.5.2.4.2.4.2.4.2.4.2.4.2.4.2.5.2.4.2.4.3.3.1.5.3.4.2.4.3.4.2.4.2.4.3.4.2.4.2.4.3.3.2.4.3.4.2.4.3.4.2.4.3.4.2.3.3.4.3.4.2.4.3.3.3h.1l.3.3.3.2.4.3.4.3.3.3.4.3.3.3.3.3.4.3.3.3.4.3.3.4.3.3.4.3.3.3.3.3.4.3.3.4.3.3.3.3.4.3.3.4.3.3.3.3.3.4.3.3.3.3.3.4.3.3.3.4h.2l.1.3.3.4.3.3.3.4.3.3.3.4.3.3.3.4.2.3.3.4.3.4.3.3.2.4.3.4.3.3.2.4.3.4.3.4.2.3.3.4.2.4.3.4.2.4.3.4.2.3.3.4.2.4.2.4.3.4.2.4.2.4.3.4.2.4.2.4.2.4.2.4.3.4.2.4.2.4.2.4.2.4.2.4.2.4.2.4.2.4.2.5.2.4.2.4v.2l.2.2.1.4.2.5.2.4.2.4.2.4.1.4.2.5.2.4.1.4.2.5.1.4.2.4.2.5.1.4.2.4.1.5.1.4.2.4.1.5.2.4v.5l.2.4.1.4.2.5v.4l.2.5.1.4.1.5.1.4.1.5.2.4v.5l.2.4v.5l.1.4.1.5.1.5.1.4v.5l.2.4v.5l.1.5v.4l.2.5v.9l.1.4.1.5v.5l.1.5v.4l.1.5v.5l.1.4v.5l.1.5v1.4l.1.5v1.9l.1.4V310.3l-.1.5v1.4l-.1.4v1l-.1.5v.9l-.1.5v.4l-.1.5v.5l-.1.4v.5l-.1.5-.1.4v.5l-.1.5-.1.4v.5l-.1.4-.1.5-.1.5v.4l-.2.5v.4l-.2.5v.4l-.1.5-.1.4-.1.5-.1.5-.2.4v.5l-.2.4-.1.5-.1.4-.1.4-.2.5v.4l-.2.5-.1.4-.2.5-.1.4-.2.4-.1.5-.1.4-.2.5v.1l-.1.3-.2.4-.2.5-.1.4-.2.4-.1.5-.2.4-.2.4-.1.4-.2.5-.2.4-.2.4-.2.4-.1.5-.2.4-.2.4-.2.4-.2.4-.2.4-.2.5-.2.4-.2.4-.2.4-.2.4-.2.4-.3.4-.2.4-.2.4-.2.4-.2.4-.3.4-.2.4-.2.4-.3.4-.2.4-.2.4-.3.4-.2.4-.3.4-.2.3-.3.4-.2.4-.3.4-.3.4-.2.3-.3.4-.3.4-.2.3-.3.4-.3.4-.3.3-.2.4-.3.4-.3.3-.3.4-.3.3-.3.4-.3.4-.3.3-.3.3-.3.3-.4.4-.3.3-.3.3-.3.3-.4.3-.3.4-.3.3-.4.3-.3.3-.4.3-.3.3-.4.3-.3.3-.3.3-.4.3-.4.3-.3.3-.4.3-.3.2-.4.3-.3.3-.4.3-.4.3-.3.2-.4.3-.4.3-.3.2-.4.3-.4.2-.4.3-.4.3-.3.2-.4.3-.4.2-.4.2-.4.3-.4.2-.3.3-.4.2-.4.2-.4.3-.4.2-.4.2-.4.2-.4.3-.4.2-.4.2-.4.2-.4.2-.4.2-.4.2-.4.3-.4.2-.4.2-.5.2-.4.1-.4.2-.4.2-.4.2-.4.2h-.3l-.1.2-.5.2-.4.1-.4.2-.4.2-.5.2-.4.1-.4.2-.4.1-.5.2-.4.2-.4.1-.4.2-.5.1-.4.2-.4.1-.5.1-.4.2-.5.1-.4.2h-.4l-.5.2-.4.1-.5.2h-.4l-.4.2-.5.1-.4.1-.5.1-.4.1-.5.1-.4.1-.5.1-.4.1-.5.1-.4.1h-.5l-.4.2h-.5l-.2.1h-.2l-.5.1-.4.1h-.5l-.4.2h-1l-.4.2h-.9l-.5.1h-.5l-.4.1h-.5l-.4.1h-.5l-.5.1h-.9l-.5.1h-1.4l-.4.1h-.5l-.5.1h-.9l-.5.1h-.5l-.4.1h-1.5l-.4.1H429.2l-.4-.1h-1l-.4-.1h-.5l-.5-.1h-.9l-.5-.1-.4-.1h-.5l-.5-.1h-.4l-.5-.1-.4-.1h-.5l-.5-.2h-.4l-.5-.1-.4-.1h-.5l-.4-.2h-.5l-.4-.2h-.5l-.5-.2h-.4l-.5-.2h-.4l-.5-.2h-.4l-.4-.2-.5-.1-.4-.2h-.5l-.4-.2-.5-.1-.4-.2-.4-.1-.5-.1-.4-.2-.5-.1-.4-.2-.4-.1-.5-.2-.4-.1-.4-.2-.5-.1-.4-.2-.4-.2-.5-.1-.4-.2-.4-.2-.4-.1-.5-.2-.4-.2-.4-.2-.4-.2-.4-.2-.5-.1-.4-.2-.4-.2-.4-.2-.4-.2-.4-.2-.4-.2-.4-.2-.4-.2-.5-.3-.4-.2-.4-.2-.4-.2-.4-.2-.4-.3-.4-.2-.4-.2-.4-.2-.3-.2-.4-.3-.4-.3-.4-.2-.4-.3-.4-.2-.4-.3-.4-.2-.3-.3-.4-.2-.4-.3-.4-.3-.3-.2-.4-.3-.4-.3-.3-.2-.4-.3-.4-.3-.3-.3-.4-.2-.4-.3-.3-.3-.4-.3-.3-.3-.4-.3-.3-.3-.4-.3-.3-.3-.4-.3-.3-.3-.3-.4-.3-.3-.4-.3-.3-.3-.3-.4-.3-.3-.3-.3-.2-.2-.1-.2-.3-.3-.4-.4-.3-.3-.3-.3-.2-.4-.3-.3-.3-.4-.3-.4-.3-.3-.3-.4-.3-.3-.3-.4-.2-.3-.3-.4-.3-.4-.2-.2v-.1l-.3-.4-.3-.4-.3-.4-.2-.3-.3-.4-.3-.4-.2-.4-.3-.4-.2-.3-.3-.4-.2-.4-.3-.4-.2-.4-.2-.4-.3-.4-.2-.4-.2-.4-.3-.4-.2-.4-.2-.4-.2-.4-.3-.4-.2-.4-.2-.4-.2-.4-.2-.4-.2-.4-.2-.4-.2-.4-.2-.4-.2-.4-.2-.4-.2-.5-.2-.4-.2-.4-.2-.4-.2-.4-.2-.5-.1-.4-.2-.4-.2-.4v-.3l-.2-.2-.1-.4-.2-.4-.1-.4-.2-.5-.2-.4-.1-.4-.2-.5-.1-.4-.2-.5-.1-.4-.2-.4v-.5l-.2-.4-.2-.5v-.4l-.2-.4-.1-.5-.2-.4v-.5l-.2-.4-.1-.5-.1-.4-.1-.5-.1-.4-.2-.5v-.4l-.1-.5-.1-.5-.1-.4-.1-.5-.1-.4-.1-.5v-.4l-.2-.5v-.5l-.1-.4v-.5l-.1-.5-.1-.4v-.5l-.1-.2v-.7l-.1-.5-.1-.4v-.5l-.1-.5v-.9l-.1-.5v-.5l-.1-.4v-1.5l-.1-.4v-12l.1-.5v-.9l.1-.5v-.4l.1-.5v-.5l.1-.5v-.4l.1-.5v-.5l.1-.4v-.5l.2-.5v-.9l.2-.4v-.5l.1-.5.1-.4v-.5l.2-.4v-.5l.2-.5v-.4l.1-.5.1-.4.2-.5v-.4l.2-.5v-.4l.2-.5.1-.4.1-.5.2-.4v-.5l.2-.4.1-.4.2-.5.1-.4.2-.5v-.4l.2-.4.2-.5.1-.4.2-.5.1-.4.2-.4.2-.4.1-.5.2-.3v-.1l.2-.4.1-.5.2-.4.2-.4.2-.4.1-.5.2-.4.2-.4.2-.4.2-.4.2-.5.2-.4.2-.4.2-.4.2-.4.2-.4.2-.4.2-.4.2-.4.2-.4.2-.4.3-.4.2-.4.2-.4.2-.4.3-.4.2-.4.2-.4.3-.4.2-.4.3-.4.2-.4.2-.4.3-.4.2-.3.3-.4.2-.4.3-.4.3-.4.2-.3.3-.4.3-.4.2-.3.3-.4.3-.4.3-.3.2-.4.3-.4.3-.3.3-.4.3-.3.3-.4.3-.3.3-.4.3-.3.3-.4.3-.3.3-.4.3-.3.3-.4.3-.3.3-.3.3-.4.3-.3.4-.3.3-.4.3-.3.3-.3.4-.3.3-.3.4-.3.3-.3.4-.3.3-.3.4-.3.3-.3.4-.3.3-.3.4-.3.3-.3.4-.2.4-.3.3-.3.4-.3.4-.3.3-.2.4-.3.4-.3.3-.2.4-.3.4-.3.4-.2.4-.3.2-.1.1-.1.4-.3.4-.2.4-.3.4-.2.4-.2.4-.3.4-.2.4-.3.4-.2.4-.2.4-.2.4-.3.4-.2.4-.2.4-.2.4-.2.4-.2.4-.3.4-.2.4-.2.5-.2.4-.2.4-.2.4-.2.4-.1.4-.2.5-.2.4-.2.4-.2.4-.2.5-.1.4-.2.4-.2.5-.2.4-.1.4-.2.5-.1.4-.2.4-.2.5-.1.4-.2.4-.1.5-.2.4-.1.5-.1.4-.2.5-.1.4-.1.5-.2h.4l.5-.2.4-.1.5-.2h.4l.5-.2h.4l.5-.2.4-.1.5-.1h.5l.4-.2h.5l.4-.2h.5l.5-.1.4-.1.5-.1h.5l.4-.1.5-.1h.5l.4-.1.5-.1h.5l.4-.1h.5l.5-.1h.5l.4-.1h1l.5-.1h.9l.5-.1h2.9l.5-.1h2.9z" fill="#231768"/><circle cx="537.4" cy="174.9" r="56.3" fill="#fff"/><clipPath id="d"><circle cx="537.4" cy="174.9" r="56.3"/></clipPath><g clip-path="url(#d)"><path d="M577.6 291.7c-2.1-9-3.9-16.5-2.8-25.9 2-18.3 9.5-47.7-11.7-55.5-6-2.1-45.8 1.6-45.8 1.6-12.2 1-15.4 13.1-16.5 28.3-.8 9.8-5.3 24.5 1.6 29.3 6 11.1 1 16.6 5 22.2h70.2z" fill="#e5e1f9"/><clipPath id="e"><path d="M577.6 291.7c-2.1-9-3.9-16.5-2.8-25.9 2-18.3 9.5-47.7-11.7-55.5-6-2.1-45.8 1.6-45.8 1.6-12.2 1-15.4 13.1-16.5 28.3-.8 9.8-5.3 24.5 1.6 29.3 6 11.1 1 16.6 5 22.2h70.2z"/></clipPath><g clip-path="url(#e)" fill="#faf9fe"><path d="M576 223.7c4 3.2 3.5 17.5 2.7 21.5-.8 3.7-3.4 21-3.4 25.5 0 7.6-2 13.2-9 18.5-2.4 1.8-5.5 2.1-8.4 2.4-1.2 0-2.6.3-3.7-.4-2-1.3-3.2-3.8-3.7-6a61.3 61.3 0 0 1 3.1-28.1c.9-2.4 2.3-4.5 3.5-6.6 1.8-3.1 3.3-6.3 5-9.4 1.9-3 4-5.9 5.5-9.1"/><path d="M544.6 256c-3.7 8.4-2.7 14.5-12.7 17.1-6.5 1.8-21.4 1.2-23 10-.5 3.4-7 3-3.6 6.7 10.3 11.5 44.8 7 51-7.8 3.6-8.6 1.7-26.2-10.6-26.5"/></g><path d="M555.5 209.6H557.8l.3.1h1.6l.3.1H561l.2.1h.6l.1.1h.4l.1.1H562.6l.2.1h.2v.1l.3.1.3.1h.2l.3.2h.2l.2.2.3.1.2.1.2.1.2.1.3.1.2.1.2.2h.2l.2.2.2.1.2.1.2.2h.2l.2.2.2.1.2.2.2.1.2.1.2.2.2.1.2.2.2.1.1.1.2.2.2.1.2.2.1.1.2.2.2.1.1.2.2.1.2.2.1.2.2.1.1.2.2.1.1.2.2.2.1.1.1.2.2.2.1.2.2.1v.2l.2.2.2.2v.1l.2.2.1.2.2.2v.2l.2.1.1.2.1.2.1.2.1.2.2.2v.2l.2.2v.2l.2.2v.2l.2.2v.2l.2.2v.2l.1.2.1.2.1.2.1.2v.2l.2.2v.2l.1.2.1.2v.3l.1.2.1.2v.2l.2.2v.5l.2.2v.4l.1.3.1.2v.2l.1.2v.3l.1.2v.2l.1.2v.3l.1.2v.2l.1.3v.4l.1.3v.4l.1.3v.2l.1.3v.7l.1.2v.7l.1.3v.7l.1.3v1.7l.1.3v6.8l-.1.5v1.1l-.1.5v.5l-.1.5v1.1l-.1.5v.5l-.1.5-.1.5v.5l-.1.6v.5l-.1.5v.5l-.2.5v1l-.1.5-.1.5v.5l-.2 1-.2 1v1l-.4 2-.1 1-.1.9-.2 1v.9l-.1.4-.1.5v.4l-.1.5v.4l-.1.5v.4l-.1.4v.5l-.1.2v1l-.1.3v1.4l-.1.3V274.9l.1.4v.8l.1.4v.4l.1.4v.4l.1.4v.4l.1.4v.4l.1.4v.4l.1.3.1.4v.4l.1.4.1.4v.4l.1.4.1.4v.4l.2.4v.4l.1.4.1.4v.4l.2.4v.4l.2.4.1.8.2.8.2.8.2.9.4 1.6h-70.2l-.1-.2-.1-.2h-.1v-.2l-.2-.2-.1-.2v-.1l-.2-.2v-.2l-.1-.2-.1-.1v-.1l-.1-.2v-.1l-.1-.1V289l-.1-.1v-.2l-.1-.1v-.4l-.1-.2v-.4l-.1-.1V287l-.1-.1v-4.2l-.1-.4V280l-.1-.1v-1l-.1-.2v-.5l-.1-.2v-.4l-.1-.2v-.2l-.1-.2v-.4l-.1-.3v-.2l-.1-.2v-.2l-.1-.2-.1-.2v-.2l-.1-.3v-.2l-.2-.2v-.2l-.1-.2v-.3l-.2-.2v-.2l-.1-.3-.1-.2-.1-.2-.1-.3-.1-.2-.1-.3-.1-.2-.1-.2-.2-.3v-.2l-.2-.3-.1-.3-.2-.2v-.3l-.2-.2h-.1v-.1l-.2-.1-.1-.1-.2-.1v-.1h-.1v-.1l-.1-.1h-.1v-.1l-.1-.1h-.1v-.1l-.1-.1h-.1v-.2h-.1v-.1h-.1l-.1-.1v-.1l-.1-.1-.1-.2-.1-.1-.1-.2-.1-.1v-.1l-.1-.1-.1-.2-.1-.1v-.1l-.1-.1v-.2l-.1-.1-.1-.2v-.2h-.1v-.2l-.1-.1v-.2l-.1-.1v-.2l-.1-.1V264.6l-.1-.1V264.2l-.1-.1v-.4h-.1v-.5l-.1-.2v-.5l-.1-.2V261.4l-.1-.2v-5l.1-.3v-1l.1-.3v-.5l.1-.3v-.8l.2-.5v-.5l.1-.6v-.5l.1-.5.1-.6.1-.5.2-1 .1-1.1.2-1v-.6l.1-.5v-.5l.1-.5.1-.5v-.5l.1-.3v-.7l.1-.2v-.7l.1-.3v-1l.1-.4v-.7l.1-.3v-1.1l.1-.3v-.4l.1-.3v-.7l.1-.3v-.7l.1-.4v-.3l.1-.3v-.3l.1-.4v-.3l.1-.3v-.4l.1-.3v-.3l.1-.3v-.3l.1-.3v-.4l.1-.3v-.3l.2-.3v-.6l.1-.3.1-.3v-.3l.2-.3v-.3l.1-.3v-.3l.1-.2.1-.3.1-.3v-.3l.2-.3v-.3l.1-.2.1-.3.1-.3.1-.2.1-.3.1-.3.1-.2.1-.3.1-.2.1-.3.1-.2.1-.3.1-.2.1-.3.1-.2.2-.3v-.2l.1-.1v-.1l.2-.1v-.2l.1-.2h.1v-.2l.1-.1v-.1l.2-.1V219h.2v-.2l.2-.2v-.2h.2v-.2l.1-.1v-.1l.1-.1.1-.1v-.1l.2-.1v-.1h.1v-.2h.2v-.2h.1v-.2h.2v-.2h.1l.1-.1v-.1l.2-.1v-.1h.1l.1-.2h.1v-.1l.2-.1v-.1h.1l.1-.2h.1l.1-.1.1-.1.2-.2.2-.1v-.1h.1l.1-.1.1-.1h.1l.1-.2h.1l.1-.1h.1l.1-.1.1-.1h.1l.1-.1.1-.1h.1l.1-.1h.1l.1-.2h.2l.1-.1h.1l.1-.1.2-.1.2-.1.2-.1h.1l.1-.1h.1l.1-.1h.2v-.1h.2l.1-.1h.2l.2-.1.2-.1h.2l.2-.1.2-.1H514.4v-.1h.5l.1-.1H515.3l.1-.1h.4l.1-.1H516.5l.1-.1H517.3l.5-.1h.5l.8-.1.9-.1 1-.1 1.3-.1 1.3-.1 1.5-.1.8-.1h.9l.8-.1.9-.1h.8l1-.1.9-.1h1l.9-.2h2l.9-.2h2l1-.2h2l1-.1h1l1-.1h1l1-.1h1.5l.5-.1h2.3l.5-.1h4.7zm-.8 4h-3.4l-.4.1H548l-.5.1h-1.4l-1 .1h-2l-1 .1h-5l-1 .1h-4.8l-.9.1h-4.3l-.8.1h-2.9l-1.2.1h-2l-.7.1H516.7l-.1.1H515.8l-.2.1h-.5l-.1.1H514.6l-.1.1H514.3l-.1.1h-.2l-.1.1h-.2l-.1.1h-.2l-.1.1h-.2l-.1.1h-.1l-.1.1h-.2v.1h-.2v.1h-.1l-.1.1h-.2v.1h-.2v.1h-.2v.1h-.1l-.1.1-.2.1-.1.1-.1.1h-.1v.1h-.2v.1h-.1l-.1.1v.1h-.2v.1l-.1.1h-.1v.1l-.1.1h-.1v.1l-.1.1-.1.1-.2.2v.1h-.1l-.1.2-.1.1-.1.1-.1.2-.2.1v.2l-.1.1h-.1v.2h-.1v.1l-.1.1v.1l-.1.1-.1.1v.1l-.1.1-.1.2-.1.2-.1.2h-.1v.2h-.1v.2h-.1v.2h-.1v.2h-.1v.2l-.1.1v.1l-.1.1v.1l-.1.2-.1.3-.1.2-.1.2v.2l-.2.3v.2l-.1.2-.1.3v.2l-.2.3v.2l-.1.3v.2l-.1.3-.1.2v.3l-.1.3v.2l-.1.3-.1.3v.2l-.1.3v.3l-.1.3v.3l-.1.2v.3l-.1.3v.3l-.1.3v.6l-.1.3v.3l-.1.3v.6l-.1.3V233.1l-.1.2v1.1l-.1.3v1l-.1.4v2l-.1.3v3.1l-.1.2v1.6l-.1.2v1.1l-.1.5v.5l-.1.5v.6l-.2 1-.1 1-.1 1.2-.1.5v.5l-.1.5v.6l-.1.4-.1.6v.5l-.1.3v.2l-.1.3v.2l-.1.3v.5l-.1.2v.5l-.1.2v.5l-.1.3V257.9l-.1.2V259l-.1.3V263.4l.1.2v.4l.1.1v.4h.1v.2l.1.2v.2h.1v.2l.1.1v.1l.1.1v.1l.1.1v.1l.1.1v.1h.1v.1l.1.1v.1h.1v.1h.1v.1l.1.1.1.1h.1v.1l.1.1.4.4.3.3.3.4.1.3.1.2.2.3v.3l.2.3.1.3.1.3.1.3.1.2.1.3.1.3.1.2.1.3.1.3v.2l.2.3v.2l.1.3v.3l.1.2.1.3v.2l.1.3v.2l.1.2v.3l.1.2v.3l.1.2v.5l.1.2v.4l.1.3v.8l.1.2V288.1l.1.1v.2l.1.1v.2l.1.2.1.2.1.2.1.2.1.1h3l11.6-.8 11.7-.7 7.3-.4 7.4.3 12 .5 12.2.5-.2-.7-.2-.8v-.4l-.2-.4v-.4l-.2-.4v-.4l-.2-.5v-.4l-.2-.4v-.4l-.1-.4-.1-.4-.1-.4v-.4l-.2-.4v-.4l-.1-.4-.1-.4v-.4l-.2-.4v-.9l-.1-.3-.1-.5v-.4l-.1-.4v-.4l-.1-.4v-.5l-.1-.4v-.4l-.1-.4V273.9l-.1-.2V272l-.1-.3V266.6l.1-.3V265.4l.1-.5v-.4l.1-.5v-.4l.1-.5v-.4l.1-.5v-.5l.1-.5v-.4l.2-1 .1-1 .2-.9.2-2 .2-.9.1-1 .2-1v-1l.2-.5v-1l.1-.5.1-.5v-.5l.1-.5v-.5l.1-.5v-.5l.1-.5v-.5l.1-.5v-.5l.1-.5v-1l.1-.5v-1l.1-.5V240l.1-.2V233.2l-.1-.3V232l-.1-.2v-.7l-.1-.2v-.4l-.1-.2v-.7l-.1-.2v-.2l-.1-.2v-.4l-.1-.2v-.2l-.1-.2v-.4l-.1-.2v-.2l-.1-.2v-.2l-.1-.2v-.2l-.1-.2v-.2l-.1-.2-.1-.2v-.2l-.1-.2v-.2l-.1-.1-.1-.2v-.2l-.1-.2-.1-.2v-.1l-.1-.2-.1-.2v-.2l-.2-.1v-.2l-.1-.2v-.2l-.2-.1v-.2l-.1-.2-.1-.1v-.2l-.2-.1v-.2l-.1-.2-.1-.1-.1-.2-.1-.1-.1-.2-.1-.1v-.2l-.2-.1v-.2l-.2-.1v-.2l-.2-.1v-.1l-.2-.2-.1-.1-.1-.2-.1-.1-.1-.1-.1-.2-.2-.1v-.1l-.2-.2h-.1l-.1-.2-.2-.1v-.2l-.2-.1-.1-.1-.2-.1v-.2h-.2l-.2-.2v-.1l-.2-.1-.2-.1-.1-.2h-.2l-.1-.2h-.2l-.1-.2-.2-.1-.1-.1-.2-.1-.1-.1-.2-.1-.1-.1-.2-.1-.2-.1-.2-.1-.1-.1-.2-.1-.2-.1-.2-.1-.1-.1h-.2l-.2-.2h-.2l-.2-.1-.2-.1-.2-.1-.2-.1h-.2l-.2-.2h-.4v-.1H560.8v-.1H560l-.3-.1H558.3l-.3-.1H554.7z" fill="#e5e1f9"/><path d="M513 141.1c-6.5.9-10.5 10.6-9.1 21.7 1.4 11.1 7.8 19.5 14.3 18.7 6.4-.9 10.5-10.6 9-21.7-1.4-11.1-7.8-19.5-14.2-18.7z" fill="#231768"/><path d="M540.8 182.3c.2 12.3 3.1 21.5 10.3 27.4 0 0-13.5 10-17 17.2 0 .3-.2.5-.3.8a5.3 5.3 0 0 1-9.3.4 28 28 0 0 1-4.4-12.9c2.4-6.5 2.8-11.5.3-17.3l20.4-15.6z" fill="#d2ccf5"/><clipPath id="f"><path d="M540.8 182.3c.2 12.3 3.1 21.5 10.3 27.4 0 0-13.5 10-17 17.2 0 .3-.2.5-.3.8a5.3 5.3 0 0 1-9.3.4 28 28 0 0 1-4.4-12.9c2.4-6.5 2.8-11.5.3-17.3l20.4-15.6z"/></clipPath><g clip-path="url(#f)"><path d="M532.3 198.6c-1.1 2-2 4-2 6.4 0 1.4.6 2.8.2 4.2-.4 1.5-2.3 2.2-3.3 3.4-1.5 2-1.6 4.4-3.9 5.6-.5.3-.9.3-1.7.5-.8.1-1.6.2-2.4.1-1 0-2-.3-2.9-.6a8 8 0 0 1-3.2-2.1 9 9 0 0 1-2.2-6.6c0-1.8.2-3.9 1-5.5 2.8-6 10.2-8 16.2-8.6" fill="#c1bae7"/></g><path d="M513.7 146.9s-2.8 6.7-4.3 15.8c-.2 1.1.7 2.8.6 4a44.6 44.6 0 0 0 5.6 30.9c14.2 5.8 19.9-2 19.9-2a32 32 0 0 0 5.2-8.8c1.2.9 3.6 1.1 5.6-.6 3-2.6 6.3-7.4 5.5-12-.6-3-5-3.2-6.5-1.2l3.2-19.3-34.8-6.8z" fill="#d2ccf5"/><clipPath id="g"><path d="M513.7 146.9s-2.8 6.7-4.3 15.8c-.2 1.1.7 2.8.6 4a44.6 44.6 0 0 0 5.6 30.9c14.2 5.8 19.9-2 19.9-2a32 32 0 0 0 5.2-8.8c1.2.9 3.6 1.1 5.6-.6 3-2.6 6.3-7.4 5.5-12-.6-3-5-3.2-6.5-1.2l3.2-19.3-34.8-6.8z"/></clipPath><g clip-path="url(#g)"><path d="M544.3 173.3c-3.5-1.2-5.7-1.9-8.8-4-3.1-2.1-5-5.1-8.7-6.7-4.8-2.1-10-1.6-15-3-3-.7-5.2-3.5-5.7-6.6-.4-2.3 0-7.9 3.5-8h4.6c2 0 3.8.3 5.7.8a55.8 55.8 0 0 1 22.6 14.4c2.1 2 4.4 4 6 6.4" fill="#c1bae7"/></g><path d="M513.5 186.5h.2v.1h.2l.1.1h.1l.1.1H514.5l.1.1h.2l.1.1h.4l.1.1h.7l.1.1H517.3v.1H520.4l.1-.1h.4l.1-.1h.2l.2-.1h.2l.1-.1h1l-.2.8-.1.2-.2.1-.1.2-.2.1-.1.1-.2.2-.1.1-.2.1-.1.2h-.2l-.1.2-.2.1-.1.1-.2.1-.1.1h-.1l-.1.1-.2.1-.1.1h-.2v.1h-.2l-.2.1h-.1l-.1.1h-.1l-.2.1h-.2l-.1.1h-.5v.1H516l-.1-.1h-.2v-.1h-.2l-.1-.1-.2-.1h-.1l-.1-.1h-.1v-.1h-.2v-.1h-.1v-.1l-.2-.1-.1-.1-.1-.1h-.1v-.2h-.2v-.2h-.1v-.1h-.1l-.1-.1v-.1h-.1v-.2h-.1v-.1l-.1-.1-.1-.2-.1-.1v-.1h-.1v-.2h-.1v-.2l-.1-.1v-.1l-.1-.1v-.7h.8z" fill="#fff"/><path d="M571.2 173.4c5.2 4.6 12.8 8.6 15.7 1.8 2.2-4.8 3-13.2-.6-18.4-4-5.7-13.5-3.8-18.4 1.8-4.9 5.6-2 10.2 3.3 14.8z" fill="#231768"/><path d="M571.8 154l.2.1h.1l.1.1h.1l.1.1h.1v.1h.2l.2.1.1.1h.1l.1.1.2.1v.1h.1l.1.1h.1v.1h.1l.1.1.1.1h.1v.1h.2v.1l.2.2.1.1.2.1.1.2.2.1v.2h.2l.2.2v.2l.2.1.1.2.1.1.2.2v.2l.2.1.1.2.1.1.1.2.1.2.1.1.1.2.1.2v.2l.2.1v.2l.2.2v.2l.1.1v.2l.2.2v.2l.1.2v.2l.1.1.1.2v.2l.1.2v.2l.1.2v.2l.1.2v.2l.1.2v.1l.1.2v.2l.1.2v.4l.1.2v.4l.1.2v.8l.1.2V169.7l-.1.2V170.2l-.1.2v.2l-.1.2v.2l-.1.2v.2l-.1.1-.1.2v.2l-.1.2-.1.2v.1l-.1.2-.1.2-.1.2v.1l-.2.2v.2l-.1.1-.1.2-.1.2-.1.1-.1.2-.1.1-.1.2-.1.1v.1h-.1l-.1.2-.1.2-.1.1-.1.2h-.1l-1.5 1.2-1.4.1-1-1-.3-1.9V170l.1-.1V168.4l.1-.2v-.7l.1-.1v-1.1l.1-.1V162.8l-.1-.1v-.5l-.1-.1V161.8l-.1-.2v-.2l-.1-.1v-.2l-.1-.2v-.2l-.1-.1v-.1l-.1-.1v-.1l-.1-.1v-.1l-.1-.2-.1-.2-.1-.1v-.1l-.1-.1-.2-.2v-.1h-.1v-.1l-.1-.1-.1-.1v-.1h-.1v-.1h-.1v-.1h-.1l-.1-.1-.1-.1-.1-.1h-.1v-.1h-.1l-1.1-1.4V155l1.2-1h1.8z" fill="#fff"/><path d="M539.3 186.2c4.7 1.5 10.3-.9 10.7-8.6 0-1.8-1.5-6.5-5.2-4-3.4-2-6.4-4.4-7.6-8.2-1.4-4.2 0-2.8-3.2-6.4-5.3-6.2-12.4-2.7-18-5.4-4.6-2.1-8.8-14.4 3-19.6 18.8-8.3 38.4 0 50 14.8 5.3 7 7.6 19 4.2 29.1-4.6 14-36.7 32-36.6 25.6 0-3.3 1.1-14.6 2.7-17.3z" fill="#231768"/></g><path d="M537 120.4H535.6l-.4.1h-1l-.3.1h-.7l-.4.1h-.3l-.4.1h-.6l-.4.1h-.3l-.4.1h-.3l-.3.1-.4.1h-.3l-.3.1h-.4l-.3.2h-.3l-.4.1h-.3l-.3.1-.4.1-.3.1h-.3l-.4.2h-.3l-.3.1-.3.1-.3.1-.4.1h-.3l-.3.2h-.3l-.3.2h-.4l-.3.2-.3.1-.3.1-.3.1-.3.1-.4.1-.3.1-.3.2h-.3l-.3.2-.3.1-.3.1-.3.2-.3.1-.3.1-.3.2h-.3l-.3.2-.3.2h-.3l-.3.2-.3.2-.3.1-.3.2-.3.1-.3.1-.3.2-.3.1-.3.2-.2.2-.3.1-.3.2-.3.1-.3.2-.3.1-.2.2-.3.2-.3.1-.3.2-.3.2-.2.1-.3.2-.3.2-.3.2-.2.2-.3.1-.3.2-.2.2-.3.2-.3.2-.2.2-.3.1-.1.1-.1.1-.3.2-.3.2-.2.2-.3.2-.2.2-.3.2-.3.2-.2.2-.3.2-.2.2-.3.2-.2.2-.2.2-.3.2-.2.2-.3.2-.2.2-.3.3-.2.2-.2.2-.3.2-.2.2-.2.3-.3.2-.2.2-.2.2-.3.2-.2.3-.2.2-.3.2-.2.2-.2.2-.3.3-.2.2-.2.2-.3.2-.2.3-.2.2-.2.2-.3.3-.2.2-.2.2-.2.3-.2.2-.2.3-.3.2-.2.2-.2.3-.2.2-.2.3-.2.2-.2.2-.2.3-.2.3-.2.2-.2.3-.2.2-.2.3-.2.2-.2.3-.2.3-.2.2-.2.3-.2.2-.2.3-.2.3-.1.2-.2.3-.2.3-.2.3-.2.2-.1.3-.2.3-.2.2-.2.3-.1.3-.2.3-.2.3-.1.2-.2.3-.2.3-.1.3-.2.3-.2.3-.1.3-.2.2-.1.3-.2.3-.1.3-.2.3-.1.3-.2.3-.1.3-.1.3-.2.3-.1.3-.2.3v.3l-.2.3-.2.3v.3l-.2.3-.1.3-.2.4v.3l-.2.3-.1.3-.1.3-.1.3-.2.3v.3l-.2.4v.3l-.2.3-.1.3-.1.3-.1.4v.3l-.2.3v.3l-.2.4v.3l-.2.3v.3l-.1.4-.1.3v.3l-.2.4v.3l-.1.3v.4l-.2.3v.6l-.1.4-.1.4v.3l-.1.3v.4l-.1.3v.4l-.1.3v.4l-.1.3v.7l-.1.3v.7l-.1.4v1.4l-.1.4V177.7l.1.4v.7l.1.3v.4l.1.3v.7l.1.4v.3l.1.4v.3l.1.3v.4l.1.3.1.4v.3l.1.1v.2l.1.4v.3l.2.3v.4l.1.3v.3l.2.4v.3l.1.3.1.3.1.4.1.3.1.3.1.3.1.4.1.3.1.3.1.3.1.4.1.3.1.3.1.3.2.3v.3l.2.3.1.4.1.3.1.3.2.3v.3l.2.3.2.3v.3l.2.3.1.3.2.3.1.3.2.3.1.3.1.3.1.2v.1l.2.3.2.3.1.3.2.3.1.3.2.3.2.3.1.2.2.3.1.3.2.3.2.3.1.3.2.2.2.3.1.3.2.3.2.3.2.2.1.3.2.3.2.2.2.3.2.3.1.3.2.2.2.3.2.2.2.3.2.3.2.2.2.3.2.2.2.3.2.3.2.2.2.3.2.2.2.3.2.2.2.3.2.2.2.2.2.3.3.2.2.3.2.2.2.3.2.2.2.2.3.3.2.2.2.2.2.3.3.2.2.2.2.2.1.1.1.2.3.2.2.2.2.2.3.3.2.2.2.2.3.2.2.2.2.3.2.1.3.3.2.2.3.2.2.3.2.2.3.2.2.2.2.2.3.3.2.2.3.2.2.2.2.2.3.2.2.2.3.2.2.2.3.2.2.2.3.2.2.2.3.2.3.2.2.2.3.2.2.2h.1l.2.2.3.2.2.2.3.2.3.2.2.2.3.1.3.2.2.2.3.2.3.2.3.2.2.1.3.2.3.2.3.1.2.2.3.2.3.1.3.2.3.2.3.1.2.2.3.2.3.1.3.2.3.1.3.2.3.1.3.2.3.1.3.2.3.1.3.1.3.2.3.1.3.2h.3l.3.2.3.2h.3l.3.2.3.1.4.2h.3l.3.2.3.1.3.1.3.1.4.2h.3l.3.2h.3l.3.2.4.1.3.1.3.1h.3l.4.2h.3l.3.2h.3l.4.2h.3l.3.1.4.1h.3l.3.2h.4l.3.1h.4l.3.1.3.1h.4l.3.1.4.1h.3l.4.1h.3l.3.1h.4l.3.1h.4l.3.1h.7l.4.1h.7l.4.1h1.4l.3.1h5l.4-.1h.3l.4-.1h.3l.4-.1.3-.1h.4l.3-.1h.3l.4-.2h.7l.3-.2h.4l.3-.1h.3l.4-.2h.3l.3-.1.4-.1.3-.1h.2l.1-.1.4-.1.3-.1.3-.1.3-.1.4-.1.3-.1.3-.1.3-.1.4-.1.3-.2h.3l.3-.2.3-.1.3-.1.4-.2h.3l.3-.2.3-.1.3-.2.3-.1.3-.1.3-.2.3-.1.3-.2h.4l.3-.2.3-.2.3-.1.3-.2.3-.1.2-.2.3-.1.3-.2.3-.1.3-.2.3-.2.3-.1.3-.2h.1l.2-.1.3-.2.3-.2.2-.2.3-.1.3-.2.3-.2.3-.2.2-.1.3-.2.3-.2.3-.2.2-.2.3-.1.3-.2.2-.2.3-.2.3-.2.2-.2.3-.2.3-.2.2-.2.3-.2.2-.2.3-.2.2-.2.3-.2.3-.2.2-.2.3-.2.2-.2.2-.2.3-.2.2-.3.3-.2.2-.2.3-.2.2-.2.2-.3.2-.2.3-.2.2-.2.3-.2.2-.3.2-.2.3-.2.2-.2.2-.3.2-.2.3-.2.2-.3.2-.2.2-.2.3-.3.2-.2.2-.3.2-.2.2-.2.2-.3.2-.2.2-.3.2-.2.2-.3.2-.2.3-.3.2-.2.2-.2.2-.3.2-.2.3-.2.2-.3.2-.2.2-.3.2-.2.2-.3.2-.2.2-.3.2-.2.2-.3.2-.2.2-.3.2-.2.2-.3.2-.2.2-.3.2-.2.2-.3.2-.3.2-.2.2-.3.1-.3.2-.2.2-.3.2-.3.2-.2.2-.3.1-.3.2-.3.2-.2.2-.3.1-.3.2-.3.2-.2.1-.3.2-.3.2-.3.1-.3.2-.3.2-.3.1-.2.2-.3.1-.3.2-.3.1-.3.2-.3.1-.3.2-.3.1-.3.2-.3.1-.3.1-.3.1-.2.2-.4.1-.3.2-.3.1-.3.1-.3.2-.3v-.3l.2-.3.1-.3.2-.4v-.3l.2-.3.1-.3.1-.3.1-.3.1-.4.1-.3.1-.3.1-.3.1-.3.1-.4.1-.3.1-.3.1-.3.1-.4.1-.3.1-.3v-.4l.2-.3v-.3l.1-.3.1-.4v-.3l.2-.4v-.3l.1-.3v-.4l.1-.3v-.3l.1-.4v-.3l.1-.4v-.3l.1-.4v-.3l.1-.4v-.3l.1-.4v-.6l.1-.4v-.7l.1-.4V172.1l-.1-.4v-.7l-.1-.3v-.7l-.1-.4v-.3l-.1-.3v-.4l-.1-.3v-.4l-.1-.3v-.4l-.1-.3-.1-.3v-.4l-.1-.3v-.4l-.2-.3v-.3l-.1-.4v-.3l-.2-.3v-.4l-.1-.3-.1-.3-.1-.3v-.4l-.2-.3v-.3l-.2-.3v-.4l-.2-.3v-.3l-.2-.3v-.4l-.2-.3v-.3l-.2-.3-.1-.3-.1-.3-.1-.4-.2-.3v-.3l-.2-.3-.1-.3-.2-.3v-.3l-.2-.3-.1-.3-.2-.3-.1-.3-.1-.4-.2-.3-.1-.3-.2-.3-.1-.3-.1-.3-.2-.2-.1-.3-.2-.3-.1-.3-.2-.3v-.2l-.1-.1-.2-.3-.2-.3-.1-.3-.2-.3-.1-.3-.2-.2-.2-.3-.1-.3-.2-.3-.2-.3-.2-.2-.1-.3-.2-.3-.2-.3-.2-.2-.1-.3-.2-.3-.2-.3-.2-.2-.2-.3-.2-.3-.2-.2-.1-.3-.2-.2-.2-.3-.2-.3-.2-.2-.2-.3-.2-.2-.2-.3-.2-.2-.2-.3-.2-.2-.2-.3-.3-.2-.2-.3-.2-.2-.2-.3-.2-.2-.2-.3-.2-.2-.3-.2-.2-.3-.2-.2-.2-.3-.2-.2-.3-.2-.1-.2-.3-.3-.2-.2-.3-.2-.2-.3-.2-.2-.3-.2-.2-.2-.2-.3-.3-.2-.2-.2-.3-.2-.2-.2-.2-.2-.3-.2-.2-.3-.3-.2-.2-.2-.3-.2-.2-.2-.3-.2-.2-.2-.3-.2-.2-.2-.3-.2-.2-.2-.3-.2-.2-.2-.3-.2-.3-.1-.1-.2h-.1l-.3-.2-.2-.2-.3-.2-.2-.2-.3-.2-.3-.2-.2-.2-.3-.2-.2-.2-.3-.1-.3-.2-.2-.2-.3-.2-.3-.2-.2-.1-.3-.2-.3-.2-.3-.2-.2-.1-.3-.2-.3-.2-.3-.1-.2-.2-.3-.2-.3-.1-.3-.2-.3-.2-.2-.1-.3-.2-.3-.1-.3-.2-.3-.2-.3-.1-.3-.2-.3-.1-.2-.1-.3-.2-.3-.1-.3-.2-.3-.1-.3-.2h-.3l-.3-.2-.3-.2h-.3l-.3-.2-.3-.1-.3-.2h-.3l-.3-.2-.3-.1-.4-.2h-.3l-.3-.2h-.3v-.1l-.3-.1-.3-.1-.3-.1-.3-.1-.4-.1-.3-.1-.3-.1-.3-.1-.3-.1-.3-.1-.4-.1-.3-.1-.3-.1h-.3l-.4-.2h-.3l-.3-.1-.3-.1-.4-.1h-.3l-.3-.2h-.7l-.3-.2h-.7l-.3-.2h-.7l-.3-.1h-.4l-.3-.1h-.4l-.3-.1h-.3l-.4-.1h-.3l-.4-.1h-.7l-.3-.1h-1l-.4-.1h-1.4l-.4-.1h-.3zm.8-3.7H541.8l.4.1h1.5l.3.1h.8l.3.1h.4l.4.1h.7l.4.1h.3l.4.1.4.1h.3l.4.1h.3l.4.1.4.1h.3l.4.1.3.1h.4l.3.2h.4l.3.1.4.1h.4l.3.2h.4l.3.2h.4l.3.1.4.1.2.1h.1l.3.1.4.1.3.2h.4l.3.2h.4l.3.2.3.1.4.1.3.2h.4l.3.2.3.1.4.2.3.1.3.1.4.2.3.1.3.1.3.2.4.1.3.2.3.1.4.2.3.1.3.2.3.1.3.2.4.1.3.2.3.2.3.1.3.2.3.2.4.1.3.2.3.2.3.2.3.2.3.1.3.2.3.2.3.2.3.2.3.2.3.2.3.2.3.2.3.2.3.2.3.2.3.2.3.2.3.2.3.2.2.2.3.2.3.3.3.2.2.2.3.2.3.3.2.2.3.3.3.2.2.2.3.3.2.2.3.3.3.2.2.2.3.3.2.2.3.3.2.2.3.3.2.2.3.3.2.3.2.2.3.3.2.2.3.3.2.3.2.2.1.1.2.2.2.3.2.2.2.3.3.3.2.3.2.2.2.3.2.3.3.3.2.3.2.2.2.3.2.3.2.3.2.3.2.3.2.3.2.3.2.3.2.2.2.3.2.3.2.3.2.3.2.3.1.3.2.3.2.3.2.3.2.4.1.3.2.3.2.3.2.3.1.3.2.3.2.3.1.3.2.3.1.4.2.3.2.3.1.3.2.3.1.4.2.3.1.3v.2l.1.1.2.3.1.4.2.3.1.3.1.4.2.3.1.3.1.3.2.4v.3l.2.3.1.4.1.3.2.4v.3l.2.3.1.4.1.3.1.3.1.4.1.3.1.4.1.3.1.4.1.3.1.3v.4l.2.3v.4l.1.3.1.4.1.3v.4l.2.3v.4l.1.3v.4l.1.3v.4l.2.4v.7l.1.3v.4l.1.3v.4l.1.3v.4l.1.4v.3l.1.4v.7l.1.4v.7l.1.4v1.5l.1.3V179.7l-.1.4v1.1l-.1.3v.8l-.1.3v.8l-.1.3v.4l-.1.3v.8l-.1.3v.4l-.1.3-.1.4v.3l-.1.4v.4l-.1.3-.1.4v.3l-.1.4-.1.3-.1.4v.3l-.2.4v.3l-.1.4-.1.3v.4l-.2.3v.4l-.2.3v.4l-.2.3v.3l-.2.4v.3l-.2.4v.3l-.2.3-.1.4-.1.3v.1l-.1.3-.2.3v.3l-.2.4-.1.3-.2.3v.4l-.2.3-.1.3-.2.4-.1.3-.2.3v.3l-.2.4-.2.3-.1.3-.2.3-.1.4-.2.3-.1.3-.2.3-.1.3-.2.3-.2.4-.1.3-.2.3-.2.3-.1.3-.2.3-.2.3-.2.3-.1.4-.2.3-.2.3-.2.3-.2.3-.2.3-.1.3-.2.3-.2.3-.2.3-.2.3-.2.3-.2.2-.2.3-.2.3-.3.3-.2.3-.2.3-.2.3-.2.3-.2.2-.2.3-.3.3-.2.3-.2.2-.2.3-.3.3-.2.3-.2.2-.3.3-.3.2-.2.3-.3.2-.2.2-.3.3-.2.2-.3.3-.3.2-.2.3-.3.2-.2.2-.3.3-.3.2-.3.2-.2.2-.3.3-.3.2-.2.2-.3.2-.3.3-.3.2-.3.2-.2.2-.3.2-.3.2-.3.2-.3.2-.3.2-.3.2-.3.2-.3.2-.2.2-.3.2-.3.2-.3.2-.3.2-.3.2-.3.2-.3.1-.3.2-.3.2-.3.2-.4.2-.3.1-.3.2-.3.2-.3.1-.3.2-.3.2-.3.1-.3.2-.4.1-.3.2-.3.2-.3.1-.3.2-.3.1-.4.2-.3.1-.3.1-.2.1h-.1l-.4.2-.3.2h-.3l-.3.2-.4.2h-.3l-.3.2-.4.1-.3.2h-.3l-.3.2-.4.1-.3.1-.3.1-.4.2h-.3l-.4.2h-.3l-.3.2h-.4l-.3.2h-.4l-.3.2h-.3l-.4.2h-.3l-.4.1-.3.1h-.4l-.3.2h-.4l-.3.1-.3.1h-.4l-.3.1-.4.1h-.3l-.4.1H550l-.4.2h-.7l-.4.1h-.3l-.4.1h-.3l-.4.1h-.3l-.4.1h-.3l-.4.1h-.7l-.4.1h-.7l-.4.1H541.7l-.3.1h-.4l-.4.1h-1l-.4.1H538l-.4.1h-6.9l-.4-.1h-.7l-.4-.1h-.7l-.4-.1h-.7l-.3-.1h-.4l-.4-.1h-.3l-.4-.1h-.3l-.4-.1-.3-.1h-.4l-.3-.1h-.4l-.4-.2h-.3l-.4-.1h-.3l-.4-.2h-.3l-.4-.1-.3-.1h-.3l-.4-.2h-.3l-.4-.2h-.3l-.4-.1-.3-.1-.4-.1-.3-.1-.3-.2h-.4l-.3-.2h-.4l-.3-.2-.3-.1-.4-.1-.3-.1-.3-.2h-.4l-.3-.2-.3-.1-.4-.2-.3-.1-.3-.1-.4-.2-.3-.1-.3-.1-.3-.2-.4-.1-.3-.2-.3-.1-.3-.2-.4-.1-.3-.2-.3-.1-.3-.2-.3-.1-.3-.2-.4-.2-.3-.1-.3-.2-.3-.2-.3-.1-.3-.2-.3-.2-.3-.1-.3-.2-.4-.2-.2-.1-.4-.3-.3-.2-.3-.1-.3-.2-.3-.2-.3-.2-.2-.2-.3-.2-.3-.2-.3-.2-.3-.2-.3-.2-.3-.2-.3-.3-.3-.2-.2-.2-.3-.2-.3-.2-.3-.2-.3-.2-.2-.3-.3-.2-.3-.2-.3-.2-.2-.3-.3-.2-.3-.2-.2-.3-.3-.2-.2-.3-.3-.2-.2-.3-.3-.2-.2-.3-.3-.3-.2-.2-.1-.2h-.2l-.2-.3-.2-.3-.3-.3-.2-.2-.2-.3-.3-.3-.2-.3-.2-.2-.2-.3-.3-.3-.2-.3-.2-.2-.2-.3-.2-.3-.2-.3-.2-.2-.3-.4-.2-.2-.2-.3-.2-.3-.2-.3-.2-.3-.2-.3-.2-.3-.2-.3-.2-.3-.1-.3-.2-.3-.2-.3-.2-.3-.2-.3-.2-.3-.1-.3-.2-.3-.2-.3-.2-.3-.1-.3-.2-.4-.2-.3-.2-.3-.1-.3-.2-.3-.1-.3-.2-.3-.2-.4-.1-.3-.2-.3-.1-.3-.2-.3-.1-.4-.2-.3-.1-.3-.1-.3-.2-.4-.1-.3-.2-.3v-.4l-.2-.1v-.2l-.2-.3v-.3l-.2-.4-.1-.3-.2-.3v-.4l-.2-.3-.1-.4-.1-.3-.1-.3-.1-.4-.1-.3-.2-.4v-.3l-.2-.3v-.4l-.2-.3v-.4l-.1-.3-.1-.4-.1-.3-.1-.4v-.3l-.2-.4v-.3l-.1-.4-.1-.3v-.4l-.2-.3v-.7l-.2-.4v-.7l-.1-.4v-.3l-.1-.4-.1-.3v-.4l-.1-.3v-.8l-.1-.3v-.4l-.1-.4v-.7l-.1-.3v-.8l-.1-.3V179l-.1-.4V169.4l.1-.4v-.7l.1-.4v-.7l.1-.4v-.3l.1-.4v-.4l.1-.3v-.7l.1-.4.1-.4v-.3l.1-.4v-.3l.1-.4.1-.3v-.4l.1-.3.1-.4v-.3l.2-.4v-.3l.1-.4.1-.3v-.4l.2-.3v-.4l.2-.3v-.4l.1-.3.1-.4.1-.3.1-.4.1-.3.2-.3v-.4l.2-.3v-.4l.2-.3.1-.3.1-.4.2-.3v-.3l.2-.4.1-.3.1-.3.2-.4.1-.3.1-.3.2-.4.1-.3.2-.3.1-.3.1-.4.2-.3.1-.3.2-.3.1-.4.2-.3.1-.3.2-.3.2-.3.1-.4.2-.3.2-.3.1-.3.2-.3.2-.3.1-.3.2-.3.2-.3.2-.4.1-.3.2-.3.2-.3.2-.3.2-.3.2-.3.2-.3.1-.3.2-.3.2-.3.2-.3.2-.2.2-.3.2-.3.2-.3.2-.3.3-.3.2-.3.2-.3.2-.2.2-.3.2-.3.3-.3.2-.2.2-.3.2-.3.3-.3.2-.2.2-.3.2-.3.3-.2.2-.3.3-.3.2-.2.2-.3.3-.3.2-.2.3-.3.2-.2.3-.3.2-.2.3-.3.2-.2.3-.3.3-.2.2-.2.3-.3.3-.2.2-.2.3-.2.3-.3.3-.2.2-.2.3-.2.3-.3.3-.2.3-.2.2-.2.3-.2.3-.2.3-.2.3-.2.3-.2.3-.2.3-.3.3-.2.2-.2h.2l.1-.1.3-.2.3-.2.3-.2.3-.2.3-.2.4-.2.3-.2.3-.1.3-.2.3-.2.3-.2.3-.1.3-.2.3-.2.3-.1.4-.2.3-.2.3-.1.3-.2.3-.2.4-.1.3-.2.3-.1.3-.2.3-.1.4-.2.3-.1.3-.2h.4l.3-.2.3-.2.3-.1.4-.1.3-.2.3-.1.4-.1.3-.1.4-.2h.3l.3-.2.4-.1.3-.1.4-.2h.3l.3-.2h.4l.3-.2h.4l.3-.2h.4l.3-.2h.4l.3-.2h.4l.3-.1.4-.1h.3l.4-.2h.3l.4-.1.3-.1h.4l.4-.1.3-.1h.4l.3-.1.4-.1h.4l.3-.1h.4l.3-.1h.4l.4-.1h.3l.4-.1h.7l.4-.1h.7l.4-.1h1.1l.4-.1h4.8z" fill="#231768"/><circle cx="352.6" cy="429.3" r="24.2" fill="#e5e1f9"/><path d="M352.4 407.6h-.7l-.1.1H351l-.1.1h-.4l-.1.1H350l-.1.1h-.4l-.2.1h-.2l-.2.1-.2.1H348.5l-.1.1H348.1v.1h-.2l-.1.1h-.2v.1H347.2l-.2.1-.2.1h-.1l-.1.1h-.2v.1h-.2l-.1.1h-.1l-.2.1-.2.1h-.1l-.1.1-.1.1h-.2v.1h-.2l-.1.1h-.1l-.1.1-.1.1h-.2v.1h-.2v.2H343.8l-.1.1-.1.1h-.1l-.1.1-.2.1-.2.1v.1h-.2v.1l-.2.1-.2.2h-.1l-.1.1h-.1l-.1.1-.1.1h-.1l-.1.2h-.1l-.1.1h-.1v.2h-.2v.1l-.2.1-.1.1-.2.1v.1h-.2v.2h-.2v.1l-.1.1h-.1l-.1.2h-.1l-.1.1-.1.1v.1h-.2v.2h-.2v.1l-.1.1-.1.1-.1.1-.2.2-.1.2h-.1l-.1.1-.1.1h-.1l-.1.2-.2.1-.2.2-.2.1v.1h-.2v.2h-.1l-.1.1-.1.1h-.1l-.1.2h-.1v.1l-.2.1v.1l-.2.1v.1h-.1l-.1.2h-.1v.2h-.2v.1l-.2.1v.1l-.1.1h-.1l-.1.2-.2.2-.1.2h-.1l-.1.2-.2.1v.1l-.1.1-.1.1v.1l-.2.1v.1l-.1.1-.1.1v.1l-.2.1v.2h-.1v.2h-.2v.2h-.1v.2h-.2v.2l-.1.1v.1l-.1.1-.1.1v.2h-.1l-.1.2-.1.2-.1.1v.1l-.1.1-.1.2-.1.2v.1l-.1.1-.1.2-.1.2v.1l-.1.1-.1.2-.1.2v.1l-.1.1v.2h-.1v.2l-.1.1v.2h-.1v.2l-.1.1v.2l-.1.1v.1l-.1.2-.1.2v.2l-.1.2v.2h-.1v.4h-.1v.4l-.1.1v.4l-.1.2v.2l-.1.2v.5l-.1.2v.7l-.1.1v1.2l.1.1v.5h.1v.5l.1.1v.5l.1.1V432.4l.1.1V432.8h.1v.2l.1.2v.2l.1.2v.1l.1.1v.2h.1v.2l.1.1v.2h.1v.2l.1.1v.2h.1v.2l.1.1v.2h.1l.1.2v.1l.1.1v.2h.1v.2l.2.1V436.7h.1l.1.2v.1l.1.1.1.1v.2h.1l.1.2.1.2.1.1v.1l.1.1.1.1v.2h.2v.2h.1v.2h.1l.1.2v.1l.2.1v.1l.1.1.1.1v.1l.2.1v.1l.1.1v.1l.2.1v.1l.1.1.1.1.1.1v.1l.2.1.1.2h.1l.1.2.2.2.1.1.1.1.1.1.1.1h.1v.2h.2v.2h.2v.1l.1.1.1.1h.1l.1.2h.1v.1l.2.1v.1h.2v.2h.2v.1l.1.1h.1l.1.2h.1l.1.1.1.1.2.2.2.1v.1h.1l.1.2h.1v.2h.2v.2h.1l.1.1v.1l.2.1v.1l.1.1.1.1.1.1h.1v.2h.2v.2h.1l.1.1.1.1.1.1.1.1.2.2.2.1v.1l.2.1v.1l.1.1h.1l.1.2h.1l.1.1.1.1.1.1.1.1h.1l.1.2h.1l.1.1.1.1.1.1h.1l.1.2h.1l.1.1.1.1h.1l.1.2h.1l.1.1h.2v.2h.2v.1h.2l.1.2h.1l.1.1h.1l.2.2.2.1h.1l.1.1.1.1h.1l.2.1v.1h.2l.1.1.1.1h.2v.1h.2l.1.2h.2l.2.1h.1l.2.1v.1h.2l.1.1h.2l.1.1h.1l.2.1.2.1h.2v.1h.2l.2.1.2.1h.2l.1.1h.1l.2.1h.1l.2.1h.2l.2.1h.1l.2.1h.4l.1.1h.5l.1.1h.5l.1.1h.8l.1.1H355.1l.1-.1h.2l.1-.1H355.8l.1-.1h.2l.1-.1H356.5l.1-.1h.2v-.1h.2l.2-.1h.1l.1-.1h.2l.1-.1h.1l.2-.1.2-.2h.2l.2-.1.1-.1h.2v-.1l.2-.1h.1l.2-.1v-.1h.2l.1-.1.1-.1h.2v-.1l.2-.1h.1l.1-.2h.2v-.1h.2l.1-.2h.1l.1-.1h.1l.2-.2.2-.1v-.1h.2l.1-.2h.1l.1-.1.1-.1h.1l.1-.2h.1l.2-.1v-.1l.2-.1.2-.2.2-.2.2-.1v-.1l.2-.1v-.1h.1l.1-.2h.1l.1-.2h.1l.1-.1.1-.1v-.1l.2-.1v-.1l.2-.1v-.1l.1-.1.1-.1.1-.1v-.1h.2v-.2h.1l.1-.2h.1v-.2h.2v-.2h.1l.1-.2.2-.2.1-.2h.1v-.2h.2v-.2h.1v-.2h.2v-.2h.1v-.2h.2v-.2l.2-.2.1-.2.1-.2h.1v-.1l.2-.2.2-.1v-.1h.1l.1-.2h.1l.1-.1.1-.1v-.1l.2-.1v-.1h.2v-.2h.1l.1-.2.2-.1v-.1l.1-.1.1-.1.1-.1.1-.1.2-.2.1-.2h.1l.1-.2h.1v-.2h.2v-.1l.1-.1.1-.1v-.1l.2-.1v-.1l.1-.1.1-.1v-.2h.2v-.2h.1l.1-.2.1-.2h.1l.1-.2v-.1l.1-.1.1-.1v-.1l.2-.1v-.2h.1v-.1l.1-.2.1-.1v-.1l.1-.1.1-.2.1-.2.1-.1v-.1l.1-.1v-.2h.1l.1-.2v-.1l.1-.1v-.2h.1l.1-.2v-.1l.1-.2.1-.2v-.1l.1-.2.1-.2v-.2h.1v-.2l.1-.1v-.2l.1-.1v-.1l.1-.2v-.1l.1-.1V432.4l.1-.1V432l.1-.2v-.2l.1-.2V431.1l.1-.1v-.4l.1-.2V430.1l.1-.2V428.7l-.1-.1v-.6l-.1-.2v-.5l-.1-.2v-.2l-.1-.2v-.4l-.1-.1V425.9l-.1-.1V425.4l-.1-.1v-.2l-.1-.1v-.1l-.1-.2v-.2l-.1-.2-.1-.2v-.2h-.1v-.2l-.1-.1v-.2h-.1v-.2l-.1-.1v-.2h-.1l-.1-.2v-.1l-.1-.2-.1-.2v-.1l-.1-.1-.1-.2-.1-.2v-.1l-.2-.1V421.2h-.1l-.1-.2v-.1l-.1-.1-.1-.1v-.2h-.1l-.1-.2-.2-.2v-.1l-.1-.1v-.1l-.1-.1-.1-.1v-.1l-.2-.2-.1-.2-.2-.2-.1-.2h-.1v-.2h-.2v-.2h-.1l-.1-.2-.2-.2-.1-.2h-.1l-.1-.2-.2-.2-.1-.2h-.1l-.1-.1-.1-.1v-.1l-.2-.1v-.1h-.2v-.2h-.1l-.1-.2h-.1l-.1-.1-.1-.1-.1-.1h-.1v-.2h-.2v-.1l-.2-.1v-.1h-.1l-.2-.2-.1-.1-.1-.1h-.1l-.1-.2h-.1l-.1-.1h-.1l-.1-.2h-.1l-.1-.1-.1-.1h-.1l-.1-.1-.1-.1h-.1l-.1-.2h-.1l-.1-.1h-.1l-.1-.1-.1-.1h-.1l-.1-.1-.1-.1h-.1l-.1-.1-.1-.1h-.1l-.1-.2h-.1l-.1-.1h-.1l-.1-.2h-.1l-.1-.1v-.1h-.2v-.2h-.2v-.1h-.2v-.1l-.2-.1-.2-.2-.2-.1-.2-.1v-.1h-.2v-.2h-.2v-.1h-.2l-.1-.1-.1-.1h-.1l-.1-.2h-.2l-.1-.2h-.2l-.2-.1v-.1h-.2v-.1l-.2-.1h-.1l-.1-.1h-.1l-.1-.1-.1-.1h-.2v-.1h-.2l-.1-.1h-.1l-.1-.1-.2-.1-.2-.1h-.1l-.1-.1h-.1l-.2-.1-.2-.1h-.1l-.1-.1h-.2v-.1h-.2l-.1-.1h-.2v-.1H357l-.1-.1h-.2l-.1-.1h-.1l-.2-.1h-.2l-.1-.1H355.8l-.1-.1h-.2l-.2-.1h-.2l-.2-.1h-.2l-.2-.1h-.4l-.2-.1h-.4l-.1-.1H352.8v-.1h-.4zm.4-5.1h1l.1-.1H357.5l.2.1h.7l.2.1h.6l.2.1H359.7l.2.1H360.2l.2.1H360.7l.2.1H361.2l.2.1h.2l.1.1h.4l.1.1h.2l.2.1h.1l.2.1h.1l.2.1h.2l.1.1.2.1h.1l.2.1h.2l.1.1h.2l.1.1.2.1h.2l.1.1.2.1h.1l.2.1.1.1h.2l.2.1.1.1h.2l.1.1.2.1.1.1h.2l.1.2h.2l.1.1.2.1h.1l.2.2h.1l.2.1.1.1.1.1.2.1.1.1h.2l.1.2h.2l.1.2h.1l.2.2h.1l.1.2h.2v.2l.2.1.1.1.2.2.2.2.1.1.1.1.2.2.2.2.1.1.1.1.1.2h.2v.2l.2.1v.2h.2l.1.2.1.1.1.2.1.1.1.1.2.2v.1l.2.1v.2l.2.1v.1l.2.2v.1l.2.1v.2l.1.1.1.2h.1l.1.2.1.2.1.1v.2l.2.1v.1l.2.2v.1l.1.2.1.1v.2l.2.1v.1l.1.2.1.1v.2l.2.1v.2l.1.1v.2l.2.1v.2l.1.1v.2l.2.1V415.7l.2.2V416.2l.2.1V416.6l.1.2.1.1v.2l.1.1v.2h.1V417.8l.1.2.1.1v.2l.1.1v.2l.1.1v.2l.1.2v.1l.1.2V419.6l.1.2v.1l.1.2v.1l.1.2V420.7l.1.2V421.2l.1.2V421.7l.1.1v.5l.1.2v.5l.1.1v.7l.1.2v1h.1V435.4l-.1.1V436.3l-.1.1v.5l-.1.2v.5l-.1.1v.4l-.1.1v.4l-.1.1v.2l-.1.1v.4l-.1.1v.2l-.1.2V440.2l-.1.1v.2l-.1.2v.1l-.1.2v.1l-.1.2v.2l-.1.1-.1.2v.1l-.1.2v.1l-.1.2-.1.2v.1l-.1.2v.1l-.1.2-.1.1v.2l-.1.1-.1.2v.2l-.2.1v.2l-.1.1v.2l-.1.1-.1.2-.1.1v.2l-.2.1v.2l-.1.1-.1.2-.1.1-.1.1v.2l-.2.1v.2l-.2.1v.2l-.1.1-.1.1-.1.2-.1.1-.1.2-.1.1-.1.1-.1.2-.1.1-.1.1-.2.1-.1.1-.1.2h-.2v.2h-.2l-.2.2v.1l-.2.1-.2.1v.1l-.2.1-.2.1v.1l-.2.1-.2.1-.1.1-.1.1-.2.1-.1.1h-.2l-.1.2h-.1l-.2.2h-.1l-.2.1-.1.1-.2.1h-.1l-.2.2h-.1l-.2.1-.1.1h-.1l-.2.2h-.1l-.2.1h-.1l-.2.2h-.1l-.2.1h-.1l-.2.1-.1.1h-.2l-.2.1-.1.1h-.2l-.1.1h-.2l-.1.1-.2.1h-.1l-.2.1h-.1l-.2.1h-.1l-.2.1-.2.1h-.1l-.2.1h-.2v.1h-.2l-.2.1H363.8l-.2.1h-.1l-.2.1h-.1l-.2.1H362.7l-.2.1H362.2l-.2.1H361.7l-.1.1h-.4l-.1.1h-.5l-.2.1H359.8l-.2.1h-.9l-.2.1h-.9l-.2.1H354.2l-.2.1h-.5l-.1.1h-.5l-.2.1h-.8l-.2.1H350.3l-.2.1H345.8l-.2-.1h-.6l-.2-.1h-.5l-.1-.1h-.4l-.1-.1H343.4l-.2-.1H342.9l-.2-.1H342.4l-.2-.1h-.1l-.2-.1H341.6l-.2-.1h-.1l-.2-.1h-.2l-.1-.1h-.2l-.1-.1h-.2l-.2-.1h-.1l-.2-.1h-.1l-.2-.2H339.2l-.2-.1h-.1l-.2-.1-.1-.1h-.2l-.1-.1-.2-.1h-.2l-.1-.1-.2-.1h-.1l-.2-.1v-.1h-.1l-.2-.1h-.1l-.2-.2h-.1l-.2-.1-.1-.1h-.2l-.1-.2h-.1l-.2-.1-.1-.1-.2-.1-.1-.1h-.2l-.1-.2h-.2l-.1-.2h-.1l-.2-.2h-.1l-.2-.1-.1-.1-.1-.1-.2-.1-.1-.1-.2-.1v-.2h-.2l-.1-.2-.1-.1-.1-.1-.2-.2-.2-.2-.1-.1-.1-.2-.1-.1-.1-.1-.1-.2h-.1l-.1-.2-.1-.2-.1-.1-.1-.1-.1-.2-.1-.1-.1-.1-.1-.2-.1-.1-.1-.2-.1-.1-.1-.1v-.1h-.1l-.1-.2v-.2l-.2-.1v-.2l-.1-.1-.1-.1-.1-.2-.1-.1v-.2l-.2-.1v-.2l-.1-.1-.1-.2v-.1l-.2-.2v-.1l-.1-.2v-.1l-.2-.2V443.4l-.2-.1v-.2l-.1-.1v-.2l-.1-.1-.1-.2v-.1l-.1-.2v-.2l-.2-.1V441.6l-.1-.2v-.1l-.1-.2-.1-.1v-.2l-.1-.2v-.1l-.1-.2v-.1l-.1-.2v-.2l-.1-.1v-.2l-.1-.1v-.4l-.1-.1v-.2l-.1-.1v-.4l-.1-.1v-.2l-.1-.1v-.4l-.1-.1v-.5l-.1-.2v-.5l-.1-.1v-.5l-.1-.2V434.5l-.1-.2v-1.5l-.1-.2V424.4l.1-.1V423.4l.1-.1v-.7l.1-.2v-.5l.1-.1V421.5l.1-.2V421l.1-.2V420.5l.1-.2v-.1l.1-.2V419.7l.1-.2v-.1l.1-.2v-.2l.1-.1V418.6h.1v-.2l.1-.2v-.1l.1-.2v-.1l.1-.2v-.1l.1-.2v-.2l.1-.1.1-.2v-.1l.1-.2v-.1l.1-.2.1-.1v-.2l.1-.2.1-.1v-.2l.1-.1.1-.2v-.1l.2-.2v-.1l.1-.2v-.1l.2-.2v-.1l.1-.2v-.1l.2-.2v-.1l.1-.2.1-.1v-.1l.2-.2v-.1l.1-.2.1-.1.1-.2.1-.1.1-.2.2-.2v-.2l.2-.1v-.1l.2-.2v-.1l.2-.2.2-.2v-.2l.2-.1v-.1l.2-.2v-.1l.2-.1.1-.2h.1l.1-.2.1-.1.1-.2.1-.1.2-.1v-.2h.2l.1-.2h.2v-.2l.2-.1.2-.1v-.1l.2-.1.1-.1.2-.1.1-.1.2-.1v-.1l.2-.1.2-.1.1-.1.1-.1.2-.1.1-.1.2-.1v-.1l.2-.1.2-.1h.1l.2-.2h.1v-.1h.1l.2-.1.1-.1.2-.1.1-.1h.2l.1-.2h.2l.1-.1h.2l.1-.2h.2l.1-.1.2-.1h.1l.2-.1.1-.1h.2l.1-.2h.4l.1-.2H340.2l.2-.1.1-.1h.2l.1-.1.2-.1h.2l.1-.1h.2l.1-.1h.2l.2-.1h.1l.2-.1h.1l.2-.1h.2l.1-.1h.2l.1-.1h.2l.2-.1h.1l.2-.1H344.2l.2-.1H344.7l.2-.1h.2l.1-.1h.5l.2-.1H346.2l.2-.1h.7l.1-.1H348.1l.2-.1H352.7z" fill="#e5e1f9"/><circle cx="623.8" cy="346" r="14.6" fill="#e5e1f9"/><path d="M623.7 334h-.6l-.2.1h-.1l-.2.1H622.3l-.1.1h-.2l-.1.1h-.1l-.2.1-.1.1h-.2v.1h-.2l-.2.1-.2.2H620.4v.2H620l-.1.1-.2.1-.1.1h-.1l-.1.2h-.1l-.2.1-.2.2h-.1l-.1.1-.1.1h-.1l-.1.2h-.1l-.1.2h-.1l-.1.1-.1.1-.1.1-.1.1h-.1l-.1.2h-.1l-.1.2h-.1v.1l-.2.1v.1l-.2.1v.1l-.1.1-.1.1-.1.1v.1h-.2l-.1.1-.1.1h-.1l-.1.2h-.1l-.2.1v.1h-.2v.2h-.2v.1l-.2.1v.1l-.2.1h-.1l-.1.2h-.1l-.1.2h-.1l-.1.1-.1.1-.1.1-.1.1-.1.1-.1.1-.1.1-.1.2h-.1l-.1.2-.2.2v.1h-.1v.1l-.1.1-.1.2h-.1l-.1.2v.1l-.2.2-.1.2-.1.1v.2l-.1.1-.1.2-.2.2v.2l-.1.1v.2l-.1.1v.1l-.1.2-.1.1V344.5l-.1.2v.2l-.1.1V345.3l-.1.2V345.8l-.1.2v.5l.1.1v.4l.1.1v.2l.1.1v.2l.1.1v.2l.1.1v.2l.1.1.1.2v.1l.1.1.1.2v.1l.1.1.1.2.1.1v.1l.2.2v.1l.1.1.1.1v.2h.2v.2l.1.1.1.1.1.2h.1l.1.2h.1l.1.2v.1l.2.1v.1l.2.1v.1l.2.1v.1l.2.1v.1l.2.1h.1l.1.2h.1l.1.1.1.1.1.1.1.1h.1l.2.2.2.1v.1h.2v.1h.1l.1.1.1.1h.1l.1.2h.1v.1l.2.2.1.2.2.2v.1l.1.1v.1l.2.1v.2h.1l.1.2h.1l.1.2.1.1v.1l.2.1v.1l.2.2.2.2.2.2.2.2v.1l.2.1.1.1.1.1.1.1.2.1v.1l.2.1.1.1.2.1.2.2h.1l.2.2h.1l.1.1.2.1.1.1h.2l.1.2h.2l.1.1.2.1h.1l.2.1.1.1h.2l.1.2h.4l.1.1h.2l.2.1H623.8l.2.1H624.3l.2.1h.7l.2-.1h.1l.2-.1h.2l.1-.2H626.3l.2-.2H626.8v-.1l.1-.1h.2l.1-.2h.2l.1-.2h.1l.2-.2h.1l.1-.2h.2v-.2h.2l.1-.2h.1l.2-.2v-.1l.2-.1.1-.1.1-.1.1-.2h.1l.1-.2.1-.1.1-.1.1-.1.1-.2h.1l.1-.2.1-.1v-.1l.2-.2.1-.2.1-.1v-.1l.2-.2v-.1l.1-.1v-.1l.2-.2v-.2l.2-.1v-.1l.1-.2.1-.2v-.1l.1-.1.1-.2.2-.2.2-.1v-.1h.2v-.2h.2l.1-.1.1-.1.1-.1.1-.1h.1l.1-.2h.1l.1-.2h.1l.2-.1v-.1l.2-.1v-.1l.2-.1v-.1l.2-.1v-.2h.2v-.2h.2v-.2h.1v-.1l.2-.1v-.1l.1-.2h.1l.1-.2.1-.1.1-.2v-.1l.2-.1v-.2l.1-.1.1-.1v-.2l.2-.1v-.2l.1-.1v-.2h.1v-.1l.1-.2v-.1l.1-.2v-.1l.1-.2v-.1l.1-.2V346.5l.1-.2V345.5l-.1-.2V345l-.1-.2v-.1l-.1-.2V344.2l-.1-.1v-.1l-.2-.2V343.5l-.1-.2-.1-.1v-.2l-.1-.1-.1-.1v-.2l-.2-.1v-.1l-.1-.2v-.1l-.2-.1v-.2h-.1l-.1-.2-.1-.1v-.2h-.2v-.2l-.2-.1v-.1l-.1-.1-.1-.2h-.1l-.1-.2h-.1l-.1-.2h-.1l-.1-.2h-.1l-.1-.2h-.1l-.1-.2h-.1l-.1-.2h-.1l-.1-.2h-.2v-.1l-.2-.1v-.1h-.2l-.1-.2h-.1l-.1-.1h-.1l-.2-.2-.2-.1-.2-.2h-.1l-.1-.1h-.1l-.2-.1v-.1h-.2l-.1-.1h-.1l-.1-.1-.1-.1-.1-.1-.1-.1h-.1l-.1-.2h-.1l-.1-.2h-.1l-.1-.1-.1-.1h-.1l-.1-.2h-.1l-.1-.1-.1-.1-.1-.1h-.1l-.1-.2h-.1l-.2-.1v-.1h-.2l-.1-.2h-.1l-.1-.1h-.2v-.2h-.2l-.1-.1h-.1l-.2-.1v-.1h-.2l-.2-.1v-.1h-.2l-.1-.1h-.2l-.1-.1-.2-.1h-.1l-.1-.1h-.2l-.1-.1h-.2l-.1-.1H624.6l-.2-.1h-.1l-.2-.1h-.4zm.3-5.2H625l.3-.1H628.5l.2.1h.4l.2.1h.3l.2.1h.2l.2.1h.3l.2.1h.2l.2.1.2.1h.2l.2.1.2.1h.3l.2.2h.2l.2.1.2.1.2.1.2.1.2.1.2.1.2.1.2.1.2.1.2.2h.2l.1.2h.2v.1l.2.2.1.1.2.2.2.2.1.1.2.2.1.2.1.1.2.2.1.2.2.1.1.2.1.2.2.2v.1l.2.2.1.2.1.2.2.2v.2l.2.2v.2l.2.1v.2l.2.2v.2l.2.2v.2l.2.2v.2l.1.2.1.2v.2l.2.2v.2l.1.2v.2l.1.2.1.2v.2l.1.2v.2l.1.3v.2l.1.2v.2l.1.2v.2l.1.2v.4l.1.2V342l.1.2V346.2l-.1.1v.7l.1.2V352l-.1.3v.4l-.1.2v.2l-.1.2v.2l-.1.3v.2l-.1.2v.2l-.1.2-.1.2v.2l-.1.2-.1.3-.1.2v.2l-.2.2v.2l-.1.2-.1.2-.1.2-.2.2v.2l-.2.2v.2l-.2.2-.1.1-.1.2-.2.2-.1.2h-.2l-.2.2-.2.2h-.2l-.2.2-.1.1-.2.2h-.2l-.2.2-.2.1-.2.1-.2.1-.2.1-.2.1h-.2l-.2.2h-.2l-.2.1-.2.1-.2.1h-.2l-.2.1-.2.1h-.2l-.2.1-.3.1h-.2l-.2.1h-.2l-.2.1h-.2l-.2.1h-.4l-.2.1h-.4l-.3.1h-.8l-.2.1H624.4l-.2.1h-.4l-.2.1h-.4l-.2.1H622.4l-.2.1h-.4l-.2.1H617.5l-.2-.1h-.4l-.3-.1h-.2l-.2-.1h-.2l-.2-.1h-.2l-.2-.1h-.2l-.3-.2h-.4l-.2-.2h-.2l-.2-.1h-.2l-.2-.2h-.2l-.2-.2h-.2l-.2-.2h-.2l-.2-.2-.2-.1-.2-.1-.2-.1-.2-.2h-.2v-.1l-.1-.1-.2-.2-.1-.1-.2-.2-.1-.2-.1-.1-.2-.2-.1-.2-.2-.2v-.2l-.2-.2-.1-.2-.1-.1-.1-.2-.2-.2v-.2l-.2-.2v-.2l-.2-.2v-.2l-.2-.2v-.2l-.1-.2-.1-.2v-.2l-.2-.2v-.2l-.1-.2v-.2l-.2-.3v-.4l-.1-.2-.1-.2v-.2l-.1-.2v-.2l-.1-.2v-.5l-.1-.2v-.4l-.1-.2V350.5l-.1-.3V341l.1-.2v-.5l.1-.2v-.2l.1-.2v-.2l.1-.2v-.2l.1-.3v-.2l.1-.2v-.2l.2-.2v-.4l.2-.2v-.2l.1-.2.1-.2v-.2l.2-.2v-.2l.1-.2.1-.2.1-.2.1-.2.1-.2.1-.2.2-.2v-.2l.2-.2.1-.2.1-.1.2-.2v-.2l.2-.2.1-.2.2-.2.1-.1.2-.2v-.2l.3-.1.1-.2.2-.1.2-.1.2-.2.2-.1.1-.1.2-.1.2-.2h.2l.2-.2.2-.1.2-.1.2-.2h.1l.2-.2h.2l.2-.1.2-.1.2-.1.3-.1.2-.1h.2l.2-.2h.2l.2-.1h.2l.2-.2h.2l.2-.1h.2l.2-.1h.3l.2-.1h.2l.2-.1h.2l.2-.1h.5l.2-.1h.4l.2-.1H621.4l.2-.1H623.4l.2.1h.4z" fill="#e5e1f9"/><circle cx="542.5" cy="419.7" r="46.3" fill="#f7f6fd"/><clipPath id="h"><circle cx="542.5" cy="419.7" r="46.3"/></clipPath><g clip-path="url(#h)"><path d="M520.5 395.2a37.9 37.9 0 0 0-1.4 14.1c0 2.2-.3 4.3-1.2 6.3l-3.8 8.9 4.2 2s-.7 9.2.6 11.3c1.3 1.5 5.9 5.4 12.4 5.4a147 147 0 0 0 4 11.5c3.9 10.1 24.8-1.7 19.4-7.5-2.7-2.9-4.4-6.3-4-10.1.4-2.9 2-17.6-.2-24.1-.4-1.3-1-2.5-1.7-3.7-1.3-2-2.9-4-4.6-5.8-4.2-4.5-9-9.3-15.2-10.5-5.6-1.1-7.7-4-8.5 2.2z" fill="#c1bae7"/><clipPath id="i"><path d="M520.5 395.2a37.9 37.9 0 0 0-1.4 14.1c0 2.2-.3 4.3-1.2 6.3l-3.8 8.9 4.2 2s-.7 9.2.6 11.3c1.3 1.5 5.9 5.4 12.4 5.4a147 147 0 0 0 4 11.5c3.9 10.1 24.8-1.7 19.4-7.5-2.7-2.9-4.4-6.3-4-10.1.4-2.9 2-17.6-.2-24.1-.4-1.3-1-2.5-1.7-3.7-1.3-2-2.9-4-4.6-5.8-4.2-4.5-9-9.3-15.2-10.5-5.6-1.1-7.7-4-8.5 2.2z"/></clipPath><g clip-path="url(#i)" fill="#aea5e0"><path d="M517 406.7c8.3-2.2 26.7 1.1 24.2-.7-5.9-4-21-8-22-6.8l-2.2 7.5zM536.8 429.2a32 32 0 0 0 1.4 14c1.2 2.5 3 4.6 4.2 7.2 1.6 3.9 2.2 8 4.4 11.6 1.8 2.9 5.6 8.9 9.8 7.8 6.8-1.9 6.6-11.5 5-17-1.3-4-4-7.5-6.7-10.7-2-2.5-4.2-4.9-7-6.6-1.7-1-3.8-1.6-5.6-2.5-2.2-1-5.5-3.8-5.5-3.8z"/></g><path d="M537.4 505.6c-11.4-2-14.8 2.6-18.5-10.8-.5-1.8-.2-3.8.9-5.4 3.8-8.9 5.7-30 13.8-39 13-14.3 31.5-4 40.6 29.5 3.5 12.6.7 50 1.1 60.5 1.1 26.4-2.9 31.7 3.6 50.9a4 4 0 0 1-4.4 5.2c-43.3-6.6-34.7-49.6-41.4-55-7-5.6-11.2-5.5-11.2-5.5l15.5-30.4z" fill="#231768"/><clipPath id="j"><path d="M537.4 505.6c-11.4-2-14.8 2.6-18.5-10.8-.5-1.8-.2-3.8.9-5.4 3.8-8.9 5.7-30 13.8-39 13-14.3 31.5-4 40.6 29.5 3.5 12.6.7 50 1.1 60.5 1.1 26.4-2.9 31.7 3.6 50.9a4 4 0 0 1-4.4 5.2c-43.3-6.6-34.7-49.6-41.4-55-7-5.6-11.2-5.5-11.2-5.5l15.5-30.4z"/></clipPath><g clip-path="url(#j)"><path d="M555.4 473c-6.8 17.5 2.4 39.3-9.5 55.2-6.2 8.2-17.4 11.3-26.4 12.3-2.7.3-10.1.4-10.5-4.2-.3-4.4 2.9-8.6 5.2-11.7a44 44 0 0 1 10.2-10.4c5.1-3.4 10.8-5.3 15-10.3 7.2-8.2 8.7-19.7 13.1-29.7" fill="#231768" fill-opacity=".5"/></g><path d="M550.2 443.4v.1c1.2-.3 11.2-8.6 16-18.3a40.7 40.7 0 0 0 3.8-17c-.2-26-24.6-26.1-27.5-25-8.9 3.7-15 1-19.8 2.5a9.7 9.7 0 0 0-1 18.4c2.6 1.2 8 3.2 9.2 5.3l.1.2 2.1 3.3c1.3 2 4 2.7 6 1.6 1.2-.6 2.3-1 3.3-.3 3.5 2.5 3 6.6 1.4 10-2.4 4.8-3.8 3.1-6.3 2.6v1.1c-.1 0-.1-.1-.1 0V428.8c.1 1.3.6 2.6 1 4 1 5.2 8.4 11 11.8 10.6z" fill="#231768"/></g><path d="M542.2 375.3h-1.5l-.2.1H539.6l-.3.1h-.5l-.3.1h-.6l-.2.1h-.3l-.3.1h-.3l-.3.1h-.5l-.3.1-.2.1h-.3l-.3.1h-.3l-.2.1h-.3l-.3.1-.2.1h-.3l-.3.1-.2.1h-.3l-.3.2h-.2l-.3.1h-.2l-.3.2h-.3l-.2.1-.3.1h-.2l-.3.2h-.2l-.3.2h-.3l-.2.1-.3.1-.2.1-.3.1-.2.1-.3.1-.2.1-.3.1-.2.1-.3.1-.2.1-.3.1-.2.1-.2.2h-.3l-.2.2-.3.1-.2.1-.2.1-.3.1-.2.2h-.3l-.2.2-.2.1-.3.2h-.2l-.2.2-.3.1-.2.2-.2.1-.2.1-.3.2-.2.1-.2.1-.2.2-.3.1-.2.2-.2.1-.2.1-.2.2-.3.1-.2.2-.2.1-.2.2-.2.1-.2.2-.3.1-.2.2-.2.2-.2.1-.2.2-.2.1-.2.2-.2.1-.2.2-.2.2-.2.1-.2.2-.2.2-.2.1-.2.2-.2.2-.2.1-.2.2-.2.2-.2.1-.2.2-.2.2-.2.2-.2.1-.2.2-.2.2-.2.2-.1.2-.2.2-.2.1-.2.2-.2.2-.2.1-.2.2-.2.2-.2.2-.2.2-.1.1-.2.2-.2.2-.2.2-.2.2-.2.2-.1.2-.2.2-.2.1-.2.2-.2.2-.1.2-.2.2-.2.2-.1.2-.2.2-.2.2-.1.2-.2.2-.2.2-.2.2-.1.2-.2.2-.2.2-.1.2-.2.3-.1.2-.2.2-.2.2-.1.2-.2.2-.1.2-.2.2-.1.3-.2.2-.1.2-.2.2-.1.2-.2.2-.1.3-.2.2-.1.2-.1.2-.2.3-.1.2-.2.2v.3l-.2.2-.2.2v.3l-.2.2-.1.2-.2.3-.1.2-.1.2-.1.3-.2.2v.2l-.2.3-.1.2-.1.3-.2.2v.3l-.2.2v.3l-.2.2-.1.2-.1.3-.1.2-.1.3-.1.2-.1.3-.1.3-.1.2-.1.3-.1.2-.1.3-.1.2v.3l-.2.3v.2l-.1.3-.1.2-.1.3-.1.3v.2l-.2.3v.3l-.1.2v.3l-.1.3-.1.2v.3l-.2.3v.5l-.1.3-.1.3v.2l-.1.2v.4l-.1.3v.2l-.1.3v.3l-.1.3v.5l-.1.3v.6l-.1.3v.5l-.1.3V418l-.1.3V422.3l.1.3v.6l.1.2v.6l.1.3v.3l.1.2v.6l.1.3v.3l.1.2v.3l.1.3V427l.2.2v.6l.1.2.1.3v.3l.1.3.1.2v.3l.2.3v.2l.1.3.1.3v.2l.2.3v.2l.1.3.1.3.1.2.1.3v.2l.2.3v.2l.2.3v.3l.2.2v.3l.2.2v.3l.2.2v.3l.2.2.1.3.1.2.1.2.1.3.2.2v.3l.2.2.1.3.1.2.2.2v.3l.2.2.1.3.2.2v.2l.2.3.2.2v.2l.2.2.2.3v.2l.2.2.2.3.1.2.1.2.2.2.1.3.2.2.1.2.2.2.1.2.2.3.1.2.2.2.1.2.2.2.1.2.2.2.2.2.1.3.2.2.1.2.2.2.2.2.1.2.2.2.2.2.1.2.2.2.2.2.2.2.1.2.2.2.2.2.2.2.1.2.2.2.2.1.2.2.1.2.2.2.2.2.2.2.2.2.2.1.2.2v.1l.1.1.2.2.2.2.2.2.2.1.2.2.2.2.2.2.2.1.1.2.2.2.2.2.2.2.2.1.2.2.2.2.1.2.2.2.2.2.2.1.2.2.2.2.2.2.2.1.2.2.2.2.2.1.2.2.2.2.2.1.2.2.2.2.2.1.2.2.2.2.2.1.3.2.2.1.2.2.2.2.2.1.2.2.2.1.2.2.3.1.2.2.2.1.2.2.2.1.3.2.2.1.2.2.2.1.3.1.2.2.2.1.2.2.3.1.2.1.2.2.3.1.2.1.2.2h.3l.2.2.2.1.3.2h.2l.3.2.2.1.3.2h.2l.2.2.3.1.2.1.3.1.2.1.3.1.2.1.3.2h.2l.3.2h.2l.3.2h.3l.2.2h.3l.2.2h.3l.3.1.2.1.3.1.2.1h.3l.3.2h.2l.3.1.3.1h.2l.3.2h.3l.3.1h.2l.3.1.3.1h.2l.3.1.3.1h.3l.3.1h.2l.3.1.3.1h.3l.3.1h.2l.3.1h.6v.1h.8l.3.1h.6l.3.1H541.6l.3.1H546.8l.3-.1h.6l.3-.1h.2l.3-.1.3-.1h.3l.3-.1h.2l.3-.1h.3l.3-.2h.5l.3-.2h.3l.2-.1h.3l.3-.1h.1l.2-.1.2-.1h.3l.3-.2h.2l.3-.2h.3l.2-.1.3-.1.2-.1.3-.1.3-.1.2-.1.3-.1.2-.1.3-.1.2-.1.3-.2h.3l.2-.2h.3l.2-.2.3-.1.2-.1.3-.1.2-.2h.2l.3-.2.2-.1.3-.2h.2l.3-.2.2-.1.2-.2.3-.1.2-.1.2-.2.3-.1.2-.1.1-.1h.1l.3-.2.2-.2.2-.1.3-.1.2-.2.2-.1.2-.2.3-.1.2-.2.2-.1.2-.2.2-.1.3-.2.2-.2.2-.1.2-.2.2-.1.2-.2.2-.1.3-.2.2-.2.2-.1.2-.2.2-.2.2-.1.2-.2.2-.2.2-.2.2-.1.2-.2.2-.2.2-.2.2-.1.2-.2.2-.2.2-.2.2-.2.1-.1.2-.2.2-.2.2-.2.2-.2.2-.2.2-.1.2-.2.1-.2.2-.2.2-.2.2-.2.2-.2.1-.2.2-.2.2-.2.2-.2.1-.2.2-.2.2-.1.1-.2.2-.2.2-.3.1-.2.2-.2.2-.2.1-.1.2-.2.2-.2.2-.2.2-.2.1-.2.2-.2.2-.2.2-.2.1-.2.2-.2.2-.2.1-.2.2-.2.2-.2.1-.2.2-.2.2-.2.1-.2.2-.2.1-.2.2-.2.1-.2.2-.3.2-.2.1-.2.2-.2.1-.2.2-.2.1-.2.2-.3.1-.2.2-.2.1-.2.2-.2.1-.3.2-.2.1-.2.1-.2.2-.3.1-.2.2-.2.1-.2.1-.3.2-.2.1-.2.1-.3.2-.2v-.2l.2-.3.1-.2.2-.3v-.2l.2-.2.1-.3.1-.2.2-.3v-.2l.2-.2.1-.3.1-.2.1-.3.1-.2.1-.3.1-.2.1-.3.1-.2.1-.3.1-.2.1-.3.1-.3.1-.2.1-.3.1-.2.1-.3.1-.2v-.3l.2-.3v-.2l.1-.3.1-.3.1-.2v-.3l.2-.3v-.2l.1-.3v-.3l.2-.2v-.6l.2-.3v-.5l.1-.3v-.3l.1-.2v-.3l.1-.3v-.3l.1-.2v-.3l.1-.3v-.3l.1-.3v-.5l.1-.3V422l.1-.3v-.8l.1-.2V418.3l-.1-.3V417l-.1-.3v-.8l-.1-.3v-.3l-.1-.3v-.5l-.1-.3v-.3l-.1-.3v-.3l-.1-.2v-.3l-.1-.3v-.3l-.1-.2v-.3l-.1-.3-.1-.3v-.2l-.1-.3-.1-.3v-.2l-.2-.3v-.3l-.1-.2v-.3l-.2-.3v-.2l-.1-.3-.1-.3v-.2l-.2-.3v-.2l-.2-.3v-.3l-.1-.2-.1-.3-.1-.2-.1-.3-.1-.2-.1-.3-.1-.3-.1-.2-.1-.3-.1-.2-.1-.3-.2-.2v-.3l-.2-.2v-.2l-.2-.3-.1-.2-.1-.3-.2-.2v-.3l-.2-.2-.1-.2-.1-.3-.2-.2v-.3h-.2v-.2l-.2-.2v-.3l-.2-.2-.1-.2-.2-.3-.1-.2-.2-.2-.1-.2-.1-.3-.2-.2-.1-.2-.2-.2-.1-.3-.2-.2-.1-.2-.2-.2-.1-.2-.2-.3-.1-.2-.2-.2-.1-.2-.2-.2-.1-.2-.2-.3-.2-.2-.1-.2-.2-.2-.1-.2-.2-.2-.2-.2-.1-.2-.2-.2-.2-.2-.1-.2-.2-.2-.2-.2-.2-.2-.1-.2-.2-.2-.2-.2-.2-.2-.2-.2-.1-.2-.2-.2-.2-.1-.2-.2-.2-.2v-.1l-.1-.1-.2-.2-.2-.2-.2-.2-.2-.1-.2-.2-.2-.2-.2-.2-.2-.2-.2-.1-.1-.2-.2-.2-.2-.2-.2-.1-.2-.2-.2-.2-.2-.1-.2-.2-.2-.2-.2-.1-.2-.2-.2-.2-.3-.1-.2-.2-.2-.1-.2-.2-.2-.1-.2-.2-.2-.1-.2-.2-.2-.1-.2-.2-.2-.2-.2-.1-.3-.2-.2-.1-.2-.2-.2-.2-.2-.1-.2-.2-.2-.1-.2-.2-.2-.1-.3-.2-.2-.1-.2-.2-.2-.1-.2-.1-.3-.2-.2-.1-.2-.2-.2-.1-.2-.1-.3-.2-.2-.1-.2-.1-.2-.2-.3-.1-.2-.1-.2-.2-.3-.1-.2-.1-.2-.2h-.3l-.2-.2-.2-.1-.3-.1-.2-.2h-.2l-.3-.2-.2-.1-.3-.1-.2-.1-.2-.2h-.3l-.2-.2h-.3l-.2-.2h-.3l-.2-.2h-.3l-.2-.2h-.3l-.2-.2h-.3l-.2-.2h-.3l-.2-.2h-.3l-.2-.1-.3-.1-.2-.1-.3-.1h-.3l-.2-.2h-.3l-.2-.1-.3-.1h-.3l-.2-.1-.3-.1h-.2l-.3-.2h-.5l-.3-.2h-.5l-.3-.1-.3-.1h-.3l-.2-.1h-.3l-.3-.1h-.2l-.3-.1h-.3l-.3-.1h-.5l-.3-.1h-.3l-.3-.1h-.5l-.3-.1H544.4l-.2-.1H543l-.2-.1h-.6zm.6-3.8H548l.3.1H549.2l.3.1h.6l.3.1h.3l.3.1h.6l.3.1h.3l.3.1h.3l.3.1h.3l.3.1.3.1h.3l.3.1h.3l.3.2h.3l.3.1h.3l.3.1.3.1.3.1h.2l.3.1.3.1.3.1.3.1.3.1h.3l.3.2h.2l.3.2h.3l.3.2h.3l.2.2h.3l.3.2h.3l.3.2.2.1.3.1.3.1.3.2h.2l.3.2.3.1.3.1.2.2h.3l.3.2.2.1.3.2.3.1.2.1.3.2.3.1.2.1.3.2.2.1.3.2.3.1.2.2.3.1.2.2.3.1.2.2.3.1.2.2.3.2.2.1.3.2.2.2.3.1.2.2.3.2.2.1.3.2.2.2.2.2.3.1.2.2.2.2.2.2.3.2.2.2.2.2.2.2.2.2.3.2.2.2.2.2.2.2.2.2.2.2.2.2.2.2.2.2.3.3.2.2.2.2.2.2.2.2.2.2.2.2.2.3.2.2.1.2.2.2.1.1.1.1.2.3.2.2.2.2.2.3.2.2.1.2.2.3.2.2.2.2.1.3.2.2.2.2.2.3.1.2.2.3.2.2.1.2.2.3.2.2.1.3.2.2.1.3.2.2.1.3.2.2.2.3.1.2.2.3.1.2.1.3.2.2.1.3.2.3.1.2.2.3v.2l.2.3.2.3v.2l.2.3.1.2.2.3.1.3.1.2.1.3.2.3v.2l.1.2.1.1.1.3.1.3.1.2.2.3v.3l.2.2v.3l.2.3v.3l.2.3v.2l.2.3v.3l.2.3v.2l.2.3v.3l.1.3.1.3.1.3v.2l.2.3v.3l.1.3v.3l.2.3v.3l.1.2v.3l.1.3.1.3v.3l.1.3v.3l.1.3.1.3v.3l.1.3v.3l.1.3v.2l.1.3v.6l.1.3v.6h.1v.6l.1.3V414l.1.3V415.1l.1.3v9.8l-.1.3V426.4l-.1.3v.6l-.1.3v.6l-.1.3v.3l-.1.3v.6l-.1.3v.3l-.1.2v.3l-.1.3v.3l-.1.3-.1.3v.3l-.1.3v.3l-.2.3v.3l-.1.3v.2l-.1.3-.1.3v.3l-.2.3v.3l-.1.3-.1.3-.1.2v.3l-.2.3v.3l-.2.3v.2l-.1.3-.1.3-.1.3-.1.3-.1.2-.1.3-.2.3v.3l-.2.2v.3l-.2.3-.1.3-.1.2-.1.3-.2.3v.3l-.2.2-.1.3-.2.3v.2l-.2.3-.1.3-.2.2-.1.3-.1.2-.2.3-.1.3-.2.2v.3l-.2.2-.2.3-.1.3-.2.2-.1.3-.2.2-.1.3-.2.2-.1.3-.2.2-.2.3-.1.2-.2.3-.2.2-.1.3-.2.2-.2.2-.1.3-.2.2-.2.3-.2.2-.2.2-.1.3-.2.2-.2.2-.2.3-.2.2-.2.2-.2.2-.2.2-.2.2-.2.3-.2.2-.2.2-.2.2-.3.2-.2.2-.2.2-.2.2-.2.2-.3.2-.2.1-.2.2-.2.2-.3.2-.2.2-.2.2-.2.2-.3.2-.2.1-.2.2-.3.2-.2.2-.2.1-.3.2-.2.2-.3.2-.2.1-.2.2-.3.1-.2.2-.3.2-.2.1-.3.2-.2.1-.3.2-.2.1-.3.2-.2.2-.3.1-.2.1-.3.2-.2.1-.3.2-.3.1-.2.2h-.3l-.2.2-.3.2-.3.1-.2.1-.3.2h-.2l-.3.2-.3.1-.2.2h-.3l-.3.2-.2.1-.3.1-.3.1-.1.1h-.1l-.3.2h-.3l-.3.2-.2.1-.3.1-.3.1-.3.1-.2.1-.3.1-.3.1-.3.1h-.2l-.3.2h-.3l-.3.2h-.3l-.2.1-.3.1h-.3l-.3.2h-.3l-.2.1-.3.1h-.3l-.3.1-.3.1h-.3l-.3.1-.2.1h-.3l-.3.1h-.3l-.3.1-.3.1h-.3l-.3.1h-.3l-.2.1H552.9l-.3.1h-.6l-.3.1h-.3l-.3.1h-.6l-.3.1h-.6l-.3.1h-.5l-.3.1H547l-.3.1h-1.2l-.3.1h-.6l-.3.1H543l-.3.1H535.8l-.3-.1H534.6l-.3-.1h-.6l-.3-.1h-.6l-.3-.1h-.3l-.3-.1h-.2l-.3-.1h-.3l-.3-.1h-.3l-.3-.1-.3-.1h-.3l-.3-.1h-.3l-.3-.1-.2-.1h-.3l-.3-.2h-.3l-.3-.1h-.3l-.3-.2h-.3l-.2-.1-.3-.1h-.3l-.3-.2h-.3l-.3-.1-.2-.1-.3-.1-.3-.1-.3-.1-.3-.1-.2-.1-.3-.1-.3-.1-.3-.1-.2-.1-.3-.1-.3-.2h-.3l-.2-.2-.3-.1-.3-.1-.2-.1-.3-.2h-.3l-.2-.2-.3-.1-.3-.2h-.2l-.3-.2-.3-.1-.2-.2-.3-.1-.3-.1-.2-.2-.3-.1-.2-.2-.3-.1-.3-.2-.2-.1-.2-.1-.3-.2-.3-.2-.2-.1-.3-.2-.2-.1-.3-.2-.2-.1-.3-.2-.2-.2-.3-.1-.2-.2-.2-.2-.3-.1-.2-.2-.3-.2-.2-.2-.2-.1-.3-.2-.2-.2-.2-.2-.3-.2-.2-.1-.2-.2-.3-.2-.2-.2-.2-.2-.2-.2-.2-.2-.3-.2-.2-.2-.2-.2-.2-.2-.2-.3-.2-.2-.2-.2-.2-.2-.1-.1-.1-.1-.2-.2-.2-.3-.2-.2-.2-.2-.2-.2-.2-.3-.1-.2-.2-.2-.2-.3-.2-.2-.2-.2-.2-.3-.1-.2-.2-.2-.2-.3-.1-.1v-.1l-.2-.2-.2-.3-.2-.2-.1-.3-.2-.2-.2-.3-.1-.2-.2-.2-.1-.3-.2-.2-.2-.3-.1-.2-.2-.3-.1-.2-.2-.3-.1-.3-.2-.2-.1-.3-.2-.2-.1-.3-.1-.2-.2-.3-.1-.3-.2-.2v-.3l-.2-.3-.1-.2-.2-.3-.1-.2-.1-.3-.2-.3v-.2l-.2-.3-.1-.3-.1-.3-.2-.2v-.3l-.2-.3-.1-.2-.1-.3-.1-.3v-.1l-.1-.2-.1-.2-.1-.3-.1-.3-.1-.3-.1-.3-.1-.2-.1-.3-.1-.3-.1-.3-.1-.3v-.2l-.2-.3v-.3l-.1-.3-.1-.3-.1-.3v-.3l-.2-.2v-.3l-.1-.3v-.3l-.1-.3-.1-.3v-.3l-.1-.3-.1-.3v-.3l-.1-.2v-.3l-.1-.3v-.3l-.1-.3v-.3l-.1-.3v-.3l-.1-.3v-.3l-.1-.3v-.6l-.1-.2v-.7l-.1-.3v-.6l-.1-.3V424.6l-.1-.3V418.5l-.1-.3v-2.8l.1-.3V414l.1-.3v-.6l.1-.3v-.6l.1-.3v-.6l.1-.3v-.3l.1-.3v-.3l.1-.3v-.3l.1-.3v-.3l.1-.3v-.2l.1-.3v-.3l.2-.3v-.6l.2-.3v-.6l.2-.3v-.2l.1-.3.1-.3v-.3l.2-.3v-.3l.1-.3.1-.2.1-.3v-.3l.2-.3v-.3l.2-.3v-.2l.2-.3v-.3l.2-.3v-.2l.2-.3v-.3l.2-.3.1-.2.1-.3.1-.3.1-.3.2-.2v-.3l.2-.3.1-.2.1-.3.2-.3.1-.2.1-.3.2-.3v-.2l.2-.3.2-.3v-.2l.2-.3.2-.2.1-.3.2-.3v-.2l.2-.3.2-.2.1-.3.2-.2.1-.3.2-.2.1-.3.2-.2.2-.3.1-.2.2-.3.1-.2.2-.3.2-.2.1-.3.2-.2.2-.3.1-.2.2-.2.2-.3.2-.2.2-.2.1-.3.2-.2.2-.2.2-.3.2-.2.2-.2.2-.2.1-.3.2-.2.2-.2.2-.2.2-.3.2-.2.2-.2.2-.2.2-.2.2-.3.2-.2.2-.2.2-.2.2-.2.3-.2.2-.2.2-.2.2-.2.3-.2.2-.2.2-.1.2-.2.3-.2.2-.2.2-.2.3-.2.2-.2.2-.1.3-.2.2-.2.2-.2.3-.1.2-.2.3-.2.2-.2.2-.1.3-.2.2-.2.3-.1.1-.1h.1l.3-.2.2-.2.3-.2.2-.1.3-.2.2-.1.3-.2.2-.1.3-.2.3-.1.2-.2.3-.1.2-.1.3-.2.3-.1.2-.1.3-.2.3-.1.2-.1.3-.2.3-.1.2-.1.3-.2h.3l.2-.2.3-.1.3-.1.3-.2h.2l.3-.2.3-.1.3-.1.2-.1.3-.1.3-.1.3-.1.3-.1.2-.1.3-.1.3-.1.3-.1.3-.1.2-.1.3-.1h.3l.3-.2h.3l.3-.1.3-.1.3-.1h.3l.2-.1.3-.1h.3l.3-.2h.3l.3-.1h.3l.3-.1h.3l.3-.1.3-.1h.3l.3-.1h.3l.3-.1h.3l.3-.1h.6l.3-.1h.3l.3-.1h.6l.3-.1H536.9l.3-.1h1.2l.3-.1h4.1z" fill="#231768"/><circle cx="562.7" cy="287.3" r="20.2" fill="#c1bae7"/><path d="M562.6 268.8h-1.1l-.1.1h-.5l-.1.1h-.5v.1h-.4l-.1.1H559.5l-.2.1h-.2l-.1.1h-.2l-.1.1h-.2l-.2.1h-.2v.1h-.2v.1H557.5l-.1.1h-.1l-.1.1h-.2l-.1.1h-.1l-.1.1h-.1l-.1.1h-.2l-.1.1h-.1l-.1.1h-.1l-.1.1h-.1l-.1.1h-.1l-.1.1h-.1l-.1.1h-.1l-.1.1-.2.1-.2.2h-.2l-.2.2-.1.1-.2.1-.2.1-.2.2h-.2l-.1.2-.2.1-.2.2h-.1l-.2.2-.2.2h-.1l-.2.2-.2.2-.1.1-.2.1-.2.2-.1.1-.2.2-.1.1-.2.2-.1.1-.2.2-.1.1-.2.1-.2.2-.1.1-.2.2-.1.1-.2.2-.1.1-.2.2-.1.1-.2.2-.1.1-.2.2-.1.1-.2.2-.1.2-.2.1-.1.2-.2.2v.1l-.2.2-.2.2v.1l-.2.2-.1.2-.2.2-.1.2-.1.1-.1.2-.2.2v.2l-.1.1v.1l-.1.1h-.1v.2h-.1v.2h-.1v.2h-.1v.2h-.1v.2h-.1v.2h-.1v.2l-.1.1v.1l-.1.1v.1l-.1.1v.2l-.1.1v.1l-.1.1v.2h-.1v.2l-.1.2v.1l-.1.1v.2l-.1.1v.2l-.1.2v.2l-.1.1v.2l-.1.1v.4l-.1.1v.5l-.1.1v.4l-.1.2V286.8l-.1.2V288.6l.1.2v.4l.1.2V289.7l.1.1V290l.1.2V290.5l.1.1v.2l.1.2v.2l.1.1v.1l.1.1V291.8h.1v.2h.1v.2l.1.2v.1l.1.1v.1l.1.1v.2l.1.1v.1l.1.1v.1l.1.1v.2h.1v.2h.1v.2h.1v.2h.1l.1.1v.1l.1.1v.1l.1.1v.1l.1.1.1.2.2.2v.2l.2.2.1.2.2.1v.2l.2.2.1.2.2.1.1.2.2.2v.2l.2.1.2.2.1.1.2.2.1.2.2.1.1.2.2.1.1.2.2.1.1.2.2.1.1.2.2.1.2.1.1.2.2.1.1.2.2.1.1.2.2.1.1.2.2.1.1.2.2.1.1.2.2.2.1.1.2.1.1.2.2.1.2.2.1.1.2.2.2.1.1.2h.2l.2.2.1.2.2.1.2.1.2.2h.2l.1.2.2.1.1.1h.1l.1.1h.1l.1.1.1.1h.1l.1.1h.1l.1.1.1.1h.1l.1.1h.1l.1.1h.1v.1h.2l.1.1h.1l.1.1h.1l.1.1h.1l.1.1h.1l.2.1.2.1.2.1h.2l.1.1h.1l.1.1h.1l.2.1h.2l.1.1h.2l.1.1h.2v.1H560l.1.1H560.4l.2.1h.2l.2.1H561.4l.1.1h.7v.1H563l.2.1h1.7l.1-.1H565.2l.2-.1h.2l.2-.1h.2l.1-.1h.2l.2-.1h.2l.1-.1h.1l.1-.1H567.3v-.1h.2v-.1h.2l.1-.1h.1l.1-.1h.1l.1-.1h.1l.2-.1.2-.1.2-.1.2-.1v-.1h.2v-.1h.2v-.1h.2v-.1l.2-.1.2-.1.2-.1v-.1h.2v-.1l.3-.2.1-.1.2-.1.2-.2.2-.1.2-.1.2-.2.1-.1.2-.2.2-.1.1-.2.2-.1.2-.2.1-.1.2-.2.1-.1.2-.2.2-.1.1-.2.2-.2.1-.1.1-.2.2-.1.1-.2.2-.2.1-.1.2-.2v-.2l.2-.1.2-.2v-.2l.2-.2.1-.1.2-.2.1-.1.2-.2.1-.1.2-.2.1-.1.2-.2.1-.2.1-.1.2-.2.1-.1.2-.2.1-.2.2-.1.1-.2.1-.2.2-.1.1-.2.1-.2.2-.2.1-.1.1-.2.2-.2v-.2l.2-.2.1-.2.1-.2.1-.2h.1v-.2h.1v-.1l.1-.1v-.1l.1-.1v-.1l.1-.1v-.1l.1-.2.1-.2.1-.2.1-.2.1-.2.1-.2v-.1l.1-.1v-.1l.1-.1v-.2l.1-.2.1-.2v-.2l.1-.1v-.2l.1-.1v-.2h.1v-.4l.1-.1V289.7h.1V289h.1V288.4h.1V287.8l.1-.2V286.6l-.1-.1v-.8h-.1V285h-.1v-.4l-.1-.1V284.3l-.1-.2v-.2l-.1-.1v-.2l-.1-.2v-.2l-.1-.1v-.1l-.1-.1v-.2l-.1-.2-.1-.2v-.2l-.1-.1v-.1l-.1-.1v-.1l-.1-.1v-.2l-.1-.1v-.2h-.1v-.2h-.1v-.2h-.1v-.2h-.1v-.2h-.1l-.1-.2-.1-.2-.1-.2-.1-.2-.1-.1v-.1l-.2-.1v-.2l-.2-.2-.1-.2-.2-.2v-.2l-.2-.1-.1-.2-.2-.2-.1-.2-.1-.1-.2-.2-.1-.2-.2-.1-.1-.2-.2-.2-.1-.1-.2-.2-.1-.1-.2-.2-.1-.1-.2-.2-.1-.1-.2-.2-.2-.1-.1-.2-.2-.1-.1-.2-.2-.1-.2-.1-.1-.2-.2-.1-.2-.1-.1-.2h-.2l-.2-.2-.2-.1-.1-.2h-.2v-.1l-.2-.1-.1-.1-.2-.2-.2-.1-.1-.1-.2-.2h-.2l-.2-.2-.1-.1-.2-.1-.2-.2h-.2l-.2-.2-.1-.1-.2-.1-.2-.2h-.2l-.2-.2h-.2v-.1h-.2v-.1h-.2v-.1h-.1l-.1-.1h-.1l-.1-.1h-.1l-.1-.1h-.1l-.1-.1h-.1l-.1-.1h-.1l-.1-.1h-.2l-.2-.1-.2-.1h-.2v-.1h-.2v-.1h-.2l-.2-.1h-.1l-.1-.1h-.2l-.1-.1H566.2v-.1h-.4l-.1-.1h-.2l-.1-.1h-.4l-.1-.1H564.6l-.2-.1h-.4l-.1-.1h-.7l-.2-.1h-.4zm.2-3.4H566.7l.2.1h.5l.2.1h.5l.2.1h.4l.1.1H569.1l.1.1H569.5l.1.1H570l.1.1H570.3l.1.1H570.7l.1.1h.1l.2.1.2.1h.2l.2.1h.1l.2.1h.1l.1.1.3.1.2.1.3.1.2.2h.3l.2.2.3.1.2.1.3.2.2.1.3.1.2.2.2.1.3.2.2.1.2.2.2.1.2.1.3.3.2.2.2.1.2.2.2.2.2.2.2.2.1.2.2.2.2.2.2.2.2.2.2.2.1.2.1.2h.1l.2.3.1.2.2.2.1.2.2.2.1.3.2.2.1.2.2.2.1.3.2.2v.2l.2.3.2.2v.2l.2.3.1.2.1.3.1.2.2.3v.2l.2.3v.2l.1.2.2.3V278.3h.1V278.7l.1.2.1.2v.1l.1.2v.2l.1.2v.2l.1.2v.2l.1.1V280.7l.1.1v.4l.1.2v.2l.1.2v.4l.1.2V283.1l.1.1v.8l.1.2V291.7l-.1.1v.8l-.1.2v.5l-.1.1v.4l-.1.2v.2l-.1.2v.4h-.1v.4h-.1v.2l-.1.1V295.8l-.1.1V296.2l-.1.1v.2h-.1v.2l-.1.3-.1.2-.1.3-.1.2-.1.3-.1.2-.2.3v.2l-.2.3-.1.2-.1.3-.1.2-.2.3-.1.2-.1.2-.2.3-.1.2-.2.2-.1.3-.2.2-.1.2-.2.2-.2.3-.1.2-.2.2-.2.1-.2.2-.3.2-.2.2-.2.2-.2.1-.2.2-.2.2-.2.1-.3.2-.2.1-.2.2-.2.1-.3.2-.2.1-.2.1-.3.2h-.2l-.3.2-.2.1-.2.2h-.3l-.2.2-.3.1-.2.1-.3.1-.2.1-.3.1-.2.1-.3.1h-.2l-.3.2h-.4v.1h-.2l-.1.1h-.2l-.2.1H570.7l-.1.1H570.3v.1h-.4v.1h-.5l-.1.1h-.5l-.2.1h-.5l-.1.1h-.8l-.1.1h-1l-.2.1H563.9l-.1.1H563l-.1.1H561.9l-.2.1H557.7l-.2-.1H556.8l-.2-.1h-.4v-.1h-.4l-.2-.1h-.4l-.1-.1H554.9l-.1-.1H554.5l-.1-.1h-.2l-.2-.1h-.1l-.2-.1h-.2l-.2-.1-.2-.1-.3-.1-.2-.1h-.3l-.2-.2h-.3l-.2-.2-.3-.1-.2-.1-.3-.1-.2-.1-.3-.2h-.2l-.3-.2-.2-.2-.2-.1-.3-.1-.2-.2-.2-.1-.3-.2-.2-.1-.2-.2-.2-.2-.3-.1-.2-.2h-.1v-.2l-.3-.2-.2-.1-.2-.2-.1-.3-.2-.1-.2-.3-.2-.2-.1-.2-.2-.2-.2-.2-.1-.3-.2-.2-.1-.2-.2-.2-.1-.3-.2-.2-.1-.2-.1-.3-.2-.2-.1-.2-.1-.3-.2-.2v-.3l-.2-.2-.1-.2-.1-.3-.1-.2-.1-.3-.2-.2v-.3l-.2-.2v-.4l-.1-.2-.1-.2v-.1l-.1-.2v-.2l-.1-.2-.1-.2V295l-.1-.1V294.6l-.1-.1V294.2h-.1v-.4h-.1v-.4l-.1-.2v-.4l-.1-.2v-.5l-.1-.1v-1l-.1-.1V289.4l-.1-.1V283.8l.1-.2V282.8l.1-.1V282l.1-.1v-.5l.1-.2v-.2l.1-.2v-.4l.1-.1V280.1h.1v-.4h.1V279.3l.1-.2v-.1l.1-.1v-.2l.1-.2v-.1l.1-.2v-.1l.1-.1v-.2l.2-.2v-.3l.2-.2v-.3l.2-.2v-.3l.2-.2.1-.3.1-.2.1-.2.2-.3.1-.2.1-.3.2-.2.1-.2.1-.3.2-.2.1-.2.2-.3.1-.2.2-.2.2-.2.1-.2.2-.3.1-.2.2-.2.2-.2.2-.2.2-.2.1-.2.2-.2.2-.2.2-.2.2-.1.3-.2.2-.2.2-.2.2-.1.2-.2.2-.1.3-.2.2-.2.2-.1.3-.2.2-.1.2-.1.3-.2.2-.1.2-.1.3-.2h.2l.3-.2.2-.1.3-.1.2-.2h.3l.2-.2h.3l.1-.1h.1l.2-.1.2-.1h.1l.2-.1h.1l.1-.1h.2l.2-.1h.2v-.1H555.3l.2-.1h.2l.2-.1h.1l.1-.1h.4l.2-.1H556.9v-.1h.4l.2-.1H558.1l.1-.1H559l.1-.1h1.2v-.1H562.9z" fill="#c1bae7"/><path d="M337 244.8h.3l.3.2.3.2.2.2.2.3.1.2v.1l.2.4v.8l-.4 1.9-1.2 4.6-.6 2.3 2.9-.6 5.6-1.3 9.4-2 4-.9 1.5.2 1 1.1-.3 1.5-1.3.9-3.9 1.1-9.2 2.7-5.6 1.6-5.5 1.5-1.8.5-.5.1h-.9l-.4-.2-.4-.2-.3-.2-.3-.3-.3-.4-.2-.4-.1-.4v-1.4l.7-2 .7-2.4.8-2.3 1.3-3.8h-.9l-2.6.3-2.3.3-1.3.3-1.5.4-3.5.9-4.8 1.4h-.1l-1.4-.2-.8-1.3.3-1.5 1.2-.7h.2l5-.3 3.5-.4 1.6-.1 1.3-.3 2.3-.5 2.5-.6 4.1-1.2.3-.1h.5zM306.7 284.3h.3l.4.2.3.2.2.2.3.3.2.3v.4l.1.4v.8l-.4 1-2.1 5.8-.8 2.1h.4l7.2-1.3 7.1-1.1 12-1.9 5.1-.8 1.6.3.8 1.2-.4 1.4-1.3.9-5 1-11.9 2.6-7.1 1.5-7 1.4-5.4 1H300l-.4-.2-.4-.2-.4-.3-.2-.4-.3-.4v-.3l-.1-.1-.1-.5v-.9l.2-.4.3-.7 1.2-3 1.3-2.9 1.6-3.6-4.2.2-3.2.2-3 .2-1.6.3-2 .3-4.4 1-6 1.3h-.2l-1.4-.3-.7-1.3.3-1.5 1.3-.7h.2l6.2-.2 4.5-.3 2-.2 1.6-.2 3-.5 3.1-.6 7.1-1.5.7-.2h.7zM324.8 345.3l.4.1.3.2.2.2.2.2v.1l.3.3.1.4V348l-.3.7-1.4 4.2-.1.3 3.5-.6 5.3-.8 9-1.3 3.8-.5 1.5.3.8 1.2-.3 1.4-1.3.8-3.8.9-8.8 2-5.3 1-5.2 1.2-3 .6h-.9l-.5-.1-.4-.2h-.1l-.3-.2-.3-.3-.3-.4-.2-.4-.2-.4v-1.3l.1-.5.2-.4 1-2.2.9-2 .9-2h-3.8l-2.2.3-1.2.1-1.5.3-3.3.8-4.5 1.1h-.2l-1.3-.2-.8-1.4.4-1.5 1.2-.6h4.8l3.4-.2 1.5-.1 1.2-.1 2.2-.4 2.4-.6 5-1.2H324.8z" fill="#231768"/></svg>