<svg viewBox="0 0 800 601" xmlns="http://www.w3.org/2000/svg" xmlns:serif="http://www.serif.com/" fill-rule="evenodd" clip-rule="evenodd" stroke-linecap="round" stroke-linejoin="round" stroke-miterlimit="1.5"><path serif:id="Sell worldwide" fill="#fff" d="M0 .6h800v600H0z"/><path d="M486.9 425.1l21.3.2 20.8.1 38 .5 28.2.5h1l1 .4.4 1-.4 1.1-1 .5h-1l-28.1 1-38 1-20.9.6-21.2.5-21 .4-20.3.3H398l-27.2-.2-26.6-.2-44-.5-17.2-.2h-1l-1.1-.5-.5-1 .5-1 1-.5h1l17.2-.5 44-1.3 26.7-.7 27.1-.6 25.6-.5 11.6-.2h10.5l20.2-.2H487z" fill="#c1bae7"/><path serif:id="background shadow" d="M282 430.3c-134.9 3.6-149.2-62.8-99.7-122 59.6-71.4 7.2-102.4 38.1-129.1 40.8-35.2 81.8 16.8 114.2 41.2C400 269.5 415.4 33.9 522 112c67.6 49.6-31.3 137.1 26.3 181.1C605 336.5 601.5 428 475.3 427l-193.4 3.3z" fill="#e5e1f9" fill-opacity=".3"/><circle cx="373.8" cy="238.2" r="123.6" fill="#fff"/><clipPath id="a"><circle cx="373.8" cy="238.2" r="123.6"/></clipPath><g clip-path="url(#a)"><path d="M332.2 124c-24.4 17-58.5 51.3-45.2 84.9 4.6 11.8 13.8 20.4 17.5 32.8 5.1 17 4.8 38 18.2 51 12.5 12.4 50.8 24 68.2 29.2 26.4 7.7 68.8-13 87.8-1.1 17.7 11.1 6 37.3-2.7 49.4-22.6 31.4-64 45.5-100.4 52.1-32.8 6-66.6 7.6-99.9 8-58.7.9-133.1-19.1-175.8-61.3-42.2-41.8-43-135.7-31.5-188.8 5-22.7 13.8-44.3 23.6-65.3 11.9-25.4 26.5-59.1 52.9-72.8a138 138 0 0 1 176.5 40.6c7.4 10.2 16.5 20.4 19.2 33" fill="#f2f0fc"/><path d="M435.2 127.6c1.3-.5 2.9-.4 4 .4 32.4 21.5 54.6 57 57.8 97.8a3.5 3.5 0 0 1-6.2 2.6 2 2 0 0 0-1-.6l-1-.2a5.7 5.7 0 0 0-4 .5l-2.6 1.4a7 7 0 0 0-1.5 1l-2 1.9a7 7 0 0 1-1.6 1.2l-1.5.7a7 7 0 0 0-3.4 3.6l-1.7 4.2a7 7 0 0 0-.5 3l.1 4c.1 1.6-.5 3.2-1.6 4.5l-.7.7c-.6.6-1.4 1-2.2 1a2 2 0 0 1-1.9-1.2l-2.1-4.4-6.3-12.6a7 7 0 0 1-.7-2.4v-.9a5 5 0 0 0-5.2-4.4c-.4 0-.7-.2-1-.4l-.6-.7-.6-.4-2.3-1.3a7 7 0 0 1-2.5-2.3l-.2-.5c-.8-1-1.8-1.9-3-2.4a6 6 0 0 0-2-.5l-4.5-.2h-.4l-7-.9a7 7 0 0 1-3.6-1.4l-.8-.6a7 7 0 0 0-4.4-1.5h-.8a7 7 0 0 1-3.1-.6 3250.6 3250.6 0 0 0-4.4-2.3l-2.4-1.9-.9-.3c-.3 0-.5.3-.5.5l-.2.9a7 7 0 0 0 .2 3.7l1 2.4c.2 1 .8 1.7 1.5 2.3a6.2 6.2 0 0 0 5 1.5l1.7-.3c.3 0 .6-.1 1-.4 2-1.5 4.7-1.3 6.5.4l2.3 2.2h.1a4.3 4.3 0 0 1 1.3 5.4l-1 1.4c-1 1.3-3.5 4-4.5 5a7 7 0 0 1-.8 1c-.7.4-1.8 1.3-2.5 1.9a7 7 0 0 1-1.5.9l-11.3 5.2a7 7 0 0 1-1.3.5l-2 .4h-1.1a5.7 5.7 0 0 1-4-5c-.2-1-.5-1.8-1-2.6l-3-4.3-.1-.3a53719.4 53719.4 0 0 1-5.1-6.9l-4.2-8a7 7 0 0 0-1.2-1.7l-2.6-2.7c-.5-.5-1.2-.7-1.9-.4-.6.2-1.3 0-1.8-.5l-.5-.6a.6.6 0 0 0-.7-.1.4.4 0 0 0-.1.6l1.2 1.6.6.8a36779 36779 0 0 0 4.5 7.5l5.8 11 .2.4 3.3 5.3c.3.5.6 1 1 1.3l2.3 2.2a7 7 0 0 1 1.4 2l1 2a5 5 0 0 0 3.1 2.8h1c1.6 0 8-.8 10.5-1a1.9 1.9 0 0 1 1.8.8c.4.6.6 1.4.4 2.1l-.5 2.5a7 7 0 0 1-1 2.3 951.6 951.6 0 0 0-1.3 1.7l-10 12-.3.4-7.7 11a7 7 0 0 0-1.2 5.4l2.7 13.2a6 6 0 0 1-.4 3.6c-.4.8-1 1.6-1.6 2.1-1.8 1.4-5.2 4-7 5.6a7 7 0 0 0-2.1 2.6l-1 2.2c-.2.5-.1 1.2.3 1.6.5.5.7 1 .8 1.7 0 2-.9 4-2.5 5l-.3.2a4 4 0 0 0-1 1.1 22345.5 22345.5 0 0 1-4.8 7l-8.1 8.5a7 7 0 0 1-2.3 1.6l-4.4 1.9a7 7 0 0 1-3.3.5h-2.6l-1 .4c-.7.2-1.3.2-2 0-1-.5-2-1.4-2.4-2.5l-2.4-6.4c-.4-1-1-2-2-2.8v-.1a7 7 0 0 1-2.4-4.3l-.3-2.2v-.2l-1.1-6.1a7 7 0 0 0-.6-2l-3.9-7.6a7 7 0 0 1-.6-2l-.2-1a7 7 0 0 1 .1-3l.4-1.7a7 7 0 0 1 .7-1.7l1.6-2.7c1-1.7 1-3.7.3-5.5-.2-.3-.2-.5-.2-.8l-.3-3.2a7 7 0 0 0-.7-2.7l-3.9-7.6a7 7 0 0 0-.6-1l-1.2-1.7a7 7 0 0 1-1.2-5.8l.2-.8a5.7 5.7 0 0 0 0-2.6c-.2-1.5-1-2.8-2.3-3.7l-.8-.6c-.6-.4-1.3-.5-2-.4a3.6 3.6 0 0 1-3.5-1.8c-.7-.9-1.7-1.5-2.8-1.8l-.5-.1c-.6-.2-1.3-.2-2-.2a5238.7 5238.7 0 0 1-4.4.6l-7.3 1.6a7 7 0 0 0-1.5.5l-.3.1a7 7 0 0 1-2.5.7l-3 .2a7 7 0 0 1-3.4-.6l-2.5-1a7 7 0 0 1-2.9-2.4l-4.8-7a7 7 0 0 0-2.7-2.3l-1-.4a4.9 4.9 0 0 1-2.7-4.2v-.2l-.3-1.6a7 7 0 0 1 .4-4c.4-1 1-2.3 1.3-3.4a7 7 0 0 0 .4-4.1l-.3-1.2a7 7 0 0 1 .5-4.5l2-4.2a7 7 0 0 1 1.6-2.2l9.3-8.4a2 2 0 0 0 .6-2c-.2-.6-.1-1.4.2-2l.5-1c.4-1 1-1.8 1.8-2.4a1511.1 1511.1 0 0 1 3-2.7l1.5-2.1c.3-.4.8-.7 1.3-.6.5 0 .9.2 1.2.5v.1c.3.4.8.5 1.3.5l6.8-.1a7 7 0 0 0 1.9-.4l2.4-.7a7 7 0 0 1 1.2-.3l7-1a48343.7 48343.7 0 0 0 6.7-2 3.4 3.4 0 0 1 2.8.6c.5.4.7 1 .4 1.6l-.5 1c-.2.1-.3.4-.3.7-.2 1.6.5 3.2 1.8 4.1l1.7 1.2c.5.4 1.1.7 1.7.9l8 2.8c2.2.8 4.7-.3 5.7-2.5l.8-.5h1.7l6.5 2.1a7 7 0 0 0 2 .3l11 .4c2 0 3.8-.8 5-2.3l.3-.5 1.4-3.4c.3-.8.3-1.6 0-2.4a2 2 0 0 0-1.7-1.4l-5.1-.3h-.3l-3.6-.1a7 7 0 0 1-3.8-1.3l-2.4-1.7c-.6-.4-1-1.2-1-2-.2-1.7-1.5-3-3.3-3.2h-1.5a1 1 0 0 0-1.1.8c-.2.5 0 1.1.4 1.5a1.8 1.8 0 0 1-.3 2.6l-.2.2c-.2.1-.4.4-.4.7l-.1.5c0 .3-.3.5-.6.5-1 0-2-.5-2.6-1.3l-2.8-3.6-.9-1.8a5.9 5.9 0 0 0-2.2-3.3l-5.8-4.3a7 7 0 0 0-1-.6l-2.8-1.4a.8.8 0 0 0-1 .3 1 1 0 0 0 0 1.2l1.5 1.9a7 7 0 0 0 3.1 2.3l1.5.6c.4.1.9.4 1.3.7l3 1.9a1 1 0 0 1 .2 1.3c-.1.3-.4.4-.7.3h-.4c-.3 0-.5 0-.7.2l-.1.2c-.2.2-.3.4-.2.7 0 .5-.1 1-.5 1.4l-1.9 1.9c-1 1-2.7 1.2-4 .4l-.5-.8a75 75 0 0 0 0-.9l.4-.2.6-.1c.4 0 .7-.3 1-.6 1-1.2.9-2.9-.2-4l-.8-.8a7 7 0 0 0-2.1-1.5l-4.4-2c-.6-.3-1-.8-1-1.5v-.1c-.1-.5-.5-1-1-1.1h-.2a2 2 0 0 0-1.8.5c-.8.8-1.8 1.2-3 1.3h-.7c-1.6.2-3 1-4.2 2l-2 2.2c-.6.6-1.4 1-2.1 1-.8-.1-1.5.3-1.8 1l-1.2 2.8a7 7 0 0 1-3 3.3l-1.2.6a7 7 0 0 1-4 .8 12175.6 12175.6 0 0 0-6.8-.8 2.5 2.5 0 0 1-1.4-2.3l.2-5c0-.8.1-1.6.4-2.3l1.1-2.9c.3-.6.7-1 1.3-1.3.6-.3 1.2-.3 1.8 0l3 1c1.6.5 3.4.4 5-.3l.7-.4a2 2 0 0 0 1.2-1.4c0-.6-.1-1.2-.6-1.6l-1.6-1.5c-1-.9-1.3-2.2-1-3.4a2.5 2.5 0 0 0-.1-1.7 1 1 0 0 1 .8-1.3l4.9-.2a5 5 0 0 0 4-2.5c.4-.6 1-1 1.6-1.2l.7-.2c.8-.1 1.4-.7 1.6-1.5a3 3 0 0 1 2.7-2.1l.8-.1c1 0 2-.4 2.7-1l1.5-1a.9.9 0 0 1 1.2.2c.3.4.8.5 1.3.4l4.5-1c1-.2 2 0 2.6.6.8.6 1.7.8 2.6.4l1.5-.7c.4-.1.8-.2 1.2-.1h.8c1.5.3 3-.5 3.7-2 .5-1 1.5-1.7 2.6-2h.5a2 2 0 0 0 1.6-1.5v-.1c.1-.9.7-1.6 1.6-1.8 1.1-.4 2.8-1 3.8-1.2a.8.8 0 0 0 .4-1.1c-.2-.5-.7-.8-1.2-.8l-2.5.1c-2 0-4-1-4.7-3-.2-.6-.1-1.2.3-1.7l1.1-1.2c.2-.2.2-.4.1-.7l-.1-.2a.8.8 0 0 0-1-.5l-1.3.4a7 7 0 0 0-2 .9l-1.4 1a4.8 4.8 0 0 0-2.1 3.6c-.1.8.1 1.7.6 2.4.5.6.4 1.5 0 2l-1.7 2a6 6 0 0 1-4.6 2.2c-1.3 0-2.6-.4-3.6-1.3l-3.3-2.9c-.7-.5-1.5-.7-2.3-.5l-.4.2a2.8 2.8 0 0 1-3.6-2.6 4.4 4.4 0 0 1 3.8-4.6l1-.2c.4 0 .7-.3.8-.6l.1-.4c.3-.5.7-1 1.2-1.4l12.5-9.2a7 7 0 0 1 1-.6l3-1.4a7 7 0 0 1 4.2-.6 13780.3 13780.3 0 0 1 6.2 1l14.2 3.1c1 .3 1.7 1 1.8 2a1.5 1.5 0 0 1-1.5 1.8h-2a2 2 0 0 0-1.4 3.3c.8.9 2.1 1.1 3.2.6l14-6.8a7 7 0 0 1 3.5-.8l4.5.3c.9 0 1.7-.2 2.4-.7 1.9-1.3 4.5-1.3 6.4 0h.1a5 5 0 0 0 3.9.9l3.5-.7c.5-.1.9-.5 1-1l.1-.3c.1-.3 0-.6-.2-1l-1-1.2a1.7 1.7 0 0 1 .7-2.5c1.8-.9 4-.4 5.3 1.1l.8.9c.4.4.6 1 .8 1.6l.5 2.6c.1.6.5 1.1 1 1.3a.6.6 0 0 0 .8-.5l-.3-3.7c0-.6.2-1.1.7-1.4.5-.2 1.1-.1 1.5.3l1.4 1.9c.4.4 1.1.6 1.7.2l.3-.2c.3-.2.5-.6.5-1a4 4 0 0 1 2.2-4.5l1-.5a7 7 0 0 1 1.8-.5l5.5-.9.4-.1zM409.9 300l.2.3.1.3a6423.6 6423.6 0 0 0-.5 4.8l-.2 5.6V311.3c-.4.5-3 5.2-4.3 7.7a7 7 0 0 0-.8 3.4 5354.7 5354.7 0 0 0 0 2.6l-.3.2a13667.9 13667.9 0 0 1-5.5 3h-.1a6814.2 6814.2 0 0 1-3-4l-.1-.2-.3-4.2v-.1-.2l1.5-2.5a7 7 0 0 0 1-3.7l-.2-4.7v-.2l.3-.2a292326.4 292326.4 0 0 1 4.1-2.6l2.2-1a7 7 0 0 0 2.9-3l1-1.9.3-.2h.4l1.3.5zM313.3 167l.2.3v.3c-.2.5-.9 1.8-1 2.3l-.2.2-.3.1a28386.6 28386.6 0 0 0-7 .9l-3.4.3-.4-.1v-.2-.3l.2-.2c.5-.5.4-1.3-.1-1.8l-.1-.2v-.4a3159.7 3159.7 0 0 0 1.3-2.1l.1-.1.9-.5a1.1 1.1 0 0 0 .4-1.6c-.2-.3-.5-.5-.8-.5a294.8 294.8 0 0 1-.8-.3h-.2l-2-2c-.1 0-.2 0-.2-.2v-.2a2339.1 2339.1 0 0 1 0-2.8l.2-.2a4427.7 4427.7 0 0 1 2.5-2h.1a3409.7 3409.7 0 0 1 2.8-.7h.4l.4.2V155.4c-.3.6 0 1.4.5 1.8l.8.4.2.3v.3c-.7 1-.6 2.3.2 3.2l.4.6.7.8 1.4 1.3h.1v.1c.5 1 1.3 1.7 2.1 2.3l.6.4zm-12.9-4h.3v.5l-.3.4a7 7 0 0 0-1 2.7 191.2 191.2 0 0 1-.2 1l-.3.1a4684 4684 0 0 0-1.9.7 13018 13018 0 0 1-5.7 0l-.1-.1.1-.3.4-.5c.6-.8.8-1.7.5-2.6v-.2l.2-.3 1-.4a664.4 664.4 0 0 1 2.7-1.9h-.1.2l4.2.8z" fill="#d2ccf5"/><clipPath id="b"><path d="M435.2 127.6c1.3-.5 2.9-.4 4 .4 32.4 21.5 54.6 57 57.8 97.8a3.5 3.5 0 0 1-6.2 2.6 2 2 0 0 0-1-.6l-1-.2a5.7 5.7 0 0 0-4 .5l-2.6 1.4a7 7 0 0 0-1.5 1l-2 1.9a7 7 0 0 1-1.6 1.2l-1.5.7a7 7 0 0 0-3.4 3.6l-1.7 4.2a7 7 0 0 0-.5 3l.1 4c.1 1.6-.5 3.2-1.6 4.5l-.7.7c-.6.6-1.4 1-2.2 1a2 2 0 0 1-1.9-1.2l-2.1-4.4-6.3-12.6a7 7 0 0 1-.7-2.4v-.9a5 5 0 0 0-5.2-4.4c-.4 0-.7-.2-1-.4l-.6-.7-.6-.4-2.3-1.3a7 7 0 0 1-2.5-2.3l-.2-.5c-.8-1-1.8-1.9-3-2.4a6 6 0 0 0-2-.5l-4.5-.2h-.4l-7-.9a7 7 0 0 1-3.6-1.4l-.8-.6a7 7 0 0 0-4.4-1.5h-.8a7 7 0 0 1-3.1-.6 3250.6 3250.6 0 0 0-4.4-2.3l-2.4-1.9-.9-.3c-.3 0-.5.3-.5.5l-.2.9a7 7 0 0 0 .2 3.7l1 2.4c.2 1 .8 1.7 1.5 2.3a6.2 6.2 0 0 0 5 1.5l1.7-.3c.3 0 .6-.1 1-.4 2-1.5 4.7-1.3 6.5.4l2.3 2.2h.1a4.3 4.3 0 0 1 1.3 5.4l-1 1.4c-1 1.3-3.5 4-4.5 5a7 7 0 0 1-.8 1c-.7.4-1.8 1.3-2.5 1.9a7 7 0 0 1-1.5.9l-11.3 5.2a7 7 0 0 1-1.3.5l-2 .4h-1.1a5.7 5.7 0 0 1-4-5c-.2-1-.5-1.8-1-2.6l-3-4.3-.1-.3a53719.4 53719.4 0 0 1-5.1-6.9l-4.2-8a7 7 0 0 0-1.2-1.7l-2.6-2.7c-.5-.5-1.2-.7-1.9-.4-.6.2-1.3 0-1.8-.5l-.5-.6a.6.6 0 0 0-.7-.1.4.4 0 0 0-.1.6l1.2 1.6.6.8a36779 36779 0 0 0 4.5 7.5l5.8 11 .2.4 3.3 5.3c.3.5.6 1 1 1.3l2.3 2.2a7 7 0 0 1 1.4 2l1 2a5 5 0 0 0 3.1 2.8h1c1.6 0 8-.8 10.5-1a1.9 1.9 0 0 1 1.8.8c.4.6.6 1.4.4 2.1l-.5 2.5a7 7 0 0 1-1 2.3 951.6 951.6 0 0 0-1.3 1.7l-10 12-.3.4-7.7 11a7 7 0 0 0-1.2 5.4l2.7 13.2a6 6 0 0 1-.4 3.6c-.4.8-1 1.6-1.6 2.1-1.8 1.4-5.2 4-7 5.6a7 7 0 0 0-2.1 2.6l-1 2.2c-.2.5-.1 1.2.3 1.6.5.5.7 1 .8 1.7 0 2-.9 4-2.5 5l-.3.2a4 4 0 0 0-1 1.1 22345.5 22345.5 0 0 1-4.8 7l-8.1 8.5a7 7 0 0 1-2.3 1.6l-4.4 1.9a7 7 0 0 1-3.3.5h-2.6l-1 .4c-.7.2-1.3.2-2 0-1-.5-2-1.4-2.4-2.5l-2.4-6.4c-.4-1-1-2-2-2.8v-.1a7 7 0 0 1-2.4-4.3l-.3-2.2v-.2l-1.1-6.1a7 7 0 0 0-.6-2l-3.9-7.6a7 7 0 0 1-.6-2l-.2-1a7 7 0 0 1 .1-3l.4-1.7a7 7 0 0 1 .7-1.7l1.6-2.7c1-1.7 1-3.7.3-5.5-.2-.3-.2-.5-.2-.8l-.3-3.2a7 7 0 0 0-.7-2.7l-3.9-7.6a7 7 0 0 0-.6-1l-1.2-1.7a7 7 0 0 1-1.2-5.8l.2-.8a5.7 5.7 0 0 0 0-2.6c-.2-1.5-1-2.8-2.3-3.7l-.8-.6c-.6-.4-1.3-.5-2-.4a3.6 3.6 0 0 1-3.5-1.8c-.7-.9-1.7-1.5-2.8-1.8l-.5-.1c-.6-.2-1.3-.2-2-.2a5238.7 5238.7 0 0 1-4.4.6l-7.3 1.6a7 7 0 0 0-1.5.5l-.3.1a7 7 0 0 1-2.5.7l-3 .2a7 7 0 0 1-3.4-.6l-2.5-1a7 7 0 0 1-2.9-2.4l-4.8-7a7 7 0 0 0-2.7-2.3l-1-.4a4.9 4.9 0 0 1-2.7-4.2v-.2l-.3-1.6a7 7 0 0 1 .4-4c.4-1 1-2.3 1.3-3.4a7 7 0 0 0 .4-4.1l-.3-1.2a7 7 0 0 1 .5-4.5l2-4.2a7 7 0 0 1 1.6-2.2l9.3-8.4a2 2 0 0 0 .6-2c-.2-.6-.1-1.4.2-2l.5-1c.4-1 1-1.8 1.8-2.4a1511.1 1511.1 0 0 1 3-2.7l1.5-2.1c.3-.4.8-.7 1.3-.6.5 0 .9.2 1.2.5v.1c.3.4.8.5 1.3.5l6.8-.1a7 7 0 0 0 1.9-.4l2.4-.7a7 7 0 0 1 1.2-.3l7-1a48343.7 48343.7 0 0 0 6.7-2 3.4 3.4 0 0 1 2.8.6c.5.4.7 1 .4 1.6l-.5 1c-.2.1-.3.4-.3.7-.2 1.6.5 3.2 1.8 4.1l1.7 1.2c.5.4 1.1.7 1.7.9l8 2.8c2.2.8 4.7-.3 5.7-2.5l.8-.5h1.7l6.5 2.1a7 7 0 0 0 2 .3l11 .4c2 0 3.8-.8 5-2.3l.3-.5 1.4-3.4c.3-.8.3-1.6 0-2.4a2 2 0 0 0-1.7-1.4l-5.1-.3h-.3l-3.6-.1a7 7 0 0 1-3.8-1.3l-2.4-1.7c-.6-.4-1-1.2-1-2-.2-1.7-1.5-3-3.3-3.2h-1.5a1 1 0 0 0-1.1.8c-.2.5 0 1.1.4 1.5a1.8 1.8 0 0 1-.3 2.6l-.2.2c-.2.1-.4.4-.4.7l-.1.5c0 .3-.3.5-.6.5-1 0-2-.5-2.6-1.3l-2.8-3.6-.9-1.8a5.9 5.9 0 0 0-2.2-3.3l-5.8-4.3a7 7 0 0 0-1-.6l-2.8-1.4a.8.8 0 0 0-1 .3 1 1 0 0 0 0 1.2l1.5 1.9a7 7 0 0 0 3.1 2.3l1.5.6c.4.1.9.4 1.3.7l3 1.9a1 1 0 0 1 .2 1.3c-.1.3-.4.4-.7.3h-.4c-.3 0-.5 0-.7.2l-.1.2c-.2.2-.3.4-.2.7 0 .5-.1 1-.5 1.4l-1.9 1.9c-1 1-2.7 1.2-4 .4l-.5-.8a75 75 0 0 0 0-.9l.4-.2.6-.1c.4 0 .7-.3 1-.6 1-1.2.9-2.9-.2-4l-.8-.8a7 7 0 0 0-2.1-1.5l-4.4-2c-.6-.3-1-.8-1-1.5v-.1c-.1-.5-.5-1-1-1.1h-.2a2 2 0 0 0-1.8.5c-.8.8-1.8 1.2-3 1.3h-.7c-1.6.2-3 1-4.2 2l-2 2.2c-.6.6-1.4 1-2.1 1-.8-.1-1.5.3-1.8 1l-1.2 2.8a7 7 0 0 1-3 3.3l-1.2.6a7 7 0 0 1-4 .8 12175.6 12175.6 0 0 0-6.8-.8 2.5 2.5 0 0 1-1.4-2.3l.2-5c0-.8.1-1.6.4-2.3l1.1-2.9c.3-.6.7-1 1.3-1.3.6-.3 1.2-.3 1.8 0l3 1c1.6.5 3.4.4 5-.3l.7-.4a2 2 0 0 0 1.2-1.4c0-.6-.1-1.2-.6-1.6l-1.6-1.5c-1-.9-1.3-2.2-1-3.4a2.5 2.5 0 0 0-.1-1.7 1 1 0 0 1 .8-1.3l4.9-.2a5 5 0 0 0 4-2.5c.4-.6 1-1 1.6-1.2l.7-.2c.8-.1 1.4-.7 1.6-1.5a3 3 0 0 1 2.7-2.1l.8-.1c1 0 2-.4 2.7-1l1.5-1a.9.9 0 0 1 1.2.2c.3.4.8.5 1.3.4l4.5-1c1-.2 2 0 2.6.6.8.6 1.7.8 2.6.4l1.5-.7c.4-.1.8-.2 1.2-.1h.8c1.5.3 3-.5 3.7-2 .5-1 1.5-1.7 2.6-2h.5a2 2 0 0 0 1.6-1.5v-.1c.1-.9.7-1.6 1.6-1.8 1.1-.4 2.8-1 3.8-1.2a.8.8 0 0 0 .4-1.1c-.2-.5-.7-.8-1.2-.8l-2.5.1c-2 0-4-1-4.7-3-.2-.6-.1-1.2.3-1.7l1.1-1.2c.2-.2.2-.4.1-.7l-.1-.2a.8.8 0 0 0-1-.5l-1.3.4a7 7 0 0 0-2 .9l-1.4 1a4.8 4.8 0 0 0-2.1 3.6c-.1.8.1 1.7.6 2.4.5.6.4 1.5 0 2l-1.7 2a6 6 0 0 1-4.6 2.2c-1.3 0-2.6-.4-3.6-1.3l-3.3-2.9c-.7-.5-1.5-.7-2.3-.5l-.4.2a2.8 2.8 0 0 1-3.6-2.6 4.4 4.4 0 0 1 3.8-4.6l1-.2c.4 0 .7-.3.8-.6l.1-.4c.3-.5.7-1 1.2-1.4l12.5-9.2a7 7 0 0 1 1-.6l3-1.4a7 7 0 0 1 4.2-.6 13780.3 13780.3 0 0 1 6.2 1l14.2 3.1c1 .3 1.7 1 1.8 2a1.5 1.5 0 0 1-1.5 1.8h-2a2 2 0 0 0-1.4 3.3c.8.9 2.1 1.1 3.2.6l14-6.8a7 7 0 0 1 3.5-.8l4.5.3c.9 0 1.7-.2 2.4-.7 1.9-1.3 4.5-1.3 6.4 0h.1a5 5 0 0 0 3.9.9l3.5-.7c.5-.1.9-.5 1-1l.1-.3c.1-.3 0-.6-.2-1l-1-1.2a1.7 1.7 0 0 1 .7-2.5c1.8-.9 4-.4 5.3 1.1l.8.9c.4.4.6 1 .8 1.6l.5 2.6c.1.6.5 1.1 1 1.3a.6.6 0 0 0 .8-.5l-.3-3.7c0-.6.2-1.1.7-1.4.5-.2 1.1-.1 1.5.3l1.4 1.9c.4.4 1.1.6 1.7.2l.3-.2c.3-.2.5-.6.5-1a4 4 0 0 1 2.2-4.5l1-.5a7 7 0 0 1 1.8-.5l5.5-.9.4-.1zM409.9 300l.2.3.1.3a6423.6 6423.6 0 0 0-.5 4.8l-.2 5.6V311.3c-.4.5-3 5.2-4.3 7.7a7 7 0 0 0-.8 3.4 5354.7 5354.7 0 0 0 0 2.6l-.3.2a13667.9 13667.9 0 0 1-5.5 3h-.1a6814.2 6814.2 0 0 1-3-4l-.1-.2-.3-4.2v-.1-.2l1.5-2.5a7 7 0 0 0 1-3.7l-.2-4.7v-.2l.3-.2a292326.4 292326.4 0 0 1 4.1-2.6l2.2-1a7 7 0 0 0 2.9-3l1-1.9.3-.2h.4l1.3.5zM313.3 167l.2.3v.3c-.2.5-.9 1.8-1 2.3l-.2.2-.3.1a28386.6 28386.6 0 0 0-7 .9l-3.4.3-.4-.1v-.2-.3l.2-.2c.5-.5.4-1.3-.1-1.8l-.1-.2v-.4a3159.7 3159.7 0 0 0 1.3-2.1l.1-.1.9-.5a1.1 1.1 0 0 0 .4-1.6c-.2-.3-.5-.5-.8-.5a294.8 294.8 0 0 1-.8-.3h-.2l-2-2c-.1 0-.2 0-.2-.2v-.2a2339.1 2339.1 0 0 1 0-2.8l.2-.2a4427.7 4427.7 0 0 1 2.5-2h.1a3409.7 3409.7 0 0 1 2.8-.7h.4l.4.2V155.4c-.3.6 0 1.4.5 1.8l.8.4.2.3v.3c-.7 1-.6 2.3.2 3.2l.4.6.7.8 1.4 1.3h.1v.1c.5 1 1.3 1.7 2.1 2.3l.6.4zm-12.9-4h.3v.5l-.3.4a7 7 0 0 0-1 2.7 191.2 191.2 0 0 1-.2 1l-.3.1a4684 4684 0 0 0-1.9.7 13018 13018 0 0 1-5.7 0l-.1-.1.1-.3.4-.5c.6-.8.8-1.7.5-2.6v-.2l.2-.3 1-.4a664.4 664.4 0 0 1 2.7-1.9h-.1.2l4.2.8z"/></clipPath><g clip-path="url(#b)"><path d="M370.6 81.5a166.6 166.6 0 0 0-25.4 50.6c-5.4 20.1-3.8 41 2.5 60.7 20 62.3 82.1 84 141.5 89.2 40.4 3.5 91.8 8.8 117.5-29.6a108.3 108.3 0 0 0 15.7-52.6c6.4-85.6-85.4-152.6-158.7-174.6C416.6 11 377.9 2.8 342.8 41.9" fill="#e5e1f9" fill-opacity=".3"/></g></g><path d="M373.4 117.1H371l-.4.1h-1.5l-.4.1H367.5l-.3.1h-.8l-.4.1h-.8l-.3.1h-.8l-.4.1h-.8l-.3.1h-.4l-.4.1h-.4l-.4.1h-.3l-.4.1h-.4l-.4.1h-.4l-.3.1h-.4l-.4.1h-.4l-.3.1h-.4l-.4.2h-.7l-.4.1-.4.1h-.4l-.3.1-.4.1h-.4l-.3.1-.4.1h-.4l-.4.2h-.3l-.4.1h-.4l-.3.2h-.4l-.4.1-.3.1h-.4l-.4.2h-.3l-.4.1-.4.1-.3.1-.4.1-.3.1h-.4l-.4.2h-.3l-.4.2h-.4l-.3.2h-.4l-.3.2h-.4l-.4.2h-.3l-.4.2h-.3l-.4.2h-.3l-.4.2h-.4l-.3.2-.4.1-.3.1-.4.1-.3.2h-.4l-.3.2-.4.1-.3.1-.4.1-.3.2h-.4l-.3.2-.4.1-.3.1-.4.2-.3.1-.4.1-.3.2h-.3l-.4.2-.3.1-.4.2-.3.1-.4.1-.3.2-.3.1-.4.1-.3.2-.4.1-.3.2-.3.1-.4.1-.3.2-.4.1-.3.2-.3.1-.4.2-.3.1-.3.2-.4.1-.3.2-.3.1-.4.2-.3.1-.3.2-.4.1-.3.2-.3.1-.3.2-.4.2-.3.1-.3.2-.4.1-.3.2-.3.2-.3.1-.4.2-.3.2-.3.1-.3.2-.3.2-.4.2-.3.1-.3.2-.3.2-.3.1-.4.2-.3.2-.3.2-.3.1-.3.2-.3.2-.4.2-.3.2-.3.2-.3.1-.3.2-.3.2-.3.2-.3.2-.4.2-.3.2-.3.1-.3.2-.3.2-.3.2-.3.2-.3.2-.3.2-.3.2-.3.2-.3.2-.3.2-.3.2-.3.2-.3.2-.3.2-.3.2-.3.2-.3.2-.3.2-.3.2-.3.2-.3.2-.3.2-.3.3-.3.2-.3.2-.3.2-.3.2-.2.2-.3.2-.3.2-.3.2-.3.3-.3.2-.3.2-.3.2-.3.2-.2.3-.3.2-.3.2-.3.2-.3.2-.2.3-.3.2-.3.2-.3.2-.3.3-.2.2-.3.2-.3.3-.3.2-.2.2-.3.3-.3.2-.3.2-.2.3-.3.2-.3.2-.3.3-.2.2-.3.2-.3.3-.2.2-.3.3-.3.2-.2.2-.3.3-.3.2-.2.3-.3.2-.2.3-.3.2-.3.3-.2.2-.3.3-.2.2-.3.3-.3.2-.2.2-.3.3-.2.2-.3.3-.3.2-.2.3-.3.2-.2.3-.3.2-.3.3-.2.2-.3.3-.2.2-.3.3-.2.3-.3.2-.2.3-.3.2-.2.3-.3.2-.2.3-.3.3-.2.2-.3.3-.2.3-.3.2-.2.3-.2.2-.3.3-.2.3-.3.2-.2.3-.2.3-.3.3-.2.2-.2.3-.3.3-.2.2-.3.3-.2.3-.2.3-.3.2-.2.3-.2.3-.2.3-.3.3-.2.2-.2.3-.3.3-.1.2-.3.4-.2.2-.3.3-.2.3-.2.3-.2.3-.2.3-.3.2-.2.3-.2.3-.2.3-.2.3-.3.3-.2.3-.2.3-.2.3-.2.2-.2.3-.2.3-.2.3-.2.3-.3.3-.2.3-.2.3-.2.3-.2.3-.2.3-.2.3-.2.3-.2.3-.2.3-.2.3-.2.3-.2.3-.2.3-.2.3-.2.3-.2.3-.2.4-.2.3-.2.3-.1.3-.2.3-.2.3-.2.3-.2.3-.2.3-.2.3-.2.4-.1.3-.2.3-.2.3-.2.3-.2.3-.2.4-.1.3-.2.3-.2.3-.2.3-.1.3-.2.4-.2.3-.2.3-.1.3-.2.4-.2.3-.1.3-.2.3-.2.4-.1.3-.2.3-.2.3-.1.4-.2.3-.1.3-.2.4-.2.3-.1.3-.2.3-.1.4-.2.3-.1.3-.1.2v.2l-.2.3-.2.3-.1.4-.2.3-.1.4-.2.3-.1.3-.2.4-.1.3-.2.4-.1.3-.1.3-.2.4-.1.3-.2.4-.1.3-.1.3-.2.4-.1.3-.1.4-.2.3-.1.4-.1.3-.2.4v.3l-.2.4-.1.3-.2.4v.3l-.2.4-.1.3-.2.4v.3l-.2.4-.1.3-.1.4-.1.3-.2.4v.3l-.2.4v.4l-.2.3-.1.4-.1.3-.1.4-.1.3-.1.4-.1.4-.1.3-.1.4-.1.3-.1.4-.1.4-.1.3-.1.4-.1.4-.1.3-.1.4-.1.3-.1.4v.4l-.2.3v.4l-.2.4v.3l-.1.4-.1.4v.4l-.2.3v.4l-.1.4-.1.3v.4l-.2.4v.4l-.1.3v.4l-.1.4-.1.3v.4l-.1.3-.1.5v.3l-.1.4-.1.4v.4l-.1.4v.3l-.1.4v.4l-.1.4v.4l-.1.3v.4l-.1.4v.4l-.1.4v.3l-.1.4v.4l-.1.4v.8l-.1.3v.8l-.1.4v.8l-.1.4v.7l-.1.4V233.1l-.1.4v1.9l-.1.4V243l.1.4v1.1l.1.4v.8l.1.4v.8l.1.3v.8l.1.4v.8l.1.3v.4l.1.4v.4l.1.4v.4l.1.3v.4l.1.4v.4l.1.4v.3l.1.4v.4l.1.4.1.4v.3l.1.4v.4l.1.4.1.3v.4l.1.4.1.4v.3l.2.4v.4l.1.3v.4l.2.4v.4l.1.3.1.4v.4l.2.3v.4l.1.4.1.3.1.4.1.4v.3l.2.4v.4l.2.3v.4l.2.4v.3l.2.4v.4l.1.3.2.4v.3l.2.4v.4l.2.3v.4l.2.3v.4l.2.3.1.4.1.4.1.3.1.4.2.3v.4l.2.3.1.4.1.3.1.4.2.3v.4l.2.3.1.4.2.3v.4l.2.3.1.4.2.3.1.4.1.3.2.4.1.3.1.4.2.3.1.3.1.4.2.3.1.4.2.3.1.4.1.3.2.3.1.4.2.3.1.4.2.3.1.3.2.4.1.3.2.3.1.4.2.3.1.3.2.4.1.3.2.3.1.4.2.3.2.3.1.4.2.3.1.3.2.3.2.4.1.3.2.3.2.3.1.4.2.3.2.3.2.3.1.4.2.3.2.3.1.3.2.3.2.4.2.3.2.3.1.3.2.3.2.3.2.4.2.3.1.3.2.3.2.3.2.3.2.3.2.4.2.3.2.3.1.3.2.3.2.3.2.3.2.3.2.3.2.3.2.3.2.3.2.3.2.3.2.3.2.3.2.3.2.3.2.3.2.3.2.3.2.3.2.3.3.3.2.3.2.3.2.3.2.3.2.3.2.3.2.3.3.3.2.3.2.2.2.3.2.3.2.3.3.3.2.3.2.3.2.2.3.3.2.3.2.3.2.3.3.3.2.2.2.3.2.3.2.2.3.3.2.3.3.3.2.3.2.2.3.3.2.3.2.3.3.2.2.3.2.3.3.3.2.2.3.3.2.3.2.2.3.3.2.3.3.2.2.3.3.2.2.3.2.3.3.2.2.3.3.2.2.3.3.3.2.2.3.3.2.2.3.3.3.2.2.3.3.3.2.2.3.3.2.2.3.3.2.2.3.3.3.2.2.3.3.2.2.3.3.2.3.3.2.2.3.2.2.3.3.2.3.3.1.1.1.1.3.3.3.2.2.3.3.2.2.3.3.2.3.2.2.3.3.2.3.3.2.2.3.3.3.2.2.2.3.3.3.2.2.3.3.2.3.2.2.3.3.2.3.2.3.3.2.2.3.2.3.3.3.2.3.2.2.2.3.3.3.2.3.2.3.2.2.3.3.2.3.2.3.2.3.3.3.2.2.2.3.2.3.2.3.2.3.3.3.2.3.2.3.2.3.2.3.2.3.2.2.2.3.3h.2l.1.2.3.2.3.2.3.2.3.2.3.2.3.2.3.2.3.2.3.2.3.2.3.2.3.2.3.2.3.2.3.2.3.2.3.2.4.2.3.2.3.2.3.2.3.2.3.2.3.2.3.1.3.2.3.2.4.2.3.2.3.2.3.2.3.1.3.2.3.2.4.2.3.2.3.1.3.2.3.2.4.2.3.1.3.2.3.2.4.2.3.1.3.2.3.2.4.1.3.2.3.2.3.1.4.2.3.2.3.1.4.2.3.2.3.1.3.2.4.1.3.2.3.1.4.2.3.1.3.2.4.1.3.2.4.1.3.2.3.1.4.2.3.1.4.2.3.1.3.2.4.1.3.2h.4l.3.2.3.2.4.1.3.1.4.2h.3v.1l.4.1.3.2.4.1.3.1.4.2h.3l.4.2.3.1.4.2h.3l.4.2.3.1.4.1.3.2h.4l.3.2.4.1.4.1.3.1.4.2h.3l.4.2h.3l.4.2.4.1.3.1.4.1.3.1.4.1.4.1.3.1.4.1.4.1.3.1.4.1.4.1.3.1.4.1.4.1h.3l.4.2h.4l.3.2h.4l.4.1.3.1.4.1h.4l.4.2h.3l.4.1.4.1h.3l.4.2h.4l.4.1h.3l.4.1.4.1h.4l.3.1.4.1h.4l.4.1.4.1h.3l.4.1h.4l.4.1.4.1h.3l.4.1h.4l.4.1h.4l.4.1h.3l.4.1h.4l.4.1h.3l.5.1h.7l.4.1h.8l.4.1h.8l.4.1h1.1l.4.1h1.6l.4.1h2.8l.4.1H382l.4-.1H383.2l.4-.1h.8l.3-.1h.4l.4-.1h.4l.4-.1h.4l.4-.1h.3l.4-.1h.4l.4-.1h.4l.4-.1.3-.1h.4l.4-.1h.4l.4-.2h.7l.4-.1.4-.1h.4l.3-.2h.4l.4-.1h.4l.3-.2h.4l.4-.1h.4l.3-.2h.4l.4-.1.3-.1h.4l.4-.2h.4l.3-.2h.4l.4-.1.3-.1.4-.1.4-.1.3-.1.4-.1.4-.1.3-.1.4-.1.4-.1.3-.1.4-.1.4-.1.3-.1.4-.1.3-.2h.4l.4-.2h.3l.4-.2.3-.1.4-.1.3-.2h.4l.4-.2.3-.1.4-.1.3-.2h.4l.3-.2.4-.1.3-.2h.4l.3-.2.4-.1.3-.2.4-.1.3-.1.4-.2.3-.1.4-.1.3-.2.4-.1.3-.2h.4l.3-.2.4-.2.3-.1.3-.2.4-.1.3-.2.4-.1.3-.1.3-.2.4-.1.3-.2.4-.1.3-.2.3-.2.4-.1.3-.2.3-.1.4-.2.3-.1.3-.2.4-.2.3-.1.3-.2.4-.1.3-.2.3-.2.4-.1.3-.2.3-.2.3-.1.4-.2.3-.2.3-.2.3-.1.4-.2.3-.2.3-.1.3-.2.4-.2.3-.2.3-.2.3-.1.3-.2.3-.2.4-.2.3-.2.3-.2.3-.1.3-.2.3-.2.4-.2.3-.2.3-.2.3-.2.3-.2.3-.2.3-.2.3-.2.3-.2.3-.1.4-.2.3-.2.3-.2.3-.2.3-.2.3-.2.3-.2.3-.3.3-.2.3-.2.3-.2.3-.2.3-.2.3-.2.3-.2.3-.2.3-.2.3-.2.3-.2.3-.3.2-.2.3-.2.3-.2.3-.2.3-.2.3-.3.3-.2.3-.2.3-.2.3-.2.2-.3.3-.2.3-.2.3-.2.3-.3.3-.2.2-.2.3-.2.3-.3.3-.2.3-.2.2-.3.3-.2.3-.2.3-.3.2-.2.3-.2.3-.3.3-.2.2-.3.3-.2.3-.2.2-.3.3-.2.3-.3.2-.1.3-.3.3-.3.2-.2.3-.3.3-.2.2-.3.3-.2.3-.2.2-.3.3-.2.3-.3.2-.2.3-.3.2-.2.3-.3.2-.2.3-.3.3-.2.2-.3.3-.3.2-.2.3-.3.2-.2.3-.3.2-.2.3-.3.2-.3.3-.2.2-.3.3-.3.2-.2.2-.3.3-.2.2-.3.3-.3.2-.2.3-.3.2-.3.2-.2.3-.3.2-.3.2-.3.3-.2.2-.3.2-.3.3-.2.2-.3.2-.3.3-.3.2-.2.3-.3.2-.3.3-.2.2-.3.2-.3.3-.2.2-.3.2-.3.3-.2.2-.3.3-.3.2-.3.2-.2.3-.3.2-.3.2-.3.2-.2.3-.3.2-.3.2-.3.3-.2.2-.3.2-.3.2-.3.3-.3.2-.3.2-.2.2-.3.2-.3.3-.3.2-.3.2-.3.2-.3.2-.2.2-.3.3-.3.2-.3.2-.3.2-.3.2-.3.2-.3.2-.2.2-.4.2-.3.3-.3.2-.3.2-.3.2-.3.2-.2.2-.3.2-.3.2-.3.2-.3.2-.3.2-.3.2-.4.2-.3.2-.3.2-.3.2-.3.2-.3.2-.3.2-.3.2-.3.2-.3.1-.3.2-.3.2-.3.2-.3.2-.4.2-.3.2-.3.2-.3.1-.3.2-.3.2-.3.2-.3.2-.4.2-.3.1-.3.2-.3.2-.3.2-.4.1-.3.2-.3.2-.3.2-.3.1-.4.2-.3.2-.3.1-.3.2-.4.2-.3.1-.3.2-.3.2-.4.1-.3.2-.3.1-.4.2-.3.2-.3.1-.3.2-.4.1-.3.2-.3.1-.4.2-.3.2-.3.1-.4.2-.3.1-.4.1-.3.2-.3v-.1l.1-.3.2-.3.1-.3.2-.4.1-.3.2-.4.1-.3.1-.3.2-.4.1-.3.1-.4.2-.3.1-.4.2-.3v-.4l.2-.3.1-.4.2-.3.1-.4.1-.3.2-.3v-.4l.2-.3.1-.4.1-.4.2-.3v-.4l.2-.3.1-.4.1-.3.2-.4v-.3l.2-.4.1-.3.1-.4.1-.4.1-.3.1-.4.1-.3.2-.4v-.3l.2-.4v-.4l.2-.3v-.4l.2-.4v-.3l.2-.4v-.3l.2-.4v-.4l.1-.3.1-.4.1-.4.1-.3.1-.4v-.4l.2-.3v-.4l.1-.4.1-.3.1-.4v-.4l.2-.4v-.3l.1-.4.1-.4v-.3l.2-.4v-.7h.1v-.4l.1-.4.1-.4v-.4l.1-.3v-.4l.2-.4v-.8l.1-.3v-.4l.1-.4v-.4l.1-.4.1-.3v-.4l.1-.4v-.8l.1-.4v-.3l.1-.4v-.4l.1-.4v-.8l.1-.3v-.8l.1-.4v-.8l.1-.4v-.7l.1-.4V242.5l.1-.4V234.3l-.1-.4v-1.6l-.1-.4v-.8l-.1-.4v-1.1l-.1-.4v-.4l-.1-.4v-.7l-.1-.4v-.8l-.1-.4v-.4l-.1-.3v-.4l-.1-.4v-.4l-.1-.4v-.3l-.1-.4v-.4l-.1-.4v-.4l-.1-.3-.1-.4v-.4l-.1-.4v-.4l-.2-.3v-.8l-.1-.2v-.2l-.1-.3v-.4l-.2-.4v-.4l-.1-.3v-.4l-.2-.4v-.3l-.1-.4-.1-.4v-.4l-.2-.3v-.4l-.1-.4-.1-.3-.1-.4v-.4l-.2-.3v-.4l-.2-.4v-.3l-.1-.4-.1-.4-.1-.3-.1-.4-.1-.3-.1-.4-.1-.4-.1-.3-.1-.4-.1-.4-.1-.3-.1-.4-.2-.3v-.4l-.2-.3v-.4l-.2-.4-.1-.3-.1-.4-.1-.3-.1-.4-.2-.3v-.4l-.2-.3-.1-.4-.1-.3-.2-.4v-.4l-.2-.3-.1-.4-.2-.3v-.4l-.2-.3-.1-.3-.2-.4v-.3l-.2-.4-.2-.3v-.4l-.2-.3-.2-.4-.1-.3-.1-.4-.2-.3-.1-.3-.2-.4-.1-.3-.1-.4-.2-.3-.1-.3-.2-.4-.1-.3-.2-.4-.1-.3-.2-.3-.1-.4-.2-.3-.1-.3-.2-.4-.1-.3-.2-.3-.1-.4-.2-.3-.2-.3-.1-.4-.2-.3-.1-.3-.2-.4-.2-.3-.1-.3-.2-.3-.2-.4-.1-.3-.2-.3-.2-.3-.1-.4-.2-.3-.2-.3-.1-.3-.2-.4-.2-.3-.2-.3-.1-.3-.2-.3-.2-.4-.2-.3-.2-.3-.1-.3-.2-.3-.2-.3-.2-.4-.2-.3-.2-.3-.1-.3-.2-.3-.2-.3-.2-.3-.2-.3-.2-.4-.2-.3-.2-.3-.2-.3-.2-.3-.2-.3-.2-.3-.2-.3-.2-.3-.2-.3-.2-.3-.2-.3-.2-.3-.2-.3-.2-.3-.2-.3-.2-.3-.2-.3-.2-.3-.2-.3-.2-.3-.2-.3-.2-.3-.2-.3-.2-.3-.3-.3-.2-.3-.2-.3-.2-.3-.2-.3-.2-.2-.2-.3-.3-.3-.2-.3-.2-.3-.2-.3-.2-.3-.3-.3-.2-.2-.2-.3-.2-.3-.3-.3-.2-.3-.2-.3-.3-.2-.2-.3-.2-.3-.2-.3-.3-.2-.2-.3-.2-.3-.3-.3-.2-.2-.2-.3-.3-.3-.2-.3-.3-.2-.2-.3-.2-.3-.3-.2-.2-.3-.3-.3-.2-.2-.2-.3-.3-.3-.2-.2-.3-.3-.2-.3-.3-.2-.2-.3-.3-.3-.2-.2-.3-.3-.2-.2-.3-.3-.2-.2-.3-.3-.2-.3-.3-.2-.2-.3-.3-.2-.2-.3-.3-.2-.3-.3-.2-.2-.3-.3-.2-.2-.3-.3-.3-.2-.2-.3-.3-.2-.2-.3-.3-.2-.3-.3-.2-.2-.3-.2-.3-.3-.2-.2-.3-.3-.3-.2-.2-.2-.3-.3-.3-.2-.2-.3-.3-.2-.3-.2-.3-.3-.2-.2-.3-.2-.3-.3-.3-.2-.2-.2-.3-.2-.3-.3-.3-.2-.3-.2-.2-.2-.3-.3-.3-.2-.3-.2-.3-.2-.3-.3-.2-.2-.3-.2-.3-.2-.3-.2-.3-.2-.3-.3-.3-.2-.2-.2-.3-.2-.2-.1-.1-.1-.3-.2-.3-.3-.3-.2-.3-.2-.2-.2-.3-.2-.3-.2-.3-.3-.3-.2-.3-.2-.3-.2-.3-.2-.3-.2-.3-.2-.3-.2-.2-.2-.3-.3-.3-.2-.3-.2-.3-.2-.3-.2-.3-.2-.3-.2-.3-.2-.3-.2-.3-.2-.3-.2-.3-.2-.3-.2-.3-.2-.3-.2-.3-.1-.4-.2-.3-.2-.3-.2-.3-.2-.3-.2-.3-.2-.3-.2-.3-.2-.3-.2-.3-.1h-.1l-.2-.2-.4-.2-.3-.2-.3-.2-.3-.2-.3-.1-.3-.2-.3-.2-.3-.2-.4-.2-.3-.1-.3-.2-.3-.2-.3-.2-.4-.1-.3-.2-.3-.2-.3-.1-.3-.2-.4-.2-.3-.1-.3-.2-.3-.2-.3-.1-.4-.2-.3-.2-.3-.1-.4-.2-.3-.2-.3-.1-.3-.2-.4-.1-.3-.2-.3-.1-.4-.2-.3-.1-.3-.2-.4-.2-.3-.1-.3-.2-.4-.1-.3-.1-.3-.2-.4-.1-.3-.2-.3-.1-.4-.2-.3-.1-.3-.2h-.4l-.3-.2-.4-.2-.3-.1-.3-.1-.4-.2-.3-.1-.4-.1-.3-.2-.4-.1-.3-.1-.3-.2h-.4l-.3-.2-.4-.1-.3-.2h-.4l-.3-.2-.4-.1h-.1l-.2-.1-.4-.2h-.3l-.4-.2-.3-.1-.4-.1-.3-.2h-.4l-.3-.2h-.4l-.3-.2-.4-.1-.4-.1-.3-.1-.4-.1-.3-.1-.4-.1-.3-.1-.4-.1-.4-.1-.3-.1-.4-.1-.3-.1-.4-.1-.4-.1-.3-.1-.4-.1-.3-.1-.4-.1-.4-.1h-.3l-.4-.2h-.4l-.3-.1-.4-.1-.3-.1-.4-.1h-.4l-.3-.2h-.4l-.4-.1-.4-.1h-.3l-.4-.1-.4-.1h-.3l-.4-.2h-.4l-.3-.1h-.4l-.4-.1-.4-.1h-.3l-.4-.1-.4-.1h-.4l-.3-.1h-.4l-.4-.1h-.4l-.3-.1-.4-.1h-.4l-.4-.1h-.3l-.4-.1h-.4l-.4-.1h-.7l-.4-.1h-.4l-.4-.1h-.4l-.4-.1h-.7l-.4-.1h-.8l-.4-.1h-.7l-.4-.1H378.8l-.4-.1H377l-.4-.1h-3.1zm1.2-5H383.2l.4.1H384.7l.4.1H386.3l.4.1h.8l.4.1h.4l.4.1h.8l.4.1h.4l.4.1h.4l.3.1h.4l.4.1h.4l.4.1h.4l.4.1h.4l.4.1h.4l.4.1.4.1h.4l.4.1h.3l.4.2h.8l.4.2h.8l.4.2h.4l.3.1h.4l.4.2h.4l.4.1.4.1h.4l.3.2h.4l.4.1.4.1.4.1.4.1h.3l.4.2h.4l.4.2h.4l.3.2h.4l.4.1.4.1.4.1.3.1.4.1.4.1.4.2h.3l.4.2h.4l.4.2h.3l.4.2h.2l.2.1.4.1.3.1.4.2h.4l.3.2.4.1.4.1.4.2h.3l.4.2.4.1.3.2h.4l.4.2.3.2h.4l.4.2.3.1.4.2.3.1.4.2h.4l.3.2.4.2.4.1.3.2h.4l.3.2.4.2.4.1.3.2.4.1.3.2.4.1.3.2.4.1.3.2.4.1.4.2.3.1.4.2.3.2.4.1.3.2.4.1.3.2.4.2.3.1.4.2.3.2.4.1.3.2.4.2.3.2.3.1.4.2.3.2.4.1.3.2.4.2.3.2.3.2.4.1.3.2.4.2.3.2.3.2.3.1.4.2.3.2.4.2.3.2.3.2.4.2.3.2.3.2.4.2.3.2.3.2.4.2.3.2.3.2.3.2.4.2.3.2.3.2.3.2.4.2.3.2.3.2.3.2.3.2.4.3.3.2.3.2.3.2.3.2.4.2.3.3.3.2.3.2.3.2.3.2.3.3.4.2.3.2.3.2.3.2.3.3.3.2.2.1.1.1.3.3.3.2.3.3.3.2.3.2.3.3.3.2.3.3.3.2.3.3.3.2.3.2.3.3.3.2.2.3.3.2.3.3.3.3.3.2.3.3.3.2.3.3.2.2.3.3.3.2.3.3.3.3.2.2.3.3.3.2.3.3.3.3.2.2.3.3.3.3.2.2.3.3.3.3.3.2.2.3.3.3.3.3.2.2.3.3.3.3.2.2.3.3.3.3.2.3.3.3.2.2.3.3.3.3.2.3.3.3.2.2.3.3.3.3.2.3.2.2.3.4.3.3.2.2.3.3.2.3.3.3.2.3.2.3.3.3.2.3.3.3.2.3.3.3.2.3.2.3.3.3.2.3.2.3.3.3.2.3.2.3.3.3.2.3.2.3.3.3.2.3.2.3.3.3.2.3.2.3.2.3.3.3.2.3.2.4.2.3.2.3.3.3.2.3.2.3.2.3.2.3.2.4.2.3.3.3.2.3.2.3.2.4.2.3.2.3.2.3.2.3.2.4.2.3.2.3.2.3.2.4.2.3.2.3.2.3.2.4.2.3.2.3.2.3.2.4.2.3.2.3.2.4.2.3.1.3.2.4.2.3.2.3.2.4.2.3.2.3.1.4.2.3.2.4.2.3.2.3.1.4.2.3.2.4.1.3.2.3.2.4.2.3.1.4.2.3.2.4.1.3.2.4.2.3.1.3.2.4.1.3.2.4.2.3.1.4.2.3.1.4.2.3.1.4.2.3.1.4.2.4.1.3.2.4.1.3.2.4.1.3.2.4.1.3.2.4.1.4.1.3.2.4.1.3.2.4v.4l.2.3.2.4v.3l.2.4.1.4.2.3.1.4.1.4.2.3v.4l.2.4.1.3.1.4.2.4v.3l.2.4.1.4.1.3.2.4v.4l.2.3v.4l.2.4.1.3.1.4.1.4.1.4.1.3.1.4.1.4.1.4.1.3.1.4.1.4.1.4.1.3.1.4.1.4.1.4.1.4v.3l.2.4v.4l.1.4.1.4.1.3.1.4v.4l.2.4v.4l.1.3v.4l.2.4v.4l.1.4v.4l.2.3v.4l.1.4v.4l.1.4.1.4v.4l.1.4v.3l.1.4.1.4v.4l.1.4v.4l.1.2V218.7l.1.4v.3l.1.4.1.4v.8l.1.4v.4l.1.4v.4l.1.4v.4l.1.4v.8l.1.4v.7l.1.4v.8l.1.4V228.5l.1.4v1.6l.1.4V234.1l.1.4V242.6l-.1.4V246.2l-.1.4v1.6l-.1.4V249.8l-.1.4v.8l-.1.4v.8l-.1.4v.8l-.1.4v.4l-.1.3v.4l-.1.4v.4l-.1.4v.4l-.1.4v.4l-.1.4v.4l-.1.4v.4l-.1.3v.4l-.1.4v.4l-.1.4-.1.4v.4l-.1.4v.4l-.1.3-.1.4v.4l-.1.4-.1.4v.4l-.2.4v.3l-.1.4v.4l-.2.4v.4l-.1.4v.3l-.2.4v.4l-.1.4-.1.4-.1.3v.4l-.2.4v.4l-.2.4v.3l-.1.4-.1.4-.1.4-.1.4-.1.3-.1.4-.1.4-.1.4-.1.3-.1.4-.1.4-.1.4-.1.3-.2.4v.4l-.2.3v.4l-.2.4-.1.4-.1.3-.1.4-.1.4-.2.3v.4l-.2.4-.1.3-.1.4-.2.4v.3l-.2.4-.1.4-.2.3-.1.4-.1.4-.2.3v.3l-.2.4-.2.4v.4l-.2.3-.2.4-.1.4-.1.3-.2.4-.1.3-.2.4-.1.3-.2.4-.1.4-.1.3-.2.4-.1.3-.2.4-.1.3-.2.4-.2.3-.1.4-.2.3-.1.4-.2.3-.1.4-.2.3-.2.4-.1.3-.2.4-.1.3-.2.4-.2.3-.1.4-.2.3-.2.4-.1.3-.2.4-.2.3-.2.3-.1.4-.2.3-.2.4-.2.3-.1.4-.2.3-.2.3-.2.4-.2.3-.1.3-.2.4-.2.3-.2.3-.2.4-.2.3-.2.4-.2.3-.1.3-.2.3-.2.4-.2.3-.2.3-.2.4-.2.3-.2.3-.2.4-.2.3-.2.3-.2.3-.2.4-.2.3-.2.3-.2.3-.2.4-.3.3-.2.3-.2.3-.2.3-.2.3-.2.4-.2.3-.3.3-.2.3-.2.3-.2.3-.2.3-.2.4-.3.3-.2.3-.2.3-.2.3-.3.3-.2.3-.2.3-.3.3-.2.3-.2.3-.2.4-.3.3-.2.3-.2.3-.3.3-.2.3-.3.3-.2.3-.2.3-.3.3-.2.3-.3.3-.2.3-.2.2-.3.3-.2.3-.3.3-.2.3-.3.3-.2.3-.3.3-.3.3-.2.2-.3.3-.3.3-.2.3-.3.2-.3.3-.2.3-.3.2-.3.3-.2.3-.3.3-.3.2-.3.3-.2.3-.3.2-.3.3-.3.2-.2.3-.3.3-.3.2-.3.3-.3.2-.2.3-.3.3-.3.2-.3.3-.3.2-.3.3-.2.2-.3.3-.3.2-.3.3-.3.2-.3.3-.3.2-.3.3-.3.2-.3.3-.2.2-.3.3-.3.2-.3.2-.3.3-.3.2-.3.3-.3.2-.3.2-.3.3-.3.2-.3.2-.3.3-.3.2-.3.2-.3.3-.4.2-.3.2-.3.2-.3.3-.3.2-.3.2-.3.2-.3.3-.3.2-.3.2-.4.2-.3.2-.3.2-.3.3-.3.2-.3.2-.3.2-.4.2-.3.2-.3.2-.3.2-.3.2-.4.3-.3.2-.3.2-.3.2-.3.2-.4.2-.3.2-.3.2-.3.2-.4.2-.3.2-.3.2-.3.2-.4.2-.3.2-.3.1-.4.2-.3.2-.3.2-.4.2-.3.2-.3.2-.4.2-.3.1-.3.2-.4.2-.3.2-.3.2-.4.2-.3.1-.3.2-.4.2-.3.2-.4.1-.3.2-.3.2-.4.1-.3.2-.4.2-.3.2-.4.1-.3.2-.3.2-.4.1-.3.2-.4.1-.3.2-.4.2-.3.1-.4.2-.3.1-.4.2-.3.1-.4.2-.3.2-.4.1-.3.2-.4.1-.3.2-.4.1-.3.1-.4.2-.3.1-.4.2-.4.1-.3.2-.4.1-.3.1-.4.2-.3.1-.4.2h-.4l-.3.2-.4.2h-.3l-.4.2-.4.1-.3.2-.4.1-.3.1-.4.1-.4.2h-.3l-.4.2-.4.1-.3.2h-.4l-.4.2-.3.1-.4.1-.4.1-.3.1-.4.2h-.4l-.3.2h-.4l-.4.2-.4.1-.3.1-.4.1-.4.1-.3.1-.4.1-.4.1-.4.1-.3.1-.4.1-.4.1h-.4l-.3.2h-.4l-.4.2h-.4l-.3.1-.4.1-.4.1-.4.1h-.3l-.4.2h-.4l-.4.1-.4.1h-.3l-.4.2h-.4l-.4.1h-.4l-.3.2h-.4l-.4.1h-.4l-.4.1-.4.1h-.3l-.4.1-.4.1h-.4l-.4.1-.4.1h-.4l-.3.1h-.4l-.4.1h-.4l-.4.1-.4.1h-.4l-.3.1h-.4l-.4.1h-.4l-.4.1h-.8l-.4.1h-.4l-.4.1h-.7l-.4.1h-.8l-.4.1h-.8l-.4.1h-.8l-.4.1h-1.6l-.1.1H382.6l-.4.1h-.8l-.4.1H379.8l-.4.1H378.2l-.4.1H376.6l-.4.1H373l-.4.1H365.7l-.4-.1h-1.7l-.2-.1h-1.6l-.4-.1h-.8l-.4-.1h-.8l-.4-.1h-.8l-.4-.1h-.8l-.3-.1h-.4l-.4-.1h-.8l-.4-.1h-.4l-.4-.1h-.4l-.4-.1h-.4l-.3-.1h-.4l-.4-.2h-.8l-.4-.1h-.4l-.4-.1-.3-.1h-.4l-.4-.1-.4-.1h-.4l-.4-.1-.4-.1h-.3l-.4-.2h-.4l-.4-.1h-.4l-.4-.2h-.3l-.4-.1-.4-.1h-.4l-.4-.2h-.3l-.4-.1-.4-.1-.4-.1-.4-.1h-.3l-.4-.2h-.4l-.4-.2h-.3l-.4-.2h-.4l-.4-.1-.3-.1-.4-.1-.4-.1-.4-.2h-.3l-.4-.2h-.4l-.4-.2h-.3l-.4-.2-.4-.1-.3-.1-.4-.1-.4-.1-.3-.2h-.4l-.4-.2-.4-.1-.3-.1-.4-.1-.4-.2h-.3l-.4-.2-.3-.1-.4-.2h-.4l-.3-.2-.4-.1-.4-.2-.3-.1-.4-.1-.4-.2-.3-.1-.4-.1-.3-.2-.4-.1-.3-.2-.4-.1-.4-.1-.3-.2-.4-.1-.3-.2-.4-.1-.3-.2-.4-.1-.4-.2-.3-.1-.4-.2-.3-.1-.4-.2-.3-.1-.4-.2-.3-.1-.4-.2-.3-.1-.4-.2-.3-.2-.4-.1-.3-.2-.4-.1-.3-.2-.4-.2-.3-.1-.3-.2-.4-.2-.3-.2-.4-.1-.3-.2-.4-.2-.3-.1-.4-.2-.3-.2-.3-.2-.4-.1-.3-.2-.3-.2-.4-.2-.3-.2-.4-.1-.3-.2-.3-.2-.4-.2-.3-.2-.3-.2-.4-.2-.3-.2-.3-.1-.4-.2-.3-.2-.3-.2-.4-.2-.3-.2-.3-.2-.3-.2-.4-.2-.3-.2-.3-.2-.2-.1-.1-.1-.4-.2-.3-.2-.3-.2-.3-.2-.4-.2-.3-.3-.3-.2-.3-.2-.3-.2-.4-.2-.3-.2-.3-.2-.3-.3-.3-.2-.3-.2-.3-.2-.4-.2-.3-.2-.3-.3-.3-.2-.3-.2-.3-.2-.3-.3-.3-.2-.3-.2-.3-.3-.3-.2-.4-.2-.3-.2-.3-.3-.3-.2-.3-.2-.3-.3-.3-.2-.3-.2-.3-.3-.3-.2-.3-.3-.3-.2-.3-.2-.3-.3-.3-.2-.3-.3-.2-.2-.3-.3-.3-.2-.3-.3-.3-.2-.3-.3-.3-.2-.3-.3-.3-.2v-.1l-.3-.2-.2-.2-.3-.3-.3-.3-.3-.2-.2-.3-.3-.3-.3-.2-.3-.3-.2-.3-.3-.2-.3-.3-.2-.3-.3-.2-.3-.3-.2-.3-.3-.3-.3-.2-.2-.3-.3-.3-.3-.3-.2-.3-.3-.2-.2-.3-.3-.3-.2-.3-.3-.3-.3-.3-.2-.3-.3-.2-.2-.3-.3-.3-.2-.3-.3-.3-.2-.3-.3-.3-.2-.3-.3-.3-.2-.3-.2-.3-.3-.2-.2-.3-.3-.3-.2-.3-.2-.3-.3-.3-.2-.3-.3-.3-.2-.3-.2-.3-.3-.3-.2-.3-.2-.4h-.1l-.2-.3-.2-.3-.2-.3-.2-.3-.3-.3-.2-.3-.2-.3-.2-.3-.3-.3-.2-.3-.2-.3-.2-.4-.2-.3-.3-.3-.2-.3-.2-.3-.2-.3-.2-.4-.2-.3-.2-.3-.3-.3-.2-.3-.2-.3-.2-.4-.2-.3-.2-.3-.2-.3-.2-.4-.2-.3-.2-.3-.2-.3-.2-.4-.2-.3-.2-.3-.2-.3-.2-.4-.2-.3-.2-.3-.2-.4-.2-.3-.2-.3-.2-.4-.2-.3-.1-.3-.2-.4-.2-.3-.2-.3-.2-.4-.2-.3-.2-.3-.1-.4-.2-.3-.2-.3-.2-.4-.2-.3-.1-.4-.2-.3-.2-.3-.2-.4-.1-.3-.2-.4-.2-.3-.1-.4-.2-.3-.2-.4-.1-.3-.2-.3-.2-.4-.1-.3-.2-.4-.2-.3-.1-.4-.2-.3-.1-.4-.2-.3-.2-.4-.1-.3-.2-.4-.1-.3-.2-.4-.1-.3-.2-.4-.1-.4-.2-.3-.1-.4-.2-.3-.1-.4-.1-.3-.2-.4-.1-.4-.2-.3-.1-.4-.1-.3-.2-.4-.1-.4-.2-.3v-.4l-.2-.3-.2-.4v-.4l-.2-.3-.1-.4-.2-.4-.1-.3-.1-.4-.1-.4-.2-.3v-.4l-.2-.4-.1-.3-.1-.4-.2-.4v-.3l-.2-.4-.1-.4-.1-.3-.1-.4-.1-.4-.2-.4v-.3l-.2-.4v-.4l-.2-.4v-.3l-.2-.4v-.4l-.2-.4v-.3l-.2-.4v-.4l-.2-.4v-.3l-.2-.4v-.4l-.2-.4v-.4l-.1-.3-.1-.4-.1-.4v-.4l-.2-.4v-.3l-.1-.4-.1-.4-.1-.4v-.4l-.2-.4v-.3l-.1-.4v-.4l-.2-.4v-.4l-.1-.4v-.3l-.1-.4-.1-.4v-.4l-.1-.4v-.4l-.2-.4v-.7l-.1-.4v-.4l-.1-.4-.1-.4v-.4l-.1-.4v-.4l-.1-.4v-.4l-.1-.4v-.3l-.1-.4v-.4l-.1-.4v-.8l-.1-.4v-.4l-.1-.4v-.8l-.1-.4v-.8l-.1-.4v-.8l-.1-.4V247.8l-.1-.4v-1.6l-.1-.4V242.2l-.1-.4V231l.1-.4V229l.1-.4V227.3l.1-.4v-.8l.1-.4v-.8l.1-.4v-.7l.1-.4v-.4l.1-.4v-.8l.1-.4v-.4l.1-.4v-.4l.1-.4v-.4l.1-.4v-.4l.1-.3v-.4l.1-.4.1-.4v-.4l.1-.4v-.4l.1-.4.1-.4v-.4l.1-.3v-.4l.2-.4v-.4l.1-.4v-.4l.1-.4.1-.3v-.4l.2-.4v-.4l.1-.4.1-.4v-.3l.2-.4v-.4l.1-.4.1-.4v-.4l.2-.3v-.4l.2-.4v-.4l.1-.4.1-.3.1-.4.1-.4.1-.4.1-.3.1-.4.1-.4.1-.4.1-.3.1-.4.1-.4.1-.4.1-.3.1-.4.1-.4.2-.4v-.3l.2-.4v-.4l.2-.3.1-.4.1-.4.2-.3v-.4l.2-.4.1-.4.1-.3.2-.4v-.4l.2-.3.1-.4.2-.3v-.4l.2-.4.2-.3v-.4l.2-.4.1-.3.2-.4.1-.3.2-.4.1-.4.1-.3.2-.4.1-.3.2-.4v-.2l.1-.2.1-.3.2-.4.1-.3.2-.4.1-.3.2-.4.1-.3.2-.4.1-.4.2-.3.2-.4.1-.3.2-.4.1-.3.2-.4.1-.3.2-.4.2-.3.1-.4.2-.3.2-.3.1-.4.2-.3.2-.4.1-.3.2-.4.2-.3.1-.4.2-.3.2-.3.2-.4.1-.3.2-.4.2-.3.2-.3.2-.4.1-.3.2-.3.2-.4.2-.3.2-.4.2-.3.2-.3.1-.4.2-.3.2-.3.2-.4.2-.3.2-.3.2-.3.2-.4.2-.3.2-.3.2-.4.2-.3.2-.3.2-.3.2-.4.2-.3.2-.3.2-.3.2-.4.2-.3.2-.3.2-.3.3-.3.2-.4.2-.3.2-.3.2-.3.2-.3.2-.3.2-.4.3-.3.2-.3.2-.3.2-.3.2-.3.3-.3.2-.3.2-.3.2-.4h.1l.2-.3.2-.3.2-.3.3-.3.2-.3.2-.3.3-.3.2-.3.2-.3.3-.3.2-.3.2-.3.3-.3.2-.3.3-.3.2-.3.2-.3.3-.3.2-.3.3-.3.2-.3.3-.3.2-.2.3-.3.2-.3.3-.3.2-.3.3-.3.2-.3.3-.3.2-.3.3-.2.2-.3.3-.3.2-.3.3-.3.3-.2.2-.3.3-.3.2-.3.3-.3.3-.2.2-.3.3-.3.3-.3.2-.2.3-.3.3-.3.2-.3.3-.2.3-.3.2-.3.3-.2.3-.3.3-.3.3-.2.3-.3.2-.2.3-.3.3-.2.3-.3.3-.2.3-.3.3-.2.2-.3.3-.2.3-.3.3-.2.3-.3.3-.2.3-.3.3-.2.3-.3.3-.2.3-.3.3-.2.3-.2.3-.3.3-.2.3-.3.3-.2.3-.2.3-.3.3-.2.3-.2.3-.3.3-.2.3-.2.3-.2.3-.3.3-.2.3-.2.3-.3.4-.2.3-.2.3-.2.3-.3.3-.2.3-.2.3-.2.3-.2.4-.2.3-.3.3-.2.3-.2.3-.2.3-.2.4-.2.3-.2.3-.2.3-.3.4-.2.3-.2.3-.2.3-.2.4-.2.3-.2.3-.2.3-.2.4-.2.3-.2.3-.2.4-.2.3-.2.3-.2.4-.1.3-.2.3-.2.4-.2.3-.2.3-.2.4-.2.3-.2.3-.2.4-.1.3-.2.3-.2.4-.2.3-.2.4-.1.3-.2.3-.2.4-.2.3-.2.4-.1.3-.2.4-.2.3-.1.4-.2.3-.2.3-.1.4-.2.3-.2.4-.1.3-.2.4-.2.3-.1.4-.2.3-.2.4-.1.3-.2.4-.1.3-.2.4-.1.4-.2.3-.1.4-.2.3-.1.4-.2.3-.1.4-.2.4-.1.3-.2.4-.1.3-.2.4-.1.4-.1.3-.2.4-.1.3-.2h.4l.4-.2.3-.2.4-.1.4-.1.3-.2h.4l.4-.2.3-.1.4-.2h.4l.3-.2.4-.1.4-.2h.3l.4-.2.4-.1.3-.1.4-.2h.4l.4-.2h.3l.4-.2.4-.1.4-.1.3-.1.4-.1.4-.1.4-.1.3-.1.4-.2h.4l.4-.2h.3l.4-.1.4-.1.4-.1.4-.1.3-.1.4-.1.4-.1.4-.1h.4l.4-.2h.3l.4-.1.4-.1.4-.1h.4l.4-.2h.3l.4-.1.4-.1h.4l.4-.2h.4l.4-.1h.3l.4-.1.4-.1h.4l.4-.1.4-.1h.4l.4-.1.4-.1h.4l.4-.1h.3l.4-.1h.4l.4-.1h.4l.4-.1h.4l.4-.1h.4l.4-.1h.4l.4-.1h.4l.4-.1h.8l.4-.1h.4l.4-.1h.8l.4-.1H362.9l.4-.1H364.5l.4-.1h1.6l.4-.1H374.6z" fill="#d2ccf5"/><path d="M535.6 223.4L401 234.7 383.7 426h151.5l.4-202.7z" fill="#e5e1f9"/><clipPath id="c"><path d="M535.6 223.4L401 234.7 383.7 426h151.5l.4-202.7z"/></clipPath><g clip-path="url(#c)"><path d="M534.6 228c-10.4 8.7-21 18.6-27.3 30.7-11.4 21.7-13.9 46.6-27.7 67.3-10.6 15.7-26.6 21.5-40.5 33.3-12 10.2-21.3 25.8-30.2 38.6-5.5 7.9-9.4 15.8-16.8 22.2-4.8 4.2-14 7.4-16.8 13.6-3.1 7.1-.8 15.7 4.2 21.4 11.5 13 31.1 14.8 47.4 15.4 36.6 1.3 72.5-3.5 108.3-11.2 14.8-3.2 39.6-5.4 47.2-21.3 3.9-8.3 4-18.2 4.3-27.2 1-30.7-12.4-58.4-26-85.2-7-13.5-15.7-27.2-19.3-42.2a94.6 94.6 0 0 1-.7-35c.6-4.2 3.8-15.4.6-20" fill="#d8d2f6"/></g><path d="M536.5 219.9l.6.2.5.2.5.4.4.5.3.5.3.5.1.6v.6l.2 39v45.2l-.1 16.8-.4 21.5-.9 51.7-.4 28.5v.4l-.2.4-.1.4-.3.3-.3.3-.3.3-.4.1-.4.1h-.4l-18.1-.2-25-.2-11.3-.1H452l-22.3.3-45.9.7h-.4l-.5-.1-.4-.2-.4-.2-.1-.1-.3-.2-.3-.4-.2-.4-.2-.5v-.9l3-42 1.5-19.6 1.3-15.3 1-10.1 1.3-13.3 3.5-31.8 3.4-31.6 1.3-12.9 1-9.5.4-5.3.1-.4.1-.3.2-.3.2-.3.2-.3.3-.2.4-.2h.3l.4-.1 1.1-.1 18.2-1.7 44.3-4.1 69.4-6.6 1.5-.1.3 3.6-.3-3.6h1.2zm-68.7 12l-42.8 3.2-17.6 1.4-4.3.3-.8 8.2-.7 9-1 12.3-2 29.7-2 29.7-1 12.3-.8 9.3-1.3 14.1-2 18.3-.7.4-4 43.2h.6l45 .7 20.4.3h37l23-.2-.2-.3h20.3l-.4-31.9-.7-50.5-.2-20.9-.1-16.1v-16l.2-27.4.3-33.7-64.2 4.6z" fill="#231768"/><circle cx="418.7" cy="252.5" r="10.8" fill="#c1bae7"/><circle cx="510.6" cy="245.8" r="10.8" fill="#c1bae7"/><path d="M556 223.4l39.6 201.2-63.8 1.5 3.8-202.7 11.3 13 9.1-13z" fill="#c1bae7"/><clipPath id="d"><path d="M556 223.4l39.6 201.2-63.8 1.5 3.8-202.7 11.3 13 9.1-13z"/></clipPath><g clip-path="url(#d)" fill="#ada4df"><path d="M548.7 234.3l1 2v.6l1.6 19.5 2 25.5 1 13.8 1 14 .8 13.8.8 13.1.7 14.2.7 16.2.6 17 .6 16.8.1 3.8v.5l-.1.6-.2.5-.3.4-.3.4-.4.4-15.5 13.1-8.6 7.3-.5.4-2 .7-2-.9-.6-2 .9-2 .5-.4 7.3-6.8 14.6-13.5-.3-6h-.2l-1.2-16.4-1.2-16.7-1-15.9-.9-13.8-.6-12.8-.6-13.4-.5-13.6-.5-13.5-.8-25-.5-19v-.6l.7-2 2-1 2 .7z"/><path d="M560 400.8h.2l2 1 5.4 2.3 3.1 1.5 3.3 1.5 3 1.6 2.6 1.4 2.4 1.4 2.4 1.6 2.5 1.6 2.4 1.7 4.3 3.2 3.3 2.5h.1l1.3 1.9-.2 2-1.7 1.2-2.2-.2h-.1l-3.8-1.7-5-2.1-2.6-1.3-2.6-1.2-2.6-1.4-2.4-1.3-2.6-1.6-2.8-1.8-3-2-2.8-2-4.7-3.5-1.8-1.3-.1-.1-1.3-1.9.2-2 1.7-1.1 2.2.1z"/></g><path d="M531.7 223.3l.1-.7.2-.6.3-.6.4-.5.5-.5.5-.4.6-.3.7-.1H536.3l.6.1.6.3.6.4.5.5 1.3 1.5 6.7 8 6.5-9 .4-.5.4-.4.5-.4.6-.2.6-.1h1.2l.6.2.5.3.5.4.4.4.4.5.3.5.1.6.2 1.1 9.2 50.5 5.9 32.2 2.5 13.2 1.8 9.5 1.4 6.8 2 9.2 5 22.4 5 22.6 2.1 9.5 1.5 7.2 2 11 1.1 6V425.2l-.1.6-.3.6-.4.5-.4.5-.6.3-.5.3-.7.2h-1.6l-37.7.2-25.1.1h-.4l-.3-.1-.4-.2-.3-.2-.3-.3-.2-.2-.2-.4v-.3l-.1-.4v-.3l.1-5 .6-16.4.2-7.4.2-6.5v-7.4l.2-8.2v-18.4l.1-41v-68.6l.4-12.6.2-11.3zm18.2 15.3l-.4.4-.4.4-.6.4-.5.2-.6.1H546l-.6-.2-.5-.2-.5-.4-.5-.4-4.6-5.3v.6l-.2 12.1-.4 12.3-.6 15.8-1.4 38.2-1.5 40-.6 18-.2 8-.2 7.3v6.3l-.1 7V415l-.1 9v-.1l26.5-.7.3-.5 30.1-1.4-.4-1.9-2.2-10.9-1.4-7.2-1.7-9.5-3.9-23-3.8-22.5-1.6-9.3-1.3-6.8-2-9.5-2.6-13.2-6.7-32-9.2-43-4.3 6.2z" fill="#231768"/><path d="M512.6 242.7l1.6 2.4-.5 2.7-.2.2-.1.2-.1.1-.2.3-.1.2-.1.1-.2.2v.2l-.2.2-.1.2-.2.2v.2l-.2.2-.1.2-.1.3-.2.2v.2l-.2.2-.1.2-.1.2-.1.2-.1.2-.2.2v.2l-.2.2v.2l-.2.2v.3l-.2.2-.1.2-.1.2-.1.2-.1.2-.1.2-.1.3-.1.2-.1.2-.1.2v.2l-.2.3v.2l-.2.2v.2l-.2.2v.3l-.1.2-.1.2-.1.2-.1.3v.2l-.2.2v.2l-.1.3-.1.2v.2l-.2.3v.2l-.1.2-.1.2v.3l-.2.2v.2l-.1.3v.2l-.2.2v.5l-.2.3v.2l-.1.2v.3l-.1.2-.1.2v.3l-.1.2v.3l-.2.2v.5l-.1.2v.3l-.1.2-.1.3v.2l-.1.2v.3l-.1.2v.3l-.1.2v.3l-.1.2v.3l-.1.2v.3l-.1.2v.3l-.1.2v.3l-.1.2v.5l-.1.3v.2l-.1.3v.2l-.1.3v.5l-.1.2v.5l-.1.3v.5l-.1.2v.6l-.1.2v.7l-.1.3v.6l-.1.5v.5l-.1.5v1.1l-.1.5v1l-.1.5v1.6l-.1.5v10.6l.1.6v1.6l.1.5v.5l.1.6v1l.1.5v.6l.1.5v.5l.1.5v.6l.1.5v.5l.1.5v.6l.1.5v.5l.2.5v1l.1.6.1.5v.5l.1.2v.3l.1.5.1.5.1.5v.5l.2.5v.7l.1.3v.2h.1l.1.7.2.6v.7l.2.6.2.6v.7l.2.6.2.6v.3l.1.4.2.6.2 1.2.3 1.3.2.6.1.7.2.6.1.6.2.7.1.6.1.6.2.7.1.6.1.7.1.3v.3l.1.3v.3l.1.4.1.3v.3l.1.3v.3l.1.4v.3l.1.2v.1l.1.3v.4l.1.3v.3l.1.3v.7l.1.3v.3l.1.4v.6l.1.3v.7l.1.3v.7l.1.3v1.3l.1.4v6.1l-.1.3v.7l-.1.3v.4l-.1.3v.4l-.1.3v.4l-.1.3v.4l-.2.3v.7l-.2.4v.3l-.1.4-.1.3v.4l-.1.2v.1l-.2.4v.3l-.1.2v.2l-.1.1-.1.2v.2l-.1.2v.1l-.1.2v.2l-.2.1v.4l-.1.1-.1.2v.2l-.1.2-.1.1v.2l-.1.2-.1.1v.2l-.2.2v.1l-.1.2v.1l-.2.2v.2l-.1.1-.1.2v.1l-.2.2v.2l-.1.1-.1.2-.1.1-.1.2-.1.1v.2l-.2.1v.2l-.2.2v.1l-.1.2-.1.1-.1.2-.1.1-.1.2-.1.1-.1.2-.1.1-.1.2-.1.1-.1.2-.1.1-.1.1-.1.2-.1.1-.1.2-.1.1-.1.2-.1.1-.2.1v.2l-.2.1v.2l-.2.1-.1.1-.1.2-.1.1-.1.2h-.2v.2l-.2.2h-.1l-.1.2-.1.2h-.2v.2l-.2.2h-.1l-.3.3-.2.3-.2.3-.3.2-.2.3-.3.2-.3.2-.2.3-.3.2-.2.3-.3.2-.3.2-.2.3-.3.2-.3.2-.3.2-.2.3-.3.2-.2.1-.4.3-.3.2-.3.2-.2.2-.3.2-.3.2-.3.2-.3.2-.3.2-.3.2-.3.2-.3.2-.3.2-.3.1-.3.2-.3.2-.4.2-.3.2-.3.1-.3.2-.3.2-.3.1-.3.2-.4.1-.3.2-.3.1-.3.2-.4.1-.3.2-.3.1-.3.2-.4.1-.3.1-.3.2-.4.1-.3.1-.3.2h-.4l-.3.2-.3.1-.4.1-.3.1-.4.2h-.3l-.3.2h-.4l-.3.2h-.4l-.3.2h-.4l-.3.1-.4.1-.3.1-.4.1h-.3l-.4.2h-.3l-.4.1h-.3l-.4.2h-.7l-.3.1-.4.1h-.3l-.4.1h-.3l-.4.1h-.3l-.4.1h-.7l-.4.1h-.7l-.3.1h-1.5l-.3.1h-5l-.4-.1h-.7l-.3-.1h-.7l-.4-.1h-.4l-.3-.1h-.4l-.3-.1h-.4l-.3-.1-.4-.1h-.3l-.4-.1-.3-.1h-.3l-.4-.2h-.3l-.4-.1-.3-.1-.4-.1h-.3l-.4-.2h-.3l-.3-.2h-.4l-.1-.1h-.2l-.3-.2-.4-.1-.3-.1-.4-.1-.3-.1-.2-.1h-.1l-.2-.1h-.2l-.1-.2H452.4l-.2-.1-.2-.1h-.1l-.2-.1-.2-.1h-.1l-.2-.2h-.2l-.1-.1h-.2l-.1-.1-.2-.1h-.2l-.1-.2h-.2l-.1-.1h-.2l-.2-.2h-.1l-.2-.1-.1-.1h-.2l-.1-.2h-.2l-.2-.1-.1-.1-.2-.1h-.1l-.2-.2h-.1l-.2-.2h-.1l-.2-.1-.2-.1-.1-.1-.2-.1-.1-.1h-.2v-.1h-.1l-.2-.2h-.1l-.2-.2h-.1l-.2-.2h-.1l-.2-.2h-.1l-.2-.2h-.1l-.2-.2h-.1l-.1-.2h-.2l-.1-.2h-.2l-.1-.2h-.2l-.1-.2-.2-.1-.1-.1-.1-.1-.2-.1-.1-.1v-.1h-.2l-.1-.2h-.2v-.2l-.2-.1-.2-.1-.1-.1-.2-.2-.2-.2-.2-.1-.1-.1-.1-.2h-.2l-.1-.2-.1-.1-.2-.2h-.1l-.1-.2-.2-.1-.1-.2h-.1v-.1l-.2-.1-.1-.1-.1-.2-.2-.1-.1-.1-.1-.2-.2-.1v-.1l-.2-.2-.1-.1-.2-.1v-.2l-.2-.1-.1-.2h-.2v-.2l-.2-.2-.1-.1-.2-.2v-.1l-.2-.1-.1-.2-.1-.1-.2-.2v-.1l-.2-.2-.1-.1-.1-.2-.2-.1v-.2l-.2-.1-.1-.2-.1-.1-.1-.2-.2-.2v-.1l-.2-.2-.1-.1-.1-.2-.1-.1-.1-.2-.1-.2-.1-.1-.2-.2-.2-.3-.2-.3-.2-.4-.2-.3-.2-.3-.2-.3-.2-.4-.2-.3-.2-.3-.2-.4-.2-.3-.2-.3-.1-.4-.2-.3-.2-.4-.2-.3-.2-.4-.1-.3-.2-.4-.2-.3-.2-.4-.1-.3-.2-.4-.2-.3-.1-.4-.2-.4-.2-.3-.1-.4-.2-.4-.1-.3-.2-.4-.1-.4-.2-.3-.1-.4-.2-.4-.1-.4-.2-.3-.1-.4-.2-.4-.1-.4-.1-.3-.2-.4-.1-.4-.1-.4-.2-.4-.1-.3-.1-.4-.2-.4v-.4l-.2-.4-.1-.4-.1-.4-.2-.4v-.3l-.2-.4-.1-.4-.1-.4-.1-.4-.1-.4-.1-.4-.1-.4-.1-.4-.1-.4-.1-.4-.1-.4-.1-.4-.1-.4v-.4l-.2-.4v-.3l-.1-.4-.1-.4-.1-.4v-.4l-.2-.4v-.4l-.1-.4v-.4l-.2-.4v-.4l-.1-.4v-.4l-.1-.4v-.4l-.2-.4v-.8l-.1-.4v-.4l-.1-.4v-.4l-.1-.2V326.4l-.1-.4v-.4l-.1-.4v-.7l-.1-.4v-.4l-.1-.4v-.8l-.1-.4V321l-.1-.4V318.7l-.1-.4V310l.1-.5v-1.2l.1-.6v-.6l.1-.6v-1.1l.1-.6v-.6l.1-.5V303.2l.1-.6.1-1.1.1-1.2.1-1 .1-1.2.1-1.1.1-.6v-1.1l.1-.6v-.5l.1-.6v-.6l.1-.5v-.6l.1-.5v-1.1l.1-.6v-1.1l.1-.5v-1.7l.1-.3V284.2l.1-.2V277l-.1-.2V275.8l-.1-.2v-.5l-.1-.2V274.3l-.1-.2V273.8l-.1-.2v-.4l-.1-.2V272.7l-.1-.2v-.4l-.1-.2v-.1l-.1-.2v-.2l-.1-.2V271l-.1-.2v-.2l-.1-.2v-.2l-.1-.2v-.1l-.1-.2v-.2l-.1-.2-.1-.2v-.1l-.1-.2v-.2l-.1-.2-.1-.4-.2-.3v-.4l-.2-.3-.1-.4-.2-.4v-.3l-.2-.4-.2-.4-.1-.3-.1-.4-.2-.4-.1-.4-.2-.3-.1-.4-.2-.4-.1-.3-.2-.4-.1-.4-.2-.4-.3-.7-.3-.8-.7-1.5-.3-.8-.3-.8-.2-.4-.2-.4-.1-.4-.2-.4-.1-.4-.2-.4-.2-.4-.1-.4v-2.8l2-2h2.8l2 2 .1.5.2.3.1.4.2.4.1.4.2.4.2.3.1.4.4.8.3.7.7 1.5.3.8.4.8.1.4.2.3.2.4.2.4.1.4.2.4.2.4.1.4.2.4.1.4.2.4.2.4.1.4.2.4.1.4.2.4.1.4.2.4.1.4.2.4v.2l.1.2v.2l.1.2.1.3v.2l.1.2.1.2v.2l.1.2v.2l.2.2v.5l.1.2v.2l.2.2v.4l.1.3v.2l.1.2v.2l.1.2v.3l.1.2v.2l.1.2v.3l.1.2v.4l.1.3v.2l.1.2v.5l.1.2v.5l.1.2v.7l.1.2v1.1l.1.3v1.2l.1.3V287.7l-.1.3v.6l-.1.6v.6l-.1.6-.1.6v.5l-.1.6-.1.6v.6l-.1.6-.1.5-.1.6v.6l-.2.5v.6l-.1.6-.1.5-.2 1.2-.2 1.1-.1 1.1-.2 1.1-.2 1.2v.5l-.1.5-.1.6-.1.6v.6l-.2.5v.6l-.1.5-.1.6v.5l-.1.6-.1.5v.6l-.1.6-.1.5v.6l-.1.5v.6l-.1.3v1l-.1.4v1l-.1.3v2.1l-.1.4V325.6l.1.3V327.1l.1.3V328.6l.1.3v.8l.1.4v.4l.1.3v.8l.1.4v.4l.1.3v.4l.1.4v.4l.1.4.1.3v.4l.1.4v.4l.2.4v.7l.2.4v.4l.1.3v.4l.1.4.1.4.1.4v.3l.2.4v.4l.1.4.1.3.1.4.1.4.1.4v.3l.2.4v.4l.2.3v.4l.2.4v.3l.2.4.1.4.1.3.1.4.1.4.2.3v.4l.2.3.1.4.1.4.1.2v.1l.2.4.1.3.2.4v.3l.2.4.2.3.1.4.1.3.2.3.1.4.2.3.1.4.2.3.1.3.2.4.1.3.2.3.2.4.1.3.2.3.2.3.1.3.2.4.2.3.1.3.2.3.2.3.1.3.2.3.2.3.2.3.1.2.1.1.1.2v.1l.2.2v.1l.2.2v.1l.2.2v.1l.2.1v.2l.2.1v.2l.2.1v.1l.2.2v.1l.2.2.1.1.1.1.1.2.1.1.1.1.1.2h.1l.2.2v.1l.2.2v.1l.2.1.1.2h.1l.1.2.2.1v.1l.2.2h.1l.1.2.1.1.1.1.2.2.2.2.1.1.1.1.2.1v.1l.2.2h.1l.1.2h.2l.1.2.1.1.1.1.2.1v.1l.2.1.1.1.2.1.1.1.1.1.2.1v.1l.2.1.1.1.2.1.1.1.1.1.2.1.1.1.1.1h.2v.2h.2l.2.2h.1l.1.1.2.1.1.1.1.1h.2l.1.2h.1l.2.1.1.1.2.1.2.2h.2l.1.1.2.1.2.1.2.1.1.1h.2l.1.1.1.1h.2l.1.2H450l.2.2h.2l.2.2H450.8l.1.2H451.2l.2.1.1.1h.2l.1.1h.2l.1.1.1.1h.2l.1.1h.2l.1.1h.2l.1.1h.2l.1.1h.2l.1.1h.2l.1.1h.2l.1.1h.2l.1.1h.2l.3.2h.3l.3.1.3.1h.3l.2.1h.1l.3.1.3.1h.4l.3.1h.3l.3.1.3.1h.3l.3.1h.7l.3.1h.3l.3.1h.6l.4.1h1.2l.3.1H468.6l.4-.1h.6l.3-.1h.6l.4-.1h.3l.3-.1h.3l.3-.1h.3l.3-.1h.4l.3-.1h.3l.3-.1.3-.1h.3l.3-.1.3-.1h.3l.4-.2h.3l.3-.1.3-.1.3-.1h.3l.3-.2h.3l.3-.2h.3l.3-.2h.3l.3-.2h.3l.3-.2h.3l.3-.2.3-.1.3-.1.2-.1.3-.2h.3l.3-.2.3-.1.3-.2h.3l.2-.2.3-.1.3-.2.3-.1.3-.2.2-.1.3-.1.3-.2.3-.1.2-.2.3-.1.3-.2.2-.1.3-.2.2-.1.3-.2.3-.2.2-.1.3-.2.2-.2.3-.1.2-.2.3-.2.2-.1.3-.2.2-.2.3-.2.2-.1.2-.2.3-.2.2-.2.2-.2.3-.2.2-.2.2-.1.2-.2.3-.2.2-.2.2-.2.2-.2.2-.2.2-.2.2-.2.2-.2.3-.2.2-.2.2-.2.2-.2.1-.2.2-.3.2-.2.2-.2.2-.2.2-.2.2-.2.2-.2v-.1l.1-.2h.1l.1-.2h.1v-.2l.2-.1v-.1l.1-.1.1-.1.1-.2.2-.2v-.1l.1-.1.1-.1v-.1l.2-.2.1-.2.1-.1v-.1l.2-.1v-.1l.1-.2.2-.2v-.1l.1-.1v-.1l.2-.2.1-.2v-.1l.1-.1.1-.2.1-.2.1-.1v-.1l.1-.2h.1v-.2l.1-.1.1-.1v-.2h.1v-.2l.1-.1.1-.1v-.2l.1-.1v-.1l.1-.1v-.2h.1l.1-.2v-.1l.1-.2.1-.2v-.1l.1-.2.1-.2.1-.1v-.2l.1-.1v-.1l.1-.2.1-.2v-.1l.1-.2v-.2l.1-.2.1-.2v-.1l.2-.3v-.4l.1-.2.1-.3.1-.2.1-.3v-.3l.2-.3v-.3l.1-.2v-.3l.1-.3.1-.3v-.3l.1-.2v-.3l.1-.3.1-.3v-.3l.1-.2V344.6l.1-.3v-.6l.1-.3v-.2l.1-.3v-.6l.1-.3V341.1l.1-.2v-1.2l.1-.3V333.2l-.1-.3v-1.2l-.1-.3v-1l-.1-.3v-.6l-.1-.3v-.6l-.1-.3v-.6l-.2-.6v-.7l-.1-.6-.1-.6v-.7l-.2-.6v-.6l-.1-.7-.1-.6-.2-1.3-.2-1.3v-.6l-.1-.3v-.3l-.2-.7v-.6l-.2-.7v-.6l-.1-.7-.1-.6-.1-.7-.1-.7v-.6l-.1-.4v-.3l-.1-.5-.1-.5v-.5l-.1-.6-.1-.5v-.5l-.1-.5-.1-.5v-.6l-.2-.5v-.5l-.1-.5v-.6l-.1-.5-.1-.5v-.6l-.1-.3v-.2l-.1-.5v-.6l-.1-.5-.1-.5v-.6l-.1-.5v-.5l-.1-.6-.1-.5v-.6l-.1-.5v-.6l-.1-.5v-.8l-.1-.3v-.5l-.1-.6v-1.1l-.1-.5v-.6l-.1-.5v-1.1l-.1-.6v-1.6l-.1-.6v-2.7l-.1-.6V277l.1-.5v-1.1l.1-.4v-1.3l.1-.2V272.6l.1-.2v-.8l.1-.3v-.8l.1-.3v-.5l.1-.3v-.6l.1-.2v-.6l.1-.2v-.3l.1-.3v-.5l.1-.3v-.3l.1-.2v-.3l.1-.3v-.2l.1-.3v-.3l.1-.2v-.3l.1-.3v-.2l.1-.3v-.3l.1-.2v-.3l.1-.3v-.2l.1-.3.1-.3v-.2l.1-.3v-.3l.2-.2v-.5l.2-.3v-.3l.1-.2v-.3l.1-.2.1-.3v-.3l.2-.2v-.3l.1-.2v-.3l.2-.3v-.2l.1-.3.1-.2.1-.3v-.3l.2-.2v-.3l.1-.2.1-.3.1-.2.1-.3.1-.2.1-.3.1-.2.1-.3v-.2l.2-.3v-.3l.2-.2.1-.3.1-.2.1-.3.1-.2.1-.2.1-.3.1-.2.1-.3.2-.2v-.3l.2-.2.1-.3.1-.2.1-.3.2-.2v-.3l.2-.2.1-.2.2-.3v-.2l.2-.3.1-.2.2-.2v-.3l.2-.2.2-.3.1-.2.1-.2.2-.3.1-.2.2-.2v-.3l.2-.2 2.3-1.6 2.8.5z" fill="#ada4df"/><path d="M512.7 242.8l1.5 2.5-.7 2.6-.1.2-.2.2v.1l-.1.1-.2.2-.1.2-.2.2-.1.2-.2.2v.2l-.2.2-.2.2-.1.2-.2.2v.2l-.2.2-.2.2-.1.2-.1.3-.2.2-.1.2-.1.2-.2.2v.2l-.2.2-.1.2-.2.2v.2l-.2.3-.1.2-.2.2v.2l-.2.2-.1.2-.1.3-.2.2v.2l-.2.2-.1.2-.1.2-.1.3-.1.2-.2.2v.2l-.2.3v.2l-.2.2-.1.2-.1.3-.1.2-.1.2-.1.2-.1.3-.1.2-.1.2-.1.2-.1.3-.1.2-.1.2-.1.3-.1.2-.1.2-.1.3-.1.2v.2l-.2.3v.2l-.2.2v.3l-.1.2-.1.3-.1.2-.1.2v.3l-.2.2v.2l-.1.3-.1.2-.1.3v.2l-.2.3v.2l-.1.2-.1.3v.2l-.1.3-.1.2-.1.3v.2l-.1.3-.1.2v.2l-.2.3v.2l-.1.3v.2l-.1.3-.1.2v.3l-.1.2v.3l-.2.2v.5l-.1.3-.1.2v.3l-.1.2v.3l-.1.2-.1.3v.3l-.1.2v.3l-.1.2v.3l-.1.2-.1.5-.1.6-.1.5-.1.5-.1.5-.1.5v.5l-.2.6v.5l-.1.5-.1.5v.5l-.2.6v1l-.2.5v1.1l-.1.5v.5l-.1.6v.5l-.1.5v.6l-.1.5v.5l-.1.5v1.1l-.1.5v1.1l-.1.5v1.6l-.1.5v12.6l.1.5v1.1l.1.5v1l.1.5v.5l.1.5v.6l.1.4v.3l.1.6v.6l.2.7v.6l.1.6.1.7.1.6v.6l.2.7v.6l.3 1.3.2 1.2v.7l.1.6.1.6.1.7.1.6.1.6v.7l.2.6v.7l.1.6v.3l.1.3v.7l.1.3v.6l.1.4V331l.1.4V332.4l.1.4V334.4l.1.3V341l-.1.4v1l-.1.3v.7l-.1.4v.3l-.1.3v.4l-.1.3v.4l-.1.3-.1.4v.3l-.1.3-.1.4v.3l-.2.4v.3l-.1.4-.1.3v.4l-.2.3v.4l-.2.3v.4l-.2.3v.3l-.2.3v.1l-.1.3-.1.4-.2.3-.1.4v.2l-.1.1-.1.2v.2l-.1.1-.1.2v.2l-.2.2v.1l-.1.2v.2l-.2.1v.2l-.1.2v.1l-.2.2v.2l-.1.1-.1.2-.1.2v.1l-.2.2v.1l-.2.2v.2l-.1.1-.1.2-.1.1-.1.2-.1.2-.1.1-.1.2-.1.1-.1.2-.1.1-.1.2-.1.1-.1.2-.1.1-.1.2-.1.1-.1.2-.1.1-.1.2-.1.1-.1.2-.1.1-.2.2v.1l-.2.2v.1l-.2.2-.1.1-.1.2-.1.1-.1.1-.2.2v.1l-.1.1-.2.2-.1.2h-.1l-.2.2v.2l-.3.2-.3.3-.2.3-.3.2-.2.3-.3.3-.2.2-.3.3-.2.2-.3.3-.3.2-.2.3-.3.2-.3.3-.3.2-.2.3-.3.2-.3.2-.3.3-.3.2-.2.2-.3.2-.2.2h-.1l-.3.3-.3.2-.3.2-.3.2-.3.2-.3.2-.3.2-.3.2-.3.2-.3.2-.3.2-.3.2-.3.2-.4.2-.3.2-.3.2-.3.2-.3.1-.3.2-.4.2-.3.2-.3.1-.3.2-.4.2-.3.1-.3.2-.3.1-.4.2-.3.2-.3.1-.4.2-.3.1-.3.1-.4.2-.3.1-.4.2h-.3l-.3.2-.4.2h-.3l-.4.2-.3.1-.4.1-.3.2h-.4l-.3.2-.4.1-.3.1-.4.1-.3.1-.4.1-.3.1-.4.1-.3.1h-.4l-.3.2h-.4l-.3.1-.4.1-.3.1h-.4l-.3.1-.4.1h-.4l-.3.2h-.7l-.4.1h-.4l-.3.1h-.4l-.3.1h-.4l-.3.1h-.4l-.4.1h-.7l-.3.1h-1.1l-.4.1h-6l-.4-.1h-.7l-.4-.1h-.3l-.4-.1h-.7l-.3-.1-.3-.1h-.4l-.3-.1h-.4l-.3-.1-.4-.1h-.3l-.4-.2h-.3l-.3-.1h-.4l-.3-.2h-.3l-.4-.2h-.3l-.4-.1-.3-.1-.3-.1-.4-.1h-.1l-.2-.1-.1-.1h-.2l-.2-.1h-.1l-.2-.1h-.2l-.1-.1-.2-.1h-.2l-.1-.1h-.2l-.1-.1-.2-.1h-.2l-.1-.1-.2-.1h-.1l-.2-.1-.2-.1h-.1l-.2-.1-.1-.1h-.2l-.1-.1-.2-.1h-.2l-.1-.2h-.2l-.1-.1h-.2l-.1-.2h-.2l-.1-.1-.2-.1h-.1l-.2-.2h-.2l-.1-.1-.2-.1h-.1l-.2-.2h-.1l-.2-.1v-.1h-.1l-.2-.1-.1-.1h-.1l-.2-.2h-.1l-.2-.2h-.1l-.2-.1-.1-.1-.2-.1-.1-.1-.2-.1-.1-.1-.2-.1v-.1l-.2-.1-.2-.1-.1-.1-.2-.1-.1-.1-.1-.1-.2-.1-.1-.1-.2-.1v-.1h-.2v-.1l-.2-.1-.1-.1-.1-.1-.2-.2h-.1l-.2-.2-.2-.2-.2-.1v-.1l-.2-.1-.2-.1v-.2h-.2l-.1-.2-.2-.1-.1-.1-.1-.1-.2-.2-.2-.2-.1-.1-.1-.1-.2-.2-.1-.1-.1-.1-.2-.2h-.1l-.1-.2-.1-.1-.2-.2-.2-.2-.1-.2h-.2v-.2l-.2-.2h-.1l-.1-.2-.1-.2-.2-.1v-.1l-.2-.2-.1-.1-.1-.2-.1-.1-.1-.1-.1-.2-.2-.1v-.2l-.2-.1-.1-.2-.1-.1-.1-.2-.1-.1-.1-.1-.1-.2-.2-.2v-.1l-.2-.2v-.1l-.2-.2v-.1l-.2-.2v-.1l-.2-.2v-.1l-.2-.2v-.2l-.2-.1v-.2l-.2-.2v-.1l-.2-.2v-.1l-.2-.2-.1-.3-.2-.3-.2-.4-.2-.3-.1-.3-.2-.4-.2-.3-.2-.3-.1-.4-.2-.3-.1-.3-.2-.4-.2-.3-.1-.4-.2-.3-.1-.4-.2-.3-.1-.4-.2-.3-.1-.4-.2-.4v-.3l-.2-.4-.2-.3-.1-.4-.1-.4-.2-.3v-.4l-.1-.2-.1-.2-.1-.3-.2-.4v-.4l-.2-.3-.1-.4-.1-.4-.1-.4-.2-.4v-.3l-.2-.4v-.4l-.2-.4v-.4l-.2-.3v-.4l-.2-.4v-.4l-.2-.4v-.4l-.2-.4v-.3l-.1-.4-.1-.4-.1-.4v-.4l-.2-.4v-.4l-.1-.4v-.4l-.2-.4v-.8l-.2-.4v-.8l-.1-.4-.1-.4v-.4l-.1-.3v-.4l-.1-.4v-.4l-.1-.4v-.4l-.1-.4v-.8l-.1-.4v-.4l-.1-.4v-.8l-.1-.4V329l-.1-.4V327l-.1-.4V316.9l.1-.4v-1.1l.1-.4v-.7l.1-.4v-.7l.1-.4v-.6l.2-.6v-.6l.1-.5v-.6l.2-.6v-.6l.1-.6.1-.6.1-.5v-.6l.2-.6v-.6l.2-.6v-.5l.1-.4v-.2l.1-.6.1-.6.2-1.1.2-1.1.2-1.2.2-1.1.2-1.1.1-.6.1-.6.1-.5.1-.6.1-.6v-.5l.2-.6v-.5l.2-.6v-.5l.1-.6.1-.5v-.6l.2-.6v-.5l.1-.6v-.5l.2-.6v-.8l.1-.3v-.2l.1-.3v-.6l.1-.2v-.6l.1-.2V282.5l.1-.2V281.4l.1-.2V280l.1-.3V278.4l.1-.2V273l-.1-.2v-.5l-.1-.2V271.5l-.1-.2v-.4l-.1-.2V270.4l-.1-.2v-.4l-.1-.1v-.4l-.1-.2V268.8l-.1-.2v-.2l-.1-.2v-.2l-.1-.3-.1-.4-.1-.4-.1-.3-.1-.4-.1-.3-.1-.4-.1-.4-.1-.3-.1-.4-.1-.4-.2-.3v-.4l-.2-.4-.1-.4-.1-.3-.1-.4-.2-.4v-.4l-.2-.3-.3-.8-.2-.7-.6-1.6-.2-.8-.3-.7-.1-.4-.1-.4-.2-.4v-.4l-.2-.4-.2-.5v-.4l-.2-.4.3-2.7 2-1.8 2.8.2 1.8 2.1.2.4v.4l.2.4.2.3v.4l.2.4.2.4v.4l.4.7.2.8.6 1.5.3.8.2.7.2.4.1.4.2.4v.4l.2.4.2.4.1.3.1.4.2.4v.4l.2.4.1.4.2.4v.4l.2.4.1.5.1.4.2.4v.4l.2.4v.4l.1.2v.2l.1.2v.3l.1.2v.2l.1.2v.2l.1.2v.2l.1.2v.5l.1.2v.2l.1.2v.5l.1.2v.4l.1.3v.4l.1.2v.7l.1.2V273.8l.1.3V275.7l.1.2V280.6l-.1.3v1.2l-.1.3V283.3l-.1.3v.6l-.1.3v.6l-.1.3v.6l-.1.3v.6l-.1.3v.3l-.1.3-.1.6v.5l-.2.6-.1.6-.1.6-.1.6-.1.6-.2.5v.6l-.2.6-.1.6-.1.5-.2.6v.6l-.2.5-.1.6-.2.6-.1.5-.3 1.2-.2 1.1-.3 1.1-.3 1.1-.2 1.2-.2.5v.6l-.1.2-.1.3-.1.6-.2.5-.1.6-.1.5-.1.6-.2.6v.5l-.2.6-.1.5-.1.6-.1.5-.2.6v.5l-.2.6v.5l-.1.4v.3l-.1.3v.4l-.1.3v.4l-.1.3v.3l-.1.4v.3l-.1.4v.3l-.1.4v.3l-.1.4v.7l-.1.4v.7l-.1.3v.8l-.1.3v1.1l-.1.4v1.8l-.1.4V333.3l.1.4v1.1l.1.4v.8l.1.3v.8l.1.4v.7l.1.4v.4l.1.4v.3l.1.4v.4l.1.4v.3l.1.4.1.4v.4l.1.3v.4l.2.4v.7l.2.4v.3l.1.4v.4l.2.3v.4l.1.3.1.4v.4l.2.3v.4l.2.3v.4l.2.3V349.8l.1.2.2.3v.3l.2.4v.3l.2.4.1.3.1.4.1.3.2.3v.4l.2.3.1.3.1.4.2.3.1.3.1.4.2.3.1.3.1.3.2.3.1.4.2.3.1.3.2.3.1.3.2.3.1.3.2.3v.2l.1.1.1.2.1.1v.2l.2.1v.2l.1.1.1.2.1.1v.1l.2.2v.1l.2.2v.1l.1.1.1.2.1.1.1.2h.1v.2l.2.2v.1l.2.1v.2h.2v.2l.2.2.1.2.1.1.1.2h.1l.1.2.2.1v.2h.2v.2l.2.1v.1l.2.2.2.2v.1l.2.1.1.1.1.2h.1l.1.2.1.1.2.1v.1l.2.1v.1l.2.1.1.2h.1l.1.2h.2v.2h.2l.1.2h.1l.1.2h.2v.2h.2l.1.2h.1l.2.2.2.2h.1l.2.1v.1l.2.1.1.1.1.1.2.1h.1l.1.2h.2v.1l.2.1.1.1.2.1h.1l.1.2h.2v.1l.2.1h.1l.2.2h.1l.1.1.2.1h.1l.1.1.2.1h.1l.1.2h.2l.1.1h.2v.1l.2.1h.2l.1.1.1.1h.2l.1.1.2.1h.1l.1.1h.2l.1.2H441.3l.1.1h.2l.1.1.2.1h.1l.2.1h.1l.1.1h.2l.1.1h.2l.1.1h.2l.1.1h.2l.1.1h.1l.2.1h.1l.2.1h.1l.2.1H444.8l.1.1h.2l.1.1h.2l.1.1h.2l.3.1h.3l.3.2h.6l.3.2h.6l.3.1h.3l.3.1h.3l.3.1h.7l.3.1h.6l.3.1h1.6l.3.1H457.6l.3-.1h.6l.3-.1h.7l.3-.1h.6l.4-.1h.3l.3-.1h.3l.3-.1h.3l.4-.2h.6l.3-.1.3-.1h.3l.4-.2h.3l.3-.1h.3l.3-.2h.3l.3-.1.4-.1.3-.1h.2v-.1l.4-.1.3-.1.3-.1.3-.1.3-.1.3-.1.3-.1.3-.1.3-.1.4-.2h.3l.3-.2.3-.1.3-.1.3-.2h.2l.3-.2.3-.1.3-.2.3-.1.3-.1.3-.2.3-.1.3-.2.3-.1.3-.2.2-.1.3-.1.3-.2.3-.2.3-.1.2-.2.3-.1.3-.2.3-.1.2-.2.3-.2.3-.1.2-.2.3-.2.3-.2.2-.1.3-.2.3-.2.2-.2.3-.2.2-.1.3-.2.2-.2.3-.2.2-.2.3-.2.2-.2.3-.2.2-.2.2-.2.3-.2.2-.2.2-.2.3-.2.2-.2.2-.2.2-.2.3-.2.2-.2.2-.2.2-.2.2-.2.2-.2.3-.3.2-.2.2-.2.2-.2.2-.2.2-.3.2-.2.2-.2.1-.2.2-.3.2-.2.2-.2.2-.3.2-.2v-.1l.1-.1.1-.2h.1l.1-.2v-.1l.2-.1v-.1l.2-.2.1-.2.1-.1v-.1l.2-.2.1-.2.1-.1v-.1l.2-.2.1-.2.1-.1v-.1l.2-.2.1-.2v-.1l.2-.2.1-.2v-.1l.1-.2h.1v-.2l.1-.1.1-.2.2-.2V353l.1-.1.1-.1v-.2h.1l.1-.2v-.1l.1-.2.1-.1v-.1l.1-.2.2-.2V351.2l.1-.1v-.1l.2-.2v-.2l.1-.2.1-.2.1-.3.2-.3v-.3l.2-.2V348.8l.2-.3v-.3l.2-.3.1-.2v-.3l.2-.3v-.3l.2-.3v-.3l.1-.2.1-.3.1-.3v-.3l.2-.3v-.2l.1-.3v-.3l.1-.3.1-.3v-.3l.1-.2v-.3l.2-.3v-.6l.1-.3v-.3l.1-.2v-.3l.1-.3v-.6l.1-.3v-.3l.1-.3v-.6l.1-.2V337l.1-.3V335.9l.1-.3v-2.1l.1-.3V326.8l-.1-.6v-1.9l-.1-.6v-.6l-.1-.7v-.6l-.1-1.3v-1.3l-.1-.6v-1l-.1-.3V316l-.1-.6V314l-.1-.7v-1.6l-.1-.4V310l-.1-.5v-2.1l-.1-.5v-1.1l-.1-.5V303l-.1-.6V301l-.1-.5V296.6l-.1-.6v-8.2l.1-.5V285.6l.1-.5V284l.1-.6v-1.1l.1-.5v-.6l.1-.5v-.6l.1-.5v-.6l.1-.5.1-.6v-.5l.1-.6.1-.5v-.6l.2-.5v-.6l.1-.5.1-.6v-.3l.1-.2v-.6l.1-.3v-.2l.1-.3v-.3l.1-.2v-.3l.1-.3v-.3l.1-.2v-.3l.1-.3v-.2l.1-.3.1-.3v-.3l.1-.2v-.3l.1-.3.1-.2v-.3l.1-.3v-.3l.1-.2.1-.3v-.3l.1-.2.1-.3v-.3l.2-.2v-.6l.2-.2v-.3l.1-.3v-.2l.2-.3v-.3l.1-.2.1-.3v-.3l.2-.2v-.3l.1-.3.1-.2v-.3l.2-.2v-.3l.2-.3v-.2l.1-.3.1-.2.1-.3.1-.3.1-.2.1-.3v-.2l.2-.3v-.3l.2-.2v-.3l.2-.2v-.3l.2-.3.1-.2.1-.3.1-.2.1-.3.1-.2.1-.3.1-.2.2-.3v-.2l.2-.3.1-.3.1-.2.1-.3.2-.2v-.3l.2-.2.1-.3.1-.2.2-.3v-.2l.2-.3.1-.2.2-.2.1-.3.1-.2.2-.3.1-.2.1-.3.2-.2.1-.3.1-.2.2-.2.1-.3.2-.2.1-.3.2-.2.1-.2.2-.3.1-.2.1-.3.2-.2.2-.2.1-.3.2-.2.1-.2.2-.3.1-.2.2-.2.1-.3 2.4-1.4 2.7.6z" fill="#231768"/><path d="M486.7 221.1c77.2-117.4 1.6-163.3-113 14.5C293 361.1 162 380.8 250.3 253.7" fill="none" stroke="#ff0076" stroke-width="6" stroke-dasharray="18,18,0,0"/></svg>