<svg viewBox="0 0 800 601" xmlns="http://www.w3.org/2000/svg" xmlns:serif="http://www.serif.com/" fill-rule="evenodd" clip-rule="evenodd" stroke-linejoin="round" stroke-miterlimit="1.4"><path serif:id="Choose your design" fill="#fff" d="M0 .6h800v600H0z"/><path serif:id="background shadow" d="M666 450.8c45.1 1 87.6-69.2 24.3-139.2-76.4-84.4 47.2-202.7-23-252.7-54.7-38.8-106.1 19.9-148.3 48.7C433.7 165.7 232.6-64 116 55.6c-74.4 76.5 46.4 186.6-28.6 238.6-73.8 51.1-70.4 159.2 93 158.1l485.4-1.5z" fill="#e5e1f9" fill-opacity=".3"/><path d="M667.2 450V94.4a16 16 0 0 0-17.4-16L159 121.8a16 16 0 0 0-14.6 16v314.6" fill="#e5e1f9"/><path d="M651 75.5h2l.2.1h.5l.3.1h.4l.3.1h.2l.3.1.2.1h.2l.3.1h.2l.2.2h.3l.2.1h.2l.3.2h.2l.2.1.2.1.3.1.2.1.2.1.2.1.2.1.3.1.2.1.2.1.2.1.2.2h.2l.2.2.3.1.2.2h.2l.2.2.2.2.2.1.2.1.2.2.2.1.2.2.1.1.2.2.2.1.2.2.2.2.2.1.1.2.2.2.2.1.2.2.1.2.2.2.2.2.1.1.2.2.2.2.1.2.2.2.1.2.2.2.1.2.1.2.2.2.1.2.1.2.2.2.1.2.1.2.2.2v.2l.2.2.1.2.1.2.1.2.1.2.1.3.1.2.1.2.1.2.1.2.1.3v.2l.2.2v.2l.1.3.1.2v.2l.1.2.1.3v.2l.1.2v.3l.1.2v.2l.1.3v.2l.1.2v.5l.1.3v.4l.1.3v1.9l-.3 21.5-.4 26.5.3 35.3.8 56.2.8 56 .4 34.8-.2 25-.5 40-.7 59v1.3l-.8 1.8-1.8.8-1.8-.8-.7-1.7v-1.5l-.8-59-.5-40-.2-24.9.4-34.8.8-56 .8-56.2.3-35.3-.3-26.5-.5-21.5V92.8l-.1-.2V92.3l-.1-.2V91.8l-.1-.2V91.3l-.1-.2V91l-.1-.1v-.2l-.1-.2-.1-.1V90l-.1-.1v-.2l-.1-.2-.1-.1v-.2l-.1-.1-.1-.2v-.2l-.2-.1v-.2l-.1-.1-.1-.2v-.1l-.2-.2v-.1l-.2-.2v-.1l-.1-.2-.1-.1-.1-.1-.1-.2-.1-.1-.1-.2-.1-.1-.1-.1-.2-.2v-.1l-.2-.1v-.2l-.2-.1-.1-.1-.1-.2h-.2v-.2l-.2-.1-.1-.1-.2-.2-.2-.2-.2-.1v-.1l-.2-.1-.2-.1V84l-.2-.1-.2-.2h-.1l-.2-.2-.2-.1-.2-.1-.1-.1-.2-.1-.1-.1h-.2l-.1-.2h-.2l-.1-.1-.2-.1h-.1l-.2-.1-.1-.1h-.2l-.2-.2H656.2l-.1-.1-.2-.1h-.1l-.2-.1h-.2l-.1-.1h-.2l-.2-.1H654.6l-.1-.1h-.2l-.2-.1h-.5l-.1-.1h-.5l-.2-.1H650l-35.7 3.8-25.3 2.6-27.8 2-45.8 3-46 3-28.6 2-30.2 3.2-48.4 5.2-48.5 5.4-30.5 3.1-11.9 1-18.7 1.4-48.6 3.6-45 3.2H158.6l-.2.1h-.4l-.2.1H157.4l-.2.1H157l-.2.1h-.1l-.2.1H156.1l-.1.1h-.2l-.1.1-.2.1h-.1l-.2.1h-.1l-.2.1h-.1l-.2.2H154.3l-.1.2h-.2l-.1.1h-.1l-.2.1-.1.1-.2.1h-.1l-.1.2h-.2l-.1.1-.1.1-.2.1h-.1l-.1.2h-.2v.2h-.2l-.1.2h-.2v.2h-.2l-.1.2h-.1l-.2.2-.2.2h-.1l-.1.2-.1.1-.1.1-.2.1v.1l-.2.2-.2.2v.1l-.2.1v.2h-.2v.2l-.2.1v.1l-.2.2v.1l-.2.1v.2l-.1.1-.1.1-.1.2v.1l-.2.1v.2l-.1.1-.1.1v.2l-.2.1v.2l-.1.1v.2l-.1.1-.1.1v.2l-.1.1-.1.2v.1l-.1.2v.1l-.1.2v.1l-.1.2v.1l-.1.2v.2l-.1.1v.2l-.1.1V134.6l-.1.2V135.1l-.1.2V135.6l-.1.2v.6l-.1.2v1l-.2 10.7.4 30.4.7 48.4.7 48.2.4 30-.2 30.7-.5 49.7-.8 66.6-.7 2.3-1.8 1-1.8-1-.8-2.3-.7-66.7-.5-49.6-.2-30.8.3-30 .8-48.2.7-48.3.3-30.4-.1-10.7v-1.9l.1-.2v-.7l.1-.2v-.4l.1-.2v-.2l.1-.2v-.2l.1-.2v-.2l.1-.2v-.2l.1-.2v-.2l.1-.2.1-.2v-.2l.1-.2.1-.2v-.2l.2-.2v-.2l.1-.2.1-.2v-.2l.2-.2v-.2l.2-.1v-.2l.1-.2.1-.2.1-.2.1-.1.1-.2.1-.2.2-.2v-.2l.2-.1v-.2l.2-.2.1-.1.1-.2.2-.2v-.1l.2-.2.1-.2.2-.1v-.2l.2-.1.1-.2.2-.2.1-.1.2-.2.1-.1.1-.2.2-.1.1-.2.2-.1.1-.1.2-.2.1-.1.2-.2.1-.1.2-.1.1-.2.2-.1.2-.1.1-.2h.2l.2-.2.1-.1.2-.1.2-.2h.1l.2-.2.2-.1.2-.1.1-.1.2-.1.2-.1.2-.1.2-.1.1-.1.2-.1.2-.1.2-.1.2-.1.2-.1h.2l.2-.2h.2l.2-.1.2-.1h.2l.2-.2h.2l.2-.1h.2l.2-.1h.2l.2-.2h.4l.2-.1h.2l.2-.1h.2l.2-.1h.5l.2-.1h.4l.2-.1h.5l44.7-4.7 48.6-5 18.6-1.9 12-1.1 30.5-2.2 48.7-3.3 48.6-3.2 30.2-2.2 28.6-3 45.8-5 45.6-5.1 27.8-3 25.3-1.8 35.8-2.5h1.4z" fill="#c1bae7"/><path d="M454.7 448.4l37.1.3 37.5.5 36.7.5 67 1.2 49.7 1h1.6l1.6.7.6 1.5-.6 1.5-1.6.7h-1.6l-49.6 1-67 1.2-36.8.6-37.5.4-37 .3-35.8.1h-18.4l-20.5-.1-45.1-.4-47.8-.6-47-.7-77.6-1.3-30.3-.5h-1.8l-1.6-.7-.6-1.5.6-1.5 1.6-.6h1.8l30.3-.6 77.5-1.3 47-.6 47.9-.6 45.1-.4 20.5-.1h54.1zM295.6 351c-16.1-16.4-36.3-57.3-18.4-72.8 10-8.7 24.8 1.7 37.6-8.8 7.2-5.9 13.8-18.7 6-29.8-5.5-7.7-2.8-23.8 5-29.1 16.2-10.8 39.8 13.8 52.9 4 12.2-9.1 9.2-13.9 28.7-24.9 15.3-8.5 40.6 42.6 49.9 56 3.4 4.9 8.6 11.6 6.6 18.1-4 13-15.7 20.5-27 26.8a202.6 202.6 0 0 1-34.3 16.2c-21.3 7.2-45.3 5.5-66 14.3-13 5.5-19.8 17.8-32 24.8" fill="#c1bae7"/><path d="M638.5 149.2l.7 1.3-.5 1.4-1.5.6-29.5 2.3-70.3 5.3-41.8 3.1-41.8 3.1-38.2 2.8-16.8 1.2-14.5 1-13.2.9-13 .8-25 1.6-23.8 1.4-22.6 1.3-41 2.3-18.4 1-16.7 1.2-9.1.6-11.3 1-25.4 2-35 3-.8.1-1.4-.4-.6-1.3.4-1.4 1.3-.7h.8l35.2-2 25.4-1.4 11.2-.7 9.1-.7 16.8-1.3 18.3-1.5 41-3.5 22.5-1.9 23.8-2 25-2 12.9-1 13.2-.9 14.5-1 16.8-1.2 38.2-2.7 41.8-2.8 41.9-2.8 70.3-4.6 29.6-2 1.5.5zM178.2 146.3H177.8l-.1.1h-.2v.1h-.2v.1h-.2v.1h-.2l-.1.1h-.1l-.1.1-.2.1-.1.1h-.1v.1h-.2v.1h-.1v.1h-.2v.1l-.1.1-.1.1h-.1v.1h-.1l-.1.2h-.1v.1l-.1.1h-.1v.1h-.1v.1l-.1.1-.1.1h-.1v.1l-.1.1-.1.1v.1h-.1v.1l-.1.1v.1h-.1v.2h-.1l-.1.2-.1.2h-.1v.2h-.1v.2h-.1v.2h-.1v.2l-.1.2v.1l-.1.1v.2l-.1.1v.2h-.1v.4h-.1v.5l-.1.1v1.2h-.1v1.3l.1.1v.4h.1v.4h.1V156.4h.1v.2h.1V156.9h.1v.1l.1.1v.1l.1.1v.2h.1l.1.1v.1h.1v.1l.1.1v.1h.1v.1h.1v.1h.1v.1l.1.1.1.1.1.1.1.1.1.1h.1v.1h.1l.1.1.1.1h.1v.1h.1v.1h.2v.1h.1l.2.1.1.1h.1l.1.1h.2v.1h.2v.1h.2l.2.1h.2l.1.1H177.6l.2.1H180.1l.1-.1H180.5l.1-.1h.2l.1-.1h.2v-.1h.2v-.1h.2v-.1h.2v-.1h.2v-.1h.2v-.1l.1-.1h.1v-.1h.1v-.1h.2v-.1h.1l.1-.1.1-.1.1-.1v-.1h.1l.1-.1.1-.1.1-.1.1-.2h.1v-.1l.1-.1.1-.1.1-.2h.1v-.2h.1v-.2h.1v-.1l.1-.1v-.1h.1v-.2l.1-.1v-.2h.1v-.1l.1-.2v-.2h.1V155.3l.1-.1V155l.1-.1v-.6l.1-.1V152.3h-.1v-.4l-.1-.2v-.2l-.1-.1v-.2h-.1V150.8h-.1v-.2h-.1v-.2h-.1v-.2l-.1-.1-.1-.2-.1-.1v-.1l-.1-.1v-.1l-.1-.1-.1-.1v-.1h-.1l-.1-.2h-.1v-.2h-.1v-.1h-.1l-.1-.1v-.1h-.1v-.1h-.2v-.2h-.2v-.2h-.2v-.1h-.1v-.1h-.1l-.1-.1v-.1h-.2v-.1h-.1v-.1h-.2v-.1h-.1l-.1-.1-.2-.1h-.1l-.1-.1-.2-.1h-.1l-.1-.1h-.1l-.1-.1h-.1l-.2-.1h-.2v-.1H179.7l-.1-.1H179.3l-.1-.1h-.4l-.1-.1h-.5zm.2-3h2l.1.1h.5v.1h.4l.2.1h.2v.1H182.2l.2.1h.1l.1.1h.2v.1h.2l.1.1h.2v.1h.2l.1.1h.2v.1l.2.1h.1l.1.1h.2v.2h.2l.1.1h.1l.1.1.2.1.2.2h.1l.1.1.1.1h.1l.1.2h.1l.1.1.1.1.2.1v.1l.2.1v.1h.2v.2h.2v.2h.1l.1.2h.1l.1.2h.1l.1.2v.1l.2.1v.1l.2.1v.1l.1.1.1.2.2.2v.1l.1.1v.1l.2.2.1.2v.1l.1.2h.1v.2l.1.1v.2h.2v.4h.1v.2l.1.2.1.2v.2l.1.1v.1l.1.2V151.7l.1.1v.1l.1.2v.4l.1.2v.4l.1.2V154.2l.1.1V156.3l-.1.1v.5l-.1.1V157.3l-.1.2V157.8l-.1.1V158.2l-.1.1v.2l-.1.1v.2l-.1.1v.1l-.1.2v.1l-.1.1v.2l-.2.1v.2l-.1.2-.1.2-.1.2-.1.1v.2l-.2.1v.1l-.1.2h-.1v.2l-.2.1v.1l-.1.2h-.1l-.1.2v.1l-.2.1v.2h-.2v.2l-.2.1v.1l-.2.1v.1l-.2.1v.1h-.1v.2h-.2v.2h-.2v.2h-.2l-.1.2h-.1l-.1.2h-.2v.1l-.2.1-.1.1-.1.1-.2.1-.2.2h-.1l-.2.1-.1.1h-.1l-.2.2-.2.1-.2.1-.2.1-.2.1h-.1l-.1.1-.2.1h-.1l-.2.1h-.1l-.2.1h-.1l-.1.1-.2.1h-.1l-.2.1H181.2l-.1.1h-.2l-.1.1h-.4l-.1.1H180l-.2.1h-.5l-.1.1H175.6l-.2-.1H175.1l-.1-.1H174.7l-.2-.1h-.2l-.1-.1h-.2l-.1-.1h-.2l-.1-.1h-.2l-.1-.1h-.2l-.1-.1h-.2l-.1-.1-.1-.1h-.2l-.1-.1-.2-.1h-.1l-.2-.1-.1-.1h-.1l-.2-.2h-.1l-.1-.1-.2-.1h-.1l-.1-.2h-.2l-.1-.2h-.1l-.2-.1v-.1l-.2-.1-.1-.1-.2-.1v-.1l-.2-.1-.1-.1-.1-.1-.2-.1v-.1l-.2-.1-.1-.1-.1-.2h-.1l-.1-.2h-.2v-.2l-.2-.1v-.1l-.2-.2-.2-.2v-.1l-.2-.2-.2-.2v-.1l-.1-.2-.1-.1-.1-.1-.1-.2-.1-.1v-.1l-.2-.2v-.1l-.1-.2h-.1v-.2l-.2-.2V159.6l-.2-.1V159.2l-.2-.2V158.7l-.1-.1v-.2l-.1-.1-.1-.2V157.8l-.1-.1v-.2l-.1-.2v-.1l-.1-.2V156.7l-.1-.2v-.5l-.1-.1V155l-.1-.1v-2.2l.1-.2V152.2l.1-.2V151.7l.1-.2v-.2l.1-.1V150.9l.1-.1.1-.2v-.2l.1-.1v-.2l.1-.1.1-.2v-.1l.1-.2.1-.1v-.2l.1-.1.1-.2v-.1l.2-.1v-.2l.1-.1.1-.2.2-.2v-.2h.2v-.2l.1-.1v-.1h.1l.1-.2.1-.1.1-.1.1-.1.1-.2h.1l.1-.2.1-.1.1-.1.2-.1v-.1l.2-.1v-.1l.2-.1.1-.1.1-.1.2-.1v-.1l.2-.1.1-.1.1-.1.1-.1.2-.1h.1l.1-.2h.2v-.1l.2-.1h.1l.2-.2h.2l.2-.2h.1l.1-.1h.2l.1-.1h.1l.2-.1h.1l.2-.1.1-.1h.1l.2-.1H172.9l.1-.1H173.3l.1-.1H173.7l.2-.1h.4l.1-.1h1.1l.1-.1H177.2l.1.1h.5l.1.1h.2v.1H178.5zM216.3 139h1.3l.2.1h.5l.1.1h.5l.1.1h.2l.1.1h.4l.1.1h.2v.1h.2l.2.1h.1l.2.2H221l.1.1.1.1h.2l.1.1.2.1h.1l.1.2h.2l.1.1h.1l.2.2.2.1.1.1.2.1v.1h.2l.1.2h.1l.2.2.2.2h.1l.1.2h.1l.1.2h.1l.1.2.1.1.2.1v.1l.2.1v.1l.1.1.1.2h.1v.1l.1.1.1.1.1.1v.2h.2v.2l.1.1.1.2.1.2.1.1v.2l.2.1V145.2l.1.1.1.1v.2l.1.1v.1l.1.2v.1l.1.1v.2l.1.1v.2h.1v.2l.1.2V147.4h.1v.7l.1.1v.5l.1.2v.1l.1.2v.1l.1.1V149.7l.1.1v.2l.1.1v.4l.1.2v.2l.1.2v.6l.1.2V154.5h-.1V155.2l-.1.2v.2l-.1.1V156l-.1.1v.2l-.1.1V156.6h-.1v.2l-.1.1v.2l-.1.1v.1l-.1.1-.1.2v.1l-.1.1v.1l-.1.2h-.1v.2l-.1.1-.1.1v.2h-.2v.2l-.1.1v.1l-.2.1v.2h-.1l-.1.2v.1l-.2.1v.1l-.1.1-.1.1-.1.1v.1h-.1l-.1.2h-.1l-.1.2h-.1l-.1.2h-.1l-.1.2h-.1l-.1.2h-.1l-.1.1-.1.1-.2.1v.1l-.2.1-.1.1h-.1l-.1.2h-.1l-.2.1v.1l-.2.1h-.1l-.2.2-.2.1h-.1l-.2.2h-.2l-.2.2h-.2l-.2.2H221l-.1.1h-.2v.1h-.2l-.2.1h-.1l-.2.1h-.1l-.2.1h-.1l-.2.1h-.2l-.2.1H218.7l-.1.1h-.6l-.2.1H214.4l-.1-.1h-.5l-.1-.1H213.4l-.1-.1h-.2l-.1-.1H212.7l-.1-.1h-.2l-.1-.1h-.2l-.1-.1h-.1l-.2-.1-.1-.1h-.1l-.2-.1h-.1l-.1-.2H210.8l-.1-.2h-.2l-.1-.1h-.1l-.2-.2-.2-.1h-.1l-.2-.2-.2-.1-.1-.1-.2-.1v-.1l-.2-.1-.1-.1-.1-.1h-.2v-.2h-.2l-.1-.2-.1-.1-.1-.1-.1-.1-.1-.1-.1-.1-.2-.1v-.1l-.2-.2-.2-.2v-.1l-.2-.1v-.1l-.2-.2-.2-.2v-.1l-.1-.2-.1-.1-.1-.1-.1-.2v-.1l-.2-.1v-.2l-.1-.1-.1-.1v-.2l-.2-.1v-.2l-.1-.1v-.2l-.2-.1V156.8l-.1-.2-.1-.1v-.2l-.1-.1v-.2l-.1-.1v-.2l-.1-.1v-.2l-.1-.1v-.2l-.1-.2v-.1l-.1-.2V154.3l-.1-.2v-.4l-.1-.2v-.8l-.1-.1V150l.1-.1v-.5l.1-.2V149l.1-.1V148.5l.1-.2v-.1l.1-.2v-.1l.1-.2v-.1l.1-.2v-.1l.1-.2v-.1l.1-.2.1-.1v-.2l.1-.1.1-.1v-.2l.1-.1.1-.2v-.1l.2-.1v-.2l.1-.1v-.2h.2v-.2l.1-.2h.1l.1-.2.1-.2h.1v-.2l.2-.1v-.2h.2v-.2l.2-.1v-.2h.2l.1-.2.1-.1.1-.1.1-.2h.1l.2-.2.2-.2.1-.1.1-.1.2-.1v-.1l.2-.1.1-.1.2-.1v-.1l.2-.1.1-.1.2-.1.1-.1.2-.1v-.1h.2l.2-.2h.1l.2-.1.1-.1.2-.1h.1l.2-.2h.1l.2-.1h.1l.2-.1.1-.1h.2l.1-.1h.2v-.1h.1l.2-.1h.2l.1-.1h.2l.2-.1H213.7l.2-.1h.1l.2-.1h.5l.1-.1H215.8l.2-.1H216.3zm8.2 10.6l-.1-.1-.1-.1v-.1h-.1l-.1-.2-.2-.1v-.1h-.1v-.1h-.1l-.1-.2h-.1l-.1-.2h-.2v-.1l-.1-.1-.2-.1-.1-.1-.2-.1-.1-.1-.2-.1-.1-.1-.2-.1h-.1l-.1-.1-.2-.1h-.1v-.1h-.2l-.1-.1h-.2v-.1H220.7v-.1H220.4v-.1H220l-.1-.1H219.7l-.1-.1h-.5l-.2-.1H216.9l-.2.1h-.4l-.1.1H215.8v.1H215.6v.1h-.2l-.1.1h-.2l-.1.1h-.2v.1h-.2l-.1.1h-.1l-.1.1h-.1v.1h-.2v.1h-.1v.1h-.1l-.1.1h-.1l-.1.1-.1.1-.1.1h-.1v.1h-.1v.1h-.1v.1h-.1v.1h-.1v.1l-.1.1-.1.1-.1.1-.1.1v.1h-.1v.1h-.1v.2h-.1v.1l-.1.1v.2h-.1v.1l-.1.1v.1h-.1v.2l-.1.1v.2l-.1.1v.2l-.1.1V151.3l-.1.1v.5h-.1V153.9l.1.1V154.3l.1.2v.1l.1.2v.1l.1.1v.1l.1.2.1.2v.1h.1v.2h.1v.1h.1v.2h.1v.1l.1.1.1.1v.1l.1.1.1.1.1.1.1.2h.1v.1h.1l.1.1.1.1.1.1.1.1h.1v.1h.1v.1h.2v.1h.1l.1.1.1.1h.1v.1h.2v.1h.2v.1h.2v.1h.2l.1.1h.2v.1H215.6v.1H216v.1H216.2l.1.1h.7v.1H218.9l.1-.1h.4v-.1H219.7l.1-.1h.2l.1-.1h.2v-.1h.2l.1-.1h.1l.2-.1.1-.1h.1v-.1h.2l.1-.1.1-.1h.1v-.1h.2v-.1h.1v-.1h.1l.1-.1.1-.1.1-.1.1-.1h.1v-.1l.1-.1h.1v-.1h.1v-.2h.2v-.1l.1-.1.1-.2h.1v-.2h.1v-.1h.1v-.2h.1v-.1h.1v-.2h.1v-.1h.1v-.2h.1v-.2h.1v-.2h.1v-.2l.1-.1v-.2h.1v-.2l.1-.1V153.6h.1V153.2l.1-.1v-.5h.1V150l-.1-.1v-.2h-.1zM253.3 135.2h1l.1.1h.7l.1.1H255.5l.2.1H256l.2.1H256.5l.1.1h.2l.1.1h.2l.1.1h.2l.1.1h.1l.2.2H258l.1.1.1.1h.2l.1.2h.2v.1h.2l.2.2.2.1.1.1h.2l.1.2h.1l.1.1.2.1v.1l.2.1.1.1.1.1.2.1v.1l.2.1v.1l.2.1.1.1.1.1.1.1.1.1.1.2h.1l.1.2h.1l.1.2v.1h.1v.1l.2.2.1.2.1.1.1.1v.2l.2.1v.1l.1.2.1.2.1.1v.2l.1.1.1.1v.2l.1.1v.1l.1.2v.1l.1.1.1.2V142.8h.1v.2l.1.2v.1l.1.1v.5l.1.1v.6l.1.1v.5h.1v.2l.1.2.1.2v.2l.1.2v.2l.1.2v.2l.1.2v.4l.1.2v1.1h.1v1.7l-.1.2v.4l-.1.2v.4l-.1.2v.2l-.1.2-.1.2V152.7l-.1.1v.1l-.1.2-.1.2v.1l-.1.2-.1.2-.1.1v.2h-.1v.2l-.2.1V154.7h-.2v.2l-.1.1v.1l-.1.2h-.1l-.1.2v.1l-.2.1v.1l-.1.1-.1.2h-.1v.2h-.2v.2h-.1l-.2.2v.1l-.1.1-.1.1-.1.1-.1.1-.1.1-.2.1v.1h-.2v.2h-.2v.2h-.2l-.1.2h-.1l-.2.1v.1l-.2.1h-.1l-.1.2h-.2v.1l-.2.1h-.1l-.2.1v.1h-.2l-.2.2-.2.1h-.2v.1h-.2l-.2.2h-.2l-.2.1h-.1l-.2.1h-.1l-.2.1h-.1l-.2.1h-.1l-.1.1H256.3l-.2.1H255.8l-.1.1h-.5l-.1.1h-.6l-.2.1H251.7l-.2-.1h-.4l-.2-.1h-.2l-.2-.1H250.2l-.1-.1h-.2l-.1-.1h-.1l-.2-.1H249.2l-.1-.1-.1-.1h-.2l-.1-.1h-.2v-.1h-.2l-.2-.1v-.1h-.2l-.2-.1v-.1h-.2l-.1-.2h-.2l-.1-.1h-.1l-.2-.2-.2-.1-.1-.1-.2-.1-.2-.2h-.1l-.1-.2h-.2v-.2h-.2l-.1-.2h-.1l-.1-.2h-.2v-.2h-.2v-.2h-.2l-.1-.2-.1-.1-.1-.1-.1-.1-.1-.1-.1-.2h-.1l-.1-.2-.1-.1-.1-.2-.2-.2v-.1l-.2-.2-.1-.2-.1-.2h-.1v-.2l-.2-.2v-.1l-.1-.1-.1-.2v-.1l-.2-.2V153.3l-.2-.1V152.9l-.2-.2V152.4l-.1-.1v-.2l-.1-.1v-.2l-.1-.2v-.1l-.1-.2v-.1l-.1-.2V150.7l-.1-.2V150.2l-.1-.1v-.7l-.1-.1V145.9l.1-.1V145.5l.1-.2V145l.1-.1V144.6l.1-.2v-.1l.1-.2v-.1l.1-.2v-.1l.1-.2v-.1l.1-.2.1-.1v-.2l.1-.1.1-.2v-.1l.1-.1.1-.2v-.1l.1-.2.1-.1.1-.1v-.2l.2-.1v-.1l.1-.2.1-.1v-.1l.2-.2v-.1l.2-.1v-.2l.1-.1.1-.1.1-.1.1-.2.1-.1.1-.1.1-.1.2-.2.2-.2v-.1l.2-.1.1-.1.1-.2h.1l.2-.2.2-.2h.1l.2-.2v-.1l.2-.1.1-.1.2-.1h.1l.1-.2h.2l.1-.2h.2v-.2h.2l.2-.1.1-.1h.2l.1-.2h.2l.1-.1h.2l.1-.2h.2l.1-.1h.2l.1-.1.2-.1h.1l.2-.1h.2l.1-.1h.2l.2-.1h.1l.2-.1H250.8l.2-.1H251.3l.2-.1h.5l.1-.1H253.2zm8.2 10.7l-.1-.1v-.1h-.1l-.1-.2-.2-.1-.1-.2-.1-.1h-.1v-.2h-.2v-.2h-.2l-.1-.1v-.1h-.1l-.1-.1h-.1v-.1h-.1l-.1-.1v-.1h-.2v-.1h-.2v-.1h-.2v-.1h-.1v-.1h-.2l-.1-.1h-.1v-.1h-.2v-.1h-.2l-.1-.1h-.1l-.1-.1h-.2l-.2-.1H257.2v-.1H256.9l-.1-.1H256.4l-.2-.1H253.5l-.1.1H253l-.1.1H252.7v.1h-.4v.1h-.2v.1h-.2l-.1.1h-.1l-.1.1h-.2v.1h-.2v.1h-.1l-.1.1-.2.1-.1.1h-.1v.1h-.1v.1h-.1l-.1.1h-.1v.1h-.1v.1h-.1v.1l-.1.1-.1.1-.1.1-.1.1-.1.1v.1h-.1v.1h-.1v.1h-.1v.1l-.1.1v.1l-.1.1v.1l-.1.1v.1h-.1v.2h-.1V146.7h-.1v.1l-.1.1v.2l-.1.1V147.4h-.1v.4l-.1.2V150.4h.1V150.7h.1V151h.1v.2l.1.2.1.2v.1h.1v.2h.1v.2h.1v.1l.1.1v.1h.1v.1l.1.1.1.1v.1l.1.1.1.1.1.1.1.1.1.1.1.1.1.1.1.1.1.1h.1v.1h.1v.1h.2v.1h.1v.1h.1l.1.1h.1v.1h.2v.1h.2v.1h.1l.1.1h.2v.1h.2l.1.1h.2v.1H252.7v.1h.4v.1h.5v.1H256l.2-.1h.2l.1-.1h.2l.1-.1h.2v-.1h.2l.1-.1h.1l.2-.1h.1l.1-.1.2-.1.1-.1h.2v-.1h.1v-.1h.2v-.1l.2-.1.1-.1v-.1h.1l.1-.1.1-.1h.1v-.1l.1-.1.2-.1v-.1l.1-.1h.1v-.1l.1-.1.1-.1v-.1h.1l.1-.2h.1v-.2h.1v-.1h.1v-.2h.1v-.1l.1-.2.1-.1v-.1h.1v-.2l.1-.1v-.1h.1v-.2l.1-.1v-.2l.1-.1v-.2l.1-.1V149.7l.1-.1v-.4h.1v-.6l.1-.1V146.4l-.1-.1V146h-.1v-.1z" fill="#fff"/><path d="M501 251.5l1 .3 1 .4.5.3.4.2.8.7.7.9 11.8 17.5 15.2 22.7.2.2.5 1 .3.9.2 1v1l-.1 1-.3.9-.4.9-.6.8-.7.7-11.5 10.4-20.4 18.2-20.3 18-.6-.2-24 22h-.1l6.1 8.4 8.7 12.3.5.8.8 3-1.6 2.7-3 .8-2.8-1.6-.8-1-12.5-16.4-5.3-7-.5-.6-.3-.6-.2-.8v-1.5l.2-.8.3-.7.4-.6.5-.6 19.3-18.4 19.6-18.5 19.8-18.7 15.3-14.2-2-3h-.1l-9.5-13.8-8.4-12.6-1-1.6-15 8.5v-.2L466 284l-16.8 9.2-30.6 16.5-22.3 12-.9.4-3.1.4-2.5-2-.4-3 2-2.6.8-.5 23.7-14.2 32.9-19.6L467 270l18.6-11 11.3-6.5 1-.5 1-.3 1-.1h1z" fill="#231768"/><path d="M454.9 247.1l-156 95.8c-19.4 12 12 64.5 32 52.1l156-95.7c17.4-10.7-12.4-64.2-32-52.2z" fill="#fff"/><clipPath id="a"><path d="M454.9 247.1l-156 95.8c-19.4 12 12 64.5 32 52.1l156-95.7c17.4-10.7-12.4-64.2-32-52.2z"/></clipPath><g clip-path="url(#a)"><path d="M296.1 346.3c1.7 16.5 14 28.4 30.5 21.7 15.3-6.1 16.8-24.7 29.5-33.4 14.5-9.8 32.9-5 48.4-11.7 14.3-6.1 19.6-21.3 31.6-30 12.4-9 39.7-11.5 42.5-30.2 5.1-34.2-47.1-30.3-64.5-25-29.2 8.6-51 24.4-74.3 42.9-25.7 20.2-35.9 22.7-44.2 53.7" fill="#e5e1f9"/></g><path d="M455.7 249.4l-18.3 10.3-20.3 11.6-5 3-8.6 5.3-22.4 14-21.6 13.3-11 6.9-5 5.4-16.7 9.6-27.1 15.4h-.1l-.1.1-.1.1h-.1l-.1.1h-.1v.1h-.1l-.1.1-.2.1v.1h-.2v.1l-.1.1h-.1l-.1.2h-.1l-.2.2-.1.1h-.1v.2h-.2v.1h-.1l-.1.2-.2.1v.1h-.1v.2h-.1l-.1.1v.1l-.1.1-.1.1-.1.2h-.1v.2h-.1l-.1.1v.1l-.1.1v.1l-.1.1-.1.1v.1h-.1v.2h-.1v.2h-.1v.2h-.1v.2h-.1v.2l-.1.1v.1l-.1.1v.1l-.1.1v.1l-.1.1V350h-.1v.2h-.1V350.6l-.1.1v.1l-.1.2v.2l-.1.1v.4h-.1V352l-.1.2V352.5l-.1.1V353.1h-.1v.6l-.1.1v1.1l-.1.1V359l.1.3v.6l.1.3v.6l.1.3v.3l.1.3v.3l.1.3.1.3v.4l.1.3.1.3v.3l.2.3v.3l.1.4v.3l.2.3v.3l.2.3v.3l.1.4.1.3.1.3.1.3.2.4v.3l.2.3v.3l.2.3.1.4.1.3.2.3v.3l.2.4.1.3.2.3.1.3.2.4v.3l.2.3.2.3.1.3.2.4.1.3.2.3.1.3.2.3.1.3.2.4.2.3.1.3.2.3.2.3.2.3.1.3.2.4.2.3.2.3.1.3.2.3.2.3.2.3.2.3.2.3.2.3.2.3.2.3.1.3.2.3.2.3.2.3.3.2.2.3.2.3.2.3.2.3.2.3.2.2.2.3.2.3.2.3.3.2.2.3.2.3.2.2.3.3.2.3.2.2.2.3.3.2.2.3.2.2.3.3.2.2.2.2.3.3.2.2.2.2.3.3.2.2.3.2.2.2.2.3.3.2.2.2.3.2.2.2.3.2.2.2.3.2.2.2.3.2.2.2.3.1v.1l.2.1.1.1h.2l.1.2h.1l.2.1v.1l.2.1h.1l.2.2h.1l.1.1h.2v.2h.2l.2.1.2.2H316l.1.2H316.3v.2H316.7l.2.2h.2l.2.1h.1l.1.2h.2l.2.1h.1l.2.1h.1l.1.1h.2v.1h.2l.2.1.2.1h.1l.2.1h.2l.2.1h.2l.1.1H320.4l.1.1H320.8l.1.1h.4l.1.1H322v.1H322.9l.2.1H325.7l.1-.1h.5l.1-.1h.2l.2-.1h.4v-.1H327.6l.1-.1h.2v-.1H328.2l.1-.1h.2v-.1h.2l.1-.1h.1l.1-.1h.1l.2-.1.2-.1.1-.1h.1l.1-.1h.1l.2-.2h.2v-.2h.2l.1-.1h.1l20-13.4 20.5-13.8 13.5-8.9 4.5-2.6 6.7-3.8 17.3-9.8 17.8-10 7.3-4 5.3-3.2 10.4-6.5 14.8-9.3 17.6-11.1.2-.1.1-.2h.2v-.1l.2-.1.1-.1h.1v-.2h.2l.1-.2.2-.1.1-.1v-.1h.1l.1-.2.2-.1v-.2h.1l.1-.1v-.1h.1v-.2h.2v-.2h.1v-.2h.1v-.1l.1-.1.1-.1v-.1h.1v-.2h.1v-.2h.1v-.2l.1-.1v-.1l.1-.1v-.1l.1-.1v-.2l.1-.1v-.1l.1-.1v-.2l.1-.1v-.2l.1-.1v-.2l.1-.1v-.2l.1-.2V292l.1-.1v-.4h.1v-.5l.1-.2V290.2l.1-.2V288.6l.1-.1v-2.3l-.1-.3v-.8l-.1-.3v-.3l-.1-.3v-.6l-.1-.3-.1-.3v-.3l-.1-.2v-.3l-.1-.3-.1-.3v-.3l-.1-.3-.1-.3v-.3l-.2-.4v-.2l-.1-.4-.1-.3-.1-.3-.1-.3-.1-.3-.1-.3-.1-.3-.1-.3-.1-.3-.1-.3-.1-.3-.1-.4-.2-.3v-.3l-.2-.3-.1-.3-.1-.3-.2-.3v-.3l-.2-.4-.2-.3v-.3l-.2-.3-.2-.3-.1-.3-.2-.3-.1-.3-.1-.4-.2-.3-.1-.3-.2-.3-.2-.3-.1-.3-.2-.3-.1-.3-.2-.3-.2-.3-.1-.3-.2-.4-.2-.3-.1-.3-.2-.3-.2-.3-.2-.3-.1-.3-.2-.3-.2-.3-.2-.3-.2-.3-.2-.2-.2-.3-.1-.3-.2-.3-.2-.3-.2-.3-.2-.3-.2-.3-.2-.3-.2-.2-.2-.3-.2-.3-.2-.3-.2-.2-.2-.3-.2-.3-.2-.3-.3-.2-.2-.3-.2-.3-.2-.2-.2-.3-.2-.2-.2-.3-.2-.2-.3-.3-.2-.2-.2-.3-.2-.2-.2-.3-.3-.2-.2-.3-.2-.2-.2-.2-.3-.3-.2-.2-.2-.2-.2-.2-.3-.2-.2-.3-.2-.2-.2-.2-.3-.2-.2-.2-.2-.2-.3-.2-.2-.2-.2-.2-.3-.2-.2-.2-.2-.1-.3-.2-.2-.2-.2-.2-.2-.1-.3-.2-.2-.2h-.1l-.1-.1-.2-.1-.2-.2h-.1l-.1-.1h-.1l-.2-.2-.2-.1h-.1l-.1-.2H468.6v-.2H468.2l-.1-.1-.1-.1h-.1l-.2-.1v-.1h-.2l-.1-.1h-.1l-.1-.1h-.1l-.2-.1-.2-.1-.1-.1h-.1l-.1-.1H466.2v-.1h-.2v-.1h-.2l-.1-.1h-.1l-.1-.1H465.2v-.1h-.2l-.2-.1h-.2l-.1-.1H464.2v-.1h-.4v-.1h-.4l-.1-.1H462.7v-.1h-1v-.1H459.8v.1H459.2v.1h-.4v.1H458.5l-.1.1h-.2l-.1.1h-.2l-.1.1h-.2v.1h-.2v.1h-.2l-.2.1-.2.1-.1.1h-.1l-.1.1h-.1l-.1.1-.1.1h-.1v.1l-.5.3zm-1.8-4.5h.2l.1-.1h.1l.2-.2H454.8l.1-.2H455.2l.1-.2H455.6l.1-.1h.2l.1-.1h.2l.1-.1h.2l.1-.1h.1l.2-.1h.1l.2-.1H457.5l.1-.1H458l.2-.1h.2l.2-.1H459l.1-.1H463.2l.1.1H463.6l.1.1h.5l.1.1H464.6l.1.1h.2l.1.1H465.3l.2.1h.1l.1.1h.2l.1.1h.2l.1.1h.1l.2.1h.1l.2.1h.1l.1.1h.2l.1.1.2.1h.1l.1.1h.2l.1.2h.2l.2.1.2.1h.1l.1.2h.2l.1.1h.1l.2.1.1.1.2.1.2.1.2.1v.1h.2l.2.2.2.1.2.1v.1h.2l.2.2.2.2h.1l.2.1.1.1.1.1.2.1.1.1.1.1h.2l.1.2.3.2.2.2.3.2.2.2.3.2.2.2.3.2.2.2.3.3.2.2.3.2.2.2.3.3.2.2.3.2.2.3.3.2.2.3.2.2.3.3.2.2.3.3.2.2.2.3.3.2.2.3.2.3.2.2.3.3.2.3.2.3.3.2.2.3.2.3.2.3.2.3.3.3.2.2.2.3.2.3.2.3.2.3.2.3.2.3.2.3.3.3.2.3.2.3.2.3.2.3.2.4.1.3.2.3.2.3.2.3.2.3.2.3.2.4.2.3.1.3.2.3.2.3.2.4.2.3.1.3.2.3.2.4.1.3.2.3.2.4.1.3.2.3.1.3.2.4.1.3.2.3.1.4.2.3.1.3.2.4.1.3.2.3.1.4.1.3.2.3v.4l.2.3.1.3.2.4v.3l.2.3.1.4.1.3.1.3.1.4.2.3v.3l.2.4v.3l.2.3v.4l.1.3.1.3.1.4v.3l.2.3V279.3l.1.4.1.3v.3l.1.3.1.4v.3l.1.3v.3l.1.4v.3l.1.3v.3l.1.3v.7l.1.3v.6l.1.3V290.3l-.1.1V291h-.1v.5l-.1.1v.4l-.1.2v.2l-.1.2v.2l-.1.2v.2l-.1.2-.1.2v.1l-.1.2v.2l-.1.1v.2h-.1v.2l-.1.1v.1l-.1.2-.1.2v.1l-.1.1-.1.1v.2h-.1v.2l-.1.1-.1.1v.1l-.1.1-.1.2-.1.2h-.1v.2h-.1l-.1.2-.1.1v.1l-.1.1-.1.1-.1.1v.1l-.2.1v.1l-.1.1-.1.1h-.1v.2h-.2v.2h-.2v.2h-.1l-.1.1-.1.1-.1.1h-.1l-.1.2h-.1l-.1.1-.1.1-.1.1h-.1l-.1.2h-.1l-.1.1h-.1l-.2.2-.2.1-.2.1-17.9 10.7-15 9-10.5 6.3-5.1 3.3-7 4.7-17 11.3-16.5 11-6.4 4.3-4.5 2.8-14 8-21.5 12-21 11.9h-.2l-.1.2h-.2l-.2.1-.1.1h-.2v.1h-.2l-.1.1h-.2l-.1.1h-.1l-.2.1-.2.1h-.1l-.2.1-.2.1H328.2l-.1.1H327.8v.1H327.4l-.2.1h-.4v.1h-.7l-.2.1H322.6l-.2-.1h-.4v-.1h-.5l-.1-.1H321.2v-.1H320.8l-.2-.1h-.1l-.1-.1H320.2l-.1-.1h-.2v-.1H319.5v-.1H319.3l-.1-.1h-.2v-.1h-.2l-.2-.1-.2-.1h-.1l-.2-.1-.1-.1h-.1l-.2-.1-.2-.1-.1-.1h-.2l-.1-.1h-.1l-.2-.2h-.2l-.1-.2h-.2l-.1-.1h-.1l-.2-.1v-.1h-.2l-.1-.2h-.2v-.1h-.2l-.1-.2h-.2l-.1-.1-.1-.1h-.2v-.2h-.2l-.1-.1-.2-.1v-.1l-.2-.1h-.1l-.2-.2-.2-.2h-.1l-.3-.2-.2-.2-.3-.2-.3-.2-.2-.2-.3-.2-.2-.2-.3-.2-.2-.2-.3-.2-.2-.2-.3-.2-.2-.2-.3-.2-.2-.2-.3-.3-.2-.2-.2-.2-.3-.2-.2-.3-.3-.2-.2-.3-.3-.2-.2-.2-.2-.3-.3-.2-.2-.3-.2-.2-.3-.3-.2-.2-.2-.3-.3-.3-.2-.2-.2-.3-.3-.3-.2-.2-.2-.3-.2-.3-.3-.2-.2-.3-.2-.3-.2-.3-.2-.2-.3-.3-.2-.3-.2-.3-.2-.3-.2-.3-.2-.3-.2-.3-.2-.3-.3-.3-.2-.2-.2-.3-.2-.3-.2-.3-.2-.3-.2-.4-.1-.3-.2-.3-.2-.3-.2-.3-.2-.3-.2-.3-.2-.3-.2-.3-.1-.3-.2-.3-.2-.4-.1-.2-.2-.4-.2-.3-.2-.3-.1-.3-.2-.4-.2-.3-.1-.3-.2-.3-.1-.3-.2-.4-.1-.3-.2-.3-.1-.3-.2-.3-.1-.4-.2-.3-.1-.3-.1-.3-.2-.4v-.3l-.2-.3-.1-.3-.2-.4v-.3l-.2-.3-.1-.3-.1-.4-.1-.3-.1-.3-.1-.3-.1-.3-.1-.4-.1-.3-.1-.3-.1-.3-.1-.4v-.3l-.2-.3v-.3l-.1-.3v-.4l-.2-.3v-.6l-.2-.3v-.7l-.1-.3v-.4l-.1-.2v-.8l-.1-.1v-1l-.1-.1V352.3l.1-.1V351.6l.1-.1v-.5h.1v-.5l.1-.1V350l.1-.2v-.2l.1-.2v-.1l.1-.1V349l.1-.1v-.2l.1-.1v-.1l.1-.2v-.1l.1-.1v-.2h.1v-.2l.1-.1v-.2l.1-.1v-.1l.1-.2h.1v-.2l.1-.1v-.1l.2-.2v-.2l.2-.1v-.2h.1v-.2l.1-.1.1-.1.1-.1v-.2h.2v-.2l.1-.1.1-.1v-.1l.2-.1v-.1l.1-.2h.1l.1-.2h.1l.1-.2h.1v-.2l.2-.1v-.1l.2-.1v-.1l.2-.1v-.1l.2-.1.1-.1.1-.1.1-.1h.1l.1-.2h.1l.2-.2.2-.1.1-.1.1-.1.1-.1.2-.1.2-.2h.1l26-17.2 16.1-10.6 7.2-2 11-6.7 21.8-13.2 22.5-13.7 8.6-5.2 5-3.2 19.5-12.8 17.5-11.6.5-.3.2-.2z" fill="#fff"/><path d="M484.3 397.9c2.3 1.1 2.6 1.4 3.5 2.2.9.7 1.3 1 2.9 3l67.5 87.5a18.8 18.8 0 0 1-2.3 24.6 18.6 18.6 0 0 1-25.8-1.9l-.5-.6-67.6-87.6c-6.7-9.2-2.9-23.9 8-28 4.6-1.7 9.9-1.3 14.3.8z" fill="#c1bae7" fill-rule="nonzero"/><clipPath id="b"><path d="M484.3 397.9c2.3 1.1 2.6 1.4 3.5 2.2.9.7 1.3 1 2.9 3l67.5 87.5a18.8 18.8 0 0 1-2.3 24.6 18.6 18.6 0 0 1-25.8-1.9l-.5-.6-67.6-87.6c-6.7-9.2-2.9-23.9 8-28 4.6-1.7 9.9-1.3 14.3.8z" clip-rule="nonzero"/></clipPath><g clip-path="url(#b)"><path d="M461.3 403.8c6 4.1 12.4 7.5 16.5 13.7 3.6 5.6 4.2 12.7 8.4 17.8 3.9 4.8 10 6.8 13.9 11.5 4.8 5.9 5.6 14 10 20 4.4 6.2 12.7 9 18 14.4 8.2 8.6 13.2 19.5 21.9 27.7a51 51 0 0 0 29.7 13.6c6.9.6 13.7-.4 17.6-7.2 11-19-1.4-39.8-12.2-55.8-10.7-16-21.2-32.1-33.1-47-5.6-7.1-10.8-15.1-18.6-19.8a69.3 69.3 0 0 0-29-8.8c-13.8-1.4-29.8-2.8-43 3-8.5 3.8-12.5 11.7-6 18.8" fill="#e5e1f9"/></g><path d="M476.3 392.3H477.7l.3.1h.8l.3.1h.2l.3.1h.3l.3.1h.2l.3.1h.3l.2.1h.3l.3.2h.2l.3.1h.3l.2.2h.3l.2.1.3.1.3.1.2.1.3.1.2.1.3.1.2.1.3.1.2.1.4.2.2.1.2.2h.2l.1.1h.1l.2.2h.2l.1.2h.2l.1.2h.2l.1.1.2.1.1.1h.1l.2.2.2.1.1.1.1.1h.1l.1.2h.1l.2.2.2.1.1.2.3.2.3.3.2.1.2.2.1.1.1.1.1.1h.1l.1.2h.1l.1.2h.1l.1.2.1.1.1.1.1.1.2.2v.1l.2.1.1.2.1.1.1.2.2.1.1.2.1.2.2.2.2.2 15.3 20.8 12.7 17.1 5.2 7 3.8 5 2.9 3.5 3.8 4.8 9.6 11.4 9.7 11.6 4 4.9 1 1.2.2.3.1.2.2.2.1.2.2.3.1.2.2.2.1.2.1.3.2.2.1.2.1.2.2.3v.2l.2.2.1.3.1.2.1.2.1.3.1.2.1.3v.2l.2.3v.2l.1.2.1.3.1.2v.3l.1.2.1.3v.2l.1.3.1.2v.3l.1.2v.3l.1.2v.5l.1.3v.2l.1.3v.7l.1.3v4.5l-.1.3v.4l-.1.3v.2l-.1.3v.2l-.1.3v.2l-.1.3v.2l-.1.3v.2l-.1.2-.1.3v.2l-.2.3v.2l-.1.2v.3l-.2.2v.2l-.2.3v.2l-.1.2-.1.3-.1.2-.1.2-.1.3-.1.2-.2.2v.2l-.2.2-.1.3-.1.2-.1.2-.2.2-.1.2-.1.2-.2.3-.1.2-.1.2-.2.2-.1.2-.2.2-.1.2-.2.2-.1.2-.2.2-.1.2-.2.2-.2.2-.1.2-.2.1-.2.2-.2.2-.1.2-.2.2-.2.1-.2.2-.2.2-.2.2-.2.1-.1.2h-.1l-.2.2-.2.1v.1l-.2.1-.2.2h-.1l-.1.1-.1.1h-.1l-.1.2h-.1l-.2.1-.3.2-.2.2-.2.1-.3.1-.2.2-.2.1-.3.1-.2.2h-.2l-.3.2-.2.1-.2.1-.3.1-.2.1-.3.1-.2.1-.2.1-.3.1-.2.1-.3.1h-.2l-.3.2h-.2l-.3.1h-.2l-.3.1-.2.1h-.3l-.2.1h-.3l-.2.1h-.3l-.2.1h-.3l-.2.1h-.5l-.3.1h-.8l-.2.1h-3.9l-.2-.1h-.5l-.3-.1h-.5l-.2-.1h-.3l-.2-.1h-.3l-.2-.1-.3-.1h-.2l-.3-.1-.2-.1h-.3l-.2-.1-.3-.1-.2-.1h-.3l-.2-.2h-.2l-.3-.1-.2-.1-.2-.1-.3-.1-.2-.1-.3-.2h-.2l-.2-.2h-.2l-.3-.2-.2-.1-.2-.2h-.2l-.3-.2-.2-.1-.2-.2-.2-.1-.2-.2-.3-.1-.2-.2-.2-.1-.2-.2-.2-.1h-.1l-.1-.2h-.1l-.1-.1-.1-.1-.1-.1h-.1l-.1-.2h-.1l-.1-.1-.1-.1-.1-.1-.1-.1h-.1l-.1-.2h-.1v-.2h-.2v-.1l-.2-.1v-.1l-.2-.1v-.1l-.1-.1-.1-.1-.1-.1-.1-.1-.1-.1v-.1l-.2-.1v-.1l-.1-.1-.1-.1-.1-.1-.1-.1v-.1l-.2-.1v-.1l-.2-.2-.1-.2-.1-.1-5-7-6.2-8.3-2.7-3.7-2.5-3.3-2.9-3.7-3.2-4-7.3-9.1-16.4-20.1-15.8-19.2-6.5-8-.3-.4-.1-.2-.1-.1-.1-.1-.1-.2-.1-.1-.1-.1-.1-.2-.1-.1-.1-.1v-.2l-.2-.1v-.1l-.1-.2-.1-.1-.1-.2-.1-.1v-.1l-.2-.2v-.1l-.1-.2v-.1l-.2-.2v-.1l-.1-.1v-.2l-.2-.1V423.5l-.2-.2V423l-.1-.1-.1-.2v-.1l-.1-.2v-.1l-.1-.2-.1-.1v-.1l-.1-.2v-.1l-.1-.2v-.1l-.1-.2v-.2l-.1-.1v-.2l-.1-.1V420.2l-.1-.2v-.1l-.1-.2V419.4l-.1-.1V419l-.1-.2V418.5l-.1-.2v-.4l-.1-.2v-.8l-.1-.1V415.4l-.1-.2V412.4l.1-.1V411.5l.1-.2v-.4l.1-.2v-.4l.1-.2V409.8l.1-.1V409.4l.1-.2V408.9l.1-.1v-.2l.1-.1V408.2l.1-.2v-.1l.1-.2v-.1l.1-.2v-.1l.1-.2v-.1l.1-.2v-.1l.1-.2v-.1l.1-.2v-.1l.1-.1v-.2l.1-.1.1-.2v-.1l.1-.2v-.1l.2-.2v-.2l.1-.2.1-.1v-.2h.1l.1-.2v-.2l.2-.1v-.1l.1-.2v-.1l.2-.2.1-.2v-.2h.2v-.2l.1-.2h.1v-.2l.2-.2.1-.2.1-.1.1-.2.1-.1.1-.1v-.2h.2v-.2l.2-.1v-.2h.2v-.2l.1-.1.1-.2h.1l.1-.2.1-.1.1-.1.1-.2h.1l.2-.2v-.1l.2-.1v-.1l.2-.2.2-.2.1-.1.1-.1.1-.1.1-.1.2-.1v-.2h.2l.1-.2h.1l.1-.2h.2v-.2h.2l.1-.2.1-.1.2-.1v-.1l.2-.1h.1l.2-.2h.1l.1-.2h.2v-.2h.2l.1-.1.2-.1.1-.1.2-.1.1-.1h.1l.2-.2h.1l.1-.1.2-.1.1-.1h.2l.1-.2h.2l.1-.1.1-.1h.2l.1-.1.2-.1h.1l.2-.2h.1l.2-.1h.1l.2-.1.1-.1h.2l.2-.1h.1l.2-.1.1-.1h.2v-.1h.4v-.1h.2l.2-.1h.1l.1-.1H470.1l.1-.1H470.5l.2-.1.2-.1h.4l.2-.1h.2l.2-.1h.4l.1-.1H473l.3-.1h.5l.3-.1h2.2zm6.2 8.7h-.2l-.2-.1-.2-.1h-.1l-.2-.1h-.2l-.2-.1-.1-.1h-.2l-.2-.1h-.2l-.2-.1h-.1l-.2-.1h-.4l-.2-.1H479.1l-.2-.1h-.4l-.2-.1H477.4l-.2-.1H474.6l-.2.1h-.5v.1h-.5l-.1.1h-.4v.1H472.5l-.1.1H472.2v.1H471.8v.1h-.2l-.1.1h-.2v.1h-.2l-.2.1-.2.1h-.2v.1h-.1l-.1.1h-.1l-.1.1h-.1l-.1.1-.2.1-.2.1-.1.1h-.1l-.1.1-.2.1-.1.1h-.1l-.1.1v.1h-.2v.1h-.1l-.1.1v.1h-.2v.1h-.1l-.1.1v.1h-.2v.1l-.1.1-.2.1v.1h-.1v.1l-.1.1h-.1v.1l-.2.1-.1.1v.1h-.1l-.1.2-.1.1h-.1v.2h-.1l-.1.1-.1.2h-.1v.1l-.1.1h-.1v.2h-.1v.1l-.1.1h-.1v.2h-.1v.1l-.1.1v.1h-.1l-.1.2-.1.1v.1l-.1.1v.1h-.1v.2h-.1v.1l-.1.1v.1l-.1.1v.1l-.1.1-.1.2-.1.2-.1.1v.2l-.1.1v.1l-.1.1v.2l-.1.1v.1h-.1v.2l-.1.2v.2h-.1v.2l-.1.2v.2h-.1v.2l-.1.2v.2l-.1.2v.2l-.1.2V411.2h-.1v.4l-.1.2V412.4l-.1.1V413.2l-.1.1V416.4l.1.1v.5l.1.1v.5l.1.1v.4l.1.1V418.5l.1.1v.2l.1.2v.2h.1v.2l.1.2v.2h.1v.2l.1.1v.2l.1.1v.1l.1.1v.2h.1v.2h.1v.1l.1.1v.2l.1.1v.1h.1v.2h.1v.2h.1v.1l.1.1.1.1.1.2.1.1v.1h.1l.3.4 6 8.4 14.6 20.1 15.3 21 6.9 9.3 3.1 4.1 2.8 3.7 2.6 3.3 2.9 3.6 6.5 8 5.4 6.6.1.2.1.1.2.2.1.2h.1v.1h.2v.2h.2v.2h.1l.1.2h.1l.2.2h.1v.2h.2l.1.1v.1h.2v.1h.1v.1l.2.1.1.1h.1v.1h.2v.1l.1.1.2.1.2.2h.2l.1.2h.2l.2.2h.1l.2.2h.2l.1.1.2.1.2.1h.2l.1.2h.2l.2.1h.2l.1.2h.4l.2.2h.4l.1.1h.2l.2.1h.2l.2.1h.2l.1.1h.2l.2.1h.4l.2.1h.5l.2.1h.9l.3.1h2.6l.2-.1H546l.1-.1h.4l.2-.1h.2l.2-.1h.1l.2-.1h.2l.2-.1h.2l.1-.1h.2l.2-.1h.2l.1-.1.2-.1h.2l.1-.1.2-.1h.2l.1-.2h.2l.2-.1h.1l.2-.2h.2l.1-.1.2-.1.1-.1.2-.1.1-.1.2-.1.1-.1h.2l.1-.2.2-.1.1-.1.2-.1.1-.1.2-.1v-.1h.2v-.2h.2v-.1l.2-.1v-.1l.2-.1v-.1l.2-.2h.1l.1-.2.1-.1.2-.1v-.2h.2v-.2l.2-.1v-.2l.2-.1v-.1l.2-.2.2-.2v-.2l.2-.1v-.1l.1-.2.1-.1.1-.2.1-.1v-.1l.2-.2v-.1l.1-.2v-.1l.2-.2v-.1l.1-.2v-.1l.1-.2.1-.1v-.2l.1-.1v-.2l.1-.2.1-.1v-.2l.1-.1v-.2l.1-.2v-.1l.1-.2V506.1l.1-.2v-.1l.1-.2V505.3l.1-.2V504.8l.1-.2v-.7l.1-.1V499.7l-.1-.2v-.5l-.1-.1v-.4l-.1-.1v-.2l-.1-.1v-.2l-.1-.2V497.4l-.1-.1v-.2l-.1-.2-.1-.1v-.2l-.1-.1v-.2l-.1-.1-.1-.2v-.1l-.1-.2-.1-.1v-.2l-.1-.1-.1-.2v-.1l-.2-.2v-.1l-.1-.2v-.1l-.2-.2v-.1l-.1-.2-.1-.1-.1-.1v-.2l-.2-.1v-.2l-.2-.1v-.1l-1-1.3-3.7-5-8.7-12.3-8.7-12.2-3.5-5-2.7-3.6-3.9-5-5.4-6.8-13.3-16.6-16.3-20v-.2l-.2-.1-.1-.2-.2-.1v-.1l-.2-.2-.2-.2-.1-.1-.1-.1-.1-.2h-.1l-.1-.1-.1-.1-.1-.1-.2-.1-.1-.1-.1-.1-.4-.3-.3-.2-.1-.1-.1-.1-.1-.1h-.1v-.1h-.1l-.1-.1h-.2v-.1h-.1v-.1h-.2v-.1h-.2l-.1-.1-.1-.1h-.2l-.1-.2h-.1l-.3-.1-.1-.1-.3-.1h-.1z" fill="#231768"/><path d="M93.4 113.8l3.1.6 2.2.5 2 .6 3.1 1 3.6 1.3 1.8.7 1.7.7 1.6.7 1.4.7 1.2.8 1.2.8 2.3 2 2.5 2.2 1.8 2 .4 1.6-1.4.7-2.8.1-3.3-.4-3-.5-1.4-.3-1.3-.4-1.5-.6-1.6-.7-1.7-.9-1.7-.9-3.3-1.8-2.8-1.6-1.8-1.2-1.8-1.3-2.4-2h-.1l-1.1-1.5-.1-1.6 1.2-1 2-.3zM108.3 148l1.5.2 3 .5 3.3.7 2.5 1 1.1 1.1-.9 1.3-2.3 1.4-3 1.4-2.9 1-1.4.5-1.3.3-1.6.2-1.7.2h-2l-1.9.2H91.6l-2.2-.3-3-.5h-.2l-1.8-.8-.8-1.3.6-1.5 1.6-1.2 3-1 2.1-.7 2-.5 3.2-.7 3.7-.6 2-.3 1.8-.3 1.8-.2h2.9zM155.1 69.3l1.4 2.3 1.4 3 1 2.9.5 1.4.3 1.3.2 1.6.1 1.7.2 2v1.9l.1 3.8V96.5l-.3 2.2-.5 3v.2l-.8 1.8-1.3.8-1.6-.6-1-1.6h-.1l-1-3-.7-2.1-.6-2-.6-3.2-.6-3.7-.3-2-.3-1.8-.2-1.8v-2.9l.1-1.5.5-3 .7-3.3 1-2.5 1-1.1h.1l1.3.9zM117 83l2.3 1.2 2.7 2 2.3 2 1.1 1 1 1 1 1.2 1 1.5 1 1.5 1 1.7 2 3.2 1.6 2.8 1 1.9.9 2 1.1 3 .2 2-.7 1.4-1.6.2-1.8-.8-2.4-2-1.7-1.6-1.5-1.5-2-2.4-2.5-3-1.2-1.4-1.2-1.5-1-1.4-.9-1.3-.6-1.2-.6-1.4-1.1-2.8-1-3.2-.5-2.7.4-1.6 1.6.2z" fill="#ff0076"/></svg>