<?xml version="1.0" encoding="UTF-8"?>
<svg width="45px" height="40px" viewBox="0 0 45 40" version="1.1" xmlns="http://www.w3.org/2000/svg" xmlns:xlink="http://www.w3.org/1999/xlink">
    <!-- Generator: Sketch 48.2 (47327) - http://www.bohemiancoding.com/sketch -->
    <title>Page 1</title>
    <desc>Created with Sketch.</desc>
    <defs>
        <polygon id="path-1" points="0.00596716658 0.00753511749 24.237221 0.00753511749 24.237221 27.2570393 0.00596716658 27.2570393"/>
        <polygon id="path-3" points="0 0.0101123236 36.968163 0.0101123236 36.968163 39.3522968 0 39.3522968"/>
    </defs>
    <g id="Homepage-V2" stroke="none" stroke-width="1" fill="none" fill-rule="evenodd" transform="translate(-389.000000, -2328.000000)">
        <g id="9_CONTENT_SHOWCASES" transform="translate(-1271.000000, 1151.000000)">
            <g id="Showcases" transform="translate(1484.000000, 408.000000)">
                <g id="Logos-Block" transform="translate(176.000000, 769.000000)">
                    <g id="Page-1">
                        <g id="Group-3" transform="translate(20.000000, 0.000000)">
                            <mask id="mask-2" fill="white">
                                <use xlink:href="#path-1"/>
                            </mask>
                            <g id="Clip-2"/>
                            <path d="M22.0774871,0.611820802 C22.9013747,-0.749791721 24.8632964,0.428594446 24.0391525,1.79073749 L13.84407,18.6383469 L17.9534959,25.479066 C18.7727716,26.8437438 16.8105937,28.0129539 15.9913181,26.6492979 L11.5902143,19.3223264 C11.5122641,19.1918575 11.4455285,18.9280901 11.4404435,18.6442023 C11.435319,18.3936979 11.4777531,18.1271208 11.6017246,17.9229879 L22.0774871,0.611820802 Z M18.2661247,0.611820802 C19.0900123,-0.749791721 21.0519143,0.428594446 20.2277704,1.79073749 L10.0327076,18.6383469 L14.1421335,25.479066 C14.9613895,26.8437438 12.9997438,28.0129539 12.1804484,26.6492979 L7.77936438,19.3223264 C7.70088199,19.1918575 7.63467849,18.9280901 7.62906135,18.6442023 C7.62395664,18.3936979 7.66690318,18.1271208 7.79034245,17.9229879 L18.2661247,0.611820802 Z M14.4547425,0.611820802 C15.2786302,-0.749791721 17.2405519,0.428594446 16.4169204,1.79073749 L6.22183789,18.6383469 L10.3307514,25.479066 C11.1505593,26.8437438 9.18836167,28.0129539 8.36910569,26.6492979 L3.96800197,19.3223264 C3.88951959,19.1918575 3.82331609,18.9280901 3.81769894,18.6442023 C3.81308697,18.3936979 3.85554077,18.1271208 3.9795122,17.9229879 L14.4547623,0.611820802 L14.4547425,0.611820802 Z M10.6431239,0.611820802 C11.467524,-0.749791721 13.4289135,0.428594446 12.6053018,1.79073749 L2.41021927,18.6383469 L6.51964523,25.479066 C7.33892092,26.8437438 5.37674304,28.0129539 4.55746736,26.6492979 L0.156383346,19.3223264 C0.0781571816,19.1918575 0.0116974624,18.9280901 0.00633653609,18.6442023 C0.00146834196,18.3936979 0.0441586598,18.1271208 0.167873861,17.9229879 L10.6431239,0.611820802 Z" id="Fill-1" fill="#FFFFFF" mask="url(#mask-2)"/>
                        </g>
                        <g id="Group-6" transform="translate(0.000000, 0.606061)">
                            <mask id="mask-4" fill="white">
                                <use xlink:href="#path-3"/>
                            </mask>
                            <g id="Clip-5"/>
                            <path d="M25.7257482,32.9006343 L26.5974961,35.1693251 L24.8540004,35.1693251 L25.7257482,32.9006343 Z M29.9445222,37.0740321 L27.7338109,31.4789054 C27.3389238,30.4133617 26.8359466,29.495793 25.753697,29.4650172 L25.753697,29.4619057 C25.7440116,29.4619057 25.7353934,29.4629429 25.7257482,29.4634615 C25.7166065,29.4629429 25.7074647,29.4619057 25.698323,29.4619057 L25.6977995,29.4650172 C24.6158116,29.495793 24.1125727,30.4133617 23.7176856,31.4789054 L21.507236,37.0740321 C21.2165728,37.8560518 21.1750323,38.1167982 21.1750323,38.4463762 C21.1750323,39.2309688 22.0293021,39.3517782 22.6665259,39.3517782 C23.4006443,39.3517782 23.6362153,38.8853747 23.844341,38.268124 L24.1214325,37.5689177 L24.180733,37.3743701 L27.2718105,37.3743701 L27.3316144,37.5689177 L27.6087059,38.268124 C27.8163282,38.885614 28.0518792,39.3517782 28.7859975,39.3517782 C29.4229797,39.3517782 30.2780147,39.2309688 30.2780147,38.4463762 C30.2772294,38.1167982 30.2354472,37.8560518 29.9445222,37.0740321 Z M31.4584474,34.8428586 C31.4584474,34.8428586 28.7188842,31.0579974 28.7188842,30.6053164 C28.7188842,30.0152314 29.3336765,29.4179461 29.9980639,29.4179461 C30.6075806,29.4179461 30.9484026,29.8434814 31.1839736,30.1727802 L32.796384,32.2295909 L34.3032616,30.2954045 C34.538289,29.9666044 34.9846236,29.4176668 35.5941806,29.4176668 C36.2593331,29.4176668 37.1927374,29.9860113 36.9192905,30.7597337 C36.7678275,31.1871041 34.0512394,34.8425993 34.0512394,34.8425993 L34.0512394,38.1716481 C34.0512394,38.9531492 33.4474614,39.3515388 32.796384,39.3515388 C32.1450448,39.3515388 31.4584474,38.9534085 31.4584474,38.1716481 L31.4584474,34.8428586 Z M20.9016055,29.4179461 C20.1674872,29.4179461 19.6637247,29.8569246 19.5388815,30.4061215 L18.5172211,34.8208588 L18.4895543,34.8208588 L17.1722571,30.5566695 C16.8951656,29.7063767 16.4078543,29.4179461 15.8121508,29.4179461 L15.765395,29.4996824 L15.765395,29.4179461 C15.1696916,29.4179461 14.6823802,29.7063767 14.4052686,30.5566695 L13.0882534,34.8208588 L13.0605663,34.8208588 L12.0391879,30.4061215 C11.9143447,29.8569246 11.4105621,29.4179461 10.6764438,29.4179461 C9.99769945,29.4179461 9.4215682,29.9120138 9.4215682,30.5020789 C9.4215682,30.872525 9.57383663,31.3523917 9.64304407,31.6408223 L11.1392295,37.6912628 C11.4022056,38.7619724 11.8242361,39.3515189 12.9043915,39.3515189 C13.7630913,39.3515189 14.3203954,38.9259835 14.5836534,38.1302613 L15.7518032,34.7052552 L15.7794902,34.7052552 L15.7789868,34.5477064 L15.8265078,34.7052552 L16.9946777,38.1302613 C17.2576539,38.9259835 17.8149781,39.3515189 18.6736577,39.3515189 C19.7543367,39.3515189 20.1758436,38.7619724 20.4388399,37.6912628 L21.9350253,31.6408223 C22.0044744,31.3523917 22.1570247,30.8722857 22.1570247,30.5020789 C22.1567428,29.9120138 21.5803699,29.4179461 20.9016055,29.4179461 Z M0.000255727207,30.5983155 C0.000255727207,29.8163158 0.537202317,29.4181854 1.2794153,29.4181854 C2.02162828,29.4181854 2.55857487,29.8163158 2.55857487,30.5983155 L2.55857487,32.6941993 L4.78104565,30.2503878 C5.32399277,29.6450445 5.66350588,29.5612339 6.07063567,29.5612339 C6.68150152,29.5612339 7.40204816,30.0620831 7.40204816,30.7845658 C7.40204816,31.1883806 7.1474083,31.5748628 6.85881914,31.8775344 L4.66482066,34.0869674 L7.12624536,36.8844111 C7.4725443,37.2548772 7.7496358,37.5433078 7.7496358,37.954622 C7.7496358,38.6680694 7.08420139,39.3471309 6.46081095,39.3471309 C5.86536928,39.3471309 5.41539008,38.9717782 5.05525771,38.5736478 L2.5583131,35.6341928 L2.5583131,38.1724259 C2.5583131,38.9539071 2.02136651,39.3522968 1.27915353,39.3522968 C0.536940549,39.3522968 -6.04080016e-06,38.9541863 -6.04080016e-06,38.1724259 L-6.04080016e-06,30.5983155 L0.000255727207,30.5983155 Z M13.3144209,26.5824665 L29.3049425,0.0101123236 L16.008799,0.0101123236 L0.0182774477,26.5824665 L13.3144209,26.5824665 Z" id="Fill-4" fill="#FFFFFF" mask="url(#mask-4)"/>
                        </g>
                        <path d="M39.8349963,32.0905579 L39.4355997,32.0905579 L39.0689131,31.3822746 L38.7945485,31.3822746 L38.7945485,32.0905579 L38.4477259,32.0905579 L38.4477259,30.4163797 L39.2462569,30.4163797 C39.677819,30.4163797 39.8878324,30.5355008 39.8878324,30.9283711 C39.8878324,31.2392844 39.7264605,31.3621075 39.4355997,31.3822541 L39.8349963,32.0905579 L39.2501692,31.1331513 C39.4355997,31.1374056 39.5648263,31.0923057 39.5648263,30.8835371 C39.5648263,30.658058 39.3268017,30.6747685 39.169342,30.6747685 L38.7942864,30.6747685 L38.7942864,31.1334376 L39.249907,31.1334376 L39.8349963,32.0905579 Z M40.2024896,31.2477725 C40.2024896,30.5561792 39.7303929,30.0649072 39.07702,30.0649072 C38.4108414,30.0649072 37.9510261,30.5561792 37.9510261,31.2477725 C37.9510261,31.9388136 38.4108414,32.4301265 39.07702,32.4301265 C39.7303929,32.4301265 40.2024896,31.9388136 40.2024896,31.2477725 Z M37.5479794,31.2477725 C37.5456603,30.3936355 38.2264797,29.6993218 39.0686308,29.6969697 L39.07702,29.6969697 C39.9211272,29.6978492 40.6051934,30.391631 40.6060606,31.2477725 C40.6050523,32.1038322 39.9210667,32.7975527 39.07702,32.7985754 C38.2344253,32.8004776 37.5498549,32.1092524 37.5479794,31.2546654 L37.5479794,31.2477725 Z M8.2138981,36.3636364 C9.06903635,36.3636364 9.76229848,35.6605277 9.76229848,34.7931982 L9.76229848,34.7926664 C9.76229848,33.9253368 9.06903635,33.2222282 8.2138981,33.2222282 C7.35859852,33.2230259 6.66586071,33.9269117 6.66666737,34.7943845 C6.66745386,35.6607323 7.35970767,36.3628387 8.2138981,36.3636364 Z" id="Fill-7" fill="#FFFFFF"/>
                    </g>
                </g>
            </g>
        </g>
    </g>
</svg>