<?xml version="1.0" encoding="UTF-8"?>
<svg width="110px" height="34px" viewBox="0 0 110 34" version="1.1" xmlns="http://www.w3.org/2000/svg" xmlns:xlink="http://www.w3.org/1999/xlink">
    <!-- Generator: Sketch 48.2 (47327) - http://www.bohemiancoding.com/sketch -->
    <title>Page 1</title>
    <desc>Created with Sketch.</desc>
    <defs>
        <polygon id="path-1" points="0.373246575 0.360990868 31.8447489 0.360990868 31.8447489 18.3457397 0.373246575 18.3457397"/>
    </defs>
    <g id="Homepage-V2" stroke="none" stroke-width="1" fill="none" fill-rule="evenodd" transform="translate(-629.000000, -2332.000000)">
        <g id="Page-1" transform="translate(629.000000, 2332.000000)">
            <path d="M27.6810731,14.6604886 C28.6981963,14.6604886 29.5490639,13.7835023 30.1789269,12.7975205 C30.1030822,13.1893014 30.0443151,13.6237763 30.0443151,14.0582511 C30.0443151,14.2044155 30.0443151,14.3515845 30.0598858,14.4967443 L31.3793836,14.4967443 C31.9826256,9.64217808 32.8631279,8.063 33.5628082,8.063 C33.7421233,8.063 33.8229909,8.20966667 33.8229909,8.38797717 C33.8229909,9.56231507 32.7651826,11.3690274 32.7651826,13.1295297 C32.7651826,14.1220411 33.3021233,14.5781142 33.8727169,14.5781142 C34.8597032,14.5781142 35.5171918,13.5444155 36.0832648,12.2550548 C36.1370091,13.6147352 36.6267352,14.6604886 37.6850457,14.6604886 C38.7282877,14.6604886 39.5580594,13.9593014 40.1125799,12.7688904 C40.6023059,12.5976119 41.0739498,12.262589 41.4491553,11.7964703 L41.4491553,11.8050091 C41.4491553,13.3560594 42.0026712,14.6604886 43.2734475,14.6604886 C44.5206164,14.6604886 45.5181507,13.3445068 46.1615753,12.1219498 C46.1876941,13.5454201 46.675411,14.6604886 47.7698858,14.6604886 C48.8121233,14.6604886 49.6428995,13.9593014 50.1964155,12.7688904 C50.7042237,12.5910822 51.1894292,12.2374749 51.5711644,11.7442329 C51.5691553,11.8316301 51.5661416,11.9215388 51.5661416,12.0054201 C51.5661416,13.6986164 51.9579224,14.6604886 52.9343607,14.6604886 C53.7455479,14.6604886 54.3759132,13.9366986 55.0570091,12.4298493 C55.0565068,12.4830913 55.0529909,12.5383425 55.0529909,12.5910822 C55.0529909,13.7799863 55.377968,14.6604886 56.1765982,14.6604886 C57.1213927,14.6604886 57.691484,13.7980685 58.0666895,12.8035479 L58.0666895,12.9818584 C58.0666895,14.105968 58.3595205,14.5781142 58.8803881,14.5781142 C59.481621,14.5781142 60.115,13.8417671 60.8538584,12.2063333 C60.8538584,12.2419954 60.8528539,12.2806712 60.8528539,12.3143242 C60.8528539,13.6986164 61.1451826,14.5781142 61.8619406,14.5781142 C62.9207534,14.5781142 63.4255479,13.4374292 64.3859132,10.8320868 C64.3859132,10.7512192 64.0297945,10.6030457 63.9308447,10.6030457 C63.4426256,11.8582511 62.8067352,13.3907169 62.3662329,13.3907169 C62.155274,13.3907169 62.0422603,13.0315845 62.0422603,12.345968 C62.0422603,11.7432283 62.1226256,10.8973836 62.2863699,9.77377626 C62.481758,9.10473516 62.6439954,8.4703516 62.7896575,7.85153881 C63.0844977,7.85153881 63.3928995,7.85153881 63.4581963,7.83446119 L63.604863,7.06948402 C63.4581963,7.08505479 63.2301598,7.10213242 62.9689726,7.10213242 C63.2467352,5.79820548 63.4094749,4.55957534 63.4908447,3.22500913 L62.3350913,3.22500913 C61.9603881,4.8699863 61.7479224,5.96094521 61.5369635,7.08505479 C61.1944064,7.08505479 60.9166438,7.06948402 60.8041324,7.06948402 L60.6886073,7.83446119 C60.7544064,7.85153881 61.0311644,7.85153881 61.4058676,7.85153881 C61.1858676,8.8269726 61.0346804,9.78482648 60.9457763,10.6517671 C60.171758,12.633274 59.4976941,13.4052831 59.3198858,13.4052831 C59.2395205,13.4052831 59.1907991,13.2922694 59.1907991,13.0471553 C59.1907991,12.9336393 59.1907991,12.8035479 59.2234475,12.6237306 C59.4504795,11.0114018 59.7608904,9.25240639 60.2486073,7.08505479 L59.0918493,7.08505479 L58.9130365,7.99720091 C58.7990183,7.26436986 58.4569635,6.90624201 57.854726,6.90624201 C56.7110274,6.90624201 55.7285616,8.75815982 55.2930822,10.6502603 C54.6004338,12.4273379 53.9891553,13.4218584 53.4713014,13.4218584 C53.0971005,13.4218584 52.8539954,13.0803059 52.8539954,11.989347 C52.8539954,11.4679772 52.9027169,10.8320868 52.9830822,10.1308995 C53.6350457,9.33427854 54.7255023,7.73802283 55.3925342,5.60281735 C55.5567808,5.09802283 55.8822603,3.94226941 55.8822603,2.98039726 C55.8822603,2.149621 55.6381507,1.46500913 54.7923059,1.46500913 C53.8460046,1.46500913 52.8198402,3.306379 52.0870091,7.39446119 C51.8765525,8.59642466 51.7218493,9.67080822 51.6374658,10.6055571 C51.6359589,10.6040502 51.6324429,10.6030457 51.6299315,10.6030457 C51.3360959,11.3690274 50.9468265,11.7758767 50.5213927,11.9722694 C50.7343607,11.2555114 50.9302511,10.4247352 50.9302511,9.62710959 C50.9302511,8.16144749 50.3601598,6.90624201 49.2681963,6.90624201 C48.1119406,6.90624201 47.4268265,7.99720091 47.248516,9.25240639 L46.6628539,9.10473516 C46.4940868,9.59847945 46.3680137,10.1103059 46.281621,10.6151005 C45.564863,12.39921 44.688379,13.2746895 43.9088356,13.2746895 C43.0770548,13.2746895 42.7515753,12.4283425 42.7515753,11.4026804 C42.7515753,9.85514612 43.4849087,7.91683562 44.331758,7.91683562 C44.5597945,7.91683562 44.6572374,8.14386758 44.6572374,8.48592237 C44.6572374,8.97514612 44.4462785,9.69190411 44.1202968,10.2449178 L45.162032,10.7994384 C45.488516,10.0982511 45.7004795,9.30112785 45.7004795,8.60044292 C45.7004795,7.65514612 45.3257763,6.90624201 44.3965525,6.90624201 C42.9092922,6.90624201 41.874589,8.72701826 41.5561416,10.6055571 C41.5521233,10.6055571 41.5471005,10.6030457 41.5450913,10.6030457 C41.2527626,11.3690274 40.8609817,11.7758767 40.4375571,11.9722694 C40.6495205,11.2555114 40.8459132,10.4247352 40.8459132,9.62710959 C40.8459132,8.16144749 40.2753196,6.90624201 39.1838584,6.90624201 C38.028105,6.90624201 37.3429909,7.99720091 37.1631735,9.25240639 L36.5775114,9.10473516 C36.4097489,9.59948402 36.2826712,10.1113105 36.1967808,10.616105 C35.4825342,12.4805799 34.9455936,13.3907169 34.5231735,13.3907169 C34.3780137,13.3907169 34.1976941,13.3083425 34.1976941,12.8351918 C34.1976941,11.5006256 35.2570091,9.56231507 35.2570091,8.04592237 C35.2570091,7.26436986 34.8823059,6.88966667 34.3127169,6.88966667 C33.6115297,6.88966667 32.9439954,7.39446119 32.4060502,8.20966667 C32.471347,7.90026027 32.5366438,7.60692694 32.5853653,7.31459817 C33.5959589,6.07596804 34.9963242,3.84382192 34.9963242,2.52382192 C34.9963242,1.90551142 34.6864155,1.49765753 33.8727169,1.49765753 C33.3834932,1.49765753 32.8134018,1.80857078 32.5039954,2.50724658 C31.8876941,3.90710959 31.2292009,7.38742922 30.6837215,10.6311735 C29.9674658,12.402726 29.0944977,13.2746895 28.3174658,13.2746895 C27.4861872,13.2746895 27.1607078,12.4283425 27.1607078,11.4026804 C27.1607078,9.85514612 27.8935388,7.91683562 28.7403881,7.91683562 C28.9684247,7.91683562 29.0663699,8.14386758 29.0663699,8.48592237 C29.0663699,8.97514612 28.855411,9.69190411 28.5289269,10.2449178 L29.5711644,10.7994384 C29.8966438,10.0982511 30.1096119,9.30112785 30.1096119,8.60044292 C30.1096119,7.65514612 29.7344064,6.90624201 28.8046804,6.90624201 C26.9969635,6.90624201 25.8567808,9.59345662 25.8567808,11.8085251 C25.8567808,13.3560594 26.4102968,14.6604886 27.6810731,14.6604886 M57.9355936,8.07857078 C58.2942237,8.07857078 58.4413927,8.50149315 58.4413927,9.10473516 C58.4413927,10.6201233 57.5121689,13.2746895 56.7627626,13.2746895 C56.518653,13.2746895 56.4207078,12.9336393 56.4207078,12.4283425 C56.4207078,10.9456027 57.251484,8.07857078 57.9355936,8.07857078 M55.0032648,2.5569726 C55.0846347,2.5569726 55.1665068,2.68656164 55.1665068,2.91459817 C55.1494292,4.90313699 53.9444521,7.62249772 53.1292466,9.10473516 C53.6023973,6.07596804 54.5632648,2.5569726 55.0032648,2.5569726 M48.9095662,7.96455251 C48.9422146,7.96455251 48.9904338,7.94898174 49.0230822,7.94898174 C49.4796575,7.94898174 49.6584703,8.50149315 49.6584703,9.23583105 C49.6584703,10.0982511 49.4143607,11.2384338 49.0557306,12.1033653 C48.3223973,11.889895 48.0627169,11.0450548 48.0627169,10.1635479 C48.0627169,9.12181279 48.4374201,8.063 48.9095662,7.96455251 M47.3625342,11.0927717 C47.5905708,11.8743242 48.0305708,12.5257854 48.7146804,12.785968 C48.51879,13.1124521 48.3223973,13.339484 48.1119406,13.4052831 C48.0627169,13.4218584 48.0305708,13.4218584 47.981347,13.4218584 C47.5734932,13.4218584 47.3133105,12.7548265 47.3133105,11.7929543 C47.3133105,11.5819954 47.3308904,11.336379 47.3625342,11.0927717 M38.824726,7.96455251 C38.8578767,7.96455251 38.9065982,7.94898174 38.9397489,7.94898174 C39.3953196,7.94898174 39.5746347,8.50149315 39.5746347,9.23583105 C39.5746347,10.0982511 39.3300228,11.2384338 38.9708904,12.1033653 C38.2395662,11.889895 37.9778767,11.0450548 37.9778767,10.1635479 C37.9778767,9.12181279 38.3535845,8.063 38.824726,7.96455251 M37.2776941,11.0927717 C37.5067352,11.8743242 37.9457306,12.5257854 38.6303425,12.785968 C38.4344521,13.1124521 38.2395662,13.339484 38.028105,13.4052831 C37.9778767,13.4218584 37.9457306,13.4218584 37.8960046,13.4218584 C37.4896575,13.4218584 37.2289726,12.7548265 37.2289726,11.7929543 C37.2289726,11.5819954 37.2455479,11.336379 37.2776941,11.0927717 M33.9535845,2.5569726 C34.0354566,2.5569726 34.1007534,2.63834247 34.1007534,2.78500913 C34.1007534,3.61578539 33.3508447,5.066379 32.8947717,5.94436986 C33.4819406,3.24108219 33.6928995,2.5569726 33.9535845,2.5569726" id="Fill-1" fill="#FFFFFF"/>
            <path d="M13.9624658,27.4539909 C13.9624658,25.6296986 12.36621,23.9365023 12.3179909,22.5677808 C12.5123744,21.8515251 12.6746119,21.0699726 12.8057078,20.1894703 L11.6986758,19.9785114 C11.4374886,20.7756347 11.3234703,21.4938995 11.3234703,22.1448584 C11.3234703,22.6973699 11.4048402,23.219242 11.5188584,23.7084658 C11.2094521,24.489516 10.9000457,25.2238539 10.6875799,25.775863 L10.6870776,25.775863 C10.0682648,27.4384201 9.27013699,28.4480091 8.30926941,28.4480091 C7.55936073,28.4480091 7.28310502,27.6654521 7.28310502,26.6890137 L7.28310502,26.4449041 C9.2043379,26.1344932 10.1807763,24.5708858 10.1807763,23.4151324 C10.1807763,22.6662283 9.77442922,22.0795616 8.95922374,22.0795616 C7.46141553,22.0795616 6.37296804,23.9003379 6.02990868,25.775863 L6.02689498,25.775863 C5.50552511,27.129516 5.01680365,28.0572329 4.64360731,28.0572329 C4.52808219,28.0572329 4.47885845,27.9271416 4.47885845,27.585589 C4.47885845,27.0481461 4.61045662,26.0204749 4.91885845,24.2785571 C5.62004566,21.5747671 6.20570776,18.2350868 6.27100457,16.84979 L4.98365297,16.84979 L3.8439726,23.1715251 C3.72844749,22.4371872 3.38789954,22.0795616 2.78515982,22.0795616 C1.23712329,22.0795616 0,25.4669589 0,27.7638995 C0,28.9367306 0.326484018,29.8343105 1.12310502,29.8343105 C2.0513242,29.8343105 2.62141553,28.969379 2.99611872,27.975863 L2.99611872,28.1566849 C2.99611872,29.2802922 3.28945205,29.7514338 3.8113242,29.7514338 C4.42009132,29.7514338 5.14689498,28.999516 5.92894977,27.3203836 C6.00931507,28.7061826 6.60251142,29.8343105 7.9169863,29.8343105 C9.51474886,29.8343105 10.3289498,28.1381005 11.143653,26.0044018 L11.143653,26.0038995 L11.1441553,26.0044018 C11.3234703,25.5161826 11.5344292,25.0113881 11.7142466,24.4749498 C12.0728767,25.6296986 12.5455251,26.6071416 12.5455251,27.6182374 C12.5455251,28.2038995 12.3179909,28.4977352 11.910137,28.4977352 C11.5992237,28.4977352 11.4048402,28.366137 11.1923744,28.0085114 L10.1988584,28.7257717 C10.4284018,29.3923014 11.0457078,29.8343105 11.8121918,29.8343105 C13.9986301,29.8343105 13.9624658,27.4539909 13.9624658,27.4539909 M8.83063927,23.0886484 C8.993379,23.0886484 9.09082192,23.2523927 9.09082192,23.496 C9.09082192,24.099242 8.55287671,25.2238539 7.3313242,25.8270959 C7.52771689,24.4749498 8.16260274,23.0886484 8.83063927,23.0886484 M1.69269406,28.4480091 C1.46515982,28.4480091 1.36821918,28.1064566 1.36821918,27.6021644 C1.36821918,26.1344932 2.16584475,23.2523927 2.8660274,23.2523927 C3.2256621,23.2523927 3.37082192,23.6758174 3.37082192,24.2785571 C3.37082192,25.7934429 2.44260274,28.4480091 1.69269406,28.4480091" id="Fill-3" fill="#FFFFFF"/>
            <path d="M35.5138265,22.4041872 L34.6177534,21.9486164 C34.6177534,21.9486164 34.2751963,22.5357854 33.9331416,23.4635023 C33.5910868,23.5945982 33.2008128,23.7086164 32.7763836,23.7729087 C33.1676621,20.0916758 33.6081644,18.2683881 33.9487123,17.3230913 C34.5695342,17.0950548 34.9447397,16.7374292 35.2199909,16.2798493 L34.6514064,15.5475205 C34.292274,15.6283881 33.7548311,15.8564247 33.1847397,16.6219041 C32.972274,16.6384795 32.7447397,16.6565616 32.4679817,16.6565616 C30.4312237,16.6565616 27.6299909,15.3350548 24.1125023,15.3350548 C22.3354247,15.3350548 20.9295342,15.8820411 19.8968402,16.7203516 C19.8923196,16.7233653 19.8867945,16.7233653 19.8827763,16.7273836 C19.5869315,16.9714932 19.2056986,17.136242 18.7395799,17.136242 C17.0443744,17.136242 15.7258813,16.2557397 14.1291233,15.5399863 C14.6509954,14.5936849 15.1070685,13.3721324 15.4491233,11.7758767 C19.1630046,10.1982055 21.0033699,6.23820548 21.0033699,3.3390274 C21.0033699,1.43236073 20.205242,0.000351598174 18.6255616,0.000351598174 C16.6219543,0.000351598174 15.1397169,1.38363927 14.341589,8.69838813 C14.2275708,9.69140183 14.1135525,10.5884795 13.9668858,11.3856027 C13.3480731,11.5649178 12.6639635,11.662863 11.9301279,11.662863 C8.54273059,11.662863 7.12528767,9.82149315 7.12528767,8.07857078 C7.12528767,6.49939269 8.28254795,4.98400457 10.18821,4.98400457 C10.6754247,4.98400457 11.0832785,5.09802283 11.4579817,5.32605936 L12.0928676,4.02363927 C11.4901279,3.68158447 10.9692603,3.53441553 10.2037808,3.53441553 C7.51606393,3.53441553 5.82186301,5.71784018 5.82186301,7.9173379 C5.82186301,10.179621 7.61400913,12.4770639 11.9301279,12.4770639 C12.581589,12.4770639 13.2014064,12.4117671 13.7714977,12.2977489 C13.5278904,13.4374292 13.2496256,14.3515845 12.9241461,15.0839132 C12.1109498,14.8071553 11.181726,14.6283425 10.1058356,14.6283425 C8.38049315,14.6283425 7.5316347,15.6213562 7.5316347,16.5832283 C7.5316347,17.4943699 8.28254795,18.3562877 9.74770776,18.3562877 C11.0832785,18.3562877 12.4514977,17.8846438 13.5916804,16.3707626 C15.2135525,17.1799406 16.718895,18.2493014 18.5306301,18.3397123 C18.042411,19.2036393 17.7902648,20.1655114 17.7902648,21.1027717 C17.7902648,23.5122237 19.4041005,25.7609452 22.6945571,25.7609452 C26.0658813,25.7609452 27.2060639,23.659895 27.2060639,21.2815845 C27.2060639,20.9545982 27.1729132,20.6301233 27.1412694,20.303137 L25.6756073,20.5643242 C25.708758,20.8737306 25.7238265,21.1670639 25.7238265,21.459895 C25.7238265,23.3178402 24.9256986,24.946242 22.678484,24.946242 C20.4468402,24.946242 19.3548767,23.2038219 19.3548767,21.312726 C19.3548767,19.0504429 20.9355616,16.5571096 24.0627763,16.5571096 C27.435105,16.5571096 29.8777078,17.5511279 32.271589,17.5511279 L32.6302192,17.5511279 C32.0445571,18.756105 31.4905388,20.6954201 31.1309041,23.8382055 C28.9816347,23.9848721 27.7113607,25.2235023 27.7113607,26.5590731 C27.7113607,26.9166986 27.7927306,27.2592557 27.9710411,27.6023151 L29.2267489,27.1120868 C29.1443744,26.8353288 29.0961553,26.5907169 29.0961553,26.3641872 C29.0961553,25.3530913 29.9425023,24.9140959 31.0183927,24.7669269 C30.1062466,31.6090274 28.1347854,32.6492557 26.4235068,32.6492557 C24.7142374,32.6492557 24.0456986,31.6090274 24.0456986,30.6637306 C24.0456986,29.8826804 24.5017717,29.1659224 25.2195342,29.1659224 L25.1703105,27.6826804 C23.5896256,27.699758 22.6131872,29.0835479 22.6131872,30.4999863 C22.6131872,31.9982968 23.7207215,33.5302603 26.37579,33.5302603 C28.8846941,33.5302603 31.7507215,31.853137 32.6799452,24.6539132 C33.0209954,24.6036849 33.3304018,24.5228174 33.6081644,24.4409452 C33.3791233,25.2717215 33.1847397,26.2481598 33.1847397,27.2748265 L34.3575708,27.2748265 C34.3575708,25.9558311 34.4550137,24.7508539 34.5363836,23.9848721 C35.1220457,23.5619498 35.4324566,22.9918584 35.5138265,22.4041872 M15.9378447,8.69838813 C16.6877534,1.69455251 17.7134155,0.813547945 18.6089863,0.813547945 C19.2604475,0.813547945 19.6190776,1.69455251 19.6190776,2.9316758 C19.6190776,5.229621 18.4135982,8.79683562 15.6771598,10.5714018 C15.7746027,9.98523744 15.8720457,9.36692694 15.9378447,8.69838813 M9.95967123,17.5772466 C9.12939726,17.5772466 8.72003653,17.1020868 8.72003653,16.6153744 C8.72003653,16.0447808 9.24291324,15.4254658 10.2530046,15.4254658 C11.0677078,15.4254658 11.8161096,15.6042785 12.5172968,15.8820411 C11.7839635,17.1020868 10.9210411,17.5772466 9.95967123,17.5772466" id="Fill-5" fill="#FFFFFF"/>
            <path d="M63.7348539,19.1785753 C63.0175936,19.1785753 62.5941689,19.8797626 62.5941689,20.4669315 C62.5941689,20.9064292 62.8382785,21.2972055 63.3601507,21.2972055 C64.0769087,21.2972055 64.4993288,20.6141005 64.4993288,20.0264292 C64.4993288,19.571863 64.2712922,19.1785753 63.7348539,19.1785753" id="Fill-7" fill="#FFFFFF"/>
            <path d="M68.0189772,27.4539909 C68.0189772,25.6296986 66.4232237,23.9365023 66.3745023,22.5677808 C66.5693881,21.8515251 66.7321279,21.0699726 66.8632237,20.1894703 L65.7556895,19.9785114 C65.4950046,20.7756347 65.3799817,21.4938995 65.3799817,22.1448584 C65.3799817,22.6973699 65.4608493,23.219242 65.5763744,23.7084658 C65.2664658,24.489516 64.9575616,25.2238539 64.7445936,25.775863 L64.7440913,25.775863 C64.0273333,27.6508858 63.4903927,28.563032 63.0664658,28.563032 C62.9197991,28.563032 62.740484,28.4806575 62.740484,28.0085114 C62.740484,26.6714338 63.2146393,24.7833516 63.783726,22.2428037 L62.3994338,22.2428037 C62.2120822,23.032895 61.8253242,24.4679178 61.5932694,25.8738082 C60.8272877,27.8171416 60.1637717,28.5786027 59.986968,28.5786027 C59.9050959,28.5786027 59.8568767,28.4645845 59.8568767,28.2209772 C59.8568767,28.1064566 59.8568767,27.975863 59.8900274,27.7960457 C60.1175616,26.1842192 60.4264658,24.4252237 60.9141826,22.2568676 L59.7589315,22.2568676 L59.5801187,23.1715251 C59.4655982,22.4371872 59.1225388,22.0795616 58.5213059,22.0795616 C57.3781096,22.0795616 56.3981553,23.9254521 55.9616712,25.8170502 C55.2484292,27.5790594 54.3764658,28.4480091 53.6009406,28.4480091 C52.7706667,28.4480091 52.4441826,27.6021644 52.4441826,26.5734886 C52.4441826,25.0264566 53.177516,23.0886484 54.0243653,23.0886484 C54.2518995,23.0886484 54.3493425,23.3181918 54.3493425,23.6597443 C54.3493425,24.1469589 54.1378813,24.8647215 53.8134064,25.4187397 L54.8551416,25.9722557 C55.1801187,25.2715708 55.3925845,24.4749498 55.3925845,23.772758 C55.3925845,22.8274612 55.0178813,22.0795616 54.0896621,22.0795616 C52.6024018,22.0795616 51.5682009,23.8988311 51.2477443,25.7773699 C51.2452329,25.7773699 51.2407123,25.775863 51.2382009,25.775863 C50.5209406,27.6508858 49.984,28.563032 49.5605753,28.563032 C49.4139087,28.563032 49.2350959,28.4806575 49.2350959,28.0085114 C49.2350959,26.6714338 50.2934064,24.7346301 50.2934064,23.219242 C50.2934064,22.4371872 49.9187032,22.0639909 49.3481096,22.0639909 C48.664,22.0639909 48.0130411,22.55221 47.4911689,23.332758 L47.670484,22.2428037 L46.2696164,22.2428037 C46.1174247,23.2096986 45.914,24.4267306 45.6779269,25.7889224 C44.8978813,27.7990594 44.2157808,28.5786027 44.0374703,28.5786027 C43.9561005,28.5786027 43.9078813,28.4645845 43.9078813,28.2209772 C43.9078813,28.1064566 43.9078813,27.975863 43.9405297,27.7960457 C44.1675616,26.1842192 44.4774703,24.4252237 44.9656895,22.2568676 L43.8099361,22.2568676 L43.6296164,23.1715251 C43.517105,22.4371872 43.1740457,22.0795616 42.5713059,22.0795616 C41.4286119,22.0795616 40.4471507,23.928968 40.0106667,25.8215708 C39.3034521,27.6619361 38.7398904,28.5133059 38.3847763,28.5133059 C38.221032,28.5133059 38.1240913,28.415863 38.1240913,28.172758 C38.1240913,27.6021644 38.8734977,26.2485114 38.8734977,25.206274 C38.8734977,24.1318904 37.9447763,23.4467763 37.4234064,22.8138995 C37.6509406,21.785726 37.8136804,20.8735799 37.8468311,20.222621 L36.6092055,19.9785114 C36.3645936,20.7595616 36.2666484,21.3623014 36.2666484,21.8670959 C36.2666484,22.5029863 36.4293881,22.9590594 36.6247763,23.3493333 C36.0878356,25.5638995 35.3218539,28.3992877 34.8657808,29.6052694 L35.3218539,29.8343105 C35.8748676,28.366137 36.5760548,26.1500639 37.0974247,24.1318904 C37.3425388,24.5226667 37.5529954,24.9300183 37.5529954,25.4845388 C37.5529954,26.3138082 36.7870137,27.6333059 36.7870137,28.563032 C36.7870137,29.3280091 37.0974247,29.7514338 37.8634064,29.7514338 C38.7464201,29.7514338 39.294411,28.9231689 39.7730868,27.8256804 C39.7836347,28.9814338 40.1101187,29.8343105 40.8931781,29.8343105 C41.8384749,29.8343105 42.4100731,28.969379 42.7837717,27.975863 L42.7837717,28.1566849 C42.7837717,29.2802922 43.077105,29.7514338 43.5984749,29.7514338 C44.0620822,29.7514338 44.5447763,29.3139452 45.0797078,28.3631233 C44.9265114,29.0934429 44.8682466,29.6705662 44.8682466,29.6705662 L46.2851872,29.6705662 L46.9371507,26.2982374 C47.4755982,24.0017991 48.1918539,23.2353151 48.5992055,23.2353151 C48.7780183,23.2353151 48.8603927,23.3819817 48.8603927,23.5617991 C48.8603927,24.7346301 47.8010776,26.5433516 47.8010776,28.3013425 C47.8010776,29.295863 48.3385205,29.7514338 48.9076073,29.7514338 C49.9187032,29.7514338 50.583726,28.6710228 51.1583379,27.3399726 C51.2331781,28.6067306 51.7108493,29.629379 52.68779,29.7966393 C52.6003927,30.3099726 52.5004384,30.6876895 52.1669224,31.02221 L52.411032,31.3652694 C52.68779,31.2015251 52.7530868,31.0548584 53.193589,31.0548584 C53.633589,31.0548584 53.8279726,31.3481918 53.8279726,31.6405205 C53.8279726,31.9840822 53.5682922,32.3412055 53.1282922,32.3412055 C52.737516,32.3412055 52.4592511,32.0975982 52.3457352,31.7545388 L51.6129041,32.1297443 C51.7279269,32.5697443 52.2970137,33.0102466 53.0464201,33.0102466 C54.0243653,33.0102466 54.5628128,32.3090594 54.5628128,31.6726667 C54.5628128,31.1206575 54.1715342,30.6138539 53.3231781,30.6138539 C53.2106667,30.6138539 53.1122192,30.6138539 52.9982009,30.6309315 C53.1107123,30.3632146 53.1584292,30.0769132 53.1910776,29.8132146 C54.254411,29.6765936 55.1233607,28.6052237 55.727105,27.5303379 C55.7240913,27.6086941 55.7200731,27.6885571 55.7200731,27.7638995 C55.7200731,28.9523014 56.0450502,29.8343105 56.8421735,29.8343105 C57.7874703,29.8343105 58.3585662,28.969379 58.7337717,27.975863 L58.7337717,28.1566849 C58.7337717,29.2802922 59.0261005,29.7514338 59.5474703,29.7514338 C60.1175616,29.7514338 60.7167854,29.0884201 61.4089315,27.6217534 C61.4069224,27.6845388 61.404411,27.7503379 61.404411,27.8121187 C61.404411,28.9367306 61.6982466,29.7514338 62.577242,29.7514338 C63.9143196,29.7514338 64.4834064,27.8618447 65.2006667,26.0044018 L65.2006667,26.0038995 L65.2016712,26.0044018 C65.3799817,25.5161826 65.5934521,25.0113881 65.7712603,24.4749498 C66.1293881,25.6296986 66.6025388,26.6071416 66.6025388,27.6182374 C66.6025388,28.2038995 66.3745023,28.4977352 65.9671507,28.4977352 C65.657242,28.4977352 65.4608493,28.366137 65.250895,28.0085114 L64.2563744,28.7257717 C64.484411,29.3923014 65.103726,29.8343105 65.8697078,29.8343105 C68.1651416,29.8343105 68.0189772,27.4539909 68.0189772,27.4539909 M41.4808493,28.4480091 C41.2357352,28.4480091 41.1382922,28.1064566 41.1382922,27.6021644 C41.1382922,26.1189224 41.9695708,23.2523927 42.6526758,23.2523927 C43.0118082,23.2523927 43.1574703,23.6758174 43.1574703,24.2785571 C43.1574703,25.7934429 42.2287489,28.4480091 41.4808493,28.4480091 M57.4293425,28.4480091 C57.1852329,28.4480091 57.0872877,28.1064566 57.0872877,27.6021644 C57.0872877,26.1189224 57.9185662,23.2523927 58.6016712,23.2523927 C58.9603014,23.2523927 59.106968,23.6758174 59.106968,24.2785571 C59.106968,25.7934429 58.1792511,28.4480091 57.4293425,28.4480091" id="Fill-9" fill="#FFFFFF"/>
            <path d="M19.3610548,11.8258037 C19.3610548,13.3562603 19.9477215,14.6606895 21.3646621,14.6606895 C22.7951644,14.6606895 23.5988174,13.2984977 24.3356667,11.4802329 L23.8720594,11.2386347 C23.2954384,12.5169452 22.5872192,13.2753927 21.7554384,13.2753927 C21.006032,13.2753927 20.729274,12.4943425 20.729274,11.5163973 L20.729274,11.2712831 C22.6510091,10.9618767 23.6299589,9.39977626 23.6299589,8.2420137 C23.6299589,7.49260731 23.2211005,6.90543836 22.4068995,6.90543836 C20.5826073,6.90543836 19.3610548,9.61073516 19.3610548,11.8258037 M22.2758037,7.91703653 C22.4410548,7.91703653 22.5379954,8.07826941 22.5379954,8.32388584 C22.5379954,8.92662557 21.9990457,10.0497306 20.7779954,10.6539772 C20.9743881,9.30132877 21.6102785,7.91703653 22.2758037,7.91703653" id="Fill-11" fill="#FFFFFF"/>
            <g id="Group-15" transform="translate(77.853881, 7.411539)">
                <mask id="mask-2" fill="white">
                    <use xlink:href="#path-1"/>
                </mask>
                <g id="Clip-14"/>
                <path d="M31.8447991,18.3457397 C31.8447991,14.545968 30.4956667,11.0616301 28.2534749,8.34277169 C29.0239772,7.49391324 29.5061689,6.37784018 29.5061689,5.14071689 C29.5061689,2.50071689 27.3654384,0.360990868 24.7264429,0.360990868 C22.7765799,0.360990868 21.1034749,1.53331963 20.362105,3.20692694 C19.0079498,2.82418721 17.5839772,2.60820548 16.1077671,2.60820548 C14.6320594,2.60820548 13.208589,2.82318265 11.8569452,3.20692694 C11.1150731,1.53231507 9.44397717,0.360990868 7.49361187,0.360990868 C4.85411416,0.360990868 2.71137443,2.50071689 2.71137443,5.14071689 C2.71137443,6.3803516 3.19557534,7.49592237 3.96758447,8.34578539 C1.72539269,11.0646438 0.373246575,14.545968 0.373246575,18.3457397 L31.8447991,18.3457397 Z M24.7264429,2.24405023 C26.3267169,2.24405023 27.6226073,3.54044292 27.6226073,5.13870776 C27.6226073,6.74099087 26.3267169,8.03738356 24.7264429,8.03738356 C23.1246621,8.03738356 21.829274,6.74099087 21.829274,5.13870776 C21.829274,3.54044292 23.1246621,2.24405023 24.7264429,2.24405023 Z M18.415758,14.3711735 C18.7286804,14.3711735 18.9823333,14.7795297 18.9823333,15.2913562 C18.9823333,15.7991644 18.7286804,16.2125434 18.415758,16.2125434 C18.1013288,16.2125434 17.8471735,15.7991644 17.8471735,15.2913562 C17.8471735,14.7795297 18.1013288,14.3711735 18.415758,14.3711735 Z M13.8017854,14.3711735 C14.1172192,14.3711735 14.3713744,14.7795297 14.3713744,15.2913562 C14.3713744,15.7991644 14.1172192,16.2125434 13.8017854,16.2125434 C13.4898676,16.2125434 13.2357123,15.7991644 13.2357123,15.2913562 C13.2357123,14.7795297 13.4898676,14.3711735 13.8017854,14.3711735 Z M7.49361187,2.24405023 C9.09388584,2.24405023 10.389274,3.54044292 10.389274,5.13870776 C10.389274,6.74099087 9.09388584,8.03738356 7.49361187,8.03738356 C5.89132877,8.03738356 4.59543836,6.74099087 4.59543836,5.13870776 C4.59543836,3.54044292 5.89132877,2.24405023 7.49361187,2.24405023 Z" id="Fill-13" fill="#FFFFFF" mask="url(#mask-2)"/>
            </g>
            <path d="M85.347242,13.9041005 C86.0936347,13.9041005 86.6988858,13.2998539 86.6988858,12.5519543 C86.6988858,11.8030502 86.0936347,11.1983014 85.347242,11.1983014 C84.600347,11.1983014 83.9940913,11.8030502 83.9940913,12.5519543 C83.9940913,13.2998539 84.600347,13.9041005 85.347242,13.9041005" id="Fill-16" fill="#FFFFFF"/>
            <path d="M102.580374,13.9041005 C103.326767,13.9041005 103.931516,13.2998539 103.931516,12.5519543 C103.931516,11.8030502 103.326767,11.1983014 102.580374,11.1983014 C101.833479,11.1983014 101.227726,11.8030502 101.227726,12.5519543 C101.227726,13.2998539 101.833479,13.9041005 102.580374,13.9041005" id="Fill-18" fill="#FFFFFF"/>
            <path d="M73.2674338,1.88290868 L73.2674338,31.6472009" id="Stroke-20" stroke="#FFFFFF" stroke-width="0.75"/>
        </g>
    </g>
</svg>