<?xml version="1.0" encoding="UTF-8"?>
<svg width="40px" height="40px" viewBox="0 0 40 40" version="1.1" xmlns="http://www.w3.org/2000/svg" xmlns:xlink="http://www.w3.org/1999/xlink">
    <!-- Generator: Sketch 48.2 (47327) - http://www.bohemiancoding.com/sketch -->
    <title>Veja_(brand) (2)</title>
    <desc>Created with Sketch.</desc>
    <defs/>
    <g id="Homepage-V2" stroke="none" stroke-width="1" fill="none" fill-rule="evenodd" transform="translate(-956.000000, -2328.000000)">
        <g id="9_CONTENT_SHOWCASES" transform="translate(-1271.000000, 1151.000000)" fill="#FFFFFF" fill-rule="nonzero">
            <g id="Showcases" transform="translate(1484.000000, 408.000000)">
                <g id="Logos-Block" transform="translate(176.000000, 769.000000)">
                    <g id="Veja_(brand)-(2)" transform="translate(567.000000, 0.000000)">
                        <polygon id="Shape" points="29.3191837 30.8946939 28.7102041 29.7077551 28.1061224 30.8946939"/>
                        <path d="M23.9036735,21.2065306 L15.3768163,21.2065306 L8.14791837,9.90481633 L14.7820408,9.90481633 L19.704,17.7941224 L24.741551,8.8724898 C26.0532245,6.54873469 27.947102,6.7124898 28.723102,6.7124898 L32.1043265,6.7124898 L23.9035102,21.2063673 L23.9036735,21.2065306 Z M30.4391837,33.1281633 L29.9397551,32.1320816 L27.4759184,32.1320816 L26.9688163,33.1281633 L25.5666939,33.1281633 L28.7041633,26.9260408 L31.8497959,33.1281633 L30.44,33.1281633 L30.4391837,33.1281633 Z M24.4571429,30.8506122 C24.4571429,31.3500408 24.4217143,31.7673469 24.1854694,32.2138776 C23.8700408,32.7822041 23.3002449,33.1562449 22.676898,33.2537143 C22.676898,33.2537143 22.3675102,33.3110204 21.9859592,33.2537143 C20.9082449,33.0907755 20.2592653,32.2396735 20.2243265,31.1536327 L21.4690612,31.1536327 C21.4844082,31.5361633 21.6257959,31.8293878 21.9859592,31.9903673 C21.9859592,31.9903673 22.3453061,32.1142857 22.676898,31.9903673 C23.168,31.7946122 23.1957551,31.3758367 23.1957551,30.9134694 L23.1957551,27.1942857 L24.4573061,27.1942857 L24.4573061,30.851102 L24.4571429,30.8506122 Z M19.1444898,28.4391837 L16.1395918,28.4391837 L16.1395918,29.5425306 L18.0342857,29.5425306 L18.0342857,30.7880816 L16.1395918,30.7880816 L16.1395918,31.8829388 L19.1444898,31.8829388 L19.1444898,33.1283265 L14.8857143,33.1283265 L14.8857143,27.192 L19.1444898,27.192 L19.1444898,28.4380408 L19.1444898,28.4391837 Z M10.5608163,33.4040816 L7.40685714,27.1934694 L8.81665306,27.1934694 L10.5671837,30.6337959 L12.3057959,27.1934694 L13.7079184,27.1934694 L10.5608163,33.4040816 Z M36.3534694,0.163265306 L3.15673469,0.163265306 L0.162285714,3.20310204 L0.162285714,36.9108571 L3.15673469,39.9505306 L36.3534694,39.9505306 L39.3461224,36.9105306 L39.3461224,3.20277551 L36.3534694,0.162938776 L36.3534694,0.163265306 Z" id="Shape"/>
                    </g>
                </g>
            </g>
        </g>
    </g>
</svg>